<svg xmlns="http://www.w3.org/2000/svg" viewBox="0 0 122 121" xmlns:v="https://vecta.io/nano"><style><![CDATA[.B{stroke:#9b6e62}.C{stroke:#564657}.D{stroke:#886b65}.E{stroke:#c3a28b}.F{fill:#4c4b60}.G{fill:#404862}.H{fill:#8d554d}.I{fill:#dcbd9f}.J{stroke:#674f58}.K{stroke:#354160}.L{stroke:#2f3f61}.M{fill:#664e54}.N{fill:#edd6b1}.O{stroke:#7391a6}.P{stroke:#75686c}.Q{stroke:#e1b48d}.R{stroke:#7b696b}.S{stroke:#6d5057}.T{stroke:#7a5251}.U{stroke:#a1867a}.V{fill:#d49268}.W{fill:#1e3660}.X{fill:#05103f}.Y{fill:#7b9d9f}.Z{stroke:#7eb0ba}.a{stroke:#e9c8b1}.b{stroke:#9d705e}.c{stroke:#cbaf94}.d{stroke:#b58976}.e{stroke:#493346}.f{stroke:#122350}.g{stroke:#4d6a80}.h{stroke:#464a61}.i{fill:#3c9ad6}.j{fill:#a98776}]]></style><g fill="none" stroke-width="2"><path vector-effect="non-scaling-stroke" d="M117.29 83.82q-1.72-.76-3.41-.46" class="Z"/><path stroke="#5c9cbb" vector-effect="non-scaling-stroke" d="M113.88 83.36q.35-1.5-.25-2.53-.29-.5-.85-.36-1.37.36-1.22-.02"/><path stroke="#2d689b" vector-effect="non-scaling-stroke" d="M111.56 80.45q.14-3.58-.68-7.69-.43-2.13.09-4.02 1.54-5.51 3.14-10.96"/><path stroke="#44739b" vector-effect="non-scaling-stroke" d="M114.11 57.78q1.65-7.44-2.11-13.7"/><path stroke="#657892" vector-effect="non-scaling-stroke" d="M112 44.08q-2.05-.69-4.23-1.59-2.01-.83-3.73-2.43c-4.22-3.92-7.16-7.21-11.41-9.13"/><path stroke="#748194" vector-effect="non-scaling-stroke" d="M92.63 30.93l-2.33-.61"/><path stroke="#9dcce8" vector-effect="non-scaling-stroke" d="M90.3 30.32l-10.28.36"/><path vector-effect="non-scaling-stroke" d="M80.02 30.68q.66.32-.25-.06" class="O"/><path stroke="#95b8c4" vector-effect="non-scaling-stroke" d="M79.77 30.62l-1.7-.65a1.34 1.33 47.3 0 0-.87-.04q-3.32.94-6.73.35a1.44 1.4 31.9 0 0-1.02.22q-2.64 1.79-5.84 1.9-.54.02-.96.35L48.29 43.73"/><path vector-effect="non-scaling-stroke" d="M48.29 43.73q-3.01-2.23-6.27-.21" class="O"/><path stroke="#8cacbb" vector-effect="non-scaling-stroke" d="M42.02 43.52q-3.02-1.31-6.4 1.56"/><path vector-effect="non-scaling-stroke" d="M35.62 45.08l-6.44 5.6" class="O"/><path stroke="#517495" vector-effect="non-scaling-stroke" d="M29.18 50.68c-14.54.41-9.4-18.86-4.16-25.91q.55-.74.25-1.16"/><path stroke="#9dcce8" vector-effect="non-scaling-stroke" d="M25.27 23.61q.36-.43.38-.69.03-.46-.35-.22l-1.44.91"/><path stroke="#3e719c" vector-effect="non-scaling-stroke" d="M23.86 23.61q-5.67 4.67-8.54 11.64c-4.06 9.86-2.73 24.22 10.45 25.79q.29.04.36-.25l.06-.25"/><path stroke="#8cacbb" vector-effect="non-scaling-stroke" d="M26.19 60.54l.02.88"/><path stroke="#517495" vector-effect="non-scaling-stroke" d="M26.21 61.42q-1.09 1.84-.39 3.27"/><path stroke="#3e719c" vector-effect="non-scaling-stroke" d="M25.82 64.69q-1.24 2.43.17 3.81"/><path vector-effect="non-scaling-stroke" d="M25.99 68.5l-2 7.34" class="O"/><path stroke="#44739b" vector-effect="non-scaling-stroke" d="M23.99 75.84c-1.02 2.51-2.01 7.03-4.67 8.1"/><path vector-effect="non-scaling-stroke" d="M19.32 83.94q-1.53-.21-1.2-.75 1.11-1.84 2.64-3.32.15-.15.04-.34-.08-.13-.23-.16-.16-.04-.37.13-1.82 1.49-3.43 3.26-.35.39-.72.02l-.41-.41a.44.43 23.5 0 0-.74.29l-.04.82q-.04.97-.42.08c-.89-2.09-3.23-5.3-5.66-6.08q-.82-.27-.1.21c2.15 1.44 4.71 3.87 3.68 6.76q-.16.47-.65.58l-5.88 1.31" class="Z"/><path vector-effect="non-scaling-stroke" d="M12.63 76.22q0-.02 0-.03 0-.07-.06-.05-.07.03-.23.1a.1.1 0 0 0-.05.15q1.75 2.47 1.94 5.44.04.62.5.2.26-.23.22-.56-.35-2.76-2.31-5.2-.01-.02-.01-.05m4.43 3.66l.88-1.41q.3-.5-.24-.15-.25.15-.32.46-1.41 1.27-1.14 3.22a.32.32 0 0 0 .64-.03l.05-1.64a.88.83-30.4 0 1 .13-.45" stroke="#5c9cbb"/><path stroke="#b2a6a7" vector-effect="non-scaling-stroke" d="M25.27 23.61l-3.68 4.98"/><path vector-effect="non-scaling-stroke" d="M21.59 28.59q-5.42 6.64-5.09 15.45" class="a"/><path stroke="#f6ead6" vector-effect="non-scaling-stroke" d="M16.5 44.04q-.09 8 7.04 10.39.48.16.06.43-.41.27-.87.12-1.76-.56-3.32-.19-.48.12-.79-.26l-4.26-5.18"/><path stroke="#9fa3ae" vector-effect="non-scaling-stroke" d="M14.36 49.35q-2.03-14.16 9.5-25.74"/><path stroke="#978f8a" vector-effect="non-scaling-stroke" d="M14.36 49.35q1.12 6.55 6.08 9.18"/><path stroke="#8a6d65" vector-effect="non-scaling-stroke" d="M20.44 58.53q3.15 1.28 6.08.36"/><path vector-effect="non-scaling-stroke" d="M26.52 58.89l.63-.54q.25-.22.28.12.02.15.07.33" class="P"/><path stroke="#8e8381" vector-effect="non-scaling-stroke" d="M27.5 58.8l-1.31 1.74"/><path vector-effect="non-scaling-stroke" d="M29.18 50.68q-.61.57-.17.49" class="D"/><path stroke="#aa9283" vector-effect="non-scaling-stroke" d="M29.01 51.17q-9.39-.26-10.15-9.84"/><path vector-effect="non-scaling-stroke" d="M18.86 41.33q.28-6.07 2.73-12.74" class="b"/><path vector-effect="non-scaling-stroke" d="M18.86 41.33q-1.34.13-1.62 2.74-.05.52-.46.2l-.28-.23" class="Q"/><path vector-effect="non-scaling-stroke" d="M79.77 30.62l-5.2 1a1.05 1.02-39.2 0 1-.58-.05q-3.18-1.17-5.85.84a1.12 1.05-63.3 0 1-.57.21l-3.94.28q-.54.04-.94.42c-2.27 2.17-5.07 3.2-7.19 5.27q-2.63 2.55-5.37 5.02-.67.6.21.43 1.34-.26 1.94.97.36.73-.36.36-2.41-1.23-4.53.07-.86.53-.24-.27l1.14-1.44" class="c"/><path stroke="#d5b2a6" vector-effect="non-scaling-stroke" d="M90.3 30.32l-3.81 1.32"/><path stroke="#d4c2b8" vector-effect="non-scaling-stroke" d="M86.49 31.64q-2.29.64-4.92-.69a.61.61 0 0 0-.88.53q0 .66.58 1.25"/><path stroke="#c6a9a4" vector-effect="non-scaling-stroke" d="M81.27 32.73l1.8 2.87"/><path vector-effect="non-scaling-stroke" d="M83.07 35.6c2.07 7.8 3.18 16.06-1.79 22.89" class="a"/><path stroke="#f6ead6" vector-effect="non-scaling-stroke" d="M81.28 58.49c-2.36 1.84-11.7 7.42-14.62 5.34q-.65-.46.13-.67l5.7-1.49q.87-.23.07-.64l-7.54-3.83"/><path vector-effect="non-scaling-stroke" d="M65.02 57.2l1.27-.72" class="a"/><path stroke="#8e9aad" vector-effect="non-scaling-stroke" d="M66.29 56.48c6.77 5.46 14.55.33 16.05-7.43"/><path stroke="#c6a9a4" vector-effect="non-scaling-stroke" d="M82.34 49.05q1.19-4.28.27-9.01"/><path stroke="#d4c2b8" vector-effect="non-scaling-stroke" d="M82.61 40.04l-2.59-9.36"/><path stroke="#9d5e4f" vector-effect="non-scaling-stroke" d="M92.63 30.93q.42.97 2.37 2.03 3.64 1.98 11.05 10.19"/><path stroke="#ab7764" vector-effect="non-scaling-stroke" d="M106.05 43.15c-2.12-.69-5.83 0-4.62 2.82"/><path stroke="#895b53" vector-effect="non-scaling-stroke" d="M101.43 45.97q-.28-.41-.59-.53-.32-.13-.6.18-.18.21-.44.56"/><path stroke="#c49278" vector-effect="non-scaling-stroke" d="M99.8 46.18c.03-1.77-.32-2.9-2.32-2.94q-3.87-.07-7.43 1.28a1.34 1.29-42.8 0 1-.94-.02l-1.06-.45"/><path stroke="#9d5e4f" vector-effect="non-scaling-stroke" d="M88.05 44.05q.01-1.19-.69-1.5"/><path stroke="#ab7764" vector-effect="non-scaling-stroke" d="M87.36 42.55l6.35-2.46a1.22 1.22 0 0 0 .48-1.94q-1.78-2.05-4.41-2.46a.35.35 0 0 1-.04-.69q2.93-.77 4.58 1.67a.31.31 0 0 0 .56-.19c-.05-.84-.52-1.67-1.35-2.07q-3.24-1.56-7.04-2.77"/><path vector-effect="non-scaling-stroke" d="M82.61 40.04q-.93.64-1.8-1.04-.74-1.45-.78-3.06-.01-.5-.29-.91-.97-1.38-2.36-.57a.93.92-15.6 0 0-.45.79l-.01 2.15" class="B"/><path vector-effect="non-scaling-stroke" d="M76.92 37.4q-1.14-1.62-2.16-1.88-.52-.13-.74.35-.63 1.35-.05 2.62" class="R"/><path vector-effect="non-scaling-stroke" d="M73.97 38.49q-.24.56-1.13.04" class="B"/><path vector-effect="non-scaling-stroke" d="M72.84 38.53q-3.57-2.51-5.47-.05" class="D"/><path vector-effect="non-scaling-stroke" d="M67.37 38.48q-2.62-.82-4.19 1.37a1.2 1.2 0 0 1-.86.49q-1.06.1-1.96.7-.41.28-.52.77-.42 2.06-2.11 2.56" class="B"/><path stroke="#645f6b" vector-effect="non-scaling-stroke" d="M57.73 44.37q-1.4-.19-2.66.03-1.47.25.02.29 3.15.09 5.56 3.74"/><path vector-effect="non-scaling-stroke" d="M60.65 48.43q-1.98 1.5-4.9 1.39-.52-.02-.75.44-.62 1.31-.61 2.62" class="B"/><path vector-effect="non-scaling-stroke" d="M54.39 52.88q.69-1.82-3.5-3.23" class="E"/><path vector-effect="non-scaling-stroke" d="M50.89 49.65q-1.74.88-4.27-2.46-.14-.18-.34-.08-.12.06-.24.12a.3.3 0 0 0-.04.51q3.67 2.62 2.99 7.26-.07.51-.53.75l-.89.44q-.22.12-.06.3l3.31 3.69q.42.47-.18.66l-3.54 1.13" class="D"/><path vector-effect="non-scaling-stroke" d="M47.1 61.97q1.37-1.7.36-2.34-1.11-.7-2.49-1.2a.88.88 0 0 0-.99.27q-2.03 2.52-2.27 5.82a.52.52 0 0 0 .89.39q.87-.92 2.43-1.32" class="E"/><path vector-effect="non-scaling-stroke" d="M45.03 63.59q-.51 1.63-2.7 2.99" class="D"/><path vector-effect="non-scaling-stroke" d="M42.33 66.58q-1.16-.1-1.12-.59.14-1.64-.45-2.61" class="B"/><path vector-effect="non-scaling-stroke" d="M40.76 63.38q.47-.68.38-1.21-.09-.58-.66-.43l-1.13.29a.47.47 0 0 1-.58-.55c1.26-5.85 7.7-4.13 7.25-11.44q-.03-.4-.26-.53-.47-.25-.58.26l-.74 3.36a.55.52-14.5 0 1-.19.3l-5.88 4.48a.54.5 82.3 0 0-.16.23q-.7 1.89-2.11 3.32-.41.41-.41.98-.04 3.46-2.93 5.12-.46.26-.7.73-1.61 3.17-1.36 6.72.04.63.57.28 2.46-1.59 2.98-4.5.08-.43.45-.67 2.93-1.89 4.82-4.75" class="E"/><path vector-effect="non-scaling-stroke" d="M39.52 65.37c.06 1.38-.04 2.32-1.05 3.41q-2.85 3.05-1.96 6.77" class="B"/><path vector-effect="non-scaling-stroke" d="M36.51 75.55l-3.83 5.27q-.38.53-.48-.11l-.39-2.4a.47.47 0 0 0-.93-.02q-.71 3.56.76 6.95" class="P"/><path vector-effect="non-scaling-stroke" d="M31.64 85.24l-.35 6.31q-.05.93.56.22l1.35-1.55a.5.5 0 0 1 .88.3l.05.76a.34.33-28.1 0 0 .6.18l.24-.32a.55.55 0 0 1 .95.13q.93 2.36-.92 3.4-.89.51-.78-.51l.09-.8q.07-.57-.48-.75-.53-.16-.84.45-1.09 2.14-3.54 2.2" class="B"/><path stroke="#574c5b" vector-effect="non-scaling-stroke" d="M29.45 95.26c-1.48-1.34.07-3.99.59-5.64"/><path stroke="#92928b" vector-effect="non-scaling-stroke" d="M30.04 89.62l-.67-1.95"/><path stroke="#574c5b" vector-effect="non-scaling-stroke" d="M29.37 87.67q-2.45.34-4.79 2.25-.43.35-.87.01l-.87-.7q-.5-.4-.82.15l-.13.23q-.34.57-.64-.01-.29-.56-.8-.91"/><path vector-effect="non-scaling-stroke" d="M20.45 88.69q-.16-.15-.08-.41" class="R"/><path vector-effect="non-scaling-stroke" d="M20.37 88.28q.81-2.28 3.27-.44.39.29.87.21 3.8-.65 5.38-4.01a.68.68 0 0 0-.14-.78l-.27-.27q-.21-.22-.37.05-1.56 2.72-4.56 3.88a2.14 2.14 0 0 1-2.51-3.23l.94-1.33q.19-.27-.1-.43-.15-.09-.34-.02" class="E"/><path vector-effect="non-scaling-stroke" d="M22.54 81.91q.14-.28.58-.37" class="R"/><path vector-effect="non-scaling-stroke" d="M23.12 81.54q.08.27.2.42.13.17.4.12.97-.17 1.32-1.31a.38.38 0 0 0-.62-.4l-1.3 1.17" class="E"/><path vector-effect="non-scaling-stroke" d="M23.12 81.54l.87-5.7" class="R"/><path vector-effect="non-scaling-stroke" d="M25.99 68.5q-.49-2.36.27-3.45" class="P"/><path vector-effect="non-scaling-stroke" d="M26.26 65.05q.08-.2.59.04" class="D"/><path vector-effect="non-scaling-stroke" d="M26.85 65.09l.39 2.57q.12.83.44.06.25-.6.23-1.26a.79.79 0 0 1 .22-.57l2.65-2.75q.36-.38.1-.83l-.24-.43q-.26-.43-.52 0-1.1 1.78-2.64 2.78" class="B"/><path vector-effect="non-scaling-stroke" d="M27.48 64.66q-.93-1.29-.69-2.24" class="D"/><path vector-effect="non-scaling-stroke" d="M26.79 62.42q.53.84 1.04.85.42.01.75-.7 1.03-2.23.67-4.8-.07-.5-.5-.24-.69.42-1.25 1.27" class="E"/><path stroke="#bf8d6f" vector-effect="non-scaling-stroke" d="M26.52 58.89q.43-1.36.25-1.93"/><path vector-effect="non-scaling-stroke" d="M26.77 56.96q.05-3.53 2.24-5.79" class="c"/><path vector-effect="non-scaling-stroke" d="M35.62 45.08q5.16-1.31 10.16-1.19a.24.23 66.8 0 0 .16-.41q-.93-.84-3.92.04" class="E"/><path vector-effect="non-scaling-stroke" d="M39.59 46.48q-.36-.93-1.34-.55-2.75 1.07-4.43 3.84-.31.5-.58-.01l-.15-.27a.45.45 0 0 0-.81.05l-.62 1.62q-.24.61-.84.36-.17-.07-.34-.14a.36.36 0 0 0-.5.32l-.14 3.32a.23.23 0 0 0 .45.08q1.16-3.25 3-4.35 3.19-1.92 4.32-3.19.33-.37.81-.47.89-.19 1.32.5.33.54.92.3l1.56-.62a1.02 1.01-47.4 0 1 .69-.03q2.24.73 2.12-.93a1.13 1.13 0 0 0-1.57-.96l-3.25 1.39a.47.46 67.1 0 1-.62-.26" class="P"/><path vector-effect="non-scaling-stroke" d="M31.38 64.63q-.96 1.91-1.13 3.44-.06.53-.52.79-3.61 2.09-3.44 6.5.03.76.55.2l1.21-1.31q.36-.39.31-.92-.25-2.62 2.16-3.5a1.01 1 86 0 0 .65-.76q.65-3.14 2.61-5.61.37-.45.48-1.03.39-2.14 2.13-3.47a.91.89-25.3 0 0 .33-.9q-1.01-4.67 2.29-7.78a.45.45 0 0 0-.5-.74q-5.04 2.44-3.85 7.83.11.49-.11.94-1.59 3.17-3.17 6.32m-2.85 17.76q.13 0 .24-.04.19-.07.25-.28.14-.43-.13-.82a.53.52 44 0 0-.87.01l-.62.94q-.56.86.38.47l.64-.26q.05-.02.11-.02" class="c"/><path vector-effect="non-scaling-stroke" d="M87.36 42.55q-1.22-6.08-5.79-10.37-.23-.22-.3.55" class="B"/><path vector-effect="non-scaling-stroke" d="M112 44.08l1.74 7.21a.31.31 0 0 1-.56.23c-.94-1.53-1.38-3.76-2.79-4.9q-.84-.68-1.73-1.32-1.31-.94-.33.33c2 2.58 3.75 5.35 3.56 8.48q-.03.34-.33.18-.14-.07-.24-.18-.16-.17-.2-.56-.24-2.12-1.11-3.22a1.6 1.6 0 0 0-2.65 1.76q.75 1.38-.06 2.95a1.16 1.15 48.3 0 0-.05.99c2.36 5.68-1.09 11.47-5.45 14.97" class="S"/><path vector-effect="non-scaling-stroke" d="M101.8 71q1.08-4.23 2.84-8.13c.82-1.82 2.33-1.77 1.33-4.31q-1.64-4.16-2.91-9.05-.47-1.86 1.29-2.61l2.65-1.13a.5.49-27.6 0 0 .23-.72l-1.18-1.9" class="B"/><path vector-effect="non-scaling-stroke" d="M88.05 44.05l.19 2.16" class="d"/><path stroke="#b1745b" vector-effect="non-scaling-stroke" d="M88.24 46.21l1.97 7.01q.12.44.58.53 4.03.78 5.47-3.04a1.08 1.05-47.3 0 0-.02-.84l-1.14-2.53"/><path vector-effect="non-scaling-stroke" d="M95.1 47.34q1.58-.64 2.22.95c.69 1.74 1.51 3.3 2.03 5.14q.13.47.36.04l2.2-4.01" class="T"/><path vector-effect="non-scaling-stroke" d="M101.91 49.46l.25 5.23q.01.15.13.25.1.08.22.15.15.09.21-.07l.2-.58a.4.4 0 0 1 .76.02q1.48 4.8-.8 9.02c-1.37 2.52-1.72 4.22-2 6.8q-.05.53.46.68.21.07.46.04" class="B"/><path vector-effect="non-scaling-stroke" d="M101.8 71q-.53.25-.78 1.19" class="S"/><path vector-effect="non-scaling-stroke" d="M101.02 72.19l-.52-.08q-.5-.08-.53-.59-.09-2.21.92-4.1.24-.45.11-.95l-2.47-9.2a.39.38 46.2 0 0-.74-.02c-1.98 6.45-4.16 15.03-12.99 13.82q-.49-.07-.77.35-1.52 2.31-1.18 4.12" class="J"/><path vector-effect="non-scaling-stroke" d="M82.85 75.54q.5 1.64.08 2.72-.27.68-.97.44l-3.3-1.15q-.75-.26-.39-.96.2-.42.72-.72" class="C"/><path vector-effect="non-scaling-stroke" d="M78.99 75.87q2.32-.08 2.89-2.22.13-.49.51-.84.84-.78.63-1.91-.08-.4.32-.48 2.52-.51 2.38-3.24" class="J"/><path vector-effect="non-scaling-stroke" d="M85.72 67.18q5.66.8 7.97-3.6.38-.73-.33-.33-3.36 1.9-6.76.66" class="C"/><path vector-effect="non-scaling-stroke" d="M86.6 63.91q-.43.25-1.11-.38" class="J"/><path vector-effect="non-scaling-stroke" d="M85.49 63.53q-.02-1.39-.72-2.87" class="C"/><path vector-effect="non-scaling-stroke" d="M84.77 60.66q3.78-5.23 2.65-9.82" class="e"/><path stroke="#b1745b" vector-effect="non-scaling-stroke" d="M87.42 50.84q.51-8.96-4.35-15.24"/><path vector-effect="non-scaling-stroke" d="M82.34 49.05l-1.06.22" class="C"/><path vector-effect="non-scaling-stroke" d="M81.28 49.27q1-2.14.6-4.11-.12-.6-.47-.1-.99 1.4-1.31 2.57-.33 1.22 1.31 1.69" class="d"/><path vector-effect="non-scaling-stroke" d="M81.41 49.32q-.38 2-1.69 3.69" class="C"/><path vector-effect="non-scaling-stroke" d="M79.72 53.01q-.65.88-1.08-.27a.49.46 43.1 0 1-.02-.3q.77-3.44-.56-6.87-.13-.31-.36-.45-.37-.23-.76-.36-.32-.1-.34-.44-.02-.6.49-.93.38-.25.48-.7.8-3.4-.65-5.29" class="S"/><path vector-effect="non-scaling-stroke" d="M79.72 53.01q-.37 1.56-1.41 1.91-.39.14-.67-.16-1.33-1.42-3-.68-.21.09-.36-.07l-.21-.22q-.3-.31-.65-.06-2.78 2.02-6.16 1.29-.47-.1-.62-.56l-1.05-3.15" class="K"/><path vector-effect="non-scaling-stroke" d="M65.59 51.31c4.69.9 4.46-3.96 6.25-6.86q1.6-2.61 2.13-5.96" class="S"/><path stroke="#6d5154" vector-effect="non-scaling-stroke" d="M87.42 50.84q-2.38 13.19-13.8 17"/><path stroke="#796464" vector-effect="non-scaling-stroke" d="M73.62 67.84q-5.65.17-10.59-1.33"/><path vector-effect="non-scaling-stroke" d="M63.03 66.51q-2.34-5.44-4.03-2.06" class="b"/><path stroke="#796464" vector-effect="non-scaling-stroke" d="M59 64.45q-2.74-5.12 2-8.46 3.17-2.24 5.29.49"/><path vector-effect="non-scaling-stroke" d="M65.02 57.2q-2.18-.48-3.48 2.08-.23.45.23.68l1.59.8" class="Q"/><path stroke="#d8a884" vector-effect="non-scaling-stroke" d="M63.36 60.76q-.04.22-.45.32"/><path vector-effect="non-scaling-stroke" d="M62.91 61.08q-.69-.41-1.47 0-.48.25-.33.77.79 2.85 3.92 2.99 2.89.12 7.76-.31 3.15-.28 4.98-1.77 2.1-1.72 3.51-4.27" class="Q"/><path vector-effect="non-scaling-stroke" d="M72.84 38.53l-2.27 3.03q-.34.46-.41 1.02-.3 2.56-2.95 2.01a.8.79 27.4 0 0-.76.24l-.73.77a.41.41 0 0 1-.7-.37q.49-2.14 2.49-3.14a.99.97-7.4 0 0 .52-.66q.36-1.55-1-1.74-.44-.07-.1-.36.79-.66.44-.85" class="T"/><path vector-effect="non-scaling-stroke" d="M65.59 51.31l-2.74-4.81a.83.83 0 0 0-.86-.4q-2.97.5-4.26-1.73" class="C"/><path vector-effect="non-scaling-stroke" d="M26.77 56.96l-5.59.47q-.31.03-.13.28l.14.21q.23.34-.16.45l-.59.16" class="Q"/><path vector-effect="non-scaling-stroke" d="M101.91 49.46q.21-1.79-.48-3.49" class="D"/><path vector-effect="non-scaling-stroke" d="M99.8 46.18q-1.25-.66-2.46-.54" class="U"/><path stroke="#d8a884" vector-effect="non-scaling-stroke" d="M97.34 45.64q-3.67-.96-6.43.95-.4.28-.78-.02-.86-.68-1.89-.36"/><path stroke="#7d7a80" vector-effect="non-scaling-stroke" d="M81.41 49.32q-.07-.02-.13-.05"/><path stroke="#42425a" vector-effect="non-scaling-stroke" d="M59 64.45q.72 1.7 4.03 2.06"/><path vector-effect="non-scaling-stroke" d="M73.62 67.84q6.55-.64 11.15-7.18" class="f"/><path vector-effect="non-scaling-stroke" d="M85.49 63.53l-.39 3.19a1.08 1.07 79.9 0 1-.57.82l-3.1 1.65a.93.91-16.9 0 0-.49.9q.25 2.57-1.7 4.28a1.03 1.02-25.5 0 0-.34.95l.09.55m3.86-.33q1.26-.8 1.68 2.11a1.11 1.09 77.9 0 0 1.39.91l6.46-1.83q.47-.13.55.35.2 1.19.97 1.41" class="L"/><path vector-effect="non-scaling-stroke" d="M93.9 78.49q.05.06.11.13" class="K"/><path vector-effect="non-scaling-stroke" d="M94.01 78.62q-2.24 1.78-3.1 3.84" class="f"/><path vector-effect="non-scaling-stroke" d="M90.91 82.46l-5.65.28q-.48.02-.82.37c-2.78 2.87-10.66 3.43-13.2 2.94q-3.31-.64-5.08-.53-.73.05-.49-.64.5-1.41-.52-2.6-.26-.29-.3.09l-.33 2.71a.81.81 0 0 1-1.55.23q-.64-1.44-2.17-1.87-.44-.12-.83.11l-.83.52q-.38.23-.03.5l2.58 2a.79.78-28.8 0 1-.41 1.4c-3.16.29-7.69 2.07-10.36.08" class="g"/><path vector-effect="non-scaling-stroke" d="M50.92 88.05q-.04-.18-.04-.32 0-.51.5-.48 4.57.23 5.04-4.22.06-.5-.2-.93-2.07-3.46.49-6.76.3-.39.2-.87l-.38-1.96a.66.66 0 0 0-1.22-.21l-1.78 2.94a1.33 1.33 0 0 1-2.09.24q-.81-.83-2.25-.07-2.26 1.2-4.97 1.89a1.11 1.09-83.1 0 0-.72.58q-1.75 3.57-4.55 6.24-.44.42-.58.9-.25.95.06 1.16" class="L"/><path vector-effect="non-scaling-stroke" d="M38.43 86.18l-.66 2.81q-.16.71-.32 0L36.3 84a.91.9 62.8 0 1 .27-.86l5.47-5.1q.44-.41.07-.88-.41-.53-.62-1.22-.17-.53.19-.96 1.31-1.51 4.04-.91 2.53.54 4.95-1.9 3.3-3.32-.69-3.39" class="C"/><path vector-effect="non-scaling-stroke" d="M49.98 68.78q2.18-1.38 1.04-1.95" class="f"/><path stroke="#42425a" vector-effect="non-scaling-stroke" d="M51.02 66.83q.86.38 1.4.24.53-.13.61-.97.14-1.41-.59-2.36a1.3 1.29 63.5 0 1 .68-2.04q2.5-.7 2.14-3.21-.08-.56-.61-.78-3.47-1.45-2.88-4.51"/><path stroke="#7d7a80" vector-effect="non-scaling-stroke" d="M51.77 53.2q.04-1.21.33-1.63a.48.48 0 0 1 .87.18l.65 3.45q.11.59.62.26.62-.41.52-1.69"/><path vector-effect="non-scaling-stroke" d="M54.76 53.77q.27-.18.34-.48.1-.46.5-.19l2.76 1.87q.31.21.63 0 2.57-1.7 5.67-1.3.53.07.4-.46-.98-3.79-4.41-4.78" class="C"/><path stroke="#645f6b" vector-effect="non-scaling-stroke" d="M62.61 71.33l1.86 1.52q.44.36.63.88.91 2.48 2.93 4.14.39.31.89.3l7.58-.19a.23.23 0 0 0 .1-.43q-4.47-2.48-8.93-4.62c-1.86-.9-3.05-2.97-5.73-2.85a.5.49 57.8 0 0-.21.93q.19.1.4.12.27.02.48.2"/><path vector-effect="non-scaling-stroke" d="M74.77 82.8q-.83.57-1.23 1.64-.19.51.34.6 4.09.67 7.33-1.6a.43.43 0 0 0-.23-.78q-2.09-.06-4.39-.22-1.19-.07-1.82.36" class="C"/><path vector-effect="non-scaling-stroke" d="M114.11 57.78q-1.93-3.63-2.28 2.79-.28 5.27-4.85 10.87-.29.36-.75.42-.73.1-1.06.71c-1.02 1.9-2.81 3.52-4.5 4.57" class="K"/><path vector-effect="non-scaling-stroke" d="M100.67 77.14q-2.06-4.2.35-4.95" class="h"/><path vector-effect="non-scaling-stroke" d="M97.34 45.64q-3.61-.29-2.24 1.7" class="b"/><path vector-effect="non-scaling-stroke" d="M50.89 49.65q.13 2.49.88 3.55" class="U"/><path stroke="#362f4a" vector-effect="non-scaling-stroke" d="M51.02 66.83q-1.85-1.02-3.15.47a1.36 1.32-73 0 1-.82.45c-1.22.16-3.1.95-2.88 2.47q.1.69.49.11.43-.65 1.09-.93"/><path vector-effect="non-scaling-stroke" d="M45.75 69.4q.33 1.17 1.27 2.07a.4.39-25 0 1-.25.68l-3.55.24a.35.35 0 0 1-.28-.59q2.35-2.52-.61-5.22" class="T"/><path vector-effect="non-scaling-stroke" d="M45.03 63.59l2.07-1.62" class="U"/><path vector-effect="non-scaling-stroke" d="M54.76 53.77l-.37-.89m-13.63 10.5l-1.24 1.99" class="d"/><path vector-effect="non-scaling-stroke" d="M111.56 80.45q-1.44 1.37-2.6 1.82a.58.56 40.4 0 1-.33.02l-5.34-1.39a.32.29 2.2 0 1-.22-.22q-.05-.18.03-.31" class="g"/><path vector-effect="non-scaling-stroke" d="M103.1 80.37q1.88-1.25 3.95-1.61.4-.07.17-.4-.28-.39-.73-.33-1.93.25-3.76 1.88" class="K"/><path vector-effect="non-scaling-stroke" d="M102.73 79.91q-.75.81-1.06-.34a.74.74 0 0 1 .09-.58l.88-1.36q.53-.83-.26-.25-1.04.76-1.54 1.92a.52.52 0 0 1-.98-.34l.38-1.45" class="g"/><path vector-effect="non-scaling-stroke" d="M100.24 77.51q.09 0 .43-.37" class="L"/><path stroke="#5e7381" vector-effect="non-scaling-stroke" d="M100.24 77.51q-.22-.19-.36-.51-.19-.42-.43-.02l-.9 1.5q-.25.42-.66.69c-1.49.96-1.94 2.56-4.07 2.61"/><path stroke="#232c51" vector-effect="non-scaling-stroke" d="M93.82 81.78l1.15-2.41"/><path vector-effect="non-scaling-stroke" d="M94.97 79.37q0 .24.03.41a.44.44 0 0 0 .73.23l1.03-1q.43-.41-.01-.81-1.38-1.25-1.58-.52" class="h"/><path vector-effect="non-scaling-stroke" d="M95.17 77.68l-.11-.27q-.09-.22-.32-.3-.73-.23-.7.22.04.49.46.75l.34.2" class="L"/><path vector-effect="non-scaling-stroke" d="M94.84 78.28q-.83-.09-.94.21m3.06-2.08l.19.95q.12.62.58.19.28-.28.09-.82-.28-.81-1.54-2.33a.17.17 0 0 0-.3.07q-.19.89.69 1.5a.68.67 12.2 0 1 .29.44" class="h"/><path stroke="#e5caa8" vector-effect="non-scaling-stroke" d="M62.91 61.08q1.78 1.34 3.68.85 1.17-.3-.02-.54l-3.21-.63"/><path vector-effect="non-scaling-stroke" d="M26.79 62.42l-.58-1" class="U"/><path vector-effect="non-scaling-stroke" d="M27.48 64.66q-.37.6-.63.43" class="T"/><path stroke="#534b5b" vector-effect="non-scaling-stroke" d="M26.26 65.05q-.2-.33-.44-.36"/><path vector-effect="non-scaling-stroke" d="M85.72 67.18q1.05-1.51.88-3.27" class="L"/><path vector-effect="non-scaling-stroke" d="M45.75 69.4l4.23-.62" class="e"/><path vector-effect="non-scaling-stroke" d="M38.43 86.18q1.53 2.05-.56 5.93" class="J"/><path stroke="#847976" vector-effect="non-scaling-stroke" d="M37.87 92.11q.59.57-1.63 3.27"/><path stroke="#a78d76" vector-effect="non-scaling-stroke" d="M36.24 95.38q-2.88 1.29-6.69.44"/><path vector-effect="non-scaling-stroke" d="M29.55 95.82q.19-.42-.1-.56" class="e"/><path vector-effect="non-scaling-stroke" d="M31.64 85.24q1.27.71 1.58 2.25.08.43.38.12.13-.14.13-.38-.01-1.49-.43-4.65a1 .99 60.1 0 1 .19-.72l4.34-5.66a.39.38 7.8 0 0-.45-.59q-.31.12-.87-.06" class="J"/><path stroke="#5e7381" vector-effect="non-scaling-stroke" d="M50.92 88.05c-.7-.58-1.33-.76-2.24-.42q-5.61 2.1-10.81 4.48"/><path stroke="#948480" vector-effect="non-scaling-stroke" d="M22.54 81.91l-3.05 2.92"/><path stroke="#86887f" vector-effect="non-scaling-stroke" d="M19.49 84.83q-.72-.06-.17-.89"/><path stroke="#647480" vector-effect="non-scaling-stroke" d="M102.73 79.91q.39.1.37.46"/><path stroke="#9eb19f" vector-effect="non-scaling-stroke" d="M113.88 83.36q-2.7-.19-4.03 2.03-.28.48-.81.32-2.23-.67-4.46-.48-2.89.25-4.4.06-6.69-.85-13.44-.11-.2.02-.3.17a.25.24-65.8 0 0 .14.38l1.46.34a.33.33 0 0 1-.03.64l-18.83 2.61a.83.83 0 0 0-.11 1.62l1.21.34q.6.17.01.37-.24.09-.55.06-2.5-.26-5.05-.52-.59-.06-1.07.28l-1.33.95q-.49.35-1 .03-1.22-.75-2.52.26a.27.27 0 0 1-.38-.38l1.2-1.64a.57.56-71.3 0 0-.44-.9q-1.25-.03-2.53.17c-2.17.34-3.34 1.82-5.95 2.03q-.58.04-.56.62l.01.46q.02.75-.73.84l-13.15 1.47"/><path stroke="#40576f" vector-effect="non-scaling-stroke" d="M90.91 82.46q1.82-1.03 2.91-.68"/><path vector-effect="non-scaling-stroke" d="M95.17 77.68q.17.25.62.47.48.22.06.54l-.31.23q-.33.25-.49-.13l-.21-.51" class="K"/><path stroke="#cec19f" vector-effect="non-scaling-stroke" d="M19.49 84.83l-.58.77"/><path stroke="#86887f" vector-effect="non-scaling-stroke" d="M18.91 85.6q-.1-.03-.24-.06-.17-.03-.2.14-.53 3.43 1.38 4.01"/><path stroke="#636b6f" vector-effect="non-scaling-stroke" d="M19.85 89.69q.92 1 .21 2.44-.31.64-.94.33l-.37-.17q-.38-.19-.4.24c-.05 1.2.64 1.78 1.82 1.87 1.91.15 3.09.06 4.99.9q2.2.98 4.39.52"/><path vector-effect="non-scaling-stroke" d="M116.68 84.97l-5.37 1.07a.51.51 0 0 0 .08 1.01l4.3.17m-.66 1.53l-14.13.76q-1.32.07-.07.5 2.97 1.04 6.81 1.56.61.08.87.59.17.32-.18.36l-4.09.48a.52.52 0 0 0 .05 1.03q1.81.06 3.85.11.22 0 .35.17.31.39-.19.39l-20.82-.21a.6.6 0 0 0-.14 1.18q4.87 1.11 10.13 1.96.61.1.69.23.45.7-.37.72-20.44.5-40.12-2.32-4.02-.58-7.86-.24-14.49 1.3-24.56 1.62-5.9.18-13.52-1.44m-2.8-4.22q1.56-.94 1.76-2.1.1-.58-.49-.63l-2.97-.24" class="Z"/><path stroke="#292e50" vector-effect="non-scaling-stroke" d="M94.97 79.37q-.6-.23-.96-.75"/><path stroke="#948480" vector-effect="non-scaling-stroke" d="M20.37 88.28q-.42-1.8-1.46-2.68"/><path stroke="#292e50" vector-effect="non-scaling-stroke" d="M20.45 88.69q-.44.16-.6 1"/><path stroke="#40576f" vector-effect="non-scaling-stroke" d="M29.37 87.67q-.11 2.25-2.74 2.58-.5.06-.68.53-.43 1.14.31 2.18a.49.49 0 0 0 .88-.42q-.05-.16-.14-.29-.33-.44.07-.82 1.2-1.15 2.97-1.81"/></g><path d="M57.16 0h7.79C96.22 3.27 119.41 25.34 122 56.9v7.33q-.89 10.22-4.71 19.59-1.72-.76-3.41-.46.35-1.5-.25-2.53-.29-.5-.85-.36-1.37.36-1.22-.02.14-3.58-.68-7.69-.43-2.13.09-4.02 1.54-5.51 3.14-10.96 1.65-7.44-2.11-13.7-2.05-.69-4.23-1.59-2.01-.83-3.73-2.43c-4.22-3.92-7.16-7.21-11.41-9.13l-2.33-.61-10.28.36q.66.32-.25-.06l-1.7-.65a1.34 1.33 47.3 0 0-.87-.04q-3.32.94-6.73.35a1.44 1.4 31.9 0 0-1.02.22q-2.64 1.79-5.84 1.9-.54.02-.96.35L48.29 43.73q-3.01-2.23-6.27-.21-3.02-1.31-6.4 1.56l-6.44 5.6c-14.54.41-9.4-18.86-4.16-25.91q.55-.74.25-1.16.36-.43.38-.69.03-.46-.35-.22l-1.44.91q-5.67 4.67-8.54 11.64c-4.06 9.86-2.73 24.22 10.45 25.79q.29.04.36-.25l.06-.25.02.88q-1.09 1.84-.39 3.27-1.24 2.43.17 3.81l-2 7.34c-1.02 2.51-2.01 7.03-4.67 8.1q-1.53-.21-1.2-.75 1.11-1.84 2.64-3.32.15-.15.04-.34-.08-.13-.23-.16-.16-.04-.37.13-1.82 1.49-3.43 3.26-.35.39-.72.02l-.41-.41a.44.43 23.5 0 0-.74.29l-.04.82q-.04.97-.42.08c-.89-2.09-3.23-5.3-5.66-6.08q-.82-.27-.1.21c2.15 1.44 4.71 3.87 3.68 6.76q-.16.47-.65.58l-5.88 1.31Q.95 75.75 0 64.1v-7.33C2.77 25.09 25.78 3.32 57.16 0zM12.63 76.22q0-.02 0-.03 0-.07-.06-.05-.07.03-.23.1a.1.1 0 0 0-.05.15q1.75 2.47 1.94 5.44.04.62.5.2.26-.23.22-.56-.35-2.76-2.31-5.2-.01-.02-.01-.05zm4.43 3.66l.88-1.41q.3-.5-.24-.15-.25.15-.32.46-1.41 1.27-1.14 3.22a.32.32 0 0 0 .64-.03l.05-1.64a.88.83-30.4 0 1 .13-.45z" class="i"/><path fill="#fefdfa" d="M25.27 23.61l-3.68 4.98q-5.42 6.64-5.09 15.45-.09 8 7.04 10.39.48.16.06.43-.41.27-.87.12-1.76-.56-3.32-.19-.48.12-.79-.26l-4.26-5.18q-2.03-14.16 9.5-25.74l1.44-.91q.38-.24.35.22-.02.26-.38.69z"/><path d="M23.86 23.61q-11.53 11.58-9.5 25.74 1.12 6.55 6.08 9.18 3.15 1.28 6.08.36l.63-.54q.25-.22.28.12.02.15.07.33l-1.31 1.74-.06.25q-.07.29-.36.25c-13.18-1.57-14.51-15.93-10.45-25.79q2.87-6.97 8.54-11.64z" class="G"/><path d="M25.27 23.61q.3.42-.25 1.16c-5.24 7.05-10.38 26.32 4.16 25.91q-.61.57-.17.49-9.39-.26-10.15-9.84.28-6.07 2.73-12.74l3.68-4.98z" class="M"/><path d="M21.59 28.59q-2.45 6.67-2.73 12.74-1.34.13-1.62 2.74-.05.52-.46.2l-.28-.23q-.33-8.81 5.09-15.45z" class="V"/><path d="M79.77 30.62l-5.2 1a1.05 1.02-39.2 0 1-.58-.05q-3.18-1.17-5.85.84a1.12 1.05-63.3 0 1-.57.21l-3.94.28q-.54.04-.94.42c-2.27 2.17-5.07 3.2-7.19 5.27q-2.63 2.55-5.37 5.02-.67.6.21.43 1.34-.26 1.94.97.36.73-.36.36-2.41-1.23-4.53.07-.86.53-.24-.27l1.14-1.44 14.36-10.98q.42-.33.96-.35 3.2-.11 5.84-1.9a1.44 1.4 31.9 0 1 1.02-.22q3.41.59 6.73-.35a1.34 1.33 47.3 0 1 .87.04l1.7.65z" class="N"/><path fill="#fefdfa" d="M90.3 30.32l-3.81 1.32q-2.29.64-4.92-.69a.61.61 0 0 0-.88.53q0 .66.58 1.25l1.8 2.87c2.07 7.8 3.18 16.06-1.79 22.89-2.36 1.84-11.7 7.42-14.62 5.34q-.65-.46.13-.67l5.7-1.49q.87-.23.07-.64l-7.54-3.83 1.27-.72c6.77 5.46 14.55.33 16.05-7.43q1.19-4.28.27-9.01l-2.59-9.36 10.28-.36z"/><path fill="#ac6751" d="M90.3 30.32l2.33.61q.42.97 2.37 2.03 3.64 1.98 11.05 10.19c-2.12-.69-5.83 0-4.62 2.82q-.28-.41-.59-.53-.32-.13-.6.18-.18.21-.44.56c.03-1.77-.32-2.9-2.32-2.94q-3.87-.07-7.43 1.28a1.34 1.29-42.8 0 1-.94-.02l-1.06-.45q.01-1.19-.69-1.5l6.35-2.46a1.22 1.22 0 0 0 .48-1.94q-1.78-2.05-4.41-2.46a.35.35 0 0 1-.04-.69q2.93-.77 4.58 1.67a.31.31 0 0 0 .56-.19c-.05-.84-.52-1.67-1.35-2.07q-3.24-1.56-7.04-2.77l3.81-1.32z"/><path d="M79.77 30.62q.91.38.25.06l2.59 9.36q-.93.64-1.8-1.04-.74-1.45-.78-3.06-.01-.5-.29-.91-.97-1.38-2.36-.57a.93.92-15.6 0 0-.45.79l-.01 2.15q-1.14-1.62-2.16-1.88-.52-.13-.74.35-.63 1.35-.05 2.62-.24.56-1.13.04-3.57-2.51-5.47-.05-2.62-.82-4.19 1.37a1.2 1.2 0 0 1-.86.49q-1.06.1-1.96.7-.41.28-.52.77-.42 2.06-2.11 2.56-1.4-.19-2.66.03-1.47.25.02.29 3.15.09 5.56 3.74-1.98 1.5-4.9 1.39-.52-.02-.75.44-.62 1.31-.61 2.62.69-1.82-3.5-3.23-1.74.88-4.27-2.46-.14-.18-.34-.08-.12.06-.24.12a.3.3 0 0 0-.04.51q3.67 2.62 2.99 7.26-.07.51-.53.75l-.89.44q-.22.12-.06.3l3.31 3.69q.42.47-.18.66l-3.54 1.13q1.37-1.7.36-2.34-1.11-.7-2.49-1.2a.88.88 0 0 0-.99.27q-2.03 2.52-2.27 5.82a.52.52 0 0 0 .89.39q.87-.92 2.43-1.32-.51 1.63-2.7 2.99-1.16-.1-1.12-.59.14-1.64-.45-2.61.47-.68.38-1.21-.09-.58-.66-.43l-1.13.29a.47.47 0 0 1-.58-.55c1.26-5.85 7.7-4.13 7.25-11.44q-.03-.4-.26-.53-.47-.25-.58.26l-.74 3.36a.55.52-14.5 0 1-.19.3l-5.88 4.48a.54.5 82.3 0 0-.16.23q-.7 1.89-2.11 3.32-.41.41-.41.98-.04 3.46-2.93 5.12-.46.26-.7.73-1.61 3.17-1.36 6.72.04.63.57.28 2.46-1.59 2.98-4.5.08-.43.45-.67 2.93-1.89 4.82-4.75c.06 1.38-.04 2.32-1.05 3.41q-2.85 3.05-1.96 6.77l-3.83 5.27q-.38.53-.48-.11l-.39-2.4a.47.47 0 0 0-.93-.02q-.71 3.56.76 6.95l-.35 6.31q-.05.93.56.22l1.35-1.55a.5.5 0 0 1 .88.3l.05.76a.34.33-28.1 0 0 .6.18l.24-.32a.55.55 0 0 1 .95.13q.93 2.36-.92 3.4-.89.51-.78-.51l.09-.8q.07-.57-.48-.75-.53-.16-.84.45-1.09 2.14-3.54 2.2c-1.48-1.34.07-3.99.59-5.64l-.67-1.95q-2.45.34-4.79 2.25-.43.35-.87.01l-.87-.7q-.5-.4-.82.15l-.13.23q-.34.57-.64-.01-.29-.56-.8-.91-.16-.15-.08-.41.81-2.28 3.27-.44.39.29.87.21 3.8-.65 5.38-4.01a.68.68 0 0 0-.14-.78l-.27-.27q-.21-.22-.37.05-1.56 2.72-4.56 3.88a2.14 2.14 0 0 1-2.51-3.23l.94-1.33q.19-.27-.1-.43-.15-.09-.34-.02.14-.28.58-.37.08.27.2.42.13.17.4.12.97-.17 1.32-1.31a.38.38 0 0 0-.62-.4l-1.3 1.17.87-5.7 2-7.34q-.49-2.36.27-3.45.08-.2.59.04l.39 2.57q.12.83.44.06.25-.6.23-1.26a.79.79 0 0 1 .22-.57l2.65-2.75q.36-.38.1-.83l-.24-.43q-.26-.43-.52 0-1.1 1.78-2.64 2.78-.93-1.29-.69-2.24.53.84 1.04.85.42.01.75-.7 1.03-2.23.67-4.8-.07-.5-.5-.24-.69.42-1.25 1.27-.05-.18-.07-.33-.03-.34-.28-.12l-.63.54q.43-1.36.25-1.93.05-3.53 2.24-5.79-.44.08.17-.49l6.44-5.6q5.16-1.31 10.16-1.19a.24.23 66.8 0 0 .16-.41q-.93-.84-3.92.04 3.26-2.02 6.27.21l-1.14 1.44q-.62.8.24.27 2.12-1.3 4.53-.07.72.37.36-.36-.6-1.23-1.94-.97-.88.17-.21-.43 2.74-2.47 5.37-5.02c2.12-2.07 4.92-3.1 7.19-5.27q.4-.38.94-.42l3.94-.28a1.12 1.05-63.3 0 0 .57-.21q2.67-2.01 5.85-.84a1.05 1.02-39.2 0 0 .58.05l5.2-1zM39.59 46.48q-.36-.93-1.34-.55-2.75 1.07-4.43 3.84-.31.5-.58-.01l-.15-.27a.45.45 0 0 0-.81.05l-.62 1.62q-.24.61-.84.36-.17-.07-.34-.14a.36.36 0 0 0-.5.32l-.14 3.32a.23.23 0 0 0 .45.08q1.16-3.25 3-4.35 3.19-1.92 4.32-3.19.33-.37.81-.47.89-.19 1.32.5.33.54.92.3l1.56-.62a1.02 1.01-47.4 0 1 .69-.03q2.24.73 2.12-.93a1.13 1.13 0 0 0-1.57-.96l-3.25 1.39a.47.46 67.1 0 1-.62-.26zm-8.21 18.15q-.96 1.91-1.13 3.44-.06.53-.52.79-3.61 2.09-3.44 6.5.03.76.55.2l1.21-1.31q.36-.39.31-.92-.25-2.62 2.16-3.5a1.01 1 86 0 0 .65-.76q.65-3.14 2.61-5.61.37-.45.48-1.03.39-2.14 2.13-3.47a.91.89-25.3 0 0 .33-.9q-1.01-4.67 2.29-7.78a.45.45 0 0 0-.5-.74q-5.04 2.44-3.85 7.83.11.49-.11.94-1.59 3.17-3.17 6.32zm-2.85 17.76q.13 0 .24-.04.19-.07.25-.28.14-.43-.13-.82a.53.52 44 0 0-.87.01l-.62.94q-.56.86.38.47l.64-.26q.05-.02.11-.02zm57.96-50.75q3.8 1.21 7.04 2.77c.83.4 1.3 1.23 1.35 2.07a.31.31 0 0 1-.56.19q-1.65-2.44-4.58-1.67a.35.35 0 0 0 .04.69q2.63.41 4.41 2.46a1.22 1.22 0 0 1-.48 1.94l-6.35 2.46q-1.22-6.08-5.79-10.37-.23-.22-.3.55-.58-.59-.58-1.25a.61.61 0 0 1 .88-.53q2.63 1.33 4.92.69z" class="j"/><g class="H"><path d="M92.63 30.93c4.25 1.92 7.19 5.21 11.41 9.13q1.72 1.6 3.73 2.43 2.18.9 4.23 1.59l1.74 7.21a.31.31 0 0 1-.56.23c-.94-1.53-1.38-3.76-2.79-4.9q-.84-.68-1.73-1.32-1.31-.94-.33.33c2 2.58 3.75 5.35 3.56 8.48q-.03.34-.33.18-.14-.07-.24-.18-.16-.17-.2-.56-.24-2.12-1.11-3.22a1.6 1.6 0 0 0-2.65 1.76q.75 1.38-.06 2.95a1.16 1.15 48.3 0 0-.05.99c2.36 5.68-1.09 11.47-5.45 14.97q1.08-4.23 2.84-8.13c.82-1.82 2.33-1.77 1.33-4.31q-1.64-4.16-2.91-9.05-.47-1.86 1.29-2.61l2.65-1.13a.5.49-27.6 0 0 .23-.72l-1.18-1.9Q98.64 34.94 95 32.96q-1.95-1.06-2.37-2.03z"/><path d="M87.36 42.55q.7.31.69 1.5l.19 2.16 1.97 7.01q.12.44.58.53 4.03.78 5.47-3.04a1.08 1.05-47.3 0 0-.02-.84l-1.14-2.53q1.58-.64 2.22.95c.69 1.74 1.51 3.3 2.03 5.14q.13.47.36.04l2.2-4.01.25 5.23q.01.15.13.25.1.08.22.15.15.09.21-.07l.2-.58a.4.4 0 0 1 .76.02q1.48 4.8-.8 9.02c-1.37 2.52-1.72 4.22-2 6.8q-.05.53.46.68.21.07.46.04-.53.25-.78 1.19l-.52-.08q-.5-.08-.53-.59-.09-2.21.92-4.1.24-.45.11-.95l-2.47-9.2a.39.38 46.2 0 0-.74-.02c-1.98 6.45-4.16 15.03-12.99 13.82q-.49-.07-.77.35-1.52 2.31-1.18 4.12.5 1.64.08 2.72-.27.68-.97.44l-3.3-1.15q-.75-.26-.39-.96.2-.42.72-.72 2.32-.08 2.89-2.22.13-.49.51-.84.84-.78.63-1.91-.08-.4.32-.48 2.52-.51 2.38-3.24 5.66.8 7.97-3.6.38-.73-.33-.33-3.36 1.9-6.76.66-.43.25-1.11-.38-.02-1.39-.72-2.87 3.78-5.23 2.65-9.82.51-8.96-4.35-15.24l-1.8-2.87q.07-.77.3-.55 4.57 4.29 5.79 10.37zm-4.75-2.51q.92 4.73-.27 9.01l-1.06.22q1-2.14.6-4.11-.12-.6-.47-.1-.99 1.4-1.31 2.57-.33 1.22 1.31 1.69-.38 2-1.69 3.69-.65.88-1.08-.27a.49.46 43.1 0 1-.02-.3q.77-3.44-.56-6.87-.13-.31-.36-.45-.37-.23-.76-.36-.32-.1-.34-.44-.02-.6.49-.93.38-.25.48-.7.8-3.4-.65-5.29l.01-2.15a.93.92-15.6 0 1 .45-.79q1.39-.81 2.36.57.28.41.29.91.04 1.61.78 3.06.87 1.68 1.8 1.04z"/></g><path d="M76.92 37.4q1.45 1.89.65 5.29-.1.45-.48.7-.51.33-.49.93.02.34.34.44.39.13.76.36.23.14.36.45 1.33 3.43.56 6.87a.49.46 43.1 0 0 .02.3q.43 1.15 1.08.27-.37 1.56-1.41 1.91-.39.14-.67-.16-1.33-1.42-3-.68-.21.09-.36-.07l-.21-.22q-.3-.31-.65-.06-2.78 2.02-6.16 1.29-.47-.1-.62-.56l-1.05-3.15c4.69.9 4.46-3.96 6.25-6.86q1.6-2.61 2.13-5.96-.58-1.27.05-2.62.22-.48.74-.35 1.02.26 2.16 1.88z" class="F"/><path d="M83.07 35.6q4.86 6.28 4.35 15.24-2.38 13.19-13.8 17-5.65.17-10.59-1.33-2.34-5.44-4.03-2.06-2.74-5.12 2-8.46 3.17-2.24 5.29.49l-1.27.72q-2.18-.48-3.48 2.08-.23.45.23.68l1.59.8q-.04.22-.45.32-.69-.41-1.47 0-.48.25-.33.77.79 2.85 3.92 2.99 2.89.12 7.76-.31 3.15-.28 4.98-1.77 2.1-1.72 3.51-4.27c4.97-6.83 3.86-15.09 1.79-22.89z" class="V"/><path d="M72.84 38.53l-2.27 3.03q-.34.46-.41 1.02-.3 2.56-2.95 2.01a.8.79 27.4 0 0-.76.24l-.73.77a.41.41 0 0 1-.7-.37q.49-2.14 2.49-3.14a.99.97-7.4 0 0 .52-.66q.36-1.55-1-1.74-.44-.07-.1-.36.79-.66.44-.85 1.9-2.46 5.47.05z" class="M"/><path d="M67.37 38.48q.35.19-.44.85-.34.29.1.36 1.36.19 1 1.74a.99.97-7.4 0 1-.52.66q-2 1-2.49 3.14a.41.41 0 0 0 .7.37l.73-.77a.8.79 27.4 0 1 .76-.24q2.65.55 2.95-2.01.07-.56.41-1.02l2.27-3.03q.89.52 1.13-.04-.53 3.35-2.13 5.96c-1.79 2.9-1.56 7.76-6.25 6.86l-2.74-4.81a.83.83 0 0 0-.86-.4q-2.97.5-4.26-1.73 1.69-.5 2.11-2.56.11-.49.52-.77.9-.6 1.96-.7a1.2 1.2 0 0 0 .86-.49q1.57-2.19 4.19-1.37z" class="H"/><path d="M18.86 41.33q.76 9.58 10.15 9.84-2.19 2.26-2.24 5.79l-5.59.47q-.31.03-.13.28l.14.21q.23.34-.16.45l-.59.16q-4.96-2.63-6.08-9.18l4.26 5.18q.31.38.79.26 1.56-.37 3.32.19.46.15.87-.12.42-.27-.06-.43-7.13-2.39-7.04-10.39l.28.23q.41.32.46-.2.28-2.61 1.62-2.74z" class="N"/><path d="M106.05 43.15l1.18 1.9a.5.49-27.6 0 1-.23.72l-2.65 1.13q-1.76.75-1.29 2.61 1.27 4.89 2.91 9.05c1 2.54-.51 2.49-1.33 4.31q-1.76 3.9-2.84 8.13-.25.03-.46-.04-.51-.15-.46-.68c.28-2.58.63-4.28 2-6.8q2.28-4.22.8-9.02a.4.4 0 0 0-.76-.02l-.2.58q-.06.16-.21.07-.12-.07-.22-.15-.12-.1-.13-.25l-.25-5.23q.21-1.79-.48-3.49c-1.21-2.82 2.5-3.51 4.62-2.82z" class="j"/><path d="M42.02 43.52q2.99-.88 3.92-.04a.24.23 66.8 0 1-.16.41q-5-.12-10.16 1.19 3.38-2.87 6.4-1.56zm57.78 2.66q-1.25-.66-2.46-.54-3.67-.96-6.43.95-.4.28-.78-.02-.86-.68-1.89-.36l-.19-2.16 1.06.45a1.34 1.29-42.8 0 0 .94.02q3.56-1.35 7.43-1.28c2 .04 2.35 1.17 2.32 2.94z" class="I"/><path d="M57.73 44.37q1.29 2.23 4.26 1.73a.83.83 0 0 1 .86.4l2.74 4.81 1.05 3.15q.15.46.62.56 3.38.73 6.16-1.29.35-.25.65.06l.21.22q.15.16.36.07 1.67-.74 3 .68.28.3.67.16 1.04-.35 1.41-1.91 1.31-1.69 1.69-3.69-.07-.02-.13-.05l1.06-.22c-1.5 7.76-9.28 12.89-16.05 7.43q-2.12-2.73-5.29-.49-4.74 3.34-2 8.46.72 1.7 4.03 2.06 4.94 1.5 10.59 1.33 6.55-.64 11.15-7.18.7 1.48.72 2.87l-.39 3.19a1.08 1.07 79.9 0 1-.57.82l-3.1 1.65a.93.91-16.9 0 0-.49.9q.25 2.57-1.7 4.28a1.03 1.02-25.5 0 0-.34.95l.09.55q-.52.3-.72.72-.36.7.39.96l3.3 1.15q.7.24.97-.44.42-1.08-.08-2.72 1.26-.8 1.68 2.11a1.11 1.09 77.9 0 0 1.39.91l6.46-1.83q.47-.13.55.35.2 1.19.97 1.41.05.06.11.13-2.24 1.78-3.1 3.84l-5.65.28q-.48.02-.82.37c-2.78 2.87-10.66 3.43-13.2 2.94q-3.31-.64-5.08-.53-.73.05-.49-.64.5-1.41-.52-2.6-.26-.29-.3.09l-.33 2.71a.81.81 0 0 1-1.55.23q-.64-1.44-2.17-1.87-.44-.12-.83.11l-.83.52q-.38.23-.03.5l2.58 2a.79.78-28.8 0 1-.41 1.4c-3.16.29-7.69 2.07-10.36.08q-.04-.18-.04-.32 0-.51.5-.48 4.57.23 5.04-4.22.06-.5-.2-.93-2.07-3.46.49-6.76.3-.39.2-.87l-.38-1.96a.66.66 0 0 0-1.22-.21l-1.78 2.94a1.33 1.33 0 0 1-2.09.24q-.81-.83-2.25-.07-2.26 1.2-4.97 1.89a1.11 1.09-83.1 0 0-.72.58q-1.75 3.57-4.55 6.24-.44.42-.58.9-.25.95.06 1.16l-.66 2.81q-.16.71-.32 0L36.3 84a.91.9 62.8 0 1 .27-.86l5.47-5.1q.44-.41.07-.88-.41-.53-.62-1.22-.17-.53.19-.96 1.31-1.51 4.04-.91 2.53.54 4.95-1.9 3.3-3.32-.69-3.39 2.18-1.38 1.04-1.95.86.38 1.4.24.53-.13.61-.97.14-1.41-.59-2.36a1.3 1.29 63.5 0 1 .68-2.04q2.5-.7 2.14-3.21-.08-.56-.61-.78-3.47-1.45-2.88-4.51.04-1.21.33-1.63a.48.48 0 0 1 .87.18l.65 3.45q.11.59.62.26.62-.41.52-1.69.27-.18.34-.48.1-.46.5-.19l2.76 1.87q.31.21.63 0 2.57-1.7 5.67-1.3.53.07.4-.46-.98-3.79-4.41-4.78-2.41-3.65-5.56-3.74-1.49-.04-.02-.29 1.26-.22 2.66-.03zm4.88 26.96l1.86 1.52q.44.36.63.88.91 2.48 2.93 4.14.39.31.89.3l7.58-.19a.23.23 0 0 0 .1-.43q-4.47-2.48-8.93-4.62c-1.86-.9-3.05-2.97-5.73-2.85a.5.49 57.8 0 0-.21.93q.19.1.4.12.27.02.48.2zM74.77 82.8q-.83.57-1.23 1.64-.19.51.34.6 4.09.67 7.33-1.6a.43.43 0 0 0-.23-.78q-2.09-.06-4.39-.22-1.19-.07-1.82.36z" class="W"/><path d="M112 44.08q3.76 6.26 2.11 13.7-1.93-3.63-2.28 2.79-.28 5.27-4.85 10.87-.29.36-.75.42-.73.1-1.06.71c-1.02 1.9-2.81 3.52-4.5 4.57q-2.06-4.2.35-4.95.25-.94.78-1.19c4.36-3.5 7.81-9.29 5.45-14.97a1.16 1.15 48.3 0 1 .05-.99q.81-1.57.06-2.95a1.6 1.6 0 0 1 2.65-1.76q.87 1.1 1.11 3.22.04.39.2.56.1.11.24.18.3.16.33-.18c.19-3.13-1.56-5.9-3.56-8.48q-.98-1.27.33-.33.89.64 1.73 1.32c1.41 1.14 1.85 3.37 2.79 4.9a.31.31 0 0 0 .56-.23L112 44.08z" class="F"/><path d="M81.28 49.27q.06.03.13.05-1.64-.47-1.31-1.69.32-1.17 1.31-2.57.35-.5.47.1.4 1.97-.6 4.11z" class="I"/><path d="M40.21 46.74l3.25-1.39a1.13 1.13 0 0 1 1.57.96q.12 1.66-2.12.93a1.02 1.01-47.4 0 0-.69.03l-1.56.62q-.59.24-.92-.3-.43-.69-1.32-.5-.48.1-.81.47-1.13 1.27-4.32 3.19-1.84 1.1-3 4.35a.23.23 0 0 1-.45-.08l.14-3.32a.36.36 0 0 1 .5-.32q.17.07.34.14.6.25.84-.36l.62-1.62a.45.45 0 0 1 .81-.05l.15.27q.27.51.58.01 1.68-2.77 4.43-3.84.98-.38 1.34.55a.47.46 67.1 0 0 .62.26z" class="G"/><path d="M97.34 45.64q-3.61-.29-2.24 1.7l1.14 2.53a1.08 1.05-47.3 0 1 .02.84q-1.44 3.82-5.47 3.04-.46-.09-.58-.53l-1.97-7.01q1.03-.32 1.89.36.38.3.78.02 2.76-1.91 6.43-.95z" class="V"/><path d="M101.43 45.97q.69 1.7.48 3.49l-2.2 4.01q-.23.43-.36-.04c-.52-1.84-1.34-3.4-2.03-5.14q-.64-1.59-2.22-.95-1.37-1.99 2.24-1.7 1.21-.12 2.46.54.26-.35.44-.56.28-.31.6-.18.31.12.59.53zm-50.54 3.68q.13 2.49.88 3.55-.59 3.06 2.88 4.51.53.22.61.78.36 2.51-2.14 3.21a1.3 1.29 63.5 0 0-.68 2.04q.73.95.59 2.36-.08.84-.61.97-.54.14-1.4-.24-1.85-1.02-3.15.47a1.36 1.32-73 0 1-.82.45c-1.22.16-3.1.95-2.88 2.47q.1.69.49.11.43-.65 1.09-.93.33 1.17 1.27 2.07a.4.39-25 0 1-.25.68l-3.55.24a.35.35 0 0 1-.28-.59q2.35-2.52-.61-5.22 2.19-1.36 2.7-2.99l2.07-1.62 3.54-1.13q.6-.19.18-.66l-3.31-3.69q-.16-.18.06-.3l.89-.44q.46-.24.53-.75.68-4.64-2.99-7.26a.3.3 0 0 1 .04-.51q.12-.06.24-.12.2-.1.34.08 2.53 3.34 4.27 2.46z" class="M"/><path d="M60.65 48.43q3.43.99 4.41 4.78.13.53-.4.46-3.1-.4-5.67 1.3-.32.21-.63 0L55.6 53.1q-.4-.27-.5.19-.07.3-.34.48l-.37-.89q-.01-1.31.61-2.62.23-.46.75-.44 2.92.11 4.9-1.39z" class="H"/><path d="M31.38 64.63q1.58-3.15 3.17-6.32.22-.45.11-.94-1.19-5.39 3.85-7.83a.45.45 0 0 1 .5.74q-3.3 3.11-2.29 7.78a.91.89-25.3 0 1-.33.9q-1.74 1.33-2.13 3.47-.11.58-.48 1.03-1.96 2.47-2.61 5.61a1.01 1 86 0 1-.65.76q-2.41.88-2.16 3.5.05.53-.31.92l-1.21 1.31q-.52.56-.55-.2-.17-4.41 3.44-6.5.46-.26.52-.79.17-1.53 1.13-3.44z" class="N"/><path d="M40.76 63.38l-1.24 1.99q-1.89 2.86-4.82 4.75-.37.24-.45.67-.52 2.91-2.98 4.5-.53.35-.57-.28-.25-3.55 1.36-6.72.24-.47.7-.73 2.89-1.66 2.93-5.12 0-.57.41-.98 1.41-1.43 2.11-3.32a.54.5 82.3 0 1 .16-.23l5.88-4.48a.55.52-14.5 0 0 .19-.3l.74-3.36q.11-.51.58-.26.23.13.26.53c.45 7.31-5.99 5.59-7.25 11.44a.47.47 0 0 0 .58.55l1.13-.29q.57-.15.66.43.09.53-.38 1.21zm13.63-10.5l.37.89q.1 1.28-.52 1.69-.51.33-.62-.26l-.65-3.45a.48.48 0 0 0-.87-.18q-.29.42-.33 1.63-.75-1.06-.88-3.55 4.19 1.41 3.5 3.23z" class="I"/><path d="M84.77 60.66q-4.6 6.54-11.15 7.18 11.42-3.81 13.8-17 1.13 4.59-2.65 9.82z" class="X"/><path d="M114.11 57.78q-1.6 5.45-3.14 10.96-.52 1.89-.09 4.02.82 4.11.68 7.69-1.44 1.37-2.6 1.82a.58.56 40.4 0 1-.33.02l-5.34-1.39a.32.29 2.2 0 1-.22-.22q-.05-.18.03-.31 1.88-1.25 3.95-1.61.4-.07.17-.4-.28-.39-.73-.33-1.93.25-3.76 1.88-.75.81-1.06-.34a.74.74 0 0 1 .09-.58l.88-1.36q.53-.83-.26-.25-1.04.76-1.54 1.92a.52.52 0 0 1-.98-.34l.38-1.45q.09 0 .43-.37c1.69-1.05 3.48-2.67 4.5-4.57q.33-.61 1.06-.71.46-.06.75-.42 4.57-5.6 4.85-10.87.35-6.42 2.28-2.79z" class="W"/><path d="M101.02 72.19q-2.41.75-.35 4.95-.34.37-.43.37-.22-.19-.36-.51-.19-.42-.43-.02l-.9 1.5q-.25.42-.66.69c-1.49.96-1.94 2.56-4.07 2.61l1.15-2.41q0 .24.03.41a.44.44 0 0 0 .73.23l1.03-1q.43-.41-.01-.81-1.38-1.25-1.58-.52l-.11-.27q-.09-.22-.32-.3-.73-.23-.7.22.04.49.46.75l.34.2q-.83-.09-.94.21-.77-.22-.97-1.41-.08-.48-.55-.35l-6.46 1.83a1.11 1.09 77.9 0 1-1.39-.91q-.42-2.91-1.68-2.11-.34-1.81 1.18-4.12.28-.42.77-.35c8.83 1.21 11.01-7.37 12.99-13.82a.39.38 46.2 0 1 .74.02l2.47 9.2q.13.5-.11.95-1.01 1.89-.92 4.1.03.51.53.59l.52.08zm-4.06 4.22l.19.95q.12.62.58.19.28-.28.09-.82-.28-.81-1.54-2.33a.17.17 0 0 0-.3.07q-.19.89.69 1.5a.68.67 12.2 0 1 .29.44z" class="G"/><path d="M26.77 56.96q.18.57-.25 1.93-2.93.92-6.08-.36l.59-.16q.39-.11.16-.45l-.14-.21q-.18-.25.13-.28l5.59-.47z" class="V"/><path d="M65.02 57.2l7.54 3.83q.8.41-.07.64l-5.7 1.49q-.78.21-.13.67c2.92 2.08 12.26-3.5 14.62-5.34q-1.41 2.55-3.51 4.27-1.83 1.49-4.98 1.77-4.87.43-7.76.31-3.13-.14-3.92-2.99-.15-.52.33-.77.78-.41 1.47 0 1.78 1.34 3.68.85 1.17-.3-.02-.54l-3.21-.63-1.59-.8q-.46-.23-.23-.68 1.3-2.56 3.48-2.08z" class="N"/><path d="M26.79 62.42l-.58-1-.02-.88 1.31-1.74q.56-.85 1.25-1.27.43-.26.5.24.36 2.57-.67 4.8-.33.71-.75.7-.51-.01-1.04-.85zm20.31-.45l-2.07 1.62q-1.56.4-2.43 1.32a.52.52 0 0 1-.89-.39q.24-3.3 2.27-5.82a.88.88 0 0 1 .99-.27q1.38.5 2.49 1.2 1.01.64-.36 2.34zm16.26-1.21l3.21.63q1.19.24.02.54-1.9.49-3.68-.85.41-.1.45-.32z" class="I"/><path d="M26.21 61.42l.58 1q-.24.95.69 2.24-.37.6-.63.43-.51-.24-.59-.04-.2-.33-.44-.36-.7-1.43.39-3.27z" class="M"/><path d="M26.85 65.09q.26.17.63-.43 1.54-1 2.64-2.78.26-.43.52 0l.24.43q.26.45-.1.83l-2.65 2.75a.79.79 0 0 0-.22.57q.02.66-.23 1.26-.32.77-.44-.06l-.39-2.57z" class="H"/><path d="M63.03 66.51q-3.31-.36-4.03-2.06 1.69-3.38 4.03 2.06z" class="M"/><path d="M85.72 67.18q1.05-1.51.88-3.27 3.4 1.24 6.76-.66.71-.4.33.33-2.31 4.4-7.97 3.6z" class="W"/><path d="M40.76 63.38q.59.97.45 2.61-.04.49 1.12.59 2.96 2.7.61 5.22a.35.35 0 0 0 .28.59l3.55-.24a.4.39-25 0 0 .25-.68q-.94-.9-1.27-2.07l4.23-.62q3.99.07.69 3.39-2.42 2.44-4.95 1.9-2.73-.6-4.04.91-.36.43-.19.96.21.69.62 1.22.37.47-.07.88l-5.47 5.1a.91.9 62.8 0 0-.27.86l1.15 4.99q.16.71.32 0l.66-2.81q1.53 2.05-.56 5.93.59.57-1.63 3.27-2.88 1.29-6.69.44.19-.42-.1-.56 2.45-.06 3.54-2.2.31-.61.84-.45.55.18.48.75l-.09.8q-.11 1.02.78.51 1.85-1.04.92-3.4a.55.55 0 0 0-.95-.13l-.24.32a.34.33-28.1 0 1-.6-.18l-.05-.76a.5.5 0 0 0-.88-.3l-1.35 1.55q-.61.71-.56-.22l.35-6.31q1.27.71 1.58 2.25.08.43.38.12.13-.14.13-.38-.01-1.49-.43-4.65a1 .99 60.1 0 1 .19-.72l4.34-5.66a.39.38 7.8 0 0-.45-.59q-.31.12-.87-.06-.89-3.72 1.96-6.77c1.01-1.09 1.11-2.03 1.05-3.41l1.24-1.99z" class="H"/><path d="M85.49 63.53q.68.63 1.11.38.17 1.76-.88 3.27.14 2.73-2.38 3.24-.4.08-.32.48.21 1.13-.63 1.91-.38.35-.51.84-.57 2.14-2.89 2.22l-.09-.55a1.03 1.02-25.5 0 1 .34-.95q1.95-1.71 1.7-4.28a.93.91-16.9 0 1 .49-.9l3.1-1.65a1.08 1.07 79.9 0 0 .57-.82l.39-3.19zm-59.67 1.16q.24.03.44.36-.76 1.09-.27 3.45-1.41-1.38-.17-3.81z" class="G"/><path d="M51.02 66.83q1.14.57-1.04 1.95l-4.23.62q-.66.28-1.09.93-.39.58-.49-.11c-.22-1.52 1.66-2.31 2.88-2.47a1.36 1.32-73 0 0 .82-.45q1.3-1.49 3.15-.47z" class="X"/><path d="M62.13 71.13q-.21-.02-.4-.12a.5.49 57.8 0 1 .21-.93c2.68-.12 3.87 1.95 5.73 2.85q4.46 2.14 8.93 4.62a.23.23 0 0 1-.1.43l-7.58.19q-.5.01-.89-.3-2.02-1.66-2.93-4.14-.19-.52-.63-.88l-1.86-1.52q-.21-.18-.48-.2z" class="j"/><path d="M50.92 88.05c-.7-.58-1.33-.76-2.24-.42q-5.61 2.1-10.81 4.48 2.09-3.88.56-5.93-.31-.21-.06-1.16.14-.48.58-.9 2.8-2.67 4.55-6.24a1.11 1.09-83.1 0 1 .72-.58q2.71-.69 4.97-1.89 1.44-.76 2.25.07a1.33 1.33 0 0 0 2.09-.24l1.78-2.94a.66.66 0 0 1 1.22.21l.38 1.96q.1.48-.2.87-2.56 3.3-.49 6.76.26.43.2.93-.47 4.45-5.04 4.22-.5-.03-.5.48 0 .14.04.32z" class="G"/><path d="M96.67 75.97q-.88-.61-.69-1.5a.17.17 0 0 1 .3-.07q1.26 1.52 1.54 2.33.19.54-.09.82-.46.43-.58-.19l-.19-.95a.68.67 12.2 0 0-.29-.44z" class="F"/><path d="M31.64 85.24q-1.47-3.39-.76-6.95a.47.47 0 0 1 .93.02l.39 2.4q.1.64.48.11l3.83-5.27q.56.18.87.06a.39.38 7.8 0 1 .45.59l-4.34 5.66a1 .99 60.1 0 0-.19.72q.42 3.16.43 4.65 0 .24-.13.38-.3.31-.38-.12-.31-1.54-1.58-2.25z" class="G"/><path d="M12.64 76.27q1.96 2.44 2.31 5.2.04.33-.22.56-.46.42-.5-.2-.19-2.97-1.94-5.44a.1.1 0 0 1 .05-.15q.16-.07.23-.1.06-.02.06.05 0 .01 0 .03 0 .03.01.05z" class="Y"/><path d="M23.99 75.84l-.87 5.7q-.44.09-.58.37l-3.05 2.92q-.72-.06-.17-.89c2.66-1.07 3.65-5.59 4.67-8.1z" class="F"/><path d="M100.24 77.51l-.38 1.45a.52.52 0 0 0 .98.34q.5-1.16 1.54-1.92.79-.58.26.25l-.88 1.36a.74.74 0 0 0-.09.58q.31 1.15 1.06.34.39.1.37.46-.08.13-.03.31a.32.29 2.2 0 0 .22.22l5.34 1.39a.58.56 40.4 0 0 .33-.02q1.16-.45 2.6-1.82-.15.38 1.22.02.56-.14.85.36.6 1.03.25 2.53-2.7-.19-4.03 2.03-.28.48-.81.32-2.23-.67-4.46-.48-2.89.25-4.4.06-6.69-.85-13.44-.11-.2.02-.3.17a.25.24-65.8 0 0 .14.38l1.46.34a.33.33 0 0 1-.03.64l-18.83 2.61a.83.83 0 0 0-.11 1.62l1.21.34q.6.17.01.37-.24.09-.55.06-2.5-.26-5.05-.52-.59-.06-1.07.28l-1.33.95q-.49.35-1 .03-1.22-.75-2.52.26a.27.27 0 0 1-.38-.38l1.2-1.64a.57.56-71.3 0 0-.44-.9q-1.25-.03-2.53.17c-2.17.34-3.34 1.82-5.95 2.03q-.58.04-.56.62l.01.46q.02.75-.73.84l-13.15 1.47q2.22-2.7 1.63-3.27 5.2-2.38 10.81-4.48c.91-.34 1.54-.16 2.24.42 2.67 1.99 7.2.21 10.36-.08a.79.78-28.8 0 0 .41-1.4l-2.58-2q-.35-.27.03-.5l.83-.52q.39-.23.83-.11 1.53.43 2.17 1.87a.81.81 0 0 0 1.55-.23l.33-2.71q.04-.38.3-.09 1.02 1.19.52 2.6-.24.69.49.64 1.77-.11 5.08.53c2.54.49 10.42-.07 13.2-2.94q.34-.35.82-.37l5.65-.28q1.82-1.03 2.91-.68c2.13-.05 2.58-1.65 4.07-2.61q.41-.27.66-.69l.9-1.5q.24-.4.43.02.14.32.36.51z" class="Y"/><path d="M95.17 77.68q.17.25.62.47.48.22.06.54l-.31.23q-.33.25-.49-.13l-.21-.51-.34-.2q-.42-.26-.46-.75-.03-.45.7-.22.23.08.32.3l.11.27z" class="W"/><path fill="#c0c59e" d="M19.32 83.94q-.55.83.17.89l-.58.77q-.1-.03-.24-.06-.17-.03-.2.14-.53 3.43 1.38 4.01.92 1 .21 2.44-.31.64-.94.33l-.37-.17q-.38-.19-.4.24c-.05 1.2.64 1.78 1.82 1.87 1.91.15 3.09.06 4.99.9q2.2.98 4.39.52 3.81.85 6.69-.44l13.15-1.47q.75-.09.73-.84l-.01-.46q-.02-.58.56-.62c2.61-.21 3.78-1.69 5.95-2.03q1.28-.2 2.53-.17a.57.56-71.3 0 1 .44.9l-1.2 1.64a.27.27 0 0 0 .38.38q1.3-1.01 2.52-.26.51.32 1-.03l1.33-.95q.48-.34 1.07-.28 2.55.26 5.05.52.31.03.55-.06.59-.2-.01-.37l-1.21-.34a.83.83 0 0 1 .11-1.62l18.83-2.61a.33.33 0 0 0 .03-.64l-1.46-.34a.25.24-65.8 0 1-.14-.38q.1-.15.3-.17 6.75-.74 13.44.11 1.51.19 4.4-.06 2.23-.19 4.46.48.53.16.81-.32 1.33-2.22 4.03-2.03 1.69-.3 3.41.46l-.61 1.15-5.37 1.07a.51.51 0 0 0 .08 1.01l4.3.17-.66 1.53-14.13.76q-1.32.07-.07.5 2.97 1.04 6.81 1.56.61.08.87.59.17.32-.18.36l-4.09.48a.52.52 0 0 0 .05 1.03q1.81.06 3.85.11.22 0 .35.17.31.39-.19.39l-20.82-.21a.6.6 0 0 0-.14 1.18q4.87 1.11 10.13 1.96.61.1.69.23.45.7-.37.72-20.44.5-40.12-2.32-4.02-.58-7.86-.24-14.49 1.3-24.56 1.62-5.9.18-13.52-1.44l-2.8-4.22q1.56-.94 1.76-2.1.1-.58-.49-.63l-2.97-.24-1.4-2.67 5.88-1.31q.49-.11.65-.58c1.03-2.89-1.53-5.32-3.68-6.76q-.72-.48.1-.21c2.43.78 4.77 3.99 5.66 6.08q.38.89.42-.08l.04-.82a.44.43 23.5 0 1 .74-.29l.41.41q.37.37.72-.02 1.61-1.77 3.43-3.26.21-.17.37-.13.15.03.23.16.11.19-.04.34-1.53 1.48-2.64 3.32-.33.54 1.2.75z"/><path d="M94.97 79.37q-.6-.23-.96-.75-.06-.07-.11-.13.11-.3.94-.21l.21.51q.16.38.49.13l.31-.23q.42-.32-.06-.54-.45-.22-.62-.47.2-.73 1.58.52.44.4.01.81l-1.03 1a.44.44 0 0 1-.73-.23q-.03-.17-.03-.41z" class="F"/><path d="M16.93 80.33l-.05 1.64a.32.32 0 0 1-.64.03q-.27-1.95 1.14-3.22.07-.31.32-.46.54-.35.24.15l-.88 1.41a.88.83-30.4 0 0-.13.45z" class="Y"/><path d="M103.1 80.37q.02-.36-.37-.46 1.83-1.63 3.76-1.88.45-.06.73.33.23.33-.17.4-2.07.36-3.95 1.61z" class="F"/><path d="M94.01 78.62q.36.52.96.75l-1.15 2.41q-1.09-.35-2.91.68.86-2.06 3.1-3.84z" class="X"/><path d="M23.12 81.54l1.3-1.17a.38.38 0 0 1 .62.4q-.35 1.14-1.32 1.31-.27.05-.4-.12-.12-.15-.2-.42z" class="I"/><path d="M28.42 82.41l-.64.26q-.94.39-.38-.47l.62-.94a.53.52 44 0 1 .87-.01q.27.39.13.82-.06.21-.25.28-.11.04-.24.04-.06 0-.11.02z" class="N"/><path d="M22.54 81.91q.19-.07.34.02.29.16.1.43l-.94 1.33a2.14 2.14 0 0 0 2.51 3.23q3-1.16 4.56-3.88.16-.27.37-.05l.27.27a.68.68 0 0 1 .14.78q-1.58 3.36-5.38 4.01-.48.08-.87-.21-2.46-1.84-3.27.44-.42-1.8-1.46-2.68l.58-.77 3.05-2.92z" class="I"/><path d="M76.59 82.44q2.3.16 4.39.22a.43.43 0 0 1 .23.78q-3.24 2.27-7.33 1.6-.53-.09-.34-.6.4-1.07 1.23-1.64.63-.43 1.82-.36z" class="H"/><path d="M116.68 84.97l-.99 2.25-4.3-.17a.51.51 0 0 1-.08-1.01l5.37-1.07z" class="i"/><path d="M18.91 85.6q1.04.88 1.46 2.68-.08.26.08.41-.44.16-.6 1-1.91-.58-1.38-4.01.03-.17.2-.14.14.03.24.06z" class="F"/><path d="M29.37 87.67q-.11 2.25-2.74 2.58-.5.06-.68.53-.43 1.14.31 2.18a.49.49 0 0 0 .88-.42q-.05-.16-.14-.29-.33-.44.07-.82 1.2-1.15 2.97-1.81c-.52 1.65-2.07 4.3-.59 5.64q.29.14.1.56-2.19.46-4.39-.52c-1.9-.84-3.08-.75-4.99-.9-1.18-.09-1.87-.67-1.82-1.87q.02-.43.4-.24l.37.17q.63.31.94-.33.71-1.44-.21-2.44.16-.84.6-1 .51.35.8.91.3.58.64.01l.13-.23q.32-.55.82-.15l.87.7q.44.34.87-.01 2.34-1.91 4.79-2.25z" class="X"/><path d="M29.37 87.67l.67 1.95q-1.77.66-2.97 1.81-.4.38-.07.82.09.13.14.29a.49.49 0 0 1-.88.42q-.74-1.04-.31-2.18.18-.47.68-.53 2.63-.33 2.74-2.58z" class="Y"/><path d="M115.03 88.75Q98.44 117.69 64.87 121h-7.82q-28.28-2.58-45.32-24.8 7.62 1.62 13.52 1.44 10.07-.32 24.56-1.62 3.84-.34 7.86.24 19.68 2.82 40.12 2.32.82-.02.37-.72-.08-.13-.69-.23-5.26-.85-10.13-1.96a.6.6 0 0 1 .14-1.18l20.82.21q.5 0 .19-.39-.13-.17-.35-.17-2.04-.05-3.85-.11a.52.52 0 0 1-.05-1.03l4.09-.48q.35-.04.18-.36-.26-.51-.87-.59-3.84-.52-6.81-1.56-1.25-.43.07-.5l14.13-.76zm-107.8.26l2.97.24q.59.05.49.63-.2 1.16-1.76 2.1l-1.7-2.97z" class="i"/></svg>