<svg xmlns="http://www.w3.org/2000/svg" viewBox="0 0 121 121" xmlns:v="https://vecta.io/nano"><style><![CDATA[.B{stroke:#d3e1e6}.C{fill:#b2c9d4}.D{fill:#f3f9f7}.E{fill:#27111f}.F{stroke:#8eaab9}.G{stroke:#964a29}.H{stroke:#bc774e}.I{stroke:#522720}.J{stroke:#6b3528}.K{stroke:#824128}.L{stroke:#3e1e1f}.M{stroke:#8d858b}.N{fill:#698a9d}.O{fill:#552a1f}.P{fill:#e5935b}.Q{stroke:#879aa2}.R{stroke:#aec2ca}.S{stroke:#ca7646}.T{stroke:#cc8053}.U{fill:#f7cca4}.V{fill:#7c3c21}.W{fill:#fbb27b}.X{stroke:#a8b2b4}.Y{stroke:#a4928b}.Z{stroke:#693320}.a{stroke:#f0a36b}.b{stroke:#594a48}.c{fill:#65d0f3}.d{fill:#966d5b}.e{fill:#869ba7}.f{fill:#af5831}.g{stroke:#7e9fa7}.h{stroke:#a88c80}.i{stroke:#97837b}.j{stroke:#71838c}.k{stroke:#61c8eb}.l{stroke:#597581}.m{stroke:#868c8a}.n{stroke:#71868a}.o{stroke:#467189}.p{stroke:#b89b8c}.q{stroke:#b1683e}.r{stroke:#847a7a}.s{stroke:#864d3d}.t{stroke:#c8a491}.u{stroke:#bdcacf}.v{stroke:#a86e4d}.w{stroke:#91624d}.x{stroke:#d58556}.y{stroke:#6e6363}.z{fill:#d5a77f}.AA{fill:#5c6a70}]]></style><g fill="none" stroke-width="2"><path stroke="#9dbcb9" vector-effect="non-scaling-stroke" d="M99.32 14.08c-4.29 6.33-11.4 7.95-18.82 7.75q-1.64-.04-2.48-1.04-.57-.68-.86-.7-.6-.05-1.1.91"/><path stroke="#8ccde4" vector-effect="non-scaling-stroke" d="M76.06 21q-.15-.64.15-.8"/><path stroke="#67adc8" vector-effect="non-scaling-stroke" d="M76.21 20.2q-1.91-1.13-.92-2.35.44-.54-.25-.45c-4.78.58-7.83-1.27-11.9-2.59q-1.45-.47-3.96 1.15"/><path stroke="#ace5f5" vector-effect="non-scaling-stroke" d="M59.18 15.96q-.44-.26-.36-.67"/><path stroke="#619db2" vector-effect="non-scaling-stroke" d="M58.82 15.29q-1.58-1.16-3.16-.48-7.45 3.19-11.3 4.16-.42.1-.41.54l.01.58"/><path stroke="#8ccde4" vector-effect="non-scaling-stroke" d="M43.96 20.09q-1 .34-2.36.23-.52-.04-.71.45-.44 1.16-.76 1.1"/><path vector-effect="non-scaling-stroke" d="M40.13 21.87q-11.24 1.4-19.18-5.56-.59-.52-.53-1.14" class="g"/><path stroke="#ead3b4" vector-effect="non-scaling-stroke" d="M99.9 14.67q-6.51 7.69-17.07 7.66-.5 0-.88.33-1.21 1.09-1.1 2.83a1.66 1.65 82.5 0 0 1.97 1.52c6.53-1.29 15.6-5.06 18.01-11.48"/><path stroke="#e6ba92" vector-effect="non-scaling-stroke" d="M102.84 17.28q-1 .03-1.43.69-2.3 3.52-4.44 7.48"/><path stroke="#b68a6d" vector-effect="non-scaling-stroke" d="M96.97 25.45q-8.11 4.75-17.3 4.41-.59-.02-.74-.6-.56-2.14.31-4.84"/><path stroke="#c4b8aa" vector-effect="non-scaling-stroke" d="M79.24 24.42q-.21-2.73-2.94-2.57-.42.03-.48-.39-.05-.27.24-.46"/><path vector-effect="non-scaling-stroke" d="M58.82 15.29q-4.07-.38-8.35 2.5" class="X"/><path vector-effect="non-scaling-stroke" d="M50.47 17.79l-6.51 2.3" class="Q"/><path vector-effect="non-scaling-stroke" d="M76.21 20.2q-2.5-.43-3.85-.02" class="F"/><path vector-effect="non-scaling-stroke" d="M72.36 20.18q-2.31-.3-4.13-1.7-1.16-.88.19-.32c1.14.48 3.36 1.51 4.58.59q.56-.42-.13-.51-4.26-.49-8.13-2.38-2.44-1.19-4.7.38-.53.37-.86-.28" class="R"/><path stroke="#a49b98" vector-effect="non-scaling-stroke" d="M40.13 21.87q-.77 1.68 1.32 2.56a.29.28-48.6 0 1 .03.51l-.52.31q-.75.44.12.42l1.54-.05a.7.7 0 0 1 .67.46l.78 2.03q.24.63-.43.64l-2.42.03a.49.49 0 0 0-.18.94l1.68.69a.18.18 0 0 1-.02.34l-.94.27q-.51.15-.4.67.14.63.91 1.45"/><path stroke="#89553e" vector-effect="non-scaling-stroke" d="M42.27 33.14q-.95-.66-1.57.23"/><path vector-effect="non-scaling-stroke" d="M40.7 33.37c-3.84-.55-8.17-.98-11.5-2.25q-8.27-3.14-13.38-11.39" class="g"/><path stroke="#cab6a2" vector-effect="non-scaling-stroke" d="M18.51 16.93q.23 1.08.49 1.17"/><path stroke="#b68a6d" vector-effect="non-scaling-stroke" d="M19 18.1q.5 2.79 3.1 3.85.45.18.79.53c1.62 1.68 4.37 2.64 5.94 3.48q3.27 1.77 7.19 1.7.51-.01.89-.36 2.72-2.46-.65-4.22"/><path stroke="#cab6a2" vector-effect="non-scaling-stroke" d="M36.26 23.08c-6.36-1.7-10.96-1.63-16.11-6.72q-.37-.36-.87-.14"/><path vector-effect="non-scaling-stroke" d="M72.36 20.18q.58 3.04-2.98 1.47-2.43-1.07-3.85-1.31-.47-.08-.86-.35l-2.19-1.49a.19.19 0 0 0-.23.31q4.06 3.07 7.02 7.09" class="B"/><path vector-effect="non-scaling-stroke" d="M69.27 25.9c-3.02.19-4.54-1.33-6.11-3.56q-.47-.69-.31.13.74 3.75 4.39 4.83.81.24 0 .48-2.09.62-4.46-.33" class="X"/><path vector-effect="non-scaling-stroke" d="M62.78 27.45c-1.17-2.3-1.91-3.5-2.4-6.13q-.08-.43-.32-.06l-1.98 3.02a.33.33 0 0 1-.59-.29q.94-2.59.12-5.26-.14-.48-.64-.43-1.07.11-1.79 1.07a.38.38 0 0 1-.67-.34q.1-.35.26-.67.93-1.76-.79-.75-1.43.84-2.61 2a.87.87 0 0 1-1.4-.25q-.43-.91.5-1.57" class="B"/><path stroke="#ead3b4" vector-effect="non-scaling-stroke" d="M36.26 23.08l-.24 2.15a1.48 1.48 0 0 1-1.79 1.29Q25.04 24.49 19 18.1"/><path vector-effect="non-scaling-stroke" d="M62.78 27.45q-3.33-.36-6.07 1.45-.37.25-.61-.12-.09-.14-.1-.31-.03-.41-.44-.38l-3.5.29a.43.43 0 0 1-.3-.77c1.94-1.57 3.77-2.82 3.91-5.79q.02-.56-.22-.05c-.67 1.39-1.98 4.04-3.9 4.24a.43.43 0 0 1-.33-.75q.81-.69 1.43-1.55.29-.41-.15-.18l-5.03 2.59a.4.39-52.9 0 0 .1.74l1.7.35q.4.08.5.47l.22.9a.29.29 0 0 0 .17.21q1.47.62 2.99.19.52-.15 1.01.05l1.67.67a.72.71 53.6 0 0 .31.05l11.25-.54" class="Q"/><path vector-effect="non-scaling-stroke" d="M67.39 29.21q-3.63 2.65-6.77 2.22c-4.99-.7-10.5-.12-15.17-1.97q-1-.39-.72.64l.22.81q.13.49-.04.96l-.69 1.97q-.2.56.39.65 3.22.49 5.26 1.12c5.9 1.82 6.67 9.17 4.2 13.86" class="B"/><path vector-effect="non-scaling-stroke" d="M54.07 49.47q.19-1.04-.04-1.41a.39.39 0 0 0-.7.1q-1.36 4.48-4.79 5.17" class="F"/><path vector-effect="non-scaling-stroke" d="M48.54 53.33q-2.11-2.49-1.16-5.87" class="h"/><path vector-effect="non-scaling-stroke" d="M47.38 47.46q.26 2.03 1.33 3.42a1.15 1.15 0 0 0 2.06-.76q-.32-6.27-5.33-10.14a.22.22 0 0 1 .14-.39q.58.01 1.09.55 2.33 2.44 4.17 5.51a.41.41 0 0 0 .76-.15c.53-3.87-.69-8.09-4.59-9.6q-4.08-1.58-6.87 2.93" class="B"/><path stroke="#9cb2be" vector-effect="non-scaling-stroke" d="M40.14 38.83q-1.12.8-1.47-.18"/><path vector-effect="non-scaling-stroke" d="M38.67 38.65l3.6-5.51" class="i"/><path stroke="#9cb2be" vector-effect="non-scaling-stroke" d="M46 23.75q-1.49-.71-2.72-.65-1.11.06-.05.39l2.05.64"/><path vector-effect="non-scaling-stroke" d="M45.28 24.13l.67.44q.43.29.93.16 2.71-.7 4.53-2.82.17-.2.22-.43.09-.45-.25-.14c-1.55 1.41-3.33 2.27-5.38 2.41" class="Q"/><path vector-effect="non-scaling-stroke" d="M45.28 24.13q-.28-.42.72-.38" class="j"/><path stroke="#c79d80" vector-effect="non-scaling-stroke" d="M102.84 17.28q-1.43 4.54-5.87 8.17"/><path stroke="#79979f" vector-effect="non-scaling-stroke" d="M103.45 17.84q-3.91 9.2-12.85 12.86"/><path vector-effect="non-scaling-stroke" d="M90.6 30.7l-9.43 2.1" class="g"/><path stroke="#89553e" vector-effect="non-scaling-stroke" d="M81.17 32.8q-.92-1.34-2.11-1.73"/><path stroke="#c5b3a9" vector-effect="non-scaling-stroke" d="M79.06 31.07q-2.03-.62-2.45-4.13"/><path stroke="#796c66" vector-effect="non-scaling-stroke" d="M76.61 26.94q-.11-.26.94-1.42"/><path stroke="#a49b98" vector-effect="non-scaling-stroke" d="M77.55 25.52l1.69-1.1"/><path stroke="#57b3d6" vector-effect="non-scaling-stroke" d="M121 61.74q-.21-.1-.56-.1a.9.89-74.7 0 0-.77.44q-1.58 2.65-3.1 5.34-1.66 2.95-3.42 5.07-5.32 6.45-11.2 11.74"/><path stroke="#6c7e82" vector-effect="non-scaling-stroke" d="M101.95 84.23q-1.38-8.14-2.2-10.24-2.37-5.98-10.03-12.06"/><path vector-effect="non-scaling-stroke" d="M89.72 61.93q.56-.97 1.19-1.4.42-.29.66-.75l2.75-5.2q.15-.3-.13-.46l-.69-.4" class="k"/><path vector-effect="non-scaling-stroke" d="M93.5 53.72c4.03.04 10.32-.69 12.53-4.02q.28-.42.73-.61 6-2.53 7.94-8.65.8-2.51-1.97-4.43" class="l"/><path vector-effect="non-scaling-stroke" d="M112.73 36.01q-3.73-2.77-8.15-3.18" class="m"/><path vector-effect="non-scaling-stroke" d="M104.58 32.83q-2.11-2.02-5.8-1.13" class="l"/><path vector-effect="non-scaling-stroke" d="M98.78 31.7l-4.06 1.29" class="m"/><path stroke="#6c7e82" vector-effect="non-scaling-stroke" d="M94.72 32.99l-1.77.55"/><path vector-effect="non-scaling-stroke" d="M92.95 33.54q-.25-2.86-2.35-2.84" class="k"/><path vector-effect="non-scaling-stroke" d="M77.55 25.52q-.67.34-.87.09-.68-.82 1.16-2.21a.06.05-68.7 0 0-.04-.1l-4.03 1.04a.19.19 0 0 0 .02.37l1.08.16q.58.08.25.57-1.06 1.57-2.74.96-2.22-.8-3.11-.5" class="Q"/><path vector-effect="non-scaling-stroke" d="M40.7 33.37q-4.18 6.4-12.07 1.21" class="n"/><path stroke="#8a9492" vector-effect="non-scaling-stroke" d="M28.63 34.58l-8.3-2.96"/><path vector-effect="non-scaling-stroke" d="M20.33 31.62q-3.1-.56-4.88 1.22" class="o"/><path stroke="#8a9492" vector-effect="non-scaling-stroke" d="M15.45 32.84q-5.36.84-9.61 4.17"/><path stroke="#5fc4e7" vector-effect="non-scaling-stroke" d="M5.84 37.01q-.5-.27-1.08-.04"/><path vector-effect="non-scaling-stroke" d="M76.61 26.94l-9.22 2.27" class="X"/><path vector-effect="non-scaling-stroke" d="M79.06 31.07q-1.04 1.59-.69 1.75" class="p"/><path vector-effect="non-scaling-stroke" d="M78.37 32.82c.31 3.94-4.35 4.11-7.14 5.33" class="B"/><path vector-effect="non-scaling-stroke" d="M71.23 38.15l-2.68 2.04" class="R"/><path vector-effect="non-scaling-stroke" d="M68.55 40.19q-6.93 5.84-1.05 12.1" class="B"/><path vector-effect="non-scaling-stroke" d="M67.5 52.29q-.27-.66.55.44" class="R"/><path vector-effect="non-scaling-stroke" d="M68.05 52.73l-.11 1.17q-.05.5-.33.91-2.03 3.04-.95 5.99 1.2 3.3 6.07 9.37" class="B"/><path stroke="#d1a994" vector-effect="non-scaling-stroke" d="M72.73 70.17q.24.23.35.98.05.28-.19.43-.23.16-.45-.2"/><path vector-effect="non-scaling-stroke" d="M72.44 71.38q-2.55-1.6-6.01-1.94-1.3-.12-4.24-.81-2.08-.49-4.45-.12" class="Y"/><path vector-effect="non-scaling-stroke" d="M57.74 68.51q-.25-.64-1.32-.26a1.61 1.61 0 0 1-1.57-2.76c1.76-1.47 5.91-1.11 6.18-3.79a.38.37 71 0 0-.63-.31q-2.05 1.99-4.9 2.5a.52.52 0 0 1-.6-.61c.52-2.76 2.5-5.01 2.32-7.62q-.13-1.98-.84-3.92a.63.62 69.4 0 0-.8-.37q-1.68.63-2.17-.44" class="B"/><path vector-effect="non-scaling-stroke" d="M53.41 50.93l.66-1.46m3.34-6.5q.23 5.22 3.19 9.56.15.23.2-.04l2.45-13.64" class="R"/><path vector-effect="non-scaling-stroke" d="M63.25 38.85q.02-2.02 2.32-3.79 2.19-1.69 4.59-3.37.41-.29-.08-.15-5.62 1.59-8.38 7.07-.61 1.21-1.75 1.65-.42.16-.54.59l-.33 1.1q-.13.43-.35.04l-3.12-5.48a.36.36 0 0 0-.65.3l2.45 6.16" class="B"/><path vector-effect="non-scaling-stroke" d="M63.25 38.85l-3.57 5.16q-.35.5-.56-.07-.87-2.34-1.71-.97" class="F"/><path vector-effect="non-scaling-stroke" d="M62 63.75l4.79 2.01a.18.18 0 0 0 .17-.31q-2.16-1.59-4.8-2.2a.26.26 0 0 0-.16.5" class="B"/><path vector-effect="non-scaling-stroke" d="M92.95 33.54c-4 2.63-9.52 5.51-13.08.2q-.4-.6.31-.74l.99-.2" class="n"/><path vector-effect="non-scaling-stroke" d="M94.72 32.99l-.67.83" class="G"/><path vector-effect="non-scaling-stroke" d="M94.05 33.82q-5.35 1.66-7.17 6.33a1 1 0 0 0 1.23 1.32q1.16-.37 2.47-1.73" class="q"/><path vector-effect="non-scaling-stroke" d="M90.58 39.74q.67.79-.69 1.82a.4.4 0 0 0 .1.69q.64.26 2.15-.51" class="G"/><path vector-effect="non-scaling-stroke" d="M92.14 41.74q.38.42 1.42.4.69-.01.2.48-2.08 2.1-4.52.73-.52-.29-.81-.17-.37.16-.67.69" class="I"/><path vector-effect="non-scaling-stroke" d="M87.76 43.87q-2.84-3.25-7.23-5.21" class="Z"/><path vector-effect="non-scaling-stroke" d="M80.53 38.66l-2.16-5.84" class="i"/><path vector-effect="non-scaling-stroke" d="M20.33 31.62l-4.88 1.22" class="J"/><path vector-effect="non-scaling-stroke" d="M104.58 32.83l-5.8-1.13" class="K"/><path vector-effect="non-scaling-stroke" d="M28.63 34.58l-.21.49" class="G"/><path vector-effect="non-scaling-stroke" d="M28.42 35.07l-4.86-1.69q-1.2-.41-.24.41 1.36 1.15 3.02 1.68.47.15.75.57l2.86 4.34" class="S"/><path vector-effect="non-scaling-stroke" d="M29.95 40.38l.08 1.47q.04.73-.66.53l-1.41-.39" class="G"/><path vector-effect="non-scaling-stroke" d="M27.96 41.99q-.55-.87-1.42-.99-.5-.07-.84.31-.44.48-1.13.34-.67-.14-.1-.51l2.3-1.49q.27-.18-.02-.32-.81-.41-1.75.2-.59.38-1.23-.04" class="J"/><path vector-effect="non-scaling-stroke" d="M23.77 39.49q-.12-1.35-1.55-2.11a.48.48 0 0 1 .36-.88l2.65.81a.23.23 0 0 0 .22-.4c-2.62-2.13-4.38-1.66-7.53-1.94q-.4-.03-.64.25-.38.43.19.46 1.39.1 1.46 1.2" class="K"/><path vector-effect="non-scaling-stroke" d="M18.93 36.88l-4.95 1.52" class="J"/><path vector-effect="non-scaling-stroke" d="M13.98 38.4q-1.13-.13-1.81.81-.94 1.31.67 1.46 3.49.32 6.43 2.39a1.1 1.09-71.4 0 1 .46.93c-.04 1.45-1 2.02-.57 3.74q.24.97.48-.01l.32-1.29a.43.42-53.9 0 1 .78-.13l3.38 5.5" class="G"/><path stroke="#ca7146" vector-effect="non-scaling-stroke" d="M24.12 51.8q-5.23-.36-6.42-4.37-.48-1.61-1.06-2.05-1.23-.9-2.63.4-.48.44-.57-.21-.34-2.25-2.71-1.53-.58.18-.95-.29-3.47-4.42.58-7.77a.27.26-67.4 0 0-.19-.47c-5.09.52-5.46 4.46-3.01 8.05q1.77 2.59 4.36 4.23 1.34.85 3.77 2.69 2.04 1.54 4.76 2.17"/><path vector-effect="non-scaling-stroke" d="M20.05 52.65q-.07.21-.15.41" class="J"/><path vector-effect="non-scaling-stroke" d="M19.9 53.06c-3.83-.52-5.23-2.86-8-4.41q-1.85-1.04-4.24-2.67" class="m"/><path stroke="#848886" vector-effect="non-scaling-stroke" d="M7.66 45.98q-.78-1.96-2.16-4.74c-.84-1.71-.56-2.71.34-4.23"/><path vector-effect="non-scaling-stroke" d="M112.73 36.01q-.15.28.02.43" class="K"/><path stroke="#ca7146" vector-effect="non-scaling-stroke" d="M112.75 36.44l-2.25-.97a.52.52 0 0 0-.6.82q3.32 3.82-.21 7.44a1.04 1.02-51.1 0 1-1.31.15q-.55-.35-1.05-.26-.54.09-.53.64l.03 1.54a.4.4 0 0 1-.72.24q-.96-1.32-2.64-1.04-.56.09-.72.64c-1.08 3.73-2.37 6.15-6.71 6.2"/><path vector-effect="non-scaling-stroke" d="M96.04 51.84q.86-3.43 3.01-5.74.47-.51.88.05l.44.61a.36.36 0 0 0 .61-.36l-.93-2.04a.74.73-36.1 0 1 .13-.8c1.11-1.22 3.34-1.5 3.93-2.43q.2-.32.57-.37l3.43-.49a.42.42 0 0 0 .19-.75q-2.72-2.01-6.24-2.21" class="G"/><path vector-effect="non-scaling-stroke" d="M102.06 37.31q-3.82-.85-6.36 1.49-.36.34-.86.34l-1.93.01a.37.37 0 0 0-.08.74l1.4.3a.32.32 0 0 1 0 .62q-1.26.26-2.09.93" class="J"/><path vector-effect="non-scaling-stroke" d="M90.58 39.74q1.26-3.07 3.85-5.33.31-.27-.04-.48-.13-.08-.34-.11" class="S"/><path vector-effect="non-scaling-stroke" d="M94.69 36.87l7.34-1.27q1.1-.19.01-.4-4.06-.8-7.47 1.34a.18.18 0 0 0 .12.33" class="J"/><path stroke="#816c64" vector-effect="non-scaling-stroke" d="M38.67 38.65q-.5.71-.1 1.41"/><path vector-effect="non-scaling-stroke" d="M38.57 40.06l-1.9 4.62a.53.53 0 0 0 .93.51q1.2-1.71 3.57-.84" class="H"/><path vector-effect="non-scaling-stroke" d="M41.17 44.35q-4.78 1.49-5.84 3.91-.2.46-.59.76-3.84 2.91-7.6 3.89" class="I"/><path stroke="#b0633e" vector-effect="non-scaling-stroke" d="M27.14 52.91q-1.05-1.03-3.02-1.11"/><path vector-effect="non-scaling-stroke" d="M13.98 38.4q4.54 1.19 7.77 3.58 4.3 3.17 7.02 7.67.27.46.8.41 3.33-.3 4.65-3.34a.64.64 0 0 0-.13-.71l-2.51-2.49q-.34-.35-.79-.14-2.57 1.24-4.71-.74-.44-.4.14-.56.82-.23 1.74-.09" class="I"/><path vector-effect="non-scaling-stroke" d="M29.95 40.38q1.23 1.01 2.35 1.14.62.07.64-.56c.08-2.56-2.54-4.83-4.52-5.89" class="q"/><path vector-effect="non-scaling-stroke" d="M80.53 38.66q.35.26.33.77" class="r"/><path stroke="#d7bea8" vector-effect="non-scaling-stroke" d="M80.86 39.43q-.11.43-1.3.14"/><path vector-effect="non-scaling-stroke" d="M79.56 39.57q.37-1-.81-1.94c-1.73-1.39-5.29.01-7.01.99" class="B"/><path vector-effect="non-scaling-stroke" d="M71.74 38.62q-.09-.25-.51-.47" class="F"/><path vector-effect="non-scaling-stroke" d="M23.77 39.49l-4.84-2.61" class="L"/><path vector-effect="non-scaling-stroke" d="M27.14 52.91l-7.09-.26" class="s"/><path stroke="#9d5a3d" vector-effect="non-scaling-stroke" d="M112.75 36.44c3.69 2.7.29 6.99-2.2 9.63-1.31 1.39-3.18 1.83-4.67 3.13-3.86 3.37-7.79 4.32-12.95 3.65"/><path stroke="#b0633e" vector-effect="non-scaling-stroke" d="M92.93 52.85q-.07-1.02 3.11-1.01"/><path vector-effect="non-scaling-stroke" d="M47.38 47.46l-.46-2.55" class="t"/><path stroke="#f7d6b9" vector-effect="non-scaling-stroke" d="M46.92 44.91q-1-2.65-3.32-4.22"/><path vector-effect="non-scaling-stroke" d="M43.6 40.69q-1.3-1.3-3.46-1.86" class="u"/><path stroke="#5d7d89" vector-effect="non-scaling-stroke" d="M93.5 53.72l-2.42-.74"/><path vector-effect="non-scaling-stroke" d="M91.08 52.98q-2.19-2.06-4.99-3.09a1.39 1.38-5.1 0 1-.71-.59l-2.28-3.7" class="L"/><path vector-effect="non-scaling-stroke" d="M83.1 45.6q.37-3.09-2.24-6.17" class="v"/><path vector-effect="non-scaling-stroke" d="M87.76 43.87c-3.68 2.68-.59 6.01 2.79 5.76q.53-.04.85-.47l3.29-4.52" class="L"/><path vector-effect="non-scaling-stroke" d="M94.69 44.64q.47 3.16-.27 4.61-.92 1.8-2.5 2.36a.61.61 0 0 0-.03 1.14q.67.28 1.04.1" class="Z"/><path stroke="#5abcdf" vector-effect="non-scaling-stroke" d="M7.66 45.98q2.29 8.6 7.54 17.34 8.01 13.32 21.59 19.65"/><path stroke="#57717d" vector-effect="non-scaling-stroke" d="M36.79 82.97l-4.24 13.55"/><path stroke="#55afd2" vector-effect="non-scaling-stroke" d="M32.55 96.52q-.26.77-1.29-.1c-.72-.61-2.02-.54-3.07-1.28q-4.81-3.4-9.82-6.51-3.06-1.9-9.65-9.46-3.51-4.02-7.09-11.42-.77-1.59-.64-2.54.08-.61-.41-.24l-.37.29"/><path stroke="#f7d6b9" vector-effect="non-scaling-stroke" d="M79.56 39.57q-4.21 1.4-6.03 6"/><path vector-effect="non-scaling-stroke" d="M73.53 45.57l-1.85 4.64" class="p"/><path vector-effect="non-scaling-stroke" d="M71.68 50.21q-.46 1.76-2.13 1.98a.66.66 0 0 1-.7-.44c-1.11-3.3-1.33-11.58 2.89-13.13" class="R"/><path vector-effect="non-scaling-stroke" d="M102.06 37.31q.27 1.41-1.62 1.76-.56.1-.68.67-.45 2.2-2.71 2.52-.38.06-.43.44-.25 2.02-1.93 1.94" class="I"/><path stroke="#73635f" vector-effect="non-scaling-stroke" d="M71.68 50.21L71.26 57"/><path vector-effect="non-scaling-stroke" d="M71.26 57q-1.12-2.73-3.21-4.27m-.55-.44c-.2-3.12-.96-5.54-.01-8.55q.5-1.61 1.06-3.55" class="F"/><path stroke="#c1a791" vector-effect="non-scaling-stroke" d="M43.6 40.69l-5.03-.63"/><path vector-effect="non-scaling-stroke" d="M83.1 45.6q-2.78-3.19-7.06.45" class="w"/><path vector-effect="non-scaling-stroke" d="M76.04 46.05q-.1-1.93-2.51-.48" class="H"/><path vector-effect="non-scaling-stroke" d="M46.92 44.91l-.82.35q-.47.19-.81-.19l-.98-1.09q-.49-.56-.48.18l.04 1.79" class="T"/><path vector-effect="non-scaling-stroke" d="M43.87 45.95l-2.7-1.6" class="w"/><path stroke="#836c64" vector-effect="non-scaling-stroke" d="M48.54 53.33l1.28 3.13"/><path vector-effect="non-scaling-stroke" d="M49.82 56.46q-.81 3.9.41 7.85" class="h"/><path stroke="#836c64" vector-effect="non-scaling-stroke" d="M50.23 64.31l-.85 3.92q-.1.47-.04.95l.12.88"/><path vector-effect="non-scaling-stroke" d="M49.46 70.06q-.21.62-.71.9" class="h"/><path vector-effect="non-scaling-stroke" d="M48.75 70.96q-2.18 1.97-2.52 5.19" class="t"/><path stroke="#793c25" vector-effect="non-scaling-stroke" d="M46.23 76.15q-.8.65-1.17 2.04-.25.97-.63.04l-1.7-4.14"/><path vector-effect="non-scaling-stroke" d="M42.73 74.09q2.12-6.76 2.76-13.43.04-.47.43-.21l.96.67a.46.45 23.7 0 0 .7-.27q.8-3.4-.99-6.34-.38-.63-.78-.01l-3.54 5.43a.86.82-28.6 0 0-.13.41q-.13 2.57-.23 5.13-.01.42-.26.64-.44.39-.52-.19l-.38-2.9q-.15-1.14-.44-.03-.67 2.58.45 5.23" class="T"/><path stroke="#793c25" vector-effect="non-scaling-stroke" d="M40.76 68.22q-.39-.44-.77-.46"/><path stroke="#818f8f" vector-effect="non-scaling-stroke" d="M39.99 67.76l-.7-10.02a1.56 1.56 0 0 0-.24-.72q-1.98-3.08-1.71-6.79.03-.46.42-.21.16.11.25.44"/><path vector-effect="non-scaling-stroke" d="M38.01 50.46q1.22 1.51 5.56.43" class="t"/><path stroke="#623025" vector-effect="non-scaling-stroke" d="M43.57 50.89q4.38 1.21.3-4.94"/><path vector-effect="non-scaling-stroke" d="M44.21 52.02l-5.99.19a.21.21 0 0 0-.21.21l.01.32a4.23 3.18 88.2 0 0 3.31 4.13h.06a4.23 3.18 88.2 0 0 3.05-4.33l-.01-.32a.21.21 0 0 0-.22-.2" class="T"/><path vector-effect="non-scaling-stroke" d="M43.57 50.89q1.15-2.24-.53-3.84-.45-.44-.49.19l-.1 1.75a1.05 1 67.4 0 1-.22.58q-1.26 1.56-4-.1" class="M"/><path vector-effect="non-scaling-stroke" d="M38.23 49.47q-1.36-.56-1.93-.15-6.88 4.95-14.27 4.31" class="o"/><path stroke="#426981" vector-effect="non-scaling-stroke" d="M22.03 53.63l-2.13-.57"/><path vector-effect="non-scaling-stroke" d="M39.95 46a.86.86 0 0 0-.5 1.59q1.36.84 1.55-.83a.69.68 2.9 0 0-.69-.76q-.17.01-.36 0" class="M"/><path vector-effect="non-scaling-stroke" d="M91.08 52.98q-3.56-1.44-8.08-4.06-.39-.22-.57.29" class="o"/><path vector-effect="non-scaling-stroke" d="M82.43 49.21c-1.05.5-2.34 1.18-3.46.82q-1.65-.53-1.21-2.77a.34.34 0 0 0-.57-.31q-1.65 1.58-.81 3.95" class="M"/><path vector-effect="non-scaling-stroke" d="M76.38 50.9q-3.37.53-.34-4.85" class="I"/><path vector-effect="non-scaling-stroke" d="M79.05 46.74a.59.58 89 0 0 .75.73l.88-.31a.58.58 0 0 0 .06-1.07q-1.29-.63-1.69.65" class="M"/><path vector-effect="non-scaling-stroke" d="M76.38 50.9q4.61.75 6.18-1.17" class="p"/><path vector-effect="non-scaling-stroke" d="M82.56 49.73q.39 2.91-.75 6.04a.67.66 20.2 0 0 .4.85q4.97 1.74 7.51 5.31" class="n"/><path stroke="#677175" vector-effect="non-scaling-stroke" d="M101.95 84.23l-.06 20.44"/><path stroke="#ba8463" vector-effect="non-scaling-stroke" d="M100.54 105.8q.09-1.33.46-1.82"/><path vector-effect="non-scaling-stroke" d="M101 103.98l-2.89-16.99q-.02-.11.08-.12.05 0 .11-.01.02 0 .08.14l1.75 4.27a.52.52 0 0 0 .99-.12q.95-6.4-1.18-13.09" class="H"/><path stroke="#ba8463" vector-effect="non-scaling-stroke" d="M99.94 78.06q-1.32-7.86-7.95-12.97-.75-.58-.41.31l1.94 5.14"/><path vector-effect="non-scaling-stroke" d="M93.52 70.54q-.14.76-.78-.12-.18-.25-.27-.62c-1.76-7-4.21-9.84-10.82-12.68a.57.57 0 0 0-.77.68q.32 1.06 1.47 1.91" class="H"/><path stroke="#8d4526" vector-effect="non-scaling-stroke" d="M82.35 59.71l-.44.34"/><path vector-effect="non-scaling-stroke" d="M81.91 60.05l-.29-.29q-.47-.49-.67.15-.31.96-.18 2.05" class="H"/><path vector-effect="non-scaling-stroke" d="M80.77 61.96q-.55-.24-.85.52" class="Z"/><path vector-effect="non-scaling-stroke" d="M79.92 62.48q-.18-.99-.79-.06a.19.15-38 0 0-.02.08l-.23 2.51q-.4 4.58-.72-.01-.16-2.18-.25-4.36-.02-.53-.31-.98l-3.09-4.79q-.33-.51-.81-.12-1.26 1.05-1.41 3.03" class="H"/><path vector-effect="non-scaling-stroke" d="M72.29 57.78q-.55.83-.71.52" class="G"/><path vector-effect="non-scaling-stroke" d="M71.58 58.3l-.32-1.3" class="i"/><path vector-effect="non-scaling-stroke" d="M81.66 51.91l-5.84.22a.3.3 0 0 0-.29.31l.02.34a4.18 3.19 87.9 0 0 3.34 4.06h.06a4.18 3.19 87.9 0 0 3.03-4.3l-.01-.34a.3.3 0 0 0-.31-.29" class="H"/><path vector-effect="non-scaling-stroke" d="M22.03 53.63q-1.65.13-2.43.57-.48.27-.27.79 3.49 8.53 9.94 14.92 1.74 1.72 4.75 3.73 2.53 1.68 5.03 3.42" class="k"/><path vector-effect="non-scaling-stroke" d="M39.05 77.06l-2.26 5.91" class="l"/><path vector-effect="non-scaling-stroke" d="M38.01 50.46q-.05-.63.22-.99m44.2-.26q-.09.59.13.52" stroke="#ace5f5"/><path vector-effect="non-scaling-stroke" d="M53.41 50.93l-3.59 5.53" class="F"/><path stroke="#5d7d89" vector-effect="non-scaling-stroke" d="M39.99 67.76l1.38 4.94a1.13 1.08-37.9 0 1-.13.88l-2.19 3.48"/><path vector-effect="non-scaling-stroke" d="M57.74 68.51l5.52 1.85" class="r"/><path vector-effect="non-scaling-stroke" d="M63.26 70.36l-14.51.6" class="B"/><path vector-effect="non-scaling-stroke" d="M49.46 70.06c1.59-.16 2.4-1.52 2.37-3.14q-.1-5.98 3.92-10.41a.38.37 10.2 0 0-.42-.6l-1.46.58a.5.49 73.4 0 1-.67-.37l-.38-1.87a.36.36 0 0 0-.71.1q.35 5.25-1.88 9.96" class="F"/><path stroke="#b19183" vector-effect="non-scaling-stroke" d="M71.58 58.3q-.06 2.27-.15 4.56c-.11 2.81 1.14 4.47 1.3 7.31"/><path vector-effect="non-scaling-stroke" d="M42.73 74.09l-1.97-5.87m39.16-5.74q.57 6.04-2.75 12.33" class="v"/><path vector-effect="non-scaling-stroke" d="M77.17 74.81q-.1-7.78-2.7-14.37-.25-.64-.59-.04l-.22.39a.47.47 0 0 1-.83-.04q-.62-1.35-.54-2.97" class="x"/><path vector-effect="non-scaling-stroke" d="M93.52 70.54q4.21 5.28 4.9 12.19.03.22.18.37l.4.4a.23.23 0 0 0 .39-.14l.55-5.3m1.06 25.92q-5.39-7.24-6.4-11.59-1.19-5.14-3.26-11.51a.46.46 0 0 0-.89.22l.34 1.92" stroke="#f9bf90"/><path vector-effect="non-scaling-stroke" d="M90.79 83.02q-.4-.4-.83-.41-.57-.01-.62.56l-.48 5.92q-.05.61-.51.22-.23-.2-.24-.56-.08-2.85-.3-5.72" class="a"/><path vector-effect="non-scaling-stroke" d="M87.81 83.03q-1.52-8.52-2.44-17.15-.32-3.08-3.02-6.17" class="T"/><path vector-effect="non-scaling-stroke" d="M91.8 71.12c-.71-1.37-1.35-3.57-2.51-5.08q-.55-.72-.45.18.96 9.04 6.48 16.22.62.81.42-.19-1.18-5.87-3.94-11.13" class="a"/><path vector-effect="non-scaling-stroke" d="M77.17 74.81q.23.81-.67 2.47a.39.39 0 0 1-.74-.16q-.23-2.84-2.05-5.12-.18-.23-.46-.2-.3.03-.81-.42" class="K"/><path vector-effect="non-scaling-stroke" d="M81.91 60.05c3.47 6.22 3.13 13.16 3.8 20.06" class="T"/><path vector-effect="non-scaling-stroke" d="M85.71 80.11q-1.1 5.3-.11 11.07" class="a"/><path vector-effect="non-scaling-stroke" d="M85.6 91.18q-1.04 4.27-.49 8.67" class="x"/><path stroke="#e8ad7d" vector-effect="non-scaling-stroke" d="M85.11 99.85l-1.97 11.68"/><path stroke="#d9a077" vector-effect="non-scaling-stroke" d="M83.14 111.53l-2.36-.31"/><path vector-effect="non-scaling-stroke" d="M80.78 111.22q2.01-8.61 2.82-17.21.36-3.8-.04-9.51-.35-4.87-.39-9.52" class="a"/><path vector-effect="non-scaling-stroke" d="M83.17 74.98q.12-5.9-1.66-10.49" class="x"/><path vector-effect="non-scaling-stroke" d="M81.51 64.49l-.74-2.53" class="v"/><path stroke="#c17143" vector-effect="non-scaling-stroke" d="M87.81 83.03l-.09 1.39q-.07.94-.39.06l-1.62-4.37"/><path vector-effect="non-scaling-stroke" d="M81.51 64.49q-1.56 7.84-4.4 14.75-.55 1.34.17 6.27a1.07 1.06-28.9 0 1-.25.85l-2.55 2.97q-.29.34-.21.77.8 4.81-.65 8.84" class="K"/><path stroke="#9d5f3d" vector-effect="non-scaling-stroke" d="M73.62 98.94l-.62 3.63"/><path vector-effect="non-scaling-stroke" d="M73 102.57l-.38 2.88" class="K"/><path stroke="#865c49" vector-effect="non-scaling-stroke" d="M72.62 105.45q-.91 4.86-3.6 7.69"/><path stroke="#a67b62" vector-effect="non-scaling-stroke" d="M69.02 113.14c2.66-6.84 2.86-11.3 3.5-17.65"/><path stroke="#9d5f3d" vector-effect="non-scaling-stroke" d="M72.52 95.49q.91-2.92.21-5.56-.21-.82-.7-.12l-2.88 4.12"/><path vector-effect="non-scaling-stroke" d="M69.15 93.93q-9.06 2.54-7.43 13.21" class="Z"/><path vector-effect="non-scaling-stroke" d="M61.72 107.14q-3.95-5.74-1.58-12.21" class="L"/><path vector-effect="non-scaling-stroke" d="M60.14 94.93l5.46-.96" class="b"/><path vector-effect="non-scaling-stroke" d="M65.6 93.97q2.7-.48 3.75-2.1" class="y"/><path vector-effect="non-scaling-stroke" d="M69.35 91.87q1.19-.93 1.39-2.05" class="Y"/><path vector-effect="non-scaling-stroke" d="M70.74 89.82l-.09-.41q-.13-.58.46-.57 2.02.01 3.35-1.07" class="b"/><path vector-effect="non-scaling-stroke" d="M74.46 87.77q.27 0 .25-.26" class="r"/><path vector-effect="non-scaling-stroke" d="M74.71 87.51c.91-.6 1.61-1.34 1.55-2.54-.42-8.64-1.94-16.19-13-14.61" class="Y"/><path vector-effect="non-scaling-stroke" d="M83.17 74.98q-1.42 5.07-1.93 10.3-.17 1.75.46 4.81c.86 4.16-.52 7.95-.48 11.97q.04 4.78-1.28 9.39" class="S"/><path stroke="#b37352" vector-effect="non-scaling-stroke" d="M79.94 111.45q.12 1.48-1.18 2.19-.46.25-.88-.05-.55-.39-.85.13a.44.44 0 0 1-.82-.21l.06-7.28a.58.58 0 0 0-1.16-.1l-.25 1.53a.35.35 0 0 1-.69-.01l-.29-1.9a.51.51 0 0 0-.48-.44q-.37-.01-.78.14"/><path vector-effect="non-scaling-stroke" d="M73 102.57q1.43.09 1.78-1.22c.85-3.17 1.96-5.78 2.21-9.16a.2.2 0 0 0-.24-.21q-.12.03-.25.06-.26.05-.29.31-.46 3.89-2.59 6.59" class="S"/><path stroke="#546874" vector-effect="non-scaling-stroke" d="M32.55 96.52l-.89 5.01"/><path stroke="#6e8086" vector-effect="non-scaling-stroke" d="M31.66 101.53l-.37 3.62"/><path stroke="#51a0c2" vector-effect="non-scaling-stroke" d="M31.29 105.15q-.03 1.29-.49 2.06-.27.43-.75.29-8.05-2.33-14.01-8.04-.06-.05-.12-.01-.15.08-.31.14-.09.04-.14-.05-1.3-2.5-3.8-3.31"/><path vector-effect="non-scaling-stroke" d="M46.23 76.15l-.65 4.71" class="Y"/><path vector-effect="non-scaling-stroke" d="M45.58 80.86q-2.17 3.58-.71 5.69" class="y"/><path vector-effect="non-scaling-stroke" d="M44.87 86.55q1.49 2.51 4.84 2.44.48-.02.54.46.34 2.9 3.48 4.14" class="b"/><path vector-effect="non-scaling-stroke" d="M53.73 93.59q.87 5.43 3.1 10.1 1.01 2.12 1.57 8.73" class="L"/><path stroke="#543e3f" vector-effect="non-scaling-stroke" d="M58.4 112.42q-3.53-.07-5.79-1.82"/><path stroke="#764c3d" vector-effect="non-scaling-stroke" d="M52.61 110.6l-.83-2.78q-.19-.62-.48-.05l-.5.95a1.24 1.24 0 0 1-2.23-.09l-1.13-2.62a.26.26 0 0 0-.49.14q.67 4.53 1.46 6.67"/><path stroke="#5f5a5e" vector-effect="non-scaling-stroke" d="M48.41 112.82l1.27 2.77a.12.11-83.3 0 1-.17.14l-6.52-5.47"/><path stroke="#6f4231" vector-effect="non-scaling-stroke" d="M42.99 110.26l-2.04-4.08q-.2-.4-.56-.68l-1.86-1.44q-.47-.36-.45-.95l.14-4.92a.52.52 0 0 0-.86-.42l-2.14 1.81a.43.43 0 0 1-.69-.21c-1.1-3.71 1.75-9.66 2.96-13.27q.04-.1-.04-.16-.13-.1-.29-.24a.34.33-61 0 0-.54.16L31.93 102q-.1.32-.21.01-.07-.17-.06-.48"/><path vector-effect="non-scaling-stroke" d="M74.71 87.51q-3.54-.25-6.55-2.18-.36-.23-.39-.91" class="B"/><path stroke="#ecc1a9" vector-effect="non-scaling-stroke" d="M67.77 84.42l.73-.79"/><path vector-effect="non-scaling-stroke" d="M68.5 83.63q2.23-4.2 2.74-8.9" class="M"/><path stroke="#c5b3a9" vector-effect="non-scaling-stroke" d="M71.24 74.73c.09-1.51-.86-2.21-2.32-1.81-4.27 1.17-8.24.7-12.62.83-1.83.05-3.3-.65-5.06-1.04"/><path vector-effect="non-scaling-stroke" d="M51.24 72.71q-1.1.13-1.79.72" class="M"/><path vector-effect="non-scaling-stroke" d="M49.45 73.43q-2.46 4.48-2.49 10.07 0 1.16.48 1.87.22.33-.11.55l-.26.17a.49.49 0 0 1-.66-.13q-1.38-1.85-.83-5.1" class="u"/><path stroke="#5f3f3d" vector-effect="non-scaling-stroke" d="M51.24 72.71q-.2.36-.06.47"/><path stroke="#8f6f62" vector-effect="non-scaling-stroke" d="M51.18 73.18c-1.11 2.53 2.44 3.29 4.01 4.24"/><path vector-effect="non-scaling-stroke" d="M55.19 77.42c2.25 2.42 1.43 4.21-1.49 5.14a.92.91 87.4 0 0-.62.69l-.17.81" class="s"/><path vector-effect="non-scaling-stroke" d="M52.91 84.06q.44-.52-.57.08" class="L"/><path stroke="#575663" vector-effect="non-scaling-stroke" d="M52.34 84.14q-2.4-4.58-2.89-10.71"/><path stroke="#5f3f3d" vector-effect="non-scaling-stroke" d="M71.24 74.73q-1.18-.31-1.16.15"/><path stroke="#c9906b" vector-effect="non-scaling-stroke" d="M70.08 74.88q-.2-1-.57-.94-6.2 1.08-13.55.85"/><path stroke="#c79d80" vector-effect="non-scaling-stroke" d="M55.96 74.79q-1.93-.04-4.78-1.61"/><path stroke="#f9bf90" vector-effect="non-scaling-stroke" d="M55.96 74.79q4.03 2.34 2.33 3.48"/><path stroke="#eeab80" vector-effect="non-scaling-stroke" d="M58.29 78.27l-3.1-.85"/><path vector-effect="non-scaling-stroke" d="M52.34 84.14l4.61 2.71" class="y"/><path vector-effect="non-scaling-stroke" d="M56.95 86.85q-5.66 1.53-12.08-.3" class="j"/><path vector-effect="non-scaling-stroke" d="M70.08 74.88L65.3 77.4" class="w"/><path stroke="#f09e6b" vector-effect="non-scaling-stroke" d="M65.3 77.4c-2.27.47-4.7 2.25-7.01.87"/><path vector-effect="non-scaling-stroke" d="M68.5 83.63c-2.76-1.35-5.73-2.55-3.2-6.23" class="s"/><path stroke="#ce9067" vector-effect="non-scaling-stroke" d="M80.78 111.22q-.04-.3-.84.23"/><path stroke="#cba998" vector-effect="non-scaling-stroke" d="M67.77 84.42q-.8.2-1.56.82"/><path stroke="#a07a66" vector-effect="non-scaling-stroke" d="M66.21 85.24q-.63-.07-1.17.47"/><path stroke="#9d5a3d" vector-effect="non-scaling-stroke" d="M65.04 85.71q.37-1.13-.54-1.46-4.99-1.78-11.59-.19"/><path stroke="#eeb080" vector-effect="non-scaling-stroke" d="M90.79 83.02l3.67 13.61"/><path stroke="#dd9d6d" vector-effect="non-scaling-stroke" d="M94.46 96.63q-.09 5.9-3.42 9.75-1.67 1.93-5.28 1.45-.34-.05-.33-.38l.03-5.74"/><path vector-effect="non-scaling-stroke" d="M85.46 101.71l.7 2.78a.34.34 0 0 0 .65.03l.49-1.3a.67.67 0 0 1 1.08-.27l1.35 1.22q.26.24.42-.07.17-.33-.11-.65-1.77-2.07-2.68-4.37c-.99-2.48-.37-5.76-.88-8.69a.36.36 0 0 0-.54-.24q-.44.26-.34 1.03" class="S"/><path stroke="#e6ba92" vector-effect="non-scaling-stroke" d="M100.54 105.8l-1.23.06q-.48.02-.69-.42l-4.16-8.81"/><path vector-effect="non-scaling-stroke" d="M65.04 85.71q-1 .8-1.18 1.9-.07.46-.52.57-4.09.95-6.39-1.33" class="b"/><path vector-effect="non-scaling-stroke" d="M74.46 87.77q-3.94.59-7.5-1.12-1.29-.63-.75-1.41" class="Q"/><path vector-effect="non-scaling-stroke" d="M70.74 89.82l-1.65.05" class="X"/><path vector-effect="non-scaling-stroke" d="M69.09 89.87q-8.53-2.11-17.12-.32a.54.54 0 0 0-.12 1.02q6.26 2.86 13.75 3.4" class="j"/><path stroke="#423e48" vector-effect="non-scaling-stroke" d="M60.14 94.93l-6.41-1.34"/><path stroke="#797270" vector-effect="non-scaling-stroke" d="M42.99 110.26q-1.96-.55-3.1-2.1-.31-.43-.81-.62l-5.17-1.97q-.47-.18-.65-.65l-.73-1.87a.31.31 0 0 0-.6.09l-.2 4.43"/><path stroke="#6c797e" vector-effect="non-scaling-stroke" d="M31.73 107.57l-.44-2.42"/><path vector-effect="non-scaling-stroke" d="M69.09 89.87l-8.53 1.35a.34.34 0 0 0 .06.67l8.73-.02" class="u"/><path stroke="#eeb080" vector-effect="non-scaling-stroke" d="M72.52 95.49q.11-.5-.03-.57a.62.62 0 0 0-.9.44q-.96 5.55-1.55 11.39-.25 2.47-2.44 5.63"/><path stroke="#ce9067" vector-effect="non-scaling-stroke" d="M67.6 112.38q-2.78.53-3-1.14"/><path vector-effect="non-scaling-stroke" d="M64.6 111.24l.35-5.77a.4.4 0 0 0-.71-.27l-.44.57a.56.56 0 0 1-.84.05c-2.27-2.34 1.45-6.66 2.84-8.89a.42.42 0 0 1 .77.32l-.72 3.23a.22.21-27.1 0 0 .41.13l2.89-6.68" class="q"/><path stroke="#c28058" vector-effect="non-scaling-stroke" d="M85.46 101.71l-.35-1.86"/><path vector-effect="non-scaling-stroke" d="M61.72 107.14l1.37 4.45" class="I"/><path stroke="#3d323f" vector-effect="non-scaling-stroke" d="M63.09 111.59q-.19 3.82-4.69.83"/><path stroke="#9a654a" vector-effect="non-scaling-stroke" d="M64.6 111.24l-.96 2.97"/><path stroke="#674740" vector-effect="non-scaling-stroke" d="M63.64 114.21l-.55-2.62"/><path stroke="#d7ad8b" vector-effect="non-scaling-stroke" d="M69.02 113.14q-1.25 2.2-2.91 2.06-.51-.05-.21-.46l1.7-2.36"/><path stroke="#5c92ac" vector-effect="non-scaling-stroke" d="M31.73 107.57q-.37 1.06.4 1.55 6.79 4.33 16.32 7.67c1.9.67 3.01 2.17 5.09 2.76q.49.13.52.64.02.28-.24.46"/><path stroke="#9f998e" vector-effect="non-scaling-stroke" d="M84.03 116.22q.31-1.61-.16-3.11-.14-.46-.55-.2l-.32.21"/><path stroke="#c69a79" vector-effect="non-scaling-stroke" d="M83 113.12q.7-.87.14-1.59"/><path stroke="#807c7c" vector-effect="non-scaling-stroke" d="M48.41 112.82l2.82-.33q.54-.06.77.42.73 1.51 1.98 1.14"/><path stroke="#5e6e7e" vector-effect="non-scaling-stroke" d="M53.98 114.05l1.92 3.62q.23.43.72.46 1.63.09 2.78 1.32a1.28 1.27 36.8 0 0 2.08-.3l1.47-3.02"/><path stroke="#908c88" vector-effect="non-scaling-stroke" d="M62.95 116.13q7.03-.46 13.62-.37.14 0 2.07.3 2.65.4 4.36-2.94"/><path stroke="#857069" vector-effect="non-scaling-stroke" d="M62.95 116.13l.69-1.92"/><path stroke="#74605d" vector-effect="non-scaling-stroke" d="M52.61 110.6l1.37 3.45"/></g><path d="M56.91 0h7.29q19.85 1.64 35.12 14.08c-4.29 6.33-11.4 7.95-18.82 7.75q-1.64-.04-2.48-1.04-.57-.68-.86-.7-.6-.05-1.1.91-.15-.64.15-.8-1.91-1.13-.92-2.35.44-.54-.25-.45c-4.78.58-7.83-1.27-11.9-2.59q-1.45-.47-3.96 1.15-.44-.26-.36-.67-1.58-1.16-3.16-.48-7.45 3.19-11.3 4.16-.42.1-.41.54l.01.58q-1 .34-2.36.23-.52-.04-.71.45-.44 1.16-.76 1.1-11.24 1.4-19.18-5.56-.59-.52-.53-1.14Q35.94 1.69 56.91 0z" class="c"/><path d="M99.32 14.08q.19.31.58.59-6.51 7.69-17.07 7.66-.5 0-.88.33-1.21 1.09-1.1 2.83a1.66 1.65 82.5 0 0 1.97 1.52c6.53-1.29 15.6-5.06 18.01-11.48q.96.46 2.01 1.75-1 .03-1.43.69-2.3 3.52-4.44 7.48-8.11 4.75-17.3 4.41-.59-.02-.74-.6-.56-2.14.31-4.84-.21-2.73-2.94-2.57-.42.03-.48-.39-.05-.27.24-.46.5-.96 1.1-.91.29.02.86.7.84 1 2.48 1.04c7.42.2 14.53-1.42 18.82-7.75z" class="z"/><path d="M58.82 15.29q-4.07-.38-8.35 2.5l-6.51 2.3-.01-.58q-.01-.44.41-.54 3.85-.97 11.3-4.16 1.58-.68 3.16.48z" class="AA"/><path d="M76.21 20.2q-2.5-.43-3.85-.02-2.31-.3-4.13-1.7-1.16-.88.19-.32c1.14.48 3.36 1.51 4.58.59q.56-.42-.13-.51-4.26-.49-8.13-2.38-2.44-1.19-4.7.38-.53.37-.86-.28 2.51-1.62 3.96-1.15c4.07 1.32 7.12 3.17 11.9 2.59q.69-.09.25.45-.99 1.22.92 2.35z" class="N"/><path fill="#fefee9" d="M99.9 14.67q.51.22.93.86c-2.41 6.42-11.48 10.19-18.01 11.48a1.66 1.65 82.5 0 1-1.97-1.52q-.11-1.74 1.1-2.83.38-.33.88-.33 10.56.03 17.07-7.66z"/><path d="M20.42 15.17q-.06.62.53 1.14 7.94 6.96 19.18 5.56-.77 1.68 1.32 2.56a.29.28-48.6 0 1 .03.51l-.52.31q-.75.44.12.42l1.54-.05a.7.7 0 0 1 .67.46l.78 2.03q.24.63-.43.64l-2.42.03a.49.49 0 0 0-.18.94l1.68.69a.18.18 0 0 1-.02.34l-.94.27q-.51.15-.4.67.14.63.91 1.45-.95-.66-1.57.23c-3.84-.55-8.17-.98-11.5-2.25q-8.27-3.14-13.38-11.39l2.69-2.8q.23 1.08.49 1.17.5 2.79 3.1 3.85.45.18.79.53c1.62 1.68 4.37 2.64 5.94 3.48q3.27 1.77 7.19 1.7.51-.01.89-.36 2.72-2.46-.65-4.22c-6.36-1.7-10.96-1.63-16.11-6.72q-.37-.36-.87-.14l1.14-1.05z" class="d"/><path d="M58.82 15.29q-.08.41.36.67.33.65.86.28 2.26-1.57 4.7-.38 3.87 1.89 8.13 2.38.69.09.13.51c-1.22.92-3.44-.11-4.58-.59q-1.35-.56-.19.32 1.82 1.4 4.13 1.7.58 3.04-2.98 1.47-2.43-1.07-3.85-1.31-.47-.08-.86-.35l-2.19-1.49a.19.19 0 0 0-.23.31q4.06 3.07 7.02 7.09c-3.02.19-4.54-1.33-6.11-3.56q-.47-.69-.31.13.74 3.75 4.39 4.83.81.24 0 .48-2.09.62-4.46-.33c-1.17-2.3-1.91-3.5-2.4-6.13q-.08-.43-.32-.06l-1.98 3.02a.33.33 0 0 1-.59-.29q.94-2.59.12-5.26-.14-.48-.64-.43-1.07.11-1.79 1.07a.38.38 0 0 1-.67-.34q.1-.35.26-.67.93-1.76-.79-.75-1.43.84-2.61 2a.87.87 0 0 1-1.4-.25q-.43-.91.5-1.57 4.28-2.88 8.35-2.5z" class="D"/><path fill="#fefee9" d="M19.28 16.22q.5-.22.87.14c5.15 5.09 9.75 5.02 16.11 6.72l-.24 2.15a1.48 1.48 0 0 1-1.79 1.29Q25.04 24.49 19 18.1q-.26-.09-.49-1.17.19-.36.77-.71z"/><path d="M62.78 27.45q-3.33-.36-6.07 1.45-.37.25-.61-.12-.09-.14-.1-.31-.03-.41-.44-.38l-3.5.29a.43.43 0 0 1-.3-.77c1.94-1.57 3.77-2.82 3.91-5.79q.02-.56-.22-.05c-.67 1.39-1.98 4.04-3.9 4.24a.43.43 0 0 1-.33-.75q.81-.69 1.43-1.55.29-.41-.15-.18l-5.03 2.59a.4.39-52.9 0 0 .1.74l1.7.35q.4.08.5.47l.22.9a.29.29 0 0 0 .17.21q1.47.62 2.99.19.52-.15 1.01.05l1.67.67a.72.71 53.6 0 0 .31.05l11.25-.54q-3.63 2.65-6.77 2.22c-4.99-.7-10.5-.12-15.17-1.97q-1-.39-.72.64l.22.81q.13.49-.04.96l-.69 1.97q-.2.56.39.65 3.22.49 5.26 1.12c5.9 1.82 6.67 9.17 4.2 13.86q.19-1.04-.04-1.41a.39.39 0 0 0-.7.1q-1.36 4.48-4.79 5.17-2.11-2.49-1.16-5.87.26 2.03 1.33 3.42a1.15 1.15 0 0 0 2.06-.76q-.32-6.27-5.33-10.14a.22.22 0 0 1 .14-.39q.58.01 1.09.55 2.33 2.44 4.17 5.51a.41.41 0 0 0 .76-.15c.53-3.87-.69-8.09-4.59-9.6q-4.08-1.58-6.87 2.93-1.12.8-1.47-.18l3.6-5.51q-.77-.82-.91-1.45-.11-.52.4-.67l.94-.27a.18.18 0 0 0 .02-.34l-1.68-.69a.49.49 0 0 1 .18-.94l2.42-.03q.67-.01.43-.64l-.78-2.03a.7.7 0 0 0-.67-.46l-1.54.05q-.87.02-.12-.42l.52-.31a.29.28-48.6 0 0-.03-.51q-2.09-.88-1.32-2.56.32.06.76-1.1.19-.49.71-.45 1.36.11 2.36-.23l6.51-2.3q-.93.66-.5 1.57a.87.87 0 0 0 1.4.25q1.18-1.16 2.61-2 1.72-1.01.79.75-.16.32-.26.67a.38.38 0 0 0 .67.34q.72-.96 1.79-1.07.5-.05.64.43.82 2.67-.12 5.26a.33.33 0 0 0 .59.29l1.98-3.02q.24-.37.32.06c.49 2.63 1.23 3.83 2.4 6.13zM46 23.75q-1.49-.71-2.72-.65-1.11.06-.05.39l2.05.64.67.44q.43.29.93.16 2.71-.7 4.53-2.82.17-.2.22-.43.09-.45-.25-.14c-1.55 1.41-3.33 2.27-5.38 2.41z" class="C"/><path d="M102.84 17.28q-1.43 4.54-5.87 8.17 2.14-3.96 4.44-7.48.43-.66 1.43-.69z" class="U"/><path d="M102.84 17.28l.61.56q-3.91 9.2-12.85 12.86l-9.43 2.1q-.92-1.34-2.11-1.73-2.03-.62-2.45-4.13-.11-.26.94-1.42l1.69-1.1q-.87 2.7-.31 4.84.15.58.74.6 9.19.34 17.3-4.41 4.44-3.63 5.87-8.17z" class="d"/><path fill="#5cc0e3" d="M103.45 17.84Q118.98 33.87 121 56.65v5.09q-.21-.1-.56-.1a.9.89-74.7 0 0-.77.44q-1.58 2.65-3.1 5.34-1.66 2.95-3.42 5.07-5.32 6.45-11.2 11.74-1.38-8.14-2.2-10.24-2.37-5.98-10.03-12.06.56-.97 1.19-1.4.42-.29.66-.75l2.75-5.2q.15-.3-.13-.46l-.69-.4c4.03.04 10.32-.69 12.53-4.02q.28-.42.73-.61 6-2.53 7.94-8.65.8-2.51-1.97-4.43-3.73-2.77-8.15-3.18-2.11-2.02-5.8-1.13l-4.06 1.29-1.77.55q-.25-2.86-2.35-2.84 8.94-3.66 12.85-12.86z"/><path d="M19 18.1q6.04 6.39 15.23 8.42a1.48 1.48 0 0 0 1.79-1.29l.24-2.15q3.37 1.76.65 4.22-.38.35-.89.36-3.92.07-7.19-1.7c-1.57-.84-4.32-1.8-5.94-3.48q-.34-.35-.79-.53-2.6-1.06-3.1-3.85z" class="z"/><path d="M72.36 20.18q1.35-.41 3.85.02-.3.16-.15.8-.29.19-.24.46.06.42.48.39 2.73-.16 2.94 2.57l-1.69 1.1q-.67.34-.87.09-.68-.82 1.16-2.21a.06.05-68.7 0 0-.04-.1l-4.03 1.04a.19.19 0 0 0 .02.37l1.08.16q.58.08.25.57-1.06 1.57-2.74.96-2.22-.8-3.11-.5-2.96-4.02-7.02-7.09a.19.19 0 0 1 .23-.31l2.19 1.49q.39.27.86.35 1.42.24 3.85 1.31 3.56 1.57 2.98-1.47z" class="C"/><path d="M15.82 19.73q5.11 8.25 13.38 11.39c3.33 1.27 7.66 1.7 11.5 2.25q-4.18 6.4-12.07 1.21l-8.3-2.96q-3.1-.56-4.88 1.22-5.36.84-9.61 4.17-.5-.27-1.08-.04 3.78-9.06 11.06-17.24z" class="c"/><path d="M45.28 24.13q-.28-.42.72-.38c2.05-.14 3.83-1 5.38-2.41q.34-.31.25.14-.05.23-.22.43-1.82 2.12-4.53 2.82-.5.13-.93-.16l-.67-.44zm17.5 3.32q2.37.95 4.46.33.81-.24 0-.48-3.65-1.08-4.39-4.83-.16-.82.31-.13c1.57 2.23 3.09 3.75 6.11 3.56q.89-.3 3.11.5 1.68.61 2.74-.96.33-.49-.25-.57l-1.08-.16a.19.19 0 0 1-.02-.37l4.03-1.04a.06.05-68.7 0 1 .04.1q-1.84 1.39-1.16 2.21.2.25.87-.09-1.05 1.16-.94 1.42l-9.22 2.27-11.25.54a.72.71 53.6 0 1-.31-.05l-1.67-.67q-.49-.2-1.01-.05-1.52.43-2.99-.19a.29.29 0 0 1-.17-.21l-.22-.9q-.1-.39-.5-.47l-1.7-.35a.4.39-52.9 0 1-.1-.74l5.03-2.59q.44-.23.15.18-.62.86-1.43 1.55a.43.43 0 0 0 .33.75c1.92-.2 3.23-2.85 3.9-4.24q.24-.51.22.05c-.14 2.97-1.97 4.22-3.91 5.79a.43.43 0 0 0 .3.77l3.5-.29q.41-.03.44.38.01.17.1.31.24.37.61.12 2.74-1.81 6.07-1.45z" class="AA"/><path d="M46 23.75q-1-.04-.72.38l-2.05-.64q-1.06-.33.05-.39 1.23-.06 2.72.65z" class="e"/><path d="M76.61 26.94q.42 3.51 2.45 4.13-1.04 1.59-.69 1.75c.31 3.94-4.35 4.11-7.14 5.33l-2.68 2.04q-6.93 5.84-1.05 12.1-.27-.66.55.44l-.11 1.17q-.05.5-.33.91-2.03 3.04-.95 5.99 1.2 3.3 6.07 9.37.24.23.35.98.05.28-.19.43-.23.16-.45-.2-2.55-1.6-6.01-1.94-1.3-.12-4.24-.81-2.08-.49-4.45-.12-.25-.64-1.32-.26a1.61 1.61 0 0 1-1.57-2.76c1.76-1.47 5.91-1.11 6.18-3.79a.38.37 71 0 0-.63-.31q-2.05 1.99-4.9 2.5a.52.52 0 0 1-.6-.61c.52-2.76 2.5-5.01 2.32-7.62q-.13-1.98-.84-3.92a.63.62 69.4 0 0-.8-.37q-1.68.63-2.17-.44l.66-1.46c2.47-4.69 1.7-12.04-4.2-13.86q-2.04-.63-5.26-1.12-.59-.09-.39-.65l.69-1.97q.17-.47.04-.96l-.22-.81q-.28-1.03.72-.64c4.67 1.85 10.18 1.27 15.17 1.97q3.14.43 6.77-2.22l9.22-2.27zm-19.2 16.03q.23 5.22 3.19 9.56.15.23.2-.04l2.45-13.64q.02-2.02 2.32-3.79 2.19-1.69 4.59-3.37.41-.29-.08-.15-5.62 1.59-8.38 7.07-.61 1.21-1.75 1.65-.42.16-.54.59l-.33 1.1q-.13.43-.35.04l-3.12-5.48a.36.36 0 0 0-.65.3l2.45 6.16zM62 63.75l4.79 2.01a.18.18 0 0 0 .17-.31q-2.16-1.59-4.8-2.2a.26.26 0 0 0-.16.5z" class="D"/><path d="M90.6 30.7q2.1-.02 2.35 2.84c-4 2.63-9.52 5.51-13.08.2q-.4-.6.31-.74l.99-.2 9.43-2.1z" class="c"/><path d="M79.06 31.07q1.19.39 2.11 1.73l-.99.2q-.71.14-.31.74c3.56 5.31 9.08 2.43 13.08-.2l1.77-.55-.67.83q-5.35 1.66-7.17 6.33a1 1 0 0 0 1.23 1.32q1.16-.37 2.47-1.73.67.79-.69 1.82a.4.4 0 0 0 .1.69q.64.26 2.15-.51.38.42 1.42.4.69-.01.2.48-2.08 2.1-4.52.73-.52-.29-.81-.17-.37.16-.67.69-2.84-3.25-7.23-5.21l-2.16-5.84q-.35-.16.69-1.75z" class="V"/><path d="M20.33 31.62l-4.88 1.22q1.78-1.78 4.88-1.22z" class="E"/><path d="M63.25 38.85l-3.57 5.16q-.35.5-.56-.07-.87-2.34-1.71-.97l-2.45-6.16a.36.36 0 0 1 .65-.3l3.12 5.48q.22.39.35-.04l.33-1.1q.12-.43.54-.59 1.14-.44 1.75-1.65 2.76-5.48 8.38-7.07.49-.14.08.15-2.4 1.68-4.59 3.37-2.3 1.77-2.32 3.79z" class="C"/><path d="M104.58 32.83l-5.8-1.13q3.69-.89 5.8 1.13z" class="O"/><path d="M20.33 31.62l8.3 2.96-.21.49-4.86-1.69q-1.2-.41-.24.41 1.36 1.15 3.02 1.68.47.15.75.57l2.86 4.34.08 1.47q.04.73-.66.53l-1.41-.39q-.55-.87-1.42-.99-.5-.07-.84.31-.44.48-1.13.34-.67-.14-.1-.51l2.3-1.49q.27-.18-.02-.32-.81-.41-1.75.2-.59.38-1.23-.04-.12-1.35-1.55-2.11a.48.48 0 0 1 .36-.88l2.65.81a.23.23 0 0 0 .22-.4c-2.62-2.13-4.38-1.66-7.53-1.94q-.4-.03-.64.25-.38.43.19.46 1.39.1 1.46 1.2l-4.95 1.52q-1.13-.13-1.81.81-.94 1.31.67 1.46 3.49.32 6.43 2.39a1.1 1.09-71.4 0 1 .46.93c-.04 1.45-1 2.02-.57 3.74q.24.97.48-.01l.32-1.29a.43.42-53.9 0 1 .78-.13l3.38 5.5q-5.23-.36-6.42-4.37-.48-1.61-1.06-2.05-1.23-.9-2.63.4-.48.44-.57-.21-.34-2.25-2.71-1.53-.58.18-.95-.29-3.47-4.42.58-7.77a.27.26-67.4 0 0-.19-.47c-5.09.52-5.46 4.46-3.01 8.05q1.77 2.59 4.36 4.23 1.34.85 3.77 2.69 2.04 1.54 4.76 2.17-.07.21-.15.41c-3.83-.52-5.23-2.86-8-4.41q-1.85-1.04-4.24-2.67-.78-1.96-2.16-4.74c-.84-1.71-.56-2.71.34-4.23q4.25-3.33 9.61-4.17l4.88-1.22zm78.45.08l5.8 1.13q4.42.41 8.15 3.18-.15.28.02.43l-2.25-.97a.52.52 0 0 0-.6.82q3.32 3.82-.21 7.44a1.04 1.02-51.1 0 1-1.31.15q-.55-.35-1.05-.26-.54.09-.53.64l.03 1.54a.4.4 0 0 1-.72.24q-.96-1.32-2.64-1.04-.56.09-.72.64c-1.08 3.73-2.37 6.15-6.71 6.2q.86-3.43 3.01-5.74.47-.51.88.05l.44.61a.36.36 0 0 0 .61-.36l-.93-2.04a.74.73-36.1 0 1 .13-.8c1.11-1.22 3.34-1.5 3.93-2.43q.2-.32.57-.37l3.43-.49a.42.42 0 0 0 .19-.75q-2.72-2.01-6.24-2.21-3.82-.85-6.36 1.49-.36.34-.86.34l-1.93.01a.372.372 0 0 0-.08.74l1.4.3a.32.32 0 0 1 0 .62q-1.26.26-2.09.93-1.51.77-2.15.51a.4.4 0 0 1-.1-.69q1.36-1.03.69-1.82 1.26-3.07 3.85-5.33.31-.27-.04-.48-.13-.08-.34-.11l.67-.83 4.06-1.29zm-4.09 5.17l7.34-1.27q1.1-.19.01-.4-4.06-.8-7.47 1.34a.18.18 0 0 0 .12.33z" class="f"/><path d="M42.27 33.14l-3.6 5.51q-.5.71-.1 1.41l-1.9 4.62a.53.53 0 0 0 .93.51q1.2-1.71 3.57-.84-4.78 1.49-5.84 3.91-.2.46-.59.76-3.84 2.91-7.6 3.89-1.05-1.03-3.02-1.11l-3.38-5.5a.43.42-53.9 0 0-.78.13l-.32 1.29q-.24.98-.48.01c-.43-1.72.53-2.29.57-3.74a1.1 1.09-71.4 0 0-.46-.93q-2.94-2.07-6.43-2.39-1.61-.15-.67-1.46.68-.94 1.81-.81 4.54 1.19 7.77 3.58 4.3 3.17 7.02 7.67.27.46.8.41 3.33-.3 4.65-3.34a.64.64 0 0 0-.13-.71l-2.51-2.49q-.34-.35-.79-.14-2.57 1.24-4.71-.74-.44-.4.14-.56.82-.23 1.74-.09l1.41.39q.7.2.66-.53l-.08-1.47q1.23 1.01 2.35 1.14.62.07.64-.56c.08-2.56-2.54-4.83-4.52-5.89l.21-.49q7.89 5.19 12.07-1.21.62-.89 1.57-.23z" class="V"/><path d="M78.37 32.82l2.16 5.84q.35.26.33.77-.11.43-1.3.14.37-1-.81-1.94c-1.73-1.39-5.29.01-7.01.99q-.09-.25-.51-.47c2.79-1.22 7.45-1.39 7.14-5.33z" class="C"/><path d="M28.42 35.07c1.98 1.06 4.6 3.33 4.52 5.89q-.02.63-.64.56-1.12-.13-2.35-1.14l-2.86-4.34q-.28-.42-.75-.57-1.66-.53-3.02-1.68-.96-.82.24-.41l4.86 1.69zm65.63-1.25q.21.03.34.11.35.21.04.48-2.59 2.26-3.85 5.33-1.31 1.36-2.47 1.73a1 1 0 0 1-1.23-1.32q1.82-4.67 7.17-6.33z" class="P"/><path d="M23.77 39.49l-4.84-2.61q-.07-1.1-1.46-1.2-.57-.03-.19-.46.24-.28.64-.25c3.15.28 4.91-.19 7.53 1.94a.23.23 0 0 1-.22.4l-2.65-.81a.48.48 0 0 0-.36.88q1.43.76 1.55 2.11z" class="O"/><path d="M102.03 35.6l-7.34 1.27a.18.18 0 0 1-.12-.33q3.41-2.14 7.47-1.34 1.09.21-.01.4z" class="E"/><path d="M24.12 51.8q1.97.08 3.02 1.11l-7.09-.26q-2.72-.63-4.76-2.17-2.43-1.84-3.77-2.69-2.59-1.64-4.36-4.23c-2.45-3.59-2.08-7.53 3.01-8.05a.27.26-67.4 0 1 .19.47q-4.05 3.35-.58 7.77.37.47.95.29 2.37-.72 2.71 1.53.09.65.57.21 1.4-1.3 2.63-.4.58.44 1.06 2.05 1.19 4.01 6.42 4.37zm88.63-15.36c3.69 2.7.29 6.99-2.2 9.63-1.31 1.39-3.18 1.83-4.67 3.13-3.86 3.37-7.79 4.32-12.95 3.65q-.07-1.02 3.11-1.01c4.34-.05 5.63-2.47 6.71-6.2q.16-.55.72-.64 1.68-.28 2.64 1.04a.4.4 0 0 0 .72-.24l-.03-1.54q-.01-.55.53-.64.5-.09 1.05.26a1.04 1.02-51.1 0 0 1.31-.15q3.53-3.62.21-7.44a.52.52 0 0 1 .6-.82l2.25.97z" fill="#e4895b"/><path d="M47.38 47.46l-.46-2.55q-1-2.65-3.32-4.22-1.3-1.3-3.46-1.86 2.79-4.51 6.87-2.93c3.9 1.51 5.12 5.73 4.59 9.6a.41.41 0 0 1-.76.15q-1.84-3.07-4.17-5.51-.51-.54-1.09-.55a.22.22 0 0 0-.14.39q5.01 3.87 5.33 10.14a1.15 1.15 0 0 1-2.06.76q-1.07-1.39-1.33-3.42z" class="D"/><path d="M112.73 36.01q2.77 1.92 1.97 4.43-1.94 6.12-7.94 8.65-.45.19-.73.61c-2.21 3.33-8.5 4.06-12.53 4.02l-2.42-.74q-2.19-2.06-4.99-3.09a1.39 1.38-5.1 0 1-.71-.59l-2.28-3.7q.37-3.09-2.24-6.17.02-.51-.33-.77 4.39 1.96 7.23 5.21c-3.68 2.68-.59 6.01 2.79 5.76q.53-.04.85-.47l3.29-4.52q.47 3.16-.27 4.61-.92 1.8-2.5 2.36a.61.61 0 0 0-.03 1.14q.67.28 1.04.1c5.16.67 9.09-.28 12.95-3.65 1.49-1.3 3.36-1.74 4.67-3.13 2.49-2.64 5.89-6.93 2.2-9.63q-.17-.15-.02-.43z" class="O"/><path fill="#58b7da" d="M4.76 36.97q.58-.23 1.08.04c-.9 1.52-1.18 2.52-.34 4.23q1.38 2.78 2.16 4.74 2.29 8.6 7.54 17.34 8.01 13.32 21.59 19.65l-4.24 13.55q-.26.77-1.29-.1c-.72-.61-2.02-.54-3.07-1.28q-4.81-3.4-9.82-6.51-3.06-1.9-9.65-9.46-3.51-4.02-7.09-11.42-.77-1.59-.64-2.54.08-.61-.41-.24l-.37.29q.18-.69-.21-1.14v-7.59q.99-10.27 4.76-19.56z"/><path d="M18.93 36.88l4.84 2.61q.64.42 1.23.04.94-.61 1.75-.2.29.14.02.32l-2.3 1.49q-.57.37.1.51.69.14 1.13-.34.34-.38.84-.31.87.12 1.42.99-.92-.14-1.74.09-.58.16-.14.56 2.14 1.98 4.71.74.45-.21.79.14l2.51 2.49a.64.64 0 0 1 .13.71q-1.32 3.04-4.65 3.34-.53.05-.8-.41-2.72-4.5-7.02-7.67-3.23-2.39-7.77-3.58l4.95-1.52z" class="E"/><path d="M79.56 39.57q-4.21 1.4-6.03 6l-1.85 4.64q-.46 1.76-2.13 1.98a.66.66 0 0 1-.7-.44c-1.11-3.3-1.33-11.58 2.89-13.13 1.72-.98 5.28-2.38 7.01-.99q1.18.94.81 1.94z" class="D"/><path d="M102.06 37.31q.27 1.41-1.62 1.76-.56.1-.68.67-.45 2.2-2.71 2.52-.38.06-.43.44-.25 2.02-1.93 1.94l-3.29 4.52q-.32.43-.85.47c-3.38.25-6.47-3.08-2.79-5.76q.3-.53.67-.69.29-.12.81.17 2.44 1.37 4.52-.73.49-.49-.2-.48-1.04.02-1.42-.4.83-.67 2.09-.93a.32.32 0 0 0 0-.62l-1.4-.3a.37.37 0 0 1 .08-.74l1.93-.01q.5 0 .86-.34 2.54-2.34 6.36-1.49z" class="E"/><path d="M102.06 37.31q3.52.2 6.24 2.21a.42.42 0 0 1-.19.75l-3.43.49q-.37.05-.57.37c-.59.93-2.82 1.21-3.93 2.43a.74.73-36.1 0 0-.13.8l.93 2.04a.36.36 0 0 1-.61.36l-.44-.61q-.41-.56-.88-.05-2.15 2.31-3.01 5.74-3.18-.01-3.11 1.01-.37.18-1.04-.1a.61.61 0 0 1 .03-1.14q1.58-.56 2.5-2.36.74-1.45.27-4.61 1.68.08 1.93-1.94.05-.38.43-.44 2.26-.32 2.71-2.52.12-.57.68-.67 1.89-.35 1.62-1.76z" class="V"/><path d="M71.23 38.15q.42.22.51.47c-4.22 1.55-4 9.83-2.89 13.13a.66.66 0 0 0 .7.44q1.67-.22 2.13-1.98L71.26 57q-1.12-2.73-3.21-4.27-.82-1.1-.55-.44c-.2-3.12-.96-5.54-.01-8.55q.5-1.61 1.06-3.55l2.68-2.04z" class="N"/><path d="M38.67 38.65q.35.98 1.47.18 2.16.56 3.46 1.86l-5.03-.63q-.4-.7.1-1.41z" class="e"/><path d="M63.25 38.85L60.8 52.49q-.05.27-.2.04-2.96-4.34-3.19-9.56.84-1.37 1.71.97.21.57.56.07l3.57-5.16z" class="N"/><path d="M80.86 39.43q2.61 3.08 2.24 6.17-2.78-3.19-7.06.45-.1-1.93-2.51-.48 1.82-4.6 6.03-6 1.19.29 1.3-.14zm-42.29.63l5.03.63q2.32 1.57 3.32 4.22l-.82.35q-.47.19-.81-.19l-.98-1.09q-.49-.56-.48.18l.04 1.79-2.7-1.6q-2.37-.87-3.57.84a.53.53 0 0 1-.93-.51l1.9-4.62z" class="W"/><path d="M68.55 40.19q-.56 1.94-1.06 3.55c-.95 3.01-.19 5.43.01 8.55q-5.88-6.26 1.05-12.1z" class="C"/><path fill="#9d4e2b" d="M46.92 44.91l.46 2.55q-.95 3.38 1.16 5.87l1.28 3.13q-.81 3.9.41 7.85l-.85 3.92q-.1.47-.04.95l.12.88q-.21.62-.71.9-2.18 1.97-2.52 5.19-.8.65-1.17 2.04-.25.97-.63.04l-1.7-4.14q2.12-6.76 2.76-13.43.04-.47.43-.21l.96.67a.46.45 23.7 0 0 .7-.27q.8-3.4-.99-6.34-.38-.63-.78-.01l-3.54 5.43a.86.82-28.6 0 0-.13.41q-.13 2.57-.23 5.13-.01.42-.26.64-.44.39-.52-.19l-.38-2.9q-.15-1.14-.44-.03-.67 2.58.45 5.23-.39-.44-.77-.46l-.7-10.02a1.56 1.56 0 0 0-.24-.72q-1.98-3.08-1.71-6.79.03-.46.42-.21.16.11.25.44 1.22 1.51 5.56.43 4.38 1.21.3-4.94l-.04-1.79q-.01-.74.48-.18l.98 1.09q.34.38.81.19l.82-.35zm-2.71 7.11l-5.99.19a.21.21 0 0 0-.21.21l.01.32a4.23 3.18 88.2 0 0 3.31 4.13h.06a4.23 3.18 88.2 0 0 3.05-4.33l-.01-.32a.21.21 0 0 0-.22-.2z"/><path d="M41.17 44.35l2.7 1.6q4.08 6.15-.3 4.94 1.15-2.24-.53-3.84-.45-.44-.49.19l-.1 1.75a1.05 1 67.4 0 1-.22.58q-1.26 1.56-4-.1-1.36-.56-1.93-.15-6.88 4.95-14.27 4.31l-2.13-.57q.08-.2.15-.41l7.09.26q3.76-.98 7.6-3.89.39-.3.59-.76 1.06-2.42 5.84-3.91zM39.95 46a.86.86 0 0 0-.5 1.59q1.36.84 1.55-.83a.69.68 2.9 0 0-.69-.76q-.17.01-.36 0zm43.15-.4l2.28 3.7a1.39 1.38-5.1 0 0 .71.59q2.8 1.03 4.99 3.09-3.56-1.44-8.08-4.06-.39-.22-.57.29c-1.05.5-2.34 1.18-3.46.82q-1.65-.53-1.21-2.77a.34.34 0 0 0-.57-.31q-1.65 1.58-.81 3.95-3.37.53-.34-4.85 4.28-3.64 7.06-.45zm-4.05 1.14a.59.58 89 0 0 .75.73l.88-.31a.58.58 0 0 0 .06-1.07q-1.29-.63-1.69.65z" class="E"/><path d="M76.04 46.05q-3.03 5.38.34 4.85 4.61.75 6.18-1.17.39 2.91-.75 6.04a.67.66 20.2 0 0 .4.85q4.97 1.74 7.51 5.31 7.66 6.08 10.03 12.06.82 2.1 2.2 10.24l-.06 20.44-1.35 1.13q.09-1.33.46-1.82l-2.89-16.99q-.02-.11.08-.12.05 0 .11-.01.02 0 .08.14l1.75 4.27a.52.52 0 0 0 .99-.12q.95-6.4-1.18-13.09-1.32-7.86-7.95-12.97-.75-.58-.41.31l1.94 5.14q-.14.76-.78-.12-.18-.25-.27-.62c-1.76-7-4.21-9.84-10.82-12.68a.57.57 0 0 0-.77.68q.32 1.06 1.47 1.91l-.44.34-.29-.29q-.47-.49-.67.15-.31.96-.18 2.05-.55-.24-.85.52-.18-.99-.79-.06a.19.15-38 0 0-.02.08l-.23 2.51q-.4 4.58-.72-.01-.16-2.18-.25-4.36-.02-.53-.31-.98l-3.09-4.79q-.33-.51-.81-.12-1.26 1.05-1.41 3.03-.55.83-.71.52l-.32-1.3.42-6.79 1.85-4.64q2.41-1.45 2.51.48zm5.62 5.86l-5.84.22a.3.3 0 0 0-.29.31l.02.34a4.18 3.19 87.9 0 0 3.34 4.06h.06a4.18 3.19 87.9 0 0 3.03-4.3l-.01-.34a.3.3 0 0 0-.31-.29z" class="V"/><path d="M39.95 46q.19.01.36 0a.69.68 2.9 0 1 .69.76q-.19 1.67-1.55.83a.86.86 0 0 1 .5-1.59zm39.1.74q.4-1.28 1.69-.65a.58.58 0 0 1-.06 1.07l-.88.31a.59.58 89 0 1-.75-.73z" class="D"/><path fill="#5cc0e3" d="M7.66 45.98q2.39 1.63 4.24 2.67c2.77 1.55 4.17 3.89 8 4.41l2.13.57q-1.65.13-2.43.57-.48.27-.27.79 3.49 8.53 9.94 14.92 1.74 1.72 4.75 3.73 2.53 1.68 5.03 3.42l-2.26 5.91Q23.21 76.64 15.2 63.32q-5.25-8.74-7.54-17.34z"/><path d="M43.57 50.89q-4.34 1.08-5.56-.43-.05-.63.22-.99 2.74 1.66 4 .1a1.05 1 67.4 0 0 .22-.58l.1-1.75q.04-.63.49-.19 1.68 1.6.53 3.84zm38.86-1.68q-.09.59.13.52-1.57 1.92-6.18 1.17-.84-2.37.81-3.95a.34.34 0 0 1 .57.31q-.44 2.24 1.21 2.77c1.12.36 2.41-.32 3.46-.82z" class="D"/><path d="M54.07 49.47l-.66 1.46-3.59 5.53-1.28-3.13q3.43-.69 4.79-5.17a.39.39 0 0 1 .7-.1q.23.37.04 1.41z" class="N"/><path d="M91.08 52.98l2.42.74.69.4q.28.16.13.46l-2.75 5.2q-.24.46-.66.75-.63.43-1.19 1.4-2.54-3.57-7.51-5.31a.67.66 20.2 0 1-.4-.85q1.14-3.13.75-6.04-.22.07-.13-.52.18-.51.57-.29 4.52 2.62 8.08 4.06zm-52.85-3.51q-.27.36-.22.99-.09-.33-.25-.44-.39-.25-.42.21-.27 3.71 1.71 6.79a1.56 1.56 0 0 1 .24.72l.7 10.02 1.38 4.94a1.13 1.08-37.9 0 1-.13.88l-2.19 3.48q-2.5-1.74-5.03-3.42-3.01-2.01-4.75-3.73-6.45-6.39-9.94-14.92-.21-.52.27-.79.78-.44 2.43-.57 7.39.64 14.27-4.31.57-.41 1.93.15z" class="c"/><path d="M53.41 50.93q.49 1.07 2.17.44a.63.62 69.4 0 1 .8.37q.71 1.94.84 3.92c.18 2.61-1.8 4.86-2.32 7.62a.52.52 0 0 0 .6.61q2.85-.51 4.9-2.5a.38.37 71 0 1 .63.31c-.27 2.68-4.42 2.32-6.18 3.79a1.61 1.61 0 0 0 1.57 2.76q1.07-.38 1.32.26l5.52 1.85-14.51.6q.5-.28.71-.9c1.59-.16 2.4-1.52 2.37-3.14q-.1-5.98 3.92-10.41a.38.37 10.2 0 0-.42-.6l-1.46.58a.5.49 73.4 0 1-.67-.37l-.38-1.87a.36.36 0 0 0-.71.1q.35 5.25-1.88 9.96-1.22-3.95-.41-7.85l3.59-5.53z" class="C"/><path d="M81.66 51.91a.3.3 0 0 1 .31.29l.01.34a4.18 3.19 87.9 0 1-3.03 4.3h-.06a4.18 3.19 87.9 0 1-3.34-4.06l-.02-.34a.3.3 0 0 1 .29-.31l5.84-.22zm-37.45.11a.21.21 0 0 1 .22.2l.01.32a4.23 3.18 88.2 0 1-3.05 4.33h-.06a4.23 3.18 88.2 0 1-3.31-4.13l-.01-.32a.21.21 0 0 1 .21-.21l5.99-.19z" class="W"/><path d="M68.05 52.73q2.09 1.54 3.21 4.27l.32 1.3q-.06 2.27-.15 4.56c-.11 2.81 1.14 4.47 1.3 7.31q-4.87-6.07-6.07-9.37-1.08-2.95.95-5.99.28-.41.33-.91l.11-1.17z" class="C"/><path d="M49.46 70.06l-.12-.88q-.06-.48.04-.95l.85-3.92q2.23-4.71 1.88-9.96a.36.36 0 0 1 .71-.1l.38 1.87a.5.49 73.4 0 0 .67.37l1.46-.58a.38.37 10.2 0 1 .42.6q-4.02 4.43-3.92 10.41c.03 1.62-.78 2.98-2.37 3.14z" class="N"/><path d="M42.73 74.09l-1.97-5.87q-1.12-2.65-.45-5.23.29-1.11.44.03l.38 2.9q.08.58.52.19.25-.22.26-.64.1-2.56.23-5.13a.86.82-28.6 0 1 .13-.41l3.54-5.43q.4-.62.78.01 1.79 2.94.99 6.34a.46.45 23.7 0 1-.7.27l-.96-.67q-.39-.26-.43.21-.64 6.67-2.76 13.43zm37.19-11.61q.57 6.04-2.75 12.33-.1-7.78-2.7-14.37-.25-.64-.59-.04l-.22.39a.47.47 0 0 1-.83-.04q-.62-1.35-.54-2.97.15-1.98 1.41-3.03.48-.39.81.12l3.09 4.79q.29.45.31.98.09 2.18.25 4.36.32 4.59.72.01l.23-2.51a.19.15-38 0 1 .02-.08q.61-.93.79.06zm13.6 8.06q4.21 5.28 4.9 12.19.03.22.18.37l.4.4a.23.23 0 0 0 .39-.14l.55-5.3q2.13 6.69 1.18 13.09a.52.52 0 0 1-.99.12L98.38 87q-.06-.14-.08-.14-.06.01-.11.01-.1.01-.08.12l2.89 16.99q-5.39-7.24-6.4-11.59-1.19-5.14-3.26-11.51a.46.46 0 0 0-.89.22l.34 1.92q-.4-.4-.83-.41-.57-.01-.62.56l-.48 5.92q-.05.61-.51.22-.23-.2-.24-.56-.08-2.85-.3-5.72-1.52-8.52-2.44-17.15-.32-3.08-3.02-6.17-1.15-.85-1.47-1.91a.57.57 0 0 1 .77-.68c6.61 2.84 9.06 5.68 10.82 12.68q.09.37.27.62.64.88.78.12zm-1.72.58c-.71-1.37-1.35-3.57-2.51-5.08q-.55-.72-.45.18.96 9.04 6.48 16.22.62.81.42-.19-1.18-5.87-3.94-11.13z" class="W"/><path d="M72.29 57.78q-.08 1.62.54 2.97a.47.47 0 0 0 .83.04l.22-.39q.34-.6.59.04 2.6 6.59 2.7 14.37.23.81-.67 2.47a.39.39 0 0 1-.74-.16q-.23-2.84-2.05-5.12-.18-.23-.46-.2-.3.03-.81-.42.22.36.45.2.24-.15.19-.43-.11-.75-.35-.98c-.16-2.84-1.41-4.5-1.3-7.31q.09-2.29.15-4.56.16.31.71-.52z" class="f"/><path d="M81.91 60.05c3.47 6.22 3.13 13.16 3.8 20.06q-1.1 5.3-.11 11.07-1.04 4.27-.49 8.67l-1.97 11.68-2.36-.31q2.01-8.61 2.82-17.21.36-3.8-.04-9.51-.35-4.87-.39-9.52.12-5.9-1.66-10.49l-.74-2.53q-.13-1.09.18-2.05.2-.64.67-.15l.29.29z" class="W"/><path fill="#9d4e2b" d="M82.35 59.71q2.7 3.09 3.02 6.17.92 8.63 2.44 17.15l-.09 1.39q-.07.94-.39.06l-1.62-4.37c-.67-6.9-.33-13.84-3.8-20.06l.44-.34z"/><path fill="#52a6c9" d="M121 61.74v2.46q-1.97 23.82-19.11 40.47l.06-20.44q5.88-5.29 11.2-11.74 1.76-2.12 3.42-5.07 1.52-2.69 3.1-5.34a.9.89-74.7 0 1 .77-.44q.35 0 .56.1z"/><path d="M80.77 61.96l.74 2.53q-1.56 7.84-4.4 14.75-.55 1.34.17 6.27a1.07 1.06-28.9 0 1-.25.85l-2.55 2.97q-.29.34-.21.77.8 4.81-.65 8.84l-.62 3.63-.38 2.88q-.91 4.86-3.6 7.69c2.66-6.84 2.86-11.3 3.5-17.65q.91-2.92.21-5.56-.21-.82-.7-.12l-2.88 4.12q-9.06 2.54-7.43 13.21-3.95-5.74-1.58-12.21l5.46-.96q2.7-.48 3.75-2.1 1.19-.93 1.39-2.05l-.09-.41q-.13-.58.46-.57 2.02.01 3.35-1.07.27 0 .25-.26c.91-.6 1.61-1.34 1.55-2.54-.42-8.64-1.94-16.19-13-14.61l-5.52-1.85q2.37-.37 4.45.12 2.94.69 4.24.81 3.46.34 6.01 1.94.51.45.81.42.28-.03.46.2 1.82 2.28 2.05 5.12a.39.39 0 0 0 .74.16q.9-1.66.67-2.47 3.32-6.29 2.75-12.33.3-.76.85-.52z" class="O"/><path d="M62 63.75a.26.26 0 0 1 .16-.5q2.64.61 4.8 2.2a.18.18 0 0 1-.17.31L62 63.75z" class="C"/><path d="M81.51 64.49q1.78 4.59 1.66 10.49-1.42 5.07-1.93 10.3-.17 1.75.46 4.81c.86 4.16-.52 7.95-.48 11.97q.04 4.78-1.28 9.39.12 1.48-1.18 2.19-.46.25-.88-.05-.55-.39-.85.13a.44.44 0 0 1-.82-.21l.06-7.28a.58.58 0 0 0-1.16-.1l-.25 1.53a.35.35 0 0 1-.69-.01l-.29-1.9a.51.51 0 0 0-.48-.44q-.37-.01-.78.14l.38-2.88q1.43.09 1.78-1.22c.85-3.17 1.96-5.78 2.21-9.16a.2.2 0 0 0-.24-.21q-.12.03-.25.06-.26.05-.29.31-.46 3.89-2.59 6.59 1.45-4.03.65-8.84-.08-.43.21-.77l2.55-2.97a1.07 1.06-28.9 0 0 .25-.85q-.72-4.93-.17-6.27 2.84-6.91 4.4-14.75z" class="f"/><path d="M99.94 78.06l-.55 5.3a.23.23 0 0 1-.39.14l-.4-.4q-.15-.15-.18-.37-.69-6.91-4.9-12.19l-1.94-5.14q-.34-.89.41-.31 6.63 5.11 7.95 12.97z" class="U"/><path fill="#52a6c9" d="M32.55 96.52l-.89 5.01-.37 3.62q-.03 1.29-.49 2.06-.27.43-.75.29-8.05-2.33-14.01-8.04-.06-.05-.12-.01-.15.08-.31.14-.09.04-.14-.05-1.3-2.5-3.8-3.31Q1.65 82.33.21 65.26l.37-.29q.49-.37.41.24-.13.95.64 2.54 3.58 7.4 7.09 11.42 6.59 7.56 9.65 9.46 5.01 3.11 9.82 6.51c1.05.74 2.35.67 3.07 1.28q1.03.87 1.29.1z"/><path d="M91.8 71.12q2.76 5.26 3.94 11.13.2 1-.42.19-5.52-7.18-6.48-16.22-.1-.9.45-.18c1.16 1.51 1.8 3.71 2.51 5.08z" class="P"/><path d="M39.99 67.76q.38.02.77.46l1.97 5.87 1.7 4.14q.38.93.63-.04.37-1.39 1.17-2.04l-.65 4.71q-2.17 3.58-.71 5.69 1.49 2.51 4.84 2.44.48-.02.54.46.34 2.9 3.48 4.14.87 5.43 3.1 10.1 1.01 2.12 1.57 8.73-3.53-.07-5.79-1.82l-.83-2.78q-.19-.62-.48-.05l-.5.95a1.24 1.24 0 0 1-2.23-.09l-1.13-2.62a.26.26 0 0 0-.49.14q.67 4.53 1.46 6.67l1.27 2.77a.12.11-83.3 0 1-.17.14l-6.52-5.47-2.04-4.08q-.2-.4-.56-.68l-1.86-1.44q-.47-.36-.45-.95l.14-4.92a.52.52 0 0 0-.86-.42l-2.14 1.81a.43.43 0 0 1-.69-.21c-1.1-3.71 1.75-9.66 2.96-13.27q.04-.1-.04-.16-.13-.1-.29-.24a.34.33-61 0 0-.54.16L31.93 102q-.1.32-.21.01-.07-.17-.06-.48l.89-5.01 4.24-13.55 2.26-5.91 2.19-3.48a1.13 1.08-37.9 0 0 .13-.88l-1.38-4.94z" class="O"/><path d="M63.26 70.36c11.06-1.58 12.58 5.97 13 14.61.06 1.2-.64 1.94-1.55 2.54q-3.54-.25-6.55-2.18-.36-.23-.39-.91l.73-.79q2.23-4.2 2.74-8.9c.09-1.51-.86-2.21-2.32-1.81-4.27 1.17-8.24.7-12.62.83-1.83.05-3.3-.65-5.06-1.04q-1.1.13-1.79.72-2.46 4.48-2.49 10.07 0 1.16.48 1.87.22.33-.11.55l-.26.17a.49.49 0 0 1-.66-.13q-1.38-1.85-.83-5.1l.65-4.71q.34-3.22 2.52-5.19l14.51-.6z" class="D"/><path d="M51.24 72.71q-.2.36-.06.47c-1.11 2.53 2.44 3.29 4.01 4.24 2.25 2.42 1.43 4.21-1.49 5.14a.92.91 87.4 0 0-.62.69l-.17.81q.44-.52-.57.08-2.4-4.58-2.89-10.71.69-.59 1.79-.72z" class="E"/><path d="M51.24 72.71c1.76.39 3.23 1.09 5.06 1.04 4.38-.13 8.35.34 12.62-.83 1.46-.4 2.41.3 2.32 1.81q-1.18-.31-1.16.15-.2-1-.57-.94-6.2 1.08-13.55.85-1.93-.04-4.78-1.61-.14-.11.06-.47z" class="d"/><path d="M51.18 73.18q2.85 1.57 4.78 1.61 4.03 2.34 2.33 3.48l-3.1-.85c-1.57-.95-5.12-1.71-4.01-4.24z" class="U"/><path d="M49.45 73.43q.49 6.13 2.89 10.71l4.61 2.71q-5.66 1.53-12.08-.3-1.46-2.11.71-5.69-.55 3.25.83 5.1a.49.49 0 0 0 .66.13l.26-.17q.33-.22.11-.55-.48-.71-.48-1.87.03-5.59 2.49-10.07z" class="e"/><path d="M70.08 74.88L65.3 77.4c-2.27.47-4.7 2.25-7.01.87q1.7-1.14-2.33-3.48 7.35.23 13.55-.85.37-.06.57.94z" class="W"/><path d="M70.08 74.88q-.02-.46 1.16-.15-.51 4.7-2.74 8.9c-2.76-1.35-5.73-2.55-3.2-6.23l4.78-2.52z" class="E"/><path d="M83.17 74.98q.04 4.65.39 9.52.4 5.71.04 9.51-.81 8.6-2.82 17.21-.04-.3-.84.23 1.32-4.61 1.28-9.39c-.04-4.02 1.34-7.81.48-11.97q-.63-3.06-.46-4.81.51-5.23 1.93-10.3z" class="P"/><path fill="#e4895b" d="M55.19 77.42l3.1.85c2.31 1.38 4.74-.4 7.01-.87-2.53 3.68.44 4.88 3.2 6.23l-.73.79q-.8.2-1.56.82-.63-.07-1.17.47.37-1.13-.54-1.46-4.99-1.78-11.59-.19l.17-.81a.92.91 87.4 0 1 .62-.69c2.92-.93 3.74-2.72 1.49-5.14z"/><path d="M85.71 80.11l1.62 4.37q.32.88.39-.06l.09-1.39q.22 2.87.3 5.72.01.36.24.56.46.39.51-.22l.48-5.92q.05-.57.62-.56.43.01.83.41l3.67 13.61q-.09 5.9-3.42 9.75-1.67 1.93-5.28 1.45-.34-.05-.33-.38l.03-5.74.7 2.78a.34.34 0 0 0 .65.03l.49-1.3a.67.67 0 0 1 1.08-.27l1.35 1.22q.26.24.42-.07.17-.33-.11-.65-1.77-2.07-2.68-4.37c-.99-2.48-.37-5.76-.88-8.69a.36.36 0 0 0-.54-.24q-.44.26-.34 1.03-.99-5.77.11-11.07z" class="P"/><path d="M101 103.98q-.37.49-.46 1.82l-1.23.06q-.48.02-.69-.42l-4.16-8.81-3.67-13.61-.34-1.92a.46.46 0 0 1 .89-.22q2.07 6.37 3.26 11.51 1.01 4.35 6.4 11.59z" class="U"/><path d="M65.04 85.71q-1 .8-1.18 1.9-.07.46-.52.57-4.09.95-6.39-1.33l-4.61-2.71q1.01-.6.57-.08 6.6-1.59 11.59.19.91.33.54 1.46z" class="O"/><path d="M67.77 84.42q.03.68.39.91 3.01 1.93 6.55 2.18.02.26-.25.26-3.94.59-7.5-1.12-1.29-.63-.75-1.41.76-.62 1.56-.82z" class="C"/><path d="M66.21 85.24q-.54.78.75 1.41 3.56 1.71 7.5 1.12-1.33 1.08-3.35 1.07-.59-.01-.46.57l.09.41-1.65.05q-8.53-2.11-17.12-.32a.54.54 0 0 0-.12 1.02q6.26 2.86 13.75 3.4l-5.46.96-6.41-1.34q-3.14-1.24-3.48-4.14-.06-.48-.54-.46-3.35.07-4.84-2.44 6.42 1.83 12.08.3 2.3 2.28 6.39 1.33.45-.11.52-.57.18-1.1 1.18-1.9.54-.54 1.17-.47z" class="AA"/><path fill="#895942" d="M42.99 110.26q-1.96-.55-3.1-2.1-.31-.43-.81-.62l-5.17-1.97q-.47-.18-.65-.65l-.73-1.87a.31.31 0 0 0-.6.09l-.2 4.43-.44-2.42.37-3.62q-.01.31.06.48.11.31.21-.01l4.69-16.14a.34.33-61 0 1 .54-.16q.16.14.29.24.08.06.04.16c-1.21 3.61-4.06 9.56-2.96 13.27a.43.43 0 0 0 .69.21l2.14-1.81a.52.52 0 0 1 .86.42l-.14 4.92q-.02.59.45.95l1.86 1.44q.36.28.56.68l2.04 4.08z"/><path d="M69.09 89.87l-8.53 1.35a.34.34 0 0 0 .06.67l8.73-.02q-1.05 1.62-3.75 2.1-7.49-.54-13.75-3.4a.54.54 0 0 1 .12-1.02q8.59-1.79 17.12.32z" class="e"/><path d="M72.52 95.49q.11-.5-.03-.57a.62.62 0 0 0-.9.44q-.96 5.55-1.55 11.39-.25 2.47-2.44 5.63-2.78.53-3-1.14l.35-5.77a.4.4 0 0 0-.71-.27l-.44.57a.56.56 0 0 1-.84.05c-2.27-2.34 1.45-6.66 2.84-8.89a.42.42 0 0 1 .77.32l-.72 3.23a.22.21-27.1 0 0 .41.13l2.89-6.68 2.88-4.12q.49-.7.7.12.7 2.64-.21 5.56z" class="P"/><path d="M69.09 89.87l1.65-.05q-.2 1.12-1.39 2.05l-8.73.02a.34.34 0 0 1-.06-.67l8.53-1.35z" class="D"/><path d="M85.46 101.71l-.35-1.86q-.55-4.4.49-8.67-.1-.77.34-1.03a.36.36 0 0 1 .54.24c.51 2.93-.11 6.21.88 8.69q.91 2.3 2.68 4.37.28.32.11.65-.16.31-.42.07l-1.35-1.22a.67.67 0 0 0-1.08.27l-.49 1.3a.34.34 0 0 1-.65-.03l-.7-2.78z" class="f"/><path d="M73 102.57l.62-3.63q2.13-2.7 2.59-6.59.03-.26.29-.31.13-.03.25-.06a.2.2 0 0 1 .24.21c-.25 3.38-1.36 5.99-2.21 9.16q-.35 1.31-1.78 1.22z" class="P"/><path d="M53.73 93.59l6.41 1.34q-2.37 6.47 1.58 12.21l1.37 4.45q-.19 3.82-4.69.83-.56-6.61-1.57-8.73-2.23-4.67-3.1-10.1z" class="E"/><path d="M69.15 93.93l-2.89 6.68a.22.21-27.1 0 1-.41-.13l.72-3.23a.42.42 0 0 0-.77-.32c-1.39 2.23-5.11 6.55-2.84 8.89a.56.56 0 0 0 .84-.05l.44-.57a.4.4 0 0 1 .71.27l-.35 5.77-.96 2.97-.55-2.62-1.37-4.45q-1.63-10.67 7.43-13.21z" class="V"/><path d="M72.52 95.49c-.64 6.35-.84 10.81-3.5 17.65q-1.25 2.2-2.91 2.06-.51-.05-.21-.46l1.7-2.36q2.19-3.16 2.44-5.63.59-5.84 1.55-11.39a.62.62 0 0 1 .9-.44q.14.07.03.57z" class="U"/><path fill="#4f99ba" d="M11.67 96.23q2.5.81 3.8 3.31.05.09.14.05.16-.06.31-.14.06-.04.12.01 5.96 5.71 14.01 8.04.48.14.75-.29.46-.77.49-2.06l.44 2.42q-.37 1.06.4 1.55 6.79 4.33 16.32 7.67c1.9.67 3.01 2.17 5.09 2.76q.49.13.52.64.02.28-.24.46-26.38-3.44-42.15-24.42z"/><path d="M94.46 96.63l4.16 8.81q.21.44.69.42l1.23-.06q-7.39 6.54-16.51 10.42.31-1.61-.16-3.11-.14-.46-.55-.2l-.32.21q.7-.87.14-1.59l1.97-11.68.35 1.86-.03 5.74q-.01.33.33.38 3.61.48 5.28-1.45 3.33-3.85 3.42-9.75z" class="z"/><path d="M42.99 110.26l6.52 5.47a.12.11-83.3 0 0 .17-.14l-1.27-2.77 2.82-.33q.54-.06.77.42.73 1.51 1.98 1.14l1.92 3.62q.23.43.72.46 1.63.09 2.78 1.32a1.28 1.27 36.8 0 0 2.08-.3l1.47-3.02q7.03-.46 13.62-.37.14 0 2.07.3 2.65.4 4.36-2.94l.32-.21q.41-.26.55.2.47 1.5.16 3.11-9.36 3.84-19.68 4.78h-7.59l-2.94-.35q.26-.18.24-.46-.03-.51-.52-.64c-2.08-.59-3.19-2.09-5.09-2.76q-9.53-3.34-16.32-7.67-.77-.49-.4-1.55l.2-4.43a.31.31 0 0 1 .6-.09l.73 1.87q.18.47.65.65l5.17 1.97q.5.19.81.62 1.14 1.55 3.1 2.1z" class="N"/><path fill="#b78d72" d="M79.94 111.45q.8-.53.84-.23l2.36.31q.56.72-.14 1.59-1.71 3.34-4.36 2.94-1.93-.3-2.07-.3-6.59-.09-13.62.37l.69-1.92.96-2.97q.22 1.67 3 1.14l-1.7 2.36q-.3.41.21.46 1.66.14 2.91-2.06 2.69-2.83 3.6-7.69.41-.15.78-.14a.51.51 0 0 1 .48.44l.29 1.9a.35.35 0 0 0 .69.01l.25-1.53a.58.58 0 0 1 1.16.1l-.06 7.28a.44.44 0 0 0 .82.21q.3-.52.85-.13.42.3.88.05 1.3-.71 1.18-2.19z"/><path d="M52.61 110.6l1.37 3.45q-1.25.37-1.98-1.14-.23-.48-.77-.42l-2.82.33q-.79-2.14-1.46-6.67a.26.26 0 0 1 .49-.14l1.13 2.62a1.24 1.24 0 0 0 2.23.09l.5-.95q.29-.57.48.05l.83 2.78z" class="d"/><path fill="#52525f" d="M52.61 110.6q2.26 1.75 5.79 1.82 4.5 2.99 4.69-.83l.55 2.62-.69 1.92-1.47 3.02a1.28 1.27 36.8 0 1-2.08.3q-1.15-1.23-2.78-1.32-.49-.03-.72-.46l-1.92-3.62-1.37-3.45z"/></svg>