<svg xmlns="http://www.w3.org/2000/svg" viewBox="0 0 128 128" xmlns:v="https://vecta.io/nano"><style><![CDATA[.B{stroke:#91ba81}.C{fill:#d2eea6}.D{fill:#bfd897}.E{stroke:#302c48}.F{stroke:#a7a857}.G{fill:#faad48}.H{fill:#b2693f}.I{stroke:#7f856f}.J{stroke:#87af79}.K{stroke:#96c083}.L{fill:#5a9260}.M{fill:#3e5870}.N{fill:#3b8289}.O{stroke:#3a4b64}.P{stroke:#aaca8f}.Q{stroke:#699669}.R{fill:#4f865b}.S{stroke:#3c7686}.T{stroke:#334f60}.U{stroke:#e8dc7d}.V{stroke:#6f423b}.W{stroke:#8d8077}.X{stroke:#fcbc4e}.Y{stroke:#74534c}.Z{fill:#353d58}.a{fill:#ce844a}.b{stroke:#3f999f}.c{stroke:#386071}.d{stroke:#e6a74f}.e{stroke:#8f8553}.f{stroke:#353a54}.g{stroke:#89907a}.h{fill:#dce29b}.i{fill:#e4c296}.j{stroke:#84967f}.k{stroke:#3d5149}.l{stroke:#c9e39f}.m{stroke:#d0b978}.n{stroke:#d68b44}.o{stroke:#918d83}.p{fill:#82a677}.q{fill:#f3fabb}.r{stroke:#376576}.s{stroke:#9a8456}.t{stroke:#957345}.u{stroke:#886f67}.v{stroke:#332941}.w{stroke:#a59a52}.x{stroke:#867e50}.y{stroke:#c2ac73}.z{stroke:#e6ce77}.AA{stroke:#8f7d71}.AB{stroke:#3c485e}.AC{stroke:#5e6948}.AD{stroke:#936440}.AE{stroke:#3d6d7d}.AF{stroke:#987550}.AG{stroke:#965c44}.AH{stroke:#786158}.AI{fill:#43afb4}.AJ{fill:#74c081}.AK{fill:#feca53}.AL{fill:#2b1b37}]]></style><g fill="none" stroke-width="2"><path vector-effect="non-scaling-stroke" d="M32.78 40.49q-4.68.25-2.77 3.36" class="b"/><path vector-effect="non-scaling-stroke" d="M30.01 43.85q-7.95 3.01-13.52 6.36-.8.48-1.1 2.07" class="r"/><path vector-effect="non-scaling-stroke" d="M15.39 52.28q-.22 2.02 1.35 3.8.37.42.01.85-.98 1.17-2.5 1.74" class="S"/><path vector-effect="non-scaling-stroke" d="M14.25 58.67q-2.47.28-2.61 2.97-.03.55.38.92L13.66 64a.81.8-53.6 0 1 .15 1.04q-3.06 4.74 3.2 7.44" class="b"/><path vector-effect="non-scaling-stroke" d="M17.01 72.48l-1.02 1.03" class="r"/><path vector-effect="non-scaling-stroke" d="M15.99 73.51c-2.55 1.91-7.95 5.26-6.58 8.26q.2.43.65.58 1.41.47 2.22 1.27" class="S"/><path stroke="#7b8c7a" vector-effect="non-scaling-stroke" d="M12.28 83.62q-.21.55-.53.65"/><path stroke="#418492" vector-effect="non-scaling-stroke" d="M11.75 84.27q-1.01.59-1.03 2.24"/><path vector-effect="non-scaling-stroke" d="M10.72 86.51l-1.1 2.18a.65.63-61.3 0 0 .23.83q4.62 2.8 7.1 3.57 24.92 7.77 48.12 19.74.45.23.95.15 4.59-.74 7.03-2.19 10.15-6.07 20.59-11.62c7-3.72 15.33-6.86 23.06-10.52a1.51 1.51 0 0 0 .62-2.18q-.21-.34-1.68-.52" class="b"/><path vector-effect="non-scaling-stroke" d="M115.64 85.95l.3-.91" class="S"/><path vector-effect="non-scaling-stroke" d="M115.94 85.04q2.38-.63 3.03-2.24.22-.56-.3-.86l-3.85-2.23" class="b"/><path vector-effect="non-scaling-stroke" d="M114.82 79.71q2.13-2.64.55-4.9-.31-.43-.09-.91l1.24-2.7" class="r"/><path vector-effect="non-scaling-stroke" d="M116.52 71.2q1.39-.09 1.91-1.78a1.17 1.15-53 0 0-.12-.92c-1.15-1.86-5.39-3.52-7.17-3.7q-.45-.05-.56-.49-.04-.18-.08-.4" class="b"/><path stroke="#3f7380" vector-effect="non-scaling-stroke" d="M110.5 63.91q.68-1.23.74-2.88a.96.96 0 0 1 .44-.77c3.15-2.03 6.74-5.72 3.45-8.51"/><path stroke="#496a72" vector-effect="non-scaling-stroke" d="M115.13 51.75l-.18-1.22"/><path stroke="#418492" vector-effect="non-scaling-stroke" d="M114.95 50.53q1.07-1.05.97-2.84-.03-.54-.56-.65c-12.72-2.7-21.65-7.12-33.85-13.83"/><path vector-effect="non-scaling-stroke" d="M81.51 33.21q-12.34-5.88-23.19-14.3-.88-.68-3.33-.8-.48-.02-.89.24l-23 15.18a1.01 1 79.9 0 0-.42.61q-.76 3.26 1.98 5.25a.64.63-68.7 0 1 .26.6q-.09.71-.14.5" class="S"/><path vector-effect="non-scaling-stroke" d="M81.51 33.21q.01.35-.31.43" class="O"/><path vector-effect="non-scaling-stroke" d="M81.2 33.64l-4.23-1.8" class="s"/><path vector-effect="non-scaling-stroke" d="M76.97 31.84q-9.75-5.42-18.7-12.01c-1.14-.84-2.01-.74-3.32-.86q-.55-.04-1.02.26L32.1 33.67a.77.77 0 0 0-.12 1.2l11.07 10.76" class="j"/><path vector-effect="non-scaling-stroke" d="M43.05 45.63q1.15 4.98 8.01 7.98a.54.53-58.7 0 1 .2.83q-.36.44-.81.16-11.82-7.38-18.03-10.82a.5.49-60.9 0 1-.19-.69q.8-1.43.03-1.9" class="E"/><path vector-effect="non-scaling-stroke" d="M32.26 41.19q-.08.25.52-.7" class="c"/><path vector-effect="non-scaling-stroke" d="M32.26 41.19q-.79 2.03-2.25 2.66" class="T"/><path stroke="#9e9162" vector-effect="non-scaling-stroke" d="M81.2 33.64L90.94 39"/><path stroke="#edd677" vector-effect="non-scaling-stroke" d="M90.94 39q-1.88-.49-2.64.9"/><path vector-effect="non-scaling-stroke" d="M88.3 39.9q.26-.14-.41-.7" class="F"/><path stroke="#feb149" vector-effect="non-scaling-stroke" d="M87.89 39.2q-4.33-.27-8.44-3.03-.44-.29-.86-.31-.44-.02-.85.03a.34.34 0 0 0-.1.65l4.09 1.96a.2.2 0 0 1-.09.38h-.4q-.67 0-.5.66a3.61 3.61 0 0 0 2 2.31q2 .82 3.9 1.98"/><path vector-effect="non-scaling-stroke" d="M86.64 43.83q-.46 1.07-.39 1.55" class="F"/><path stroke="#c0b865" vector-effect="non-scaling-stroke" d="M86.25 45.38l-3.51 4.99"/><path vector-effect="non-scaling-stroke" d="M82.74 50.37l-2.42 1.67" class="U"/><path vector-effect="non-scaling-stroke" d="M80.32 52.04l-10.91 2.97" class="d"/><path vector-effect="non-scaling-stroke" d="M69.41 55.01l-1.73.31" class="F"/><path stroke="#dfd175" vector-effect="non-scaling-stroke" d="M67.68 55.32l-1.26-.18"/><path vector-effect="non-scaling-stroke" d="M66.42 55.14q-2.69.03-4.39 1.47" class="F"/><path stroke="#f9e287" vector-effect="non-scaling-stroke" d="M62.03 56.61l-1.27 1.52"/><path vector-effect="non-scaling-stroke" d="M60.76 58.13l-10.28-6.81" class="t"/><path vector-effect="non-scaling-stroke" d="M52.08 49.06q.77-1.43.66-3.29" class="d"/><path vector-effect="non-scaling-stroke" d="M76.97 31.84q.04 1.28-1.47 1.23" class="U"/><path vector-effect="non-scaling-stroke" d="M75.5 33.07L57.47 21.4q-.39-.25-.78 0l-20.3 12.79q-.53.33-.12.8 6.86 7.87 15.25 14.12" class="B"/><path vector-effect="non-scaling-stroke" d="M51.52 49.11q.46.94-1.04 2.21" class="U"/><path vector-effect="non-scaling-stroke" d="M50.48 51.32l-7.43-5.69" class="I"/><path stroke="#8f8b79" vector-effect="non-scaling-stroke" d="M60.76 58.13l3.85 2.23"/><path vector-effect="non-scaling-stroke" d="M64.61 60.36q-1.89 2.34-.29 2.58" class="E"/><path vector-effect="non-scaling-stroke" d="M64.32 62.94q.28 1.09 1.4 1.48" class="u"/><path vector-effect="non-scaling-stroke" d="M65.72 64.42q-.28.83-.78 1.28-.39.34-.75-.04l-4.05-4.3a.39.39 0 0 0-.61.48q2.51 3.92 6.58 6.61" class="v"/><path vector-effect="non-scaling-stroke" d="M66.11 68.45l.57.75" class="V"/><path vector-effect="non-scaling-stroke" d="M66.68 69.2q0 1.38-2.02 1.16" class="v"/><path vector-effect="non-scaling-stroke" d="M64.66 70.36l-6.67-7.65" class="V"/><path vector-effect="non-scaling-stroke" d="M57.99 62.71q-3.09-4.14-7.37-6.05" class="k"/><path vector-effect="non-scaling-stroke" d="M50.62 56.66l-4.28-3.37" class="t"/><path vector-effect="non-scaling-stroke" d="M46.34 53.29L42.92 51" class="I"/><path stroke="#43574c" vector-effect="non-scaling-stroke" d="M42.92 51q-1.69-1.48-4.17-2.27"/><path vector-effect="non-scaling-stroke" d="M38.75 48.73l-2.86-1.9" class="I"/><path vector-effect="non-scaling-stroke" d="M35.89 46.83q-.63-.53-1.42-.73" class="k"/><path vector-effect="non-scaling-stroke" d="M34.47 46.1l-2.92-1.8q-.44-.26-.91-.07-6.83 2.73-13.27 6.11-.5.26-.79.98" class="I"/><path vector-effect="non-scaling-stroke" d="M16.58 51.32l-.86 1" class="T"/><path vector-effect="non-scaling-stroke" d="M15.72 52.32q.39-.29-.04.37-.1.17-.1-.03 0-.33-.19-.38" class="E"/><path stroke="#463e50" vector-effect="non-scaling-stroke" d="M114.95 50.53q-4.7 4.93-10.49 8.25-4.47 2.56-6.74 4.35-5.76 4.56-11.82 9.22"/><path vector-effect="non-scaling-stroke" d="M85.9 72.35q-.85-.58-.22-1.7.25-.46-.18-.74-.36-.24-.67.16" class="O"/><path stroke="#99a996" vector-effect="non-scaling-stroke" d="M84.83 70.07l26.55-19.65"/><path stroke="#8d9d86" vector-effect="non-scaling-stroke" d="M111.38 50.42l2.51-2.27q.57-.51-.17-.7-11.84-3.02-22.78-8.45"/><path vector-effect="non-scaling-stroke" d="M61.23 25.9q-.05 2.62 2.41 1.58m1.31.74q-1-.32-1.7.51-.33.38-.82.3-.56-.08-.59-.59a.75.63 48.6 0 0-1.37-.2q0 .19.05.36.12.37.51.45 1.25.26 2.04 1.22" class="P"/><path stroke="#c0b865" vector-effect="non-scaling-stroke" d="M71.19 34.34q-6.66.05-13.01 2.91"/><path vector-effect="non-scaling-stroke" d="M58.18 37.25q2.53-1.83 5.51-2.26a.38.38 0 0 0 .21-.65q-3.46-3.37-7.73-5.24-1.11-.49-3.63-3.85" class="P"/><path stroke="#a1bf87" vector-effect="non-scaling-stroke" d="M96.25 44.71q-.87 1 .65 1.6.89.36-.04.59l-.69.16q-.5.12-.16.51l.25.3q.41.47.81-.01.81-.93 2.26-.78.44.05.47.49.04.76-.69 1.01a.7.7 0 0 0 .03 1.34l.79.24q.83.25.71-.61-.2-1.36 1.1-1.49a.56.56 0 0 0 .46-.79q-.22-.47-.9-.33"/><path vector-effect="non-scaling-stroke" d="M105.35 47.73q-.46.05-.79 1.19a.31.31 0 0 1-.6-.01l-.14-.55q-.14-.54-.7-.5-1.16.08-1.29 1.56a.65.64 7.9 0 0 .53.69q.75.14.86-.54a.31.31 0 0 1 .58-.11q.18.3.22.84" class="P"/><path stroke="#bbd099" vector-effect="non-scaling-stroke" d="M104.81 51.44l-7.43-.09"/><path vector-effect="non-scaling-stroke" d="M97.38 51.35l-10.4-5.05q-.48-.23-.83.17l-3.41 3.9" class="P"/><path vector-effect="non-scaling-stroke" d="M58.18 37.25q-2.93 1.24-4.22 4.45" class="U"/><path vector-effect="non-scaling-stroke" d="M75.5 33.07l.65.13q.9.17 0 .32l-4.96.82" class="F"/><path vector-effect="non-scaling-stroke" d="M71.19 34.34l-4.2.16q-.47.01-.84-.27-1.95-1.51-3.63-3.38-.28-.32-.09-.44.17-.11.64-.14" class="Q"/><path vector-effect="non-scaling-stroke" d="M63.07 30.27l1.45 1.19q.48.4.97.01l1.42-1.1a.6.6 0 0 0-.05-.98l-1.91-1.17" class="B"/><path vector-effect="non-scaling-stroke" d="M64.95 28.22l-1.31-.74" class="Q"/><path vector-effect="non-scaling-stroke" d="M63.64 27.48l-2.41-1.58" class="B"/><path vector-effect="non-scaling-stroke" d="M61.23 25.9l-.95-.88" class="Q"/><path vector-effect="non-scaling-stroke" d="M60.28 25.02q-1.81-1.38-3.53-.98-1.18.28-.62 2.04" class="B"/><path vector-effect="non-scaling-stroke" d="M56.13 26.08q-1.09-.1-1.55-.82-.28-.43-.78-.31l-1.26.3" class="Q"/><path vector-effect="non-scaling-stroke" d="M52.54 25.25l-8.5 5.58a3.02 3.02 0 0 0-.44 4.71l8.3 7.95q.45.44.82-.07l1.24-1.72" class="B"/><path vector-effect="non-scaling-stroke" d="M53.96 41.7l-1.22 4.07" class="F"/><path vector-effect="non-scaling-stroke" d="M52.74 45.77q-.29.1-.45-.02" class="e"/><path vector-effect="non-scaling-stroke" d="M52.29 45.75q-1.4-1.98-3.34-2.8-.43-.17-.68-.56-1.16-1.81-3.38-2.78-1.03-.45-.92-1.69a.77.76 23 0 0-.27-.66l-3.07-2.56q-.32-.26-.63-.01l-.97.77a.54.53-40.1 0 0-.07.76l3.09 3.72q.5.6 1.21.27.27-.13.68.01.23.07.13.29-.06.14-.16.26-.26.34 0 .68 1.87 2.42 4.62 3.72.44.21.68.63.86 1.46 2.66 2.27" class="J"/><path vector-effect="non-scaling-stroke" d="M51.87 48.07q.28.35.21.99" class="e"/><path vector-effect="non-scaling-stroke" d="M52.08 49.06l-.56.05" class="F"/><path stroke="#e3f4b1" vector-effect="non-scaling-stroke" d="M97.38 51.35q-1.56 1.65-3.14 2.28"/><path vector-effect="non-scaling-stroke" d="M94.24 53.63c.6-4.03-4.53-3.82-6.28-2.07a1.56 1.55 28.1 0 0 .8 2.62q2.75.55 5.34-.47" class="K"/><path stroke="#e3f4b1" vector-effect="non-scaling-stroke" d="M94.1 53.71q-3.1 3.24-5.98 6.41-.51.57.08 1.23"/><path vector-effect="non-scaling-stroke" d="M75.01 57.76q.15.33-.96.24" class="l"/><path vector-effect="non-scaling-stroke" d="M69.96 55.3q5.69-.22 10.36-3.26" class="m"/><path stroke="#949c8a" vector-effect="non-scaling-stroke" d="M84.83 70.07q-10.63-4.16-20.22-9.71"/><path stroke="#a1c08b" vector-effect="non-scaling-stroke" d="M110.13 48.85L84.68 67.11q-.4.29-.86.11-11.33-4.39-21.79-10.61"/><path vector-effect="non-scaling-stroke" d="M66.42 55.14q-.2.72-.96 1.12-.63.34.05.57l.37.12q.61.21.95-.33l.85-1.3" class="J"/><path vector-effect="non-scaling-stroke" d="M69.41 55.01q.23.26.55.29" class="e"/><path vector-effect="non-scaling-stroke" d="M69.96 55.3q.05.49.55.93.31.28 0 .55l-1.6 1.41a.46.46 0 0 0 .33.8q1.43-.09 1.86-1.55.17-.58.73-.35l2.22.91" class="B"/><path vector-effect="non-scaling-stroke" d="M74.05 58l5.5 2.66q.23.11.11.33l-.21.39q-.29.56.31.37 3-.9 4.91 1.57.07.09 0 .18l-.15.21q-.15.18-.32.01-1.09-1.12-2.64-1.68-.43-.16-.59.28l-.11.29q-.15.43-.53.17l-4.39-3.04a.99.99 0 0 0-1.55.89q.15 1.78 1.17 1.15.42-.26.88-.11 1.01.33 1.51 1.33.23.44.71.57c1.57.42 2.31.49 3.76 1.51q2.45 1.73 3.9-1.06a1.82 1.81-66.3 0 0-.99-2.55l-10.32-3.71" class="J"/><path vector-effect="non-scaling-stroke" d="M75.01 57.76q-.13-.28.01-.59a.58.58 0 0 1 .68-.33q5.79 1.6 10.91 4.65.46.28.97.09l.62-.23" class="B"/><path stroke="#a1c08b" vector-effect="non-scaling-stroke" d="M88.2 61.35q1.38-.11 2.52-.85 7-4.56 14.09-9.06"/><path vector-effect="non-scaling-stroke" d="M104.81 51.44q1.28-.15-.57-.4-.37-.05-.38-.43 0-.19.16-.31" class="Q"/><path vector-effect="non-scaling-stroke" d="M104.02 50.3q3.62-.94 1.33-2.57" class="B"/><path vector-effect="non-scaling-stroke" d="M105.35 47.73q-1.93-1.1-4.05-.79" class="Q"/><path vector-effect="non-scaling-stroke" d="M101.3 46.94l-5.05-2.23" class="J"/><path vector-effect="non-scaling-stroke" d="M96.25 44.71l-2.42 2.87q-.32.37-.72.11-3.52-2.24-6.86-2.31" class="Q"/><path stroke="#e8eeab" vector-effect="non-scaling-stroke" d="M111.38 50.42l-.02-.88a.86.84 12.6 0 0-.49-.75q-.58-.28-.74.06"/><path stroke="#96b47b" vector-effect="non-scaling-stroke" d="M110.13 48.85q-.08-.12.08-.29.23-.22-.08-.3-11.37-2.99-21.83-8.36"/><path stroke="#a68f4d" vector-effect="non-scaling-stroke" d="M87.89 39.2q-1.13 2.25-1.25 4.63"/><path stroke="#81784d" vector-effect="non-scaling-stroke" d="M57.99 62.71l-2.11-.21"/><path stroke="#62a36e" vector-effect="non-scaling-stroke" d="M55.88 62.5q-.97-1.63-2.11-1.61c-3.18.07-2.61 3.94.62 3.47a.28.28 0 0 1 .31.36q-.2.63-2.05.58"/><path vector-effect="non-scaling-stroke" d="M52.65 65.3q-.42.26-.44-.21" class="w"/><path vector-effect="non-scaling-stroke" d="M52.21 65.09q-4.05-1.29-5.08-4.34a.59.59 0 0 1 .53-.78l3.91-.22a.58.58 0 0 0 .53-.74q-.35-1.21-1.54-1.21" class="B"/><path stroke="#8a5538" vector-effect="non-scaling-stroke" d="M70.05 77.37l-.21 1.05q-.08.45-.53.56l-.36.08"/><path vector-effect="non-scaling-stroke" d="M68.95 79.06q-.39-.19-.64-.17" class="x"/><path vector-effect="non-scaling-stroke" d="M68.31 78.89q-.77-2.6-2.56-4.36" class="y"/><path vector-effect="non-scaling-stroke" d="M65.75 74.53q-.46-3.34-3.55-3.65" class="x"/><path vector-effect="non-scaling-stroke" d="M62.2 70.88q1.39-.19.49-1.03-.38-.36-.88-.19-3.56 1.27-7.23 2.16c-1.29.31-2.9-.05-4.3.56q-.44.19-.4.67.06.73-.58.82a.24.24 0 0 1-.24-.36l.28-.49a.55.54 41.7 0 0-.04-.6q-.31-.41-.72-.22" class="y"/><path vector-effect="non-scaling-stroke" d="M48.58 72.2l-.12-.5" class="x"/><path vector-effect="non-scaling-stroke" d="M48.46 71.7l1.9-.28" class="n"/><path vector-effect="non-scaling-stroke" d="M38.75 48.73q2.77 4.28 4.17 2.27" class="K"/><path vector-effect="non-scaling-stroke" d="M46.34 53.29l-5.99 2.24" class="U"/><path vector-effect="non-scaling-stroke" d="M40.35 55.53q-2.76 1.29-4.47 4.17" class="z"/><path vector-effect="non-scaling-stroke" d="M69.87 66.13l-5.55-3.19" class="W"/><path vector-effect="non-scaling-stroke" d="M50.62 56.66q.16.83-.06 1.14" class="F"/><path vector-effect="non-scaling-stroke" d="M50.56 57.8q-2.66-.09-4.2 1.52-.36.37-.34.88l.07 2.42" class="U"/><path vector-effect="non-scaling-stroke" d="M46.09 62.62c.6 3.9 5.08 3.38 8.49 2.94" class="X"/><path stroke="#b9c56a" vector-effect="non-scaling-stroke" d="M54.58 65.56l1.55-1.28"/><path stroke="#d89a49" vector-effect="non-scaling-stroke" d="M56.13 64.28q3.09 1.23 5.1 3.99.36.5-.18.79-4.51 2.42-10.69 2.36"/><path vector-effect="non-scaling-stroke" d="M50.36 71.42q-7.33-2.09-12.66-8.11a.36.35 25.2 0 0-.62.22l-.21 4.82a1.22 1.22 0 0 0 .6 1.1l4.68 2.69a.75.73-47 0 0 .79-.04q2.09-1.48 2.97-.19" class="X"/><path stroke="#acae5a" vector-effect="non-scaling-stroke" d="M45.91 71.91q-2.13.62-2.42 1.34"/><path stroke="#edd677" vector-effect="non-scaling-stroke" d="M43.49 73.25l-.83 1.37"/><path vector-effect="non-scaling-stroke" d="M42.66 74.62q-4.28-2.15-7.38-5.53" class="t"/><path vector-effect="non-scaling-stroke" d="M36.04 60.39l4.31-4.86" class="X"/><path vector-effect="non-scaling-stroke" d="M34.47 46.1l-13.08 5.59a.54.54 0 0 0-.19.85q5.83 6.66 12.97 11.89c1.11.81 1.16 1.77.78 2.97" class="B"/><path vector-effect="non-scaling-stroke" d="M34.95 67.4q-7.44-4.94-13.96-11.21" class="j"/><path stroke="#87b898" vector-effect="non-scaling-stroke" d="M20.99 56.19l-4.41-4.87"/><path stroke="#3b5d6a" vector-effect="non-scaling-stroke" d="M110.5 63.91q-.52.32-.36.87.1.34.56.61 3.47 2.01 5.78 4.91"/><path vector-effect="non-scaling-stroke" d="M116.48 70.3q-.34.53-.66.22" class="v"/><path stroke="#869379" vector-effect="non-scaling-stroke" d="M115.82 70.52l-5-3.93"/><path stroke="#455f53" vector-effect="non-scaling-stroke" d="M110.82 66.59q-.41-.8-1.25-.88-.52-.06-.88.33-6.32 6.79-13.94 11.85"/><path stroke="#9a724a" vector-effect="non-scaling-stroke" d="M94.75 77.89l-10.74 7.76"/><path stroke="#8b8d73" vector-effect="non-scaling-stroke" d="M84.01 85.65l-2.76 1.5"/><path stroke="#4a6556" vector-effect="non-scaling-stroke" d="M81.25 87.15q-2.08.1-2.51-.84"/><path stroke="#7d8871" vector-effect="non-scaling-stroke" d="M78.74 86.31l-.96-.78"/><path stroke="#4a6556" vector-effect="non-scaling-stroke" d="M77.78 85.53l-2.01-1.47"/><path stroke="#7d8871" vector-effect="non-scaling-stroke" d="M75.77 84.06q-1.05-.64-2.15-2.4"/><path stroke="#4e3c3e" vector-effect="non-scaling-stroke" d="M73.62 81.66l-3.57-4.29"/><path vector-effect="non-scaling-stroke" d="M70.05 77.37l-5.39-7.01m2.02-1.16q3.68 5.22 7.26 8.21" stroke="#765045"/><path vector-effect="non-scaling-stroke" d="M73.94 77.41q2.75 3.65 6.22 6.04" class="AA"/><path vector-effect="non-scaling-stroke" d="M80.16 83.45q-.82 1.32.33 2 .44.26.88 0 15.69-9.04 28.42-21.89a.8.71-64.8 0 0-.39-1.33q-.28-.01-.85.59-5.91 6.16-12.98 10.58" class="AB"/><path vector-effect="non-scaling-stroke" d="M95.57 73.4q-1-.47-3.51 1.24" class="AA"/><path stroke="#765045" vector-effect="non-scaling-stroke" d="M92.06 74.64q-5.41 1.68-10.25 4.88-.45.3-.96.11-1.48-.56-2.79-1.45-6.16-4.17-11-9.82-.28-.32-.68-.17-.23.08-.27.26"/><path vector-effect="non-scaling-stroke" d="M65.72 64.42q.71.43 2.95 2.66 4.61 4.61 12.19 9.74" class="AA"/><path vector-effect="non-scaling-stroke" d="M80.86 76.82c.76 1.36 2.24 1.35 3.48.47q3.8-2.68 12.65-7.51 6.27-3.43 16.16-11.83" class="AB"/><path stroke="#3b5d6a" vector-effect="non-scaling-stroke" d="M113.15 57.95q2.87-1.75 1.78-3.34"/><path vector-effect="non-scaling-stroke" d="M114.93 54.61q-.19.14-.47-.23" class="AB"/><path stroke="#845e4b" vector-effect="non-scaling-stroke" d="M114.46 54.38q1.12-.45.82-1.38-.22-.7-.71-.72"/><path vector-effect="non-scaling-stroke" d="M20.99 56.19q-.87-.07-.36 1.45.21.6-.36.31-3.58-1.88-4.55-5.63" class="c"/><path vector-effect="non-scaling-stroke" d="M35.89 46.83l-6.81 3.08a.98.96-7.2 0 0-.56.71c-.51 2.95 5.23 7.08 7.36 9.08" class="B"/><path vector-effect="non-scaling-stroke" d="M35.88 59.7l.16.69" class="w"/><path vector-effect="non-scaling-stroke" d="M36.04 60.39l-.54 7.9" class="F"/><path stroke="#42625a" vector-effect="non-scaling-stroke" d="M35.5 68.29q-.39-1.06-.55-.89"/><path vector-effect="non-scaling-stroke" d="M35.5 68.29l-.22.8" class="s"/><path vector-effect="non-scaling-stroke" d="M35.28 69.09q-.09.93-1.49.32-1.37-.59-2.74-1.15" class="E"/><path vector-effect="non-scaling-stroke" d="M31.05 68.26q.16-.01.25-.09.13-.12-.02-.22L17.76 57.83q-.41-.3-.84-.05-.62.36-1.19 1.17" class="W"/><path vector-effect="non-scaling-stroke" d="M15.73 58.95q-2.29 3.02 4.06 4.47.51.12.36-.39-.33-1.1.27-.82" class="c"/><path vector-effect="non-scaling-stroke" d="M20.42 62.21l8.67 5.12" class="W"/><path vector-effect="non-scaling-stroke" d="M29.09 67.33q-1.16.79-.36 1.67 1.14 1.25.85 2.4" class="E"/><path vector-effect="non-scaling-stroke" d="M29.58 71.4q-5.74-2.78-11.21-5.96-.75-.44-1.22-.42-.77.04-1.16.85a.67.66-65.8 0 0 .34.9l4.93 2.11" class="Y"/><path vector-effect="non-scaling-stroke" d="M21.26 68.88q.09 1.49-1.73 1.19-.35-.06-.55.23-.12.15-.11.28" class="E"/><path vector-effect="non-scaling-stroke" d="M18.87 70.58l-4.48-1.83a.75.74-63.3 0 1-.35-1.07l1.61-2.72q.22-.35.03-.72c-.9-1.8-2.13-3.4-1.43-5.57" class="c"/><path stroke="#cb966b" vector-effect="non-scaling-stroke" d="M92.06 74.64q-5.1 3.83-10.77 6.25a1.06 1.04 46.9 0 1-.91-.04l-6.44-3.44"/><path stroke="#442e3d" vector-effect="non-scaling-stroke" d="M115.13 51.75q-.47.13-.56.53"/><path stroke="#8e543d" vector-effect="non-scaling-stroke" d="M114.57 52.28c-8.53 8.07-17.1 12.97-26.24 18.91q-.4.26-.67.57-1.35 1.56.32 1"/><path stroke="#463e50" vector-effect="non-scaling-stroke" d="M87.98 72.76l-3.43 1.75"/><path stroke="#997363" vector-effect="non-scaling-stroke" d="M84.55 74.51q-7.44-.69-14.68-8.38"/><path stroke="#423144" vector-effect="non-scaling-stroke" d="M69.87 66.13q4.94 2.75 9.62 5.24 2.6 1.38 6.41.98"/><path vector-effect="non-scaling-stroke" d="M60.28 25.02q.47.94-.54 1.67-1.2.89-2.3-.02a.36.36 0 0 1 .27-.63q1.07.14 1.4-.85a.28.28 0 0 0-.39-.34l-2.59 1.23" class="P"/><path stroke="#c7ae71" vector-effect="non-scaling-stroke" d="M52.29 45.75q-.53.82-.42 2.32"/><path stroke="#a7c68e" vector-effect="non-scaling-stroke" d="M94.24 53.63q-.3-.87-.14.08"/><path vector-effect="non-scaling-stroke" d="M52.21 65.09q-3.28 1.55-6.12-2.47" class="z"/><path stroke="#939560" vector-effect="non-scaling-stroke" d="M55.88 62.5l.52.66q.3.39.06.82-.14.23-.33.3"/><path stroke="#b7b765" vector-effect="non-scaling-stroke" d="M54.58 65.56l-1.93-.26"/><path vector-effect="non-scaling-stroke" d="M62.2 70.88q-4.06 2.94 3.55 3.65m2.56 4.36l-2.49.1" class="K"/><path vector-effect="non-scaling-stroke" d="M65.82 78.99q-1.34-2.47-2.49-2.8" class="l"/><path vector-effect="non-scaling-stroke" d="M63.33 76.19c-2.3-1.2-7.38-4.2-9.69-2.35q-.47.37-.96.04l-.97-.65q-.27-.18-.49.05l-.18.19a.35.35 0 0 0 .2.58l.55.1q.78.14.49.88l-.23.58q-.15.39-.53.2l-4.09-2.1q-.46-.23-.12-.62.44-.52 1.27-.89" class="K"/><path stroke="#aaa054" vector-effect="non-scaling-stroke" d="M48.46 71.7q-1.53.4-2.55.21"/><path stroke="#918c64" vector-effect="non-scaling-stroke" d="M73.62 81.66q-4.3 3.32-9.4 5.16"/><path vector-effect="non-scaling-stroke" d="M64.22 86.82q-1.92-.26-4.4.75" class="AC"/><path stroke="#9f9166" vector-effect="non-scaling-stroke" d="M59.82 87.57l-3.9-1.31"/><path stroke="#4c3f44" vector-effect="non-scaling-stroke" d="M55.92 86.26l-1.89-.95"/><path stroke="#9a976b" vector-effect="non-scaling-stroke" d="M64.3 84.67q3.4-.1 6.25-2.22"/><path stroke="#8a5538" vector-effect="non-scaling-stroke" d="M70.55 82.45l1.39-.85a.66.66 0 0 0-.25-1.21q-1.18-.17-1.73.91"/><path stroke="#9a976b" vector-effect="non-scaling-stroke" d="M69.96 81.3q-.55-.14-.63-.03"/><path stroke="#8db57c" vector-effect="non-scaling-stroke" d="M63.33 76.19q.08.54-.06.77-.13.22-.58.04-3.39-1.37-6.77-2.82a1.52 1.48-39.8 0 0-.91-.07q-1.86.48-2.75 1.97-.23.39.25.63a.67.66 25 0 0 .89-.32q.7-1.54 2.29-1.31a.35.35 0 0 1 .13.65l-1.86 1.08a.46.46 0 0 0-.03.77q1.45 1.05 3.12 1.73c1.01.41 2.29.25 3.36.99q1.98 1.39 2.04 1.41 3.9 1.58 3.37-2.72"/><path vector-effect="non-scaling-stroke" d="M68.95 79.06l.38 2.21" class="AC"/><path vector-effect="non-scaling-stroke" d="M69.33 81.27l-5.12 2.89q-.19.1-.1.29.06.12.19.22" class="K"/><path vector-effect="non-scaling-stroke" d="M64.3 84.67q-.25.05-.5-.18-.33-.3-.69-.07-1.02.64-2.34.09" class="AC"/><path stroke="#9bba7e" vector-effect="non-scaling-stroke" d="M60.77 84.51l.44-.03a.51.51 0 0 0 .22-.95L43.49 73.25"/><path stroke="#9f9166" vector-effect="non-scaling-stroke" d="M60.77 84.51l-6.02-2.2"/><path stroke="#847f69" vector-effect="non-scaling-stroke" d="M42.66 74.62l12.09 7.69"/><path stroke="#472e34" vector-effect="non-scaling-stroke" d="M54.75 82.31q.02 1.61-.72 3"/><path vector-effect="non-scaling-stroke" d="M54.03 85.31q1.44 2.89.58 3.16" class="E"/><path vector-effect="non-scaling-stroke" d="M54.61 88.47q-7.45-6.61-15.25-12.58-.09-.07-.35-.02-.42.1-.1.39l9.19 8.14" class="u"/><path vector-effect="non-scaling-stroke" d="M48.1 84.4q5.14 8.5 13.56 15.42" class="f"/><path vector-effect="non-scaling-stroke" d="M61.66 99.82q-.38.16-.75.33" class="E"/><path vector-effect="non-scaling-stroke" d="M60.91 100.15L49.03 88.66" class="V"/><path vector-effect="non-scaling-stroke" d="M49.03 88.66l-5.6-4.62" class="AD"/><path stroke="#7d5041" vector-effect="non-scaling-stroke" d="M43.43 84.04l-9.12-6.68"/><path vector-effect="non-scaling-stroke" d="M34.31 77.36l-11.17-4.91a.34.34 0 0 0-.38.06q-.12.1-.17.28" class="I"/><path vector-effect="non-scaling-stroke" d="M22.59 72.79q-.25-.67-.56-.65" class="k"/><path vector-effect="non-scaling-stroke" d="M22.03 72.14q-1.98-2.55-5.48 2.1" class="I"/><path vector-effect="non-scaling-stroke" d="M16.55 74.24q-.86-.32-.56-.73" class="E"/><path vector-effect="non-scaling-stroke" d="M114.93 54.61q-3.08 2.26-1.78 3.34" class="AE"/><path vector-effect="non-scaling-stroke" d="M80.86 76.82q2.62-1.11 3.69-2.31" class="o"/><path vector-effect="non-scaling-stroke" d="M114.82 79.71q-1.48.74-2.07 2.02" class="T"/><path stroke="#847f69" vector-effect="non-scaling-stroke" d="M112.75 81.73l-1.73.45"/><path vector-effect="non-scaling-stroke" d="M111.02 82.18l-7.35 4.52" class="k"/><path vector-effect="non-scaling-stroke" d="M103.67 86.7q-1.76.74-3.57 1.32c-4.38 1.4-8.68 4.1-12.86 6.1q-.48.22-.57-.3-.16-.82.04-1.6" class="E"/><path vector-effect="non-scaling-stroke" d="M86.71 92.22q.66-.6 1.51-.87" class="AD"/><path stroke="#94593b" vector-effect="non-scaling-stroke" d="M88.22 91.35l9.32-4.74q.46-.23.59-.73.25-1.02-.18-2.27"/><path stroke="#914b34" vector-effect="non-scaling-stroke" d="M97.95 83.61l-.74-1.33"/><path vector-effect="non-scaling-stroke" d="M99.35 81.39l.56.96q.31.53.79.15.99-.77 2.08-1.04" class="f"/><path vector-effect="non-scaling-stroke" d="M102.78 81.46q.19.47.03 1.11" class="V"/><path vector-effect="non-scaling-stroke" d="M102.81 82.57l-3.82 1.67a.66.66 0 0 0 .5 1.22l11.64-4.57" class="f"/><path vector-effect="non-scaling-stroke" d="M111.13 80.89q3.2-1.09 3.73-3.01" class="T"/><path vector-effect="non-scaling-stroke" d="M114.86 77.88q-1.05-.08-.57-.57" class="f"/><path vector-effect="non-scaling-stroke" d="M114.29 77.31q.69-.25.9-.57.29-.44-.28-1.09" class="AD"/><path vector-effect="non-scaling-stroke" d="M114.91 75.65q-.12-.16-.31-.25-.46-.23-.87.08-4.53 3.31-9.83 5.36" class="V"/><path vector-effect="non-scaling-stroke" d="M103.9 80.84c2.95-1.89 8.22-4.41 10.37-6.79q1.35-1.49-.08-2.35" class="f"/><path vector-effect="non-scaling-stroke" d="M110.82 66.59q-2.29 1.2 1.6 3.6.48.3.03.64-8.02 6.02-15.36 10.29-.5.28-.3.89" class="B"/><path stroke="#a38146" vector-effect="non-scaling-stroke" d="M96.79 82.01l-.47.02"/><path vector-effect="non-scaling-stroke" d="M96.32 82.03l-1.57-4.14" class="w"/><path vector-effect="non-scaling-stroke" d="M116.52 71.2q-.28-.46-.04-.9" class="T"/><path vector-effect="non-scaling-stroke" d="M115.82 70.52l-1.63 1.18" class="I"/><path stroke="#88a38b" vector-effect="non-scaling-stroke" d="M114.19 71.7l-14.84 9.69"/><path vector-effect="non-scaling-stroke" d="M99.35 81.39l-2.14.89" class="I"/><path stroke="#e5b56b" vector-effect="non-scaling-stroke" d="M97.21 82.28q-.26-.34-.42-.27"/><path vector-effect="non-scaling-stroke" d="M80.16 83.45q8.08-4.04 15.41-10.05" class="o"/><path vector-effect="non-scaling-stroke" d="M75.77 84.06q-6.14 2.92-11.55 2.76m13.56-1.29q-3.95.96-7.6 2.39-1.47.58-2.98.62-1.53.04-3.1.09-.4.01-.32.41.2.99.98.92 6.34-.52 13.98-3.65" stroke="#8db57c"/><path stroke="#9bba7e" vector-effect="non-scaling-stroke" d="M81.25 87.15q-7.71 2.5-15.74 3.77-2.06.33-3.32-.59-1.39-1.02-2.37-2.76"/><path stroke="#866e5d" vector-effect="non-scaling-stroke" d="M114.46 54.38q-12.47 10.3-26.48 18.38"/><path stroke="#f9943c" vector-effect="non-scaling-stroke" d="M96.32 82.03q.19.51-.07.62-4.05 1.73-7.94 3.8"/><path vector-effect="non-scaling-stroke" d="M88.31 86.45q-.61-.55-1.72.23" class="AF"/><path stroke="#ebc872" vector-effect="non-scaling-stroke" d="M86.59 86.68q.16-1.05-2.58-1.03"/><path vector-effect="non-scaling-stroke" d="M31.05 68.26l-1.96-.93" class="u"/><path stroke="#90a290" vector-effect="non-scaling-stroke" d="M20.42 62.21l-4.69-3.26"/><path vector-effect="non-scaling-stroke" d="M29.58 71.4l1.48.91q.54.33-.09.31c-2.43-.08-7.15-2.76-9.71-3.74" class="V"/><path vector-effect="non-scaling-stroke" d="M18.87 70.58l-1.86 1.9" class="T"/><path vector-effect="non-scaling-stroke" d="M70.55 82.45q.16-.56-.59-1.15" class="y"/><path vector-effect="non-scaling-stroke" d="M55.92 86.26l5.4 6.47q.36.43.91.36 12.55-1.48 24.36-6.41" class="g"/><path vector-effect="non-scaling-stroke" d="M87.72 90.53q-9.56 5.18-19.81 8.69" class="AF"/><path vector-effect="non-scaling-stroke" d="M67.91 99.22l-7 .93" class="Y"/><path vector-effect="non-scaling-stroke" d="M22.59 72.79l-2.24 2.27a1.44 1.44 0 0 0 .5 2.35l10.32 4.07a1.26 1.25 45.3 0 0 .88.01q.27-.1.49-.24" class="B"/><path vector-effect="non-scaling-stroke" d="M32.54 81.25q.46.07.28.97" class="e"/><path vector-effect="non-scaling-stroke" d="M32.82 82.22l-.12 3.99" class="F"/><path vector-effect="non-scaling-stroke" d="M32.7 86.21q-.33-.13-.73-.02" class="e"/><path vector-effect="non-scaling-stroke" d="M54.61 88.47q2.67 3.22 5.57 6.42c1.49 1.64 2.4 1.21 4.31.79q3.25-.71 6.49-1.56a.12.12 0 0 1 .15.12q0 .13 0 .26 0 .38-.36.5l-4.31 1.48" class="W"/><path vector-effect="non-scaling-stroke" d="M66.46 96.48l-4.65.78q-.56.1-.96-.3L48.1 84.4" class="o"/><path vector-effect="non-scaling-stroke" d="M67.91 99.22q-.07.55 1.64 1.06" class="n"/><path stroke="#c7a66d" vector-effect="non-scaling-stroke" d="M54.79 97.88q-3-4.85-8.65-4.82"/><path stroke="#e49949" vector-effect="non-scaling-stroke" d="M43.43 84.04q-3.13-.2-6.43-2-1.11-.61-2.68-.31"/><path vector-effect="non-scaling-stroke" d="M34.32 81.73q-.24-.63-.77-.62-.52.01-.62.52l-.11.59" class="d"/><path vector-effect="non-scaling-stroke" d="M49.03 88.66q0 1.14-.79 1.3-.48.09-.72.53l-1.38 2.57" class="n"/><path stroke="#ebc872" vector-effect="non-scaling-stroke" d="M46.14 93.06q.26.53-.01 1.11"/><path stroke="#f9943c" vector-effect="non-scaling-stroke" d="M46.13 94.17l-2.24-.76"/><path vector-effect="non-scaling-stroke" d="M22.03 72.14l-6.98 5.8q-1.02.84.2 1.35l16.72 6.9" class="B"/><path vector-effect="non-scaling-stroke" d="M31.97 86.19q.58 2.61-.43 2.27" class="m"/><path vector-effect="non-scaling-stroke" d="M31.54 88.46L11.5 80.22" class="j"/><path stroke="#8bcfad" vector-effect="non-scaling-stroke" d="M11.5 80.22l-1.39-.54"/><path vector-effect="non-scaling-stroke" d="M10.11 79.68l6.44-5.44" class="j"/><path vector-effect="non-scaling-stroke" d="M10.11 79.68q-.5 1.28.15 1.78 1.12.86 2.54 1.05.88.12.31-.56-.78-.92-2.01-1.25a.26.25 32.7 0 1-.1-.44q.26-.23.5-.04" class="S"/><path stroke="#826151" vector-effect="non-scaling-stroke" d="M31.54 88.46q.19 1.06 1.25.81"/><path vector-effect="non-scaling-stroke" d="M32.79 89.27q-.96 2.97.37 3.3" class="s"/><path vector-effect="non-scaling-stroke" d="M33.16 92.57l12.08 5.29" class="AG"/><path vector-effect="non-scaling-stroke" d="M45.24 97.86l4.94 2.31" class="W"/><path vector-effect="non-scaling-stroke" d="M50.18 100.17l-.7.82q-.39.46.15.73l13.32 6.87a5.02 5-44.9 0 0 4.57 0q9.45-4.82 19.67-10 .12-.07.16-.15.05-.13 0-.27-.13-.34-.45-.17-.72.4-1.52.41-.84.02-.1-.37L89.22 96" class="O"/><path vector-effect="non-scaling-stroke" d="M89.22 96l5.28-2.52" class="g"/><path vector-effect="non-scaling-stroke" d="M94.5 93.48l.44 1.14q.16.4.56.23l17.92-7.5a.73.72-17.1 0 0 .43-.8l-.21-1.08" class="O"/><path vector-effect="non-scaling-stroke" d="M113.64 85.47q1.09-.28 1.49-1.04" class="g"/><path vector-effect="non-scaling-stroke" d="M115.13 84.43q.22-.48.58-.14.26.25.23.75m-.3.91q-.87 2-1.81 2.39c-9.69 4.06-19.63 7.83-28.9 12.44q-9.22 4.59-18.41 9.24c-.74.38-2.46.35-3.36-.15Q38.24 95.88 10.95 87.6" class="c"/><path vector-effect="non-scaling-stroke" d="M10.95 87.6l-.07-.49a.44.44 0 0 1 .58-.48l20.33 6.97q.94.32.31-.44-.8-.98-3.33-1.83" class="O"/><path vector-effect="non-scaling-stroke" d="M28.77 91.33q.91-.66-.68-1.38-7.79-3.51-15.81-6.33" class="Y"/><path vector-effect="non-scaling-stroke" d="M66.46 96.48l3.49-.13a.49.49 0 0 1 .16.96l-8.45 2.51" class="O"/><path vector-effect="non-scaling-stroke" d="M34.31 77.36q-.11.17-.16.34-.07.25-.33.21-.13-.02-.25.04-.18.09-.23.29l-.8 3.01" class="m"/><path stroke="#42625a" vector-effect="non-scaling-stroke" d="M103.84 88.09l-.17-1.39"/><path vector-effect="non-scaling-stroke" d="M113.64 85.47L94.5 93.48M89.22 96q-.38-.33-.73-.39" stroke="#8d9d86"/><path vector-effect="non-scaling-stroke" d="M88.49 95.61l15.35-7.52" class="g"/><path stroke="#96b47b" vector-effect="non-scaling-stroke" d="M103.84 88.09l8.16-3.35q.48-.19.21-.64l-1.19-1.92"/><path stroke="#8cb292" vector-effect="non-scaling-stroke" d="M115.13 84.43l-2.38-2.7"/><path stroke="#fa8938" vector-effect="non-scaling-stroke" d="M97.95 83.61l-9.68 4.03"/><path vector-effect="non-scaling-stroke" d="M88.27 87.64q-.11-.74.04-1.19" class="AG"/><path stroke="#fca244" vector-effect="non-scaling-stroke" d="M88.22 91.35q-.77-.37-.5-.82"/><path stroke="#996a4c" vector-effect="non-scaling-stroke" d="M87.72 90.53l.55-2.89"/><path vector-effect="non-scaling-stroke" d="M114.91 75.65q-1.81.34-.98 1.62" class="n"/><path vector-effect="non-scaling-stroke" d="M113.93 77.27l-11.12 5.3m1.09-1.73l-1.12.62" class="AH"/><path stroke="#9c835c" vector-effect="non-scaling-stroke" d="M114.29 77.31q-.18-.02-.36-.04"/><path vector-effect="non-scaling-stroke" d="M114.86 77.88q-4.88 1.03-3.73 3.01" class="AE"/><path vector-effect="non-scaling-stroke" d="M88.49 95.61l-19.77 9.13" class="O"/><path vector-effect="non-scaling-stroke" d="M68.72 104.74l-2.16 1.33" class="Y"/><path vector-effect="non-scaling-stroke" d="M66.56 106.07l-20.77-8.99q-.17-.07-.16-.26.01-.14.03-.27" class="W"/><path vector-effect="non-scaling-stroke" d="M45.66 96.55q-.08-1.78.6-2.25" class="AG"/><path vector-effect="non-scaling-stroke" d="M46.26 94.3l8.53 3.58" class="g"/><path vector-effect="non-scaling-stroke" d="M54.79 97.88q4.73 2.68 10.4 4.64 1.31.45 2.63.22 5.88-1.05 1.73-2.46" class="Y"/><path vector-effect="non-scaling-stroke" d="M69.55 100.28l17.16-8.06" class="AF"/><path vector-effect="non-scaling-stroke" d="M34.32 81.73l-.08 6.13q-.01.58.52.79l9.76 3.89a.4.4 0 0 1-.08.77l-.55.1" class="X"/><path stroke="#fba342" vector-effect="non-scaling-stroke" d="M43.89 93.41l-9.16-3.6q-.63-.25-.66.42-.1 2.02-.91 2.34"/><path vector-effect="non-scaling-stroke" d="M32.79 89.27l-.09-3.06" class="d"/><path stroke="#eaaf66" vector-effect="non-scaling-stroke" d="M46.13 94.17q.07.06.13.13"/><path stroke="#ee9f63" vector-effect="non-scaling-stroke" d="M45.66 96.55q.05.71-.42 1.31"/><path vector-effect="non-scaling-stroke" d="M28.77 91.33l-15.94-6.05q-.46-.17-.75-.57l-.33-.44" class="AH"/><path vector-effect="non-scaling-stroke" d="M50.18 100.17q6.75 3.4 13.83 6.49 1.87.82 3.3-.14" class="o"/><path vector-effect="non-scaling-stroke" d="M67.31 106.52q2.87-.98 1.41-1.78" class="AH"/><path stroke="#cb966b" vector-effect="non-scaling-stroke" d="M66.56 106.07q.89-.49.75.45"/><path vector-effect="non-scaling-stroke" d="M10.95 87.6l-.23-1.09" class="AE"/><path vector-effect="non-scaling-stroke" d="M104.72 96.225a3.25.54-21.2 0 0-3.225.672 3.25.54-21.2 0 0-2.835 1.679 3.25.54-21.2 0 0 3.225-.672 3.25.54-21.2 0 0 2.835-1.679m-57.763 11.384a2.52.54 28.4 0 0-1.96-1.674 2.52.54 28.4 0 0-2.474-.724 2.52.54 28.4 0 0 1.96 1.674 2.52.54 28.4 0 0 2.474.724" stroke="#9bd5b8"/><path vector-effect="non-scaling-stroke" d="M36.42 40.7l-4.95-5.44a.11.11 0 0 0-.16-.01l-.1.1a2.57.87 47.7 0 0 1.08 2.48l1.65 1.81a2.57.87 47.7 0 0 2.37 1.31l.1-.09a.11.11 0 0 0 .01-.16" class="S"/><path vector-effect="non-scaling-stroke" d="M41.02 46.71q-3.03-3.51-7.08-5.87a.58.57-56.4 0 0-.75.16q-.77 1.06.29 1.57 3.9 1.88 7.21 4.49a.24.24 0 0 0 .33-.35" class="Y"/><path vector-effect="non-scaling-stroke" d="M55.313 20.056a2.53.27-32.1 0 0-2.287 1.116 2.53.27-32.1 0 0-2 1.573 2.53.27-32.1 0 0 2.287-1.116 2.53.27-32.1 0 0 2-1.573" class="P"/><path stroke="#a3d794" vector-effect="non-scaling-stroke" d="M51.49 30.35l4.06 2.82a.78.76 56.3 0 0 .61.13q1.36-.28 2.06-1.47.25-.43-.2-.65l-3.91-1.92q-.53-.26-1.12-.16l-1.27.23a.57.56-32.5 0 0-.23 1.02"/><path vector-effect="non-scaling-stroke" d="M52.638 35.218a3.21 2.24 12.2 0 0-2.664-2.868 3.21 2.24 12.2 0 0-3.611 1.511 3.21 2.24 12.2 0 0 2.664 2.868 3.21 2.24 12.2 0 0 3.611-1.511" class="K"/><path vector-effect="non-scaling-stroke" d="M64.09 29.82a.25.25 0 0 0 .36.31l1.28-.66a.31.31 0 0 0-.12-.58q-1.15-.13-1.52.93" class="P"/><path vector-effect="non-scaling-stroke" d="M67.28 39.37c-5.86 1.25-5.79 7.82-.56 9.31q5.96 1.71 9.35-2.61" class="X"/><path vector-effect="non-scaling-stroke" d="M76.07 46.07q2.12-4.13-.67-5.64" class="d"/><path stroke="#b9c56a" vector-effect="non-scaling-stroke" d="M75.4 40.43l-2.19-.47"/><path stroke="#dfd175" vector-effect="non-scaling-stroke" d="M73.21 39.96q-3.55-1.51-5.93-.59"/><path vector-effect="non-scaling-stroke" d="M73.21 39.96q-2.74-.34-5.06.93-.44.24-.25.71l.23.54q.27.65-.32 1.04-1.49.99-3.3.82-.82-.07-.41.65 1.12 1.97 3.99 2.53" class="J"/><path stroke="#9acc8c" vector-effect="non-scaling-stroke" d="M68.09 47.18q1.52 1.04 3.06.32"/><path vector-effect="non-scaling-stroke" d="M71.15 47.5l.12.76" class="l"/><path stroke="#ddc370" vector-effect="non-scaling-stroke" d="M71.27 48.26c-2.99.7-6.62.09-7.9-2.99q-1.44-3.44 3.91-5.9"/><path stroke="#a1a266" vector-effect="non-scaling-stroke" d="M75.4 40.43q-.3-.03-.06.64"/><path stroke="#a3d794" vector-effect="non-scaling-stroke" d="M75.34 41.07q-.4 2.22-2.13 3.13-.48.25-.51.78-.09 1.66-1.55 2.52"/><path vector-effect="non-scaling-stroke" d="M71.27 48.26q2.71-.31 4.39-2.5" class="z"/><path stroke="#e49949" vector-effect="non-scaling-stroke" d="M75.66 45.76q.21.15.41.31"/><path stroke="#62a36e" vector-effect="non-scaling-stroke" d="M73.21 39.96q-.85.82-2.24 1.14a1.07 1.07 0 0 0-.26 2l.52.27q.4.21-.04.31-1.25.27-2.44.7-.91.33-.66 2.8"/><path vector-effect="non-scaling-stroke" d="M75.66 45.76q1.28-3.09-.32-4.69" class="m"/><path vector-effect="non-scaling-stroke" d="M53.54 50.19q-.38.67.05 1.57.22.48.67.77l5.47 3.61a.98.95-41.9 0 0 .98.04l4.32-2.35a.39.38-49.3 0 0-.05-.7q-5.79-2.11-10.09-6.58-.68-.7-.79.27l-.33 2.66q-.05.38-.23.71" class="X"/><path vector-effect="non-scaling-stroke" d="M67.24 57.07q-.27.19-.21.55a.51.51 0 0 0 .86.29l1.42-1.34a.38.38 0 0 0-.24-.66q-.95-.06-1.35.81a.61 0-35.9 0 1-.48.35" class="B"/><path vector-effect="non-scaling-stroke" d="M72.86 59.88q.53.59 1.23.18a.58.58 0 0 0 .12-.89q-1-1.07-2.43-1.12a1.03.91-33.4 0 0-.51 1.87q.64.16.82-.35.14-.39.77.31m-45.68-3.39q.15 1.17 1.12 1.78.16.11.3-.03l.28-.28a.45.45 0 0 1 .71.11q1.37 2.71 3.9 4.37a.99.99 0 0 0 1.15-1.61l-5.62-4.39q-.44-.34-.49-.9l-.05-.58q-.05-.48-.52-.54-1.6-.19-1.62-1.96a.42.41-16.5 0 0-.64-.34l-1.46.92q-.59.36-.21.95.98 1.54 2.71 2 .39.1.44.5" class="J"/><path vector-effect="non-scaling-stroke" d="M86.91 55.94q-3.1-2.54-5.65.23-.34.36.02.72 3.01 3.01 5.71-.07.42-.48-.08-.88m-48.95-2.763a3.1 2.36 11.3 0 0-2.578-2.922 3.1 2.36 11.3 0 0-3.502 1.707 3.1 2.36 11.3 0 0 2.578 2.922 3.1 2.36 11.3 0 0 3.502-1.707" class="K"/><path vector-effect="non-scaling-stroke" d="M106.16 70.43q-2.24 3-5.93 4.68-.39.18-.44.6l-.04.28q-.06.5-.49.76l-3.54 2.17a.39.39 0 0 0 .26.71q2.33-.35 3.82-2.05.33-.37.81-.49.87-.21 2.38-.85 1.13-.48.8-1.24-.2-.47.26-.7l2.8-1.43a.51.51 0 0 0 .03-.89l-.56-.35q-.28-.17-.04-.39.12-.11.27-.12" class="J"/><path vector-effect="non-scaling-stroke" d="M106.55 71.12q1.4 1.23 2.22.34a1.02 1.02 0 0 0-.51-1.69q-1.24-.3-2.1.66" class="B"/><path vector-effect="non-scaling-stroke" d="M106.55 71.12l-.39-.69" class="l"/><path vector-effect="non-scaling-stroke" d="M19.49 78.5l-.66-.64q-.56-.54-.87.17l-.35.79q-.29.65.41.76 4.13.63 7.72 2.73c1.89 1.1 3.54 1.39 5.51 2.09q.54.19.64-.37.13-.67-.67-.97-1.32-.5-4.67-1.24a.79.78-89 0 1-.61-.64q-.14-.83-.8-.45-.49.29-.97-.02-1.87-1.23-3.68-2.31-.1-.06-.2-.05-.2.02-.32.15-.24.24-.48 0" class="J"/><path vector-effect="non-scaling-stroke" d="M29.967 77.073a3.11 1.6 9.5 0 0-2.803-2.091 3.11 1.6 9.5 0 0-3.331 1.065 3.11 1.6 9.5 0 0 2.803 2.091 3.11 1.6 9.5 0 0 3.331-1.065" class="K"/></g><path d="M60.41 0h7.55C100.98 3.19 125.6 27.29 128 60.4v7.55c-3.01 32.86-27.25 57.51-60.16 60.05h-7.8C27.06 124.92 2.39 100.63 0 67.6v-7.56C2.65 27.1 27.49 2.68 60.41 0zM32.78 40.49q-4.68.25-2.77 3.36-7.95 3.01-13.52 6.36-.8.48-1.1 2.07-.22 2.02 1.35 3.8.37.42.01.85-.98 1.17-2.5 1.74-2.47.28-2.61 2.97-.03.55.38.92L13.66 64a.81.8-53.6 0 1 .15 1.04q-3.06 4.74 3.2 7.44l-1.02 1.03c-2.55 1.91-7.95 5.26-6.58 8.26q.2.43.65.58 1.41.47 2.22 1.27-.21.55-.53.65-1.01.59-1.03 2.24l-1.1 2.18a.65.63-61.3 0 0 .23.83q4.62 2.8 7.1 3.57 24.92 7.77 48.12 19.74.45.23.95.15 4.59-.74 7.03-2.19 10.15-6.07 20.59-11.62c7-3.72 15.33-6.86 23.06-10.52a1.51 1.51 0 0 0 .62-2.18q-.21-.34-1.68-.52l.3-.91q2.38-.63 3.03-2.24.22-.56-.3-.86l-3.85-2.23q2.13-2.64.55-4.9-.31-.43-.09-.91l1.24-2.7q1.39-.09 1.91-1.78a1.17 1.15-53 0 0-.12-.92c-1.15-1.86-5.39-3.52-7.17-3.7q-.45-.05-.56-.49-.04-.18-.08-.4.68-1.23.74-2.88a.96.96 0 0 1 .44-.77c3.15-2.03 6.74-5.72 3.45-8.51l-.18-1.22q1.07-1.05.97-2.84-.03-.54-.56-.65c-12.72-2.7-21.65-7.12-33.85-13.83q-12.34-5.88-23.19-14.3-.88-.68-3.33-.8-.48-.02-.89.24l-23 15.18a1.01 1 79.9 0 0-.42.61q-.76 3.26 1.98 5.25a.64.63-68.7 0 1 .26.6q-.09.71-.14.5zm71.94 55.735a3.25.54-21.2 0 0-3.225.672 3.25.54-21.2 0 0-2.835 1.679 3.25.54-21.2 0 0 3.225-.672 3.25.54-21.2 0 0 2.835-1.679zm-57.763 11.384a2.52.54 28.4 0 0-1.96-1.674 2.52.54 28.4 0 0-2.474-.724 2.52.54 28.4 0 0 1.96 1.674 2.52.54 28.4 0 0 2.474.724z" class="AI"/><path d="M81.51 33.21q.01.35-.31.43l-4.23-1.8q-9.75-5.42-18.7-12.01c-1.14-.84-2.01-.74-3.32-.86q-.55-.04-1.02.26L32.1 33.67a.77.77 0 0 0-.12 1.2l11.07 10.76q1.15 4.98 8.01 7.98a.54.53-58.7 0 1 .2.83q-.36.44-.81.16-11.82-7.38-18.03-10.82a.5.49-60.9 0 1-.19-.69q.8-1.43.03-1.9-.08.25.52-.7.05.21.14-.5a.64.63-68.7 0 0-.26-.6q-2.74-1.99-1.98-5.25a1.01 1 79.9 0 1 .42-.61l23-15.18q.41-.26.89-.24 2.45.12 3.33.8 10.85 8.42 23.19 14.3zM36.42 40.7l-4.95-5.44a.11.11 0 0 0-.16-.01l-.1.1a2.57.87 47.7 0 0 1.08 2.48l1.65 1.81a2.57.87 47.7 0 0 2.37 1.31l.1-.09a.11.11 0 0 0 .01-.16zm4.6 6.01q-3.03-3.51-7.08-5.87a.58.57-56.4 0 0-.75.16q-.77 1.06.29 1.57 3.9 1.88 7.21 4.49a.24.24 0 0 0 .33-.35z" class="Z"/><path d="M76.97 31.84q.04 1.28-1.47 1.23L57.47 21.4q-.39-.25-.78 0l-20.3 12.79q-.53.33-.12.8 6.86 7.87 15.25 14.12.46.94-1.04 2.21l-7.43-5.69-11.07-10.76a.77.77 0 0 1 .12-1.2l21.83-14.44q.47-.3 1.02-.26c1.31.12 2.18.02 3.32.86q8.95 6.59 18.7 12.01zM55.313 20.056a2.53.27-32.1 0 0-2.287 1.116 2.53.27-32.1 0 0-2 1.573 2.53.27-32.1 0 0 2.287-1.116 2.53.27-32.1 0 0 2-1.573z" class="C"/><ellipse cx="0" cy="0" transform="matrix(.847122 -.531399 .531399 .847122 53.17 21.4)" rx="2.53" ry=".27" class="p"/><path d="M75.5 33.07l.65.13q.9.17 0 .32l-4.96.82-4.2.16q-.47.01-.84-.27-1.95-1.51-3.63-3.38-.28-.32-.09-.44.17-.11.64-.14l1.45 1.19q.48.4.97.01l1.42-1.1a.6.6 0 0 0-.05-.98l-1.91-1.17-1.31-.74-2.41-1.58-.95-.88q-1.81-1.38-3.53-.98-1.18.28-.62 2.04-1.09-.1-1.55-.82-.28-.43-.78-.31l-1.26.3-8.5 5.58a3.02 3.02 0 0 0-.44 4.71l8.3 7.95q.45.44.82-.07l1.24-1.72-1.22 4.07q-.29.1-.45-.02-1.4-1.98-3.34-2.8-.43-.17-.68-.56-1.16-1.81-3.38-2.78-1.03-.45-.92-1.69a.77.76 23 0 0-.27-.66l-3.07-2.56q-.32-.26-.63-.01l-.97.77a.54.53-40.1 0 0-.07.76l3.09 3.72q.5.6 1.21.27.27-.13.68.01.23.07.13.29-.06.14-.16.26-.26.34 0 .68 1.87 2.42 4.62 3.72.44.21.68.63.86 1.46 2.66 2.27.28.35.21.99l-.56.05q-8.39-6.25-15.25-14.12-.41-.47.12-.8l20.3-12.79q.39-.25.78 0L75.5 33.07z" class="R"/><path d="M60.28 25.02q.47.94-.54 1.67-1.2.89-2.3-.02a.36.36 0 0 1 .27-.63q1.07.14 1.4-.85a.28.28 0 0 0-.39-.34l-2.59 1.23q-.56-1.76.62-2.04 1.72-.4 3.53.98z" class="C"/><path d="M56.13 26.08l2.59-1.23a.28.28 0 0 1 .39.34q-.33.99-1.4.85a.36.36 0 0 0-.27.63q1.1.91 2.3.02 1.01-.73.54-1.67l.95.88q-.05 2.62 2.41 1.58l1.31.74q-1-.32-1.7.51-.33.38-.82.3-.56-.08-.59-.59a.75.63 48.6 0 0-1.37-.2q0 .19.05.36.12.37.51.45 1.25.26 2.04 1.22-.47.03-.64.14-.19.12.09.44 1.68 1.87 3.63 3.38.37.28.84.27l4.2-.16q-6.66.05-13.01 2.91 2.53-1.83 5.51-2.26a.38.38 0 0 0 .21-.65q-3.46-3.37-7.73-5.24-1.11-.49-3.63-3.85l1.26-.3q.5-.12.78.31.46.72 1.55.82z" class="p"/><path d="M52.54 25.25q2.52 3.36 3.63 3.85 4.27 1.87 7.73 5.24a.38.38 0 0 1-.21.65q-2.98.43-5.51 2.26-2.93 1.24-4.22 4.45l-1.24 1.72q-.37.51-.82.07l-8.3-7.95a3.02 3.02 0 0 1 .44-4.71l8.5-5.58zm-1.05 5.1l4.06 2.82a.78.76 56.3 0 0 .61.13q1.36-.28 2.06-1.47.25-.43-.2-.65l-3.91-1.92q-.53-.26-1.12-.16l-1.27.23a.57.56-32.5 0 0-.23 1.02zm1.148 4.868a3.21 2.24 12.2 0 0-2.664-2.868 3.21 2.24 12.2 0 0-3.611 1.511 3.21 2.24 12.2 0 0 2.664 2.868 3.21 2.24 12.2 0 0 3.611-1.511zM61.23 25.9l2.41 1.58q-2.46 1.04-2.41-1.58zm3.72 2.32l1.91 1.17a.6.6 0 0 1 .05.98l-1.42 1.1q-.49.39-.97-.01l-1.45-1.19q-.79-.96-2.04-1.22-.39-.08-.51-.45-.05-.17-.05-.36a.75.63 48.6 0 1 1.37.2q.03.51.59.59.49.08.82-.3.7-.83 1.7-.51zm-.86 1.6a.25.25 0 0 0 .36.31l1.28-.66a.31.31 0 0 0-.12-.58q-1.15-.13-1.52.93z" class="C"/><path d="M51.49 30.35a.57.56-32.5 0 1 .23-1.02l1.27-.23q.59-.1 1.12.16l3.91 1.92q.45.22.2.65-.7 1.19-2.06 1.47a.78.76 56.3 0 1-.61-.13l-4.06-2.82z" class="AJ"/><path d="M64.09 29.82q.37-1.06 1.52-.93a.31.31 0 0 1 .12.58l-1.28.66a.25.25 0 0 1-.36-.31z" class="p"/><path d="M76.97 31.84l4.23 1.8L90.94 39q-1.88-.49-2.64.9.26-.14-.41-.7-4.33-.27-8.44-3.03-.44-.29-.86-.31-.44-.02-.85.03a.34.34 0 0 0-.1.65l4.09 1.96a.2.2 0 0 1-.09.38h-.4q-.67 0-.5.66a3.61 3.61 0 0 0 2 2.31q2 .82 3.9 1.98-.46 1.07-.39 1.55l-3.51 4.99-2.42 1.67-10.91 2.97-1.73.31-1.26-.18q-2.69.03-4.39 1.47l-1.27 1.52-10.28-6.81q1.5-1.27 1.04-2.21l.56-.05q.77-1.43.66-3.29l1.22-4.07q1.29-3.21 4.22-4.45 6.35-2.86 13.01-2.91l4.96-.82q.9-.15 0-.32l-.65-.13q1.51.05 1.47-1.23zm-9.69 7.53c-5.86 1.25-5.79 7.82-.56 9.31q5.96 1.71 9.35-2.61 2.12-4.13-.67-5.64l-2.19-.47q-3.55-1.51-5.93-.59zM53.54 50.19q-.38.67.05 1.57.22.48.67.77l5.47 3.61a.98.95-41.9 0 0 .98.04l4.32-2.35a.39.38-49.3 0 0-.05-.7q-5.79-2.11-10.09-6.58-.68-.7-.79.27l-.33 2.66q-.05.38-.23.71z" class="AK"/><ellipse cx="0" cy="0" transform="matrix(.977416 .211325 -.211325 .977416 49.5 34.54)" rx="3.21" ry="2.24" class="L"/><path d="M81.51 33.21c12.2 6.71 21.13 11.13 33.85 13.83q.53.11.56.65.1 1.79-.97 2.84-4.7 4.93-10.49 8.25-4.47 2.56-6.74 4.35-5.76 4.56-11.82 9.22-.85-.58-.22-1.7.25-.46-.18-.74-.36-.24-.67.16l26.55-19.65 2.51-2.27q.57-.51-.17-.7-11.84-3.02-22.78-8.45l-9.74-5.36q.32-.08.31-.43z" class="M"/><path d="M52.29 45.75q-.53.82-.42 2.32-1.8-.81-2.66-2.27-.24-.42-.68-.63-2.75-1.3-4.62-3.72-.26-.34 0-.68.1-.12.16-.26.1-.22-.13-.29-.41-.14-.68-.01-.71.33-1.21-.27l-3.09-3.72a.54.53-40.1 0 1 .07-.76l.97-.77q.31-.25.63.01l3.07 2.56a.77.76 23 0 1 .27.66q-.11 1.24.92 1.69 2.22.97 3.38 2.78.25.39.68.56 1.94.82 3.34 2.8z" class="D"/><path d="M36.42 40.7a.11.11 0 0 1-.01.16l-.1.09a2.57.87 47.7 0 1-2.37-1.31l-1.65-1.81a2.57.87 47.7 0 1-1.08-2.48l.1-.1a.11.11 0 0 1 .16.01l4.95 5.44z" class="AI"/><path fill="#fd973f" d="M87.89 39.2q-1.13 2.25-1.25 4.63-1.9-1.16-3.9-1.98a3.61 3.61 0 0 1-2-2.31q-.17-.66.5-.66h.4a.2.2 0 0 0 .09-.38l-4.09-1.96a.34.34 0 0 1 .1-.65q.41-.05.85-.03.42.02.86.31 4.11 2.76 8.44 3.03z"/><path d="M73.21 39.96q-2.74-.34-5.06.93-.44.24-.25.71l.23.54q.27.65-.32 1.04-1.49.99-3.3.82-.82-.07-.41.65 1.12 1.97 3.99 2.53 1.52 1.04 3.06.32l.12.76c-2.99.7-6.62.09-7.9-2.99q-1.44-3.44 3.91-5.9 2.38-.92 5.93.59z" class="D"/><path d="M90.94 39q10.94 5.43 22.78 8.45.74.19.17.7l-2.51 2.27-.02-.88a.86.84 12.6 0 0-.49-.75q-.58-.28-.74.06-.08-.12.08-.29.23-.22-.08-.3-11.37-2.99-21.83-8.36.76-1.39 2.64-.9z" class="h"/><path d="M67.28 39.37q-5.35 2.46-3.91 5.9c1.28 3.08 4.91 3.69 7.9 2.99q2.71-.31 4.39-2.5.21.15.41.31-3.39 4.32-9.35 2.61c-5.23-1.49-5.3-8.06.56-9.31z" class="G"/><path d="M87.89 39.2q.67.56.41.7 10.46 5.37 21.83 8.36.31.08.08.3-.16.17-.08.29L84.68 67.11q-.4.29-.86.11-11.33-4.39-21.79-10.61 1.7-1.44 4.39-1.47-.2.72-.96 1.12-.63.34.05.57l.37.12q.61.21.95-.33l.85-1.3 1.73-.31q.23.26.55.29.05.49.55.93.31.28 0 .55l-1.6 1.41a.46.46 0 0 0 .33.8q1.43-.09 1.86-1.55.17-.58.73-.35l2.22.91 5.5 2.66q.23.11.11.33l-.21.39q-.29.56.31.37 3-.9 4.91 1.57.07.09 0 .18l-.15.21q-.15.18-.32.01-1.09-1.12-2.64-1.68-.43-.16-.59.28l-.11.29q-.15.43-.53.17l-4.39-3.04a.99.99 0 0 0-1.55.89q.15 1.78 1.17 1.15.42-.26.88-.11 1.01.33 1.51 1.33.23.44.71.57c1.57.42 2.31.49 3.76 1.51q2.45 1.73 3.9-1.06a1.82 1.81-66.3 0 0-.99-2.55l-10.32-3.71q-.13-.28.01-.59a.58.58 0 0 1 .68-.33q5.79 1.6 10.91 4.65.46.28.97.09l.62-.23q1.38-.11 2.52-.85 7-4.56 14.09-9.06 1.28-.15-.57-.4-.37-.05-.38-.43 0-.19.16-.31 3.62-.94 1.33-2.57-1.93-1.1-4.05-.79l-5.05-2.23-2.42 2.87q-.32.37-.72.11-3.52-2.24-6.86-2.31-.07-.48.39-1.55.12-2.38 1.25-4.63zM67.24 57.07q-.27.19-.21.55a.51.51 0 0 0 .86.29l1.42-1.34a.38.38 0 0 0-.24-.66q-.95-.06-1.35.81a.61 0-35.9 0 1-.48.35zm5.62 2.81q.53.59 1.23.18a.58.58 0 0 0 .12-.89q-1-1.07-2.43-1.12a1.03.91-33.4 0 0-.51 1.87q.64.16.82-.35.14-.39.77.31zm.35-19.92q-.85.82-2.24 1.14a1.07 1.07 0 0 0-.26 2l.52.27q.4.21-.04.31-1.25.27-2.44.7-.91.33-.66 2.8-2.87-.56-3.99-2.53-.41-.72.41-.65 1.81.17 3.3-.82.59-.39.32-1.04l-.23-.54q-.19-.47.25-.71 2.32-1.27 5.06-.93z" class="R"/><path d="M73.21 39.96l2.19.47q-.3-.03-.06.64-.4 2.22-2.13 3.13-.48.25-.51.78-.09 1.66-1.55 2.52-1.54.72-3.06-.32-.25-2.47.66-2.8 1.19-.43 2.44-.7.44-.1.04-.31l-.52-.27a1.07 1.07 0 0 1 .26-2q1.39-.32 2.24-1.14z" class="AJ"/><path d="M32.78 40.49q-.6.95-.52.7-.79 2.03-2.25 2.66-1.91-3.11 2.77-3.36z" class="N"/><path d="M75.4 40.43q2.79 1.51.67 5.64-.2-.16-.41-.31 1.28-3.09-.32-4.69-.24-.67.06-.64z" class="a"/><path d="M41.02 46.71a.24.24 0 0 1-.33.35q-3.31-2.61-7.21-4.49-1.06-.51-.29-1.57a.58.57-56.4 0 1 .75-.16q4.05 2.36 7.08 5.87z" class="H"/><path d="M32.26 41.19q.77.47-.03 1.9a.5.49-60.9 0 0 .19.69q6.21 3.44 18.03 10.82.45.28.81-.16a.54.53-58.7 0 0-.2-.83q-6.86-3-8.01-7.98l7.43 5.69 10.28 6.81 3.85 2.23q-1.89 2.34-.29 2.58.28 1.09 1.4 1.48-.28.83-.78 1.28-.39.34-.75-.04l-4.05-4.3a.39.39 0 0 0-.61.48q2.51 3.92 6.58 6.61l.57.75q0 1.38-2.02 1.16l-6.67-7.65q-3.09-4.14-7.37-6.05l-4.28-3.37L42.92 51q-1.69-1.48-4.17-2.27l-2.86-1.9q-.63-.53-1.42-.73l-2.92-1.8q-.44-.26-.91-.07-6.83 2.73-13.27 6.11-.5.26-.79.98l-.86 1q.39-.29-.04.37-.1.17-.1-.03 0-.33-.19-.38.3-1.59 1.1-2.07 5.57-3.35 13.52-6.36 1.46-.63 2.25-2.66z" class="AL"/><path d="M75.34 41.07q1.6 1.6.32 4.69-1.68 2.19-4.39 2.5l-.12-.76q1.46-.86 1.55-2.52.03-.53.51-.78 1.73-.91 2.13-3.13zM34.47 46.1l-13.08 5.59a.54.54 0 0 0-.19.85q5.83 6.66 12.97 11.89c1.11.81 1.16 1.77.78 2.97q-7.44-4.94-13.96-11.21l-4.41-4.87q.29-.72.79-.98 6.44-3.38 13.27-6.11.47-.19.91.07l2.92 1.8z" class="C"/><path d="M96.25 44.71q-.87 1 .65 1.6.89.36-.04.59l-.69.16q-.5.12-.16.51l.25.3q.41.47.81-.01.81-.93 2.26-.78.44.05.47.49.04.76-.69 1.01a.7.7 0 0 0 .03 1.34l.79.24q.83.25.71-.61-.2-1.36 1.1-1.49a.56.56 0 0 0 .46-.79q-.22-.47-.9-.33 2.12-.31 4.05.79-.46.05-.79 1.19a.31.31 0 0 1-.6-.01l-.14-.55q-.14-.54-.7-.5-1.16.08-1.29 1.56a.65.64 7.9 0 0 .53.69q.75.14.86-.54a.31.31 0 0 1 .58-.11q.18.3.22.84-.16.12-.16.31.01.38.38.43 1.85.25.57.4l-7.43-.09-10.4-5.05q-.48-.23-.83.17l-3.41 3.9 3.51-4.99q3.34.07 6.86 2.31.4.26.72-.11l2.42-2.87z" class="p"/><path d="M96.25 44.71l5.05 2.23q.68-.14.9.33a.56.56 0 0 1-.46.79q-1.3.13-1.1 1.49.12.86-.71.61l-.79-.24a.7.7 0 0 1-.03-1.34q.73-.25.69-1.01-.03-.44-.47-.49-1.45-.15-2.26.78-.4.48-.81.01l-.25-.3q-.34-.39.16-.51l.69-.16q.93-.23.04-.59-1.52-.6-.65-1.6z" class="D"/><path d="M52.29 45.75q.16.12.45.02.11 1.86-.66 3.29.07-.64-.21-.99-.11-1.5.42-2.32z" class="a"/><path d="M34.47 46.1q.79.2 1.42.73l-6.81 3.08a.98.96-7.2 0 0-.56.71c-.51 2.95 5.23 7.08 7.36 9.08l.16.69-.54 7.9q-.39-1.06-.55-.89c.38-1.2.33-2.16-.78-2.97Q27.03 59.2 21.2 52.54a.54.54 0 0 1 .19-.85l13.08-5.59zm-7.29 10.39q.15 1.17 1.12 1.78.16.11.3-.03l.28-.28a.45.45 0 0 1 .71.11q1.37 2.71 3.9 4.37a.99.99 0 0 0 1.15-1.61l-5.62-4.39q-.44-.34-.49-.9l-.05-.58q-.05-.48-.52-.54-1.6-.19-1.62-1.96a.42.41-16.5 0 0-.64-.34l-1.46.92q-.59.36-.21.95.98 1.54 2.71 2 .39.1.44.5z" class="R"/><path d="M97.38 51.35q-1.56 1.65-3.14 2.28c.6-4.03-4.53-3.82-6.28-2.07a1.56 1.55 28.1 0 0 .8 2.62q2.75.55 5.34-.47-3.1 3.24-5.98 6.41-.51.57.08 1.23l-.62.23q-.51.19-.97-.09-5.12-3.05-10.91-4.65a.58.58 0 0 0-.68.33q-.14.31-.01.59.15.33-.96.24l-2.22-.91q-.56-.23-.73.35-.43 1.46-1.86 1.55a.46.46 0 0 1-.33-.8l1.6-1.41q.31-.27 0-.55-.5-.44-.55-.93 5.69-.22 10.36-3.26l2.42-1.67 3.41-3.9q.35-.4.83-.17l10.4 5.05zm-10.47 4.59q-3.1-2.54-5.65.23-.34.36.02.72 3.01 3.01 5.71-.07.42-.48-.08-.88z" class="C"/><path d="M53.77 49.48l.33-2.66q.11-.97.79-.27 4.3 4.47 10.09 6.58a.39.38-49.3 0 1 .05.7l-4.32 2.35a.98.95-41.9 0 1-.98-.04l-5.47-3.61q-.45-.29-.67-.77-.43-.9-.05-1.57.18-.33.23-.71z" class="G"/><path d="M35.89 46.83l2.86 1.9q2.77 4.28 4.17 2.27l3.42 2.29-5.99 2.24q-2.76 1.29-4.47 4.17c-2.13-2-7.87-6.13-7.36-9.08a.98.96-7.2 0 1 .56-.71l6.81-3.08zm2.07 6.347a3.1 2.36 11.3 0 0-2.578-2.922 3.1 2.36 11.3 0 0-3.502 1.707 3.1 2.36 11.3 0 0 2.578 2.922 3.1 2.36 11.3 0 0 3.502-1.707zm67.39-5.447q2.29 1.63-1.33 2.57-.04-.54-.22-.84a.31.31 0 0 0-.58.11q-.11.68-.86.54a.65.64 7.9 0 1-.53-.69q.13-1.48 1.29-1.56.56-.04.7.5l.14.55a.31.31 0 0 0 .6.01q.33-1.14.79-1.19z" class="C"/><path d="M38.75 48.73q2.48.79 4.17 2.27-1.4 2.01-4.17-2.27z" class="L"/><path d="M110.13 48.85q.16-.34.74-.06a.86.84 12.6 0 1 .49.75l.02.88-26.55 19.65q-10.63-4.16-20.22-9.71l-3.85-2.23 1.27-1.52q10.46 6.22 21.79 10.61.46.18.86-.11l25.45-18.26z" class="q"/><ellipse cx="0" cy="0" transform="matrix(.980615 .195946 -.195946 .980615 34.92 52.57)" rx="3.1" ry="2.36" class="L"/><path fill="#4e242f" d="M114.95 50.53l.18 1.22q-.47.13-.56.53c-8.53 8.07-17.1 12.97-26.24 18.91q-.4.26-.67.57-1.35 1.56.32 1l-3.43 1.75q-7.44-.69-14.68-8.38 4.94 2.75 9.62 5.24 2.6 1.38 6.41.98 6.06-4.66 11.82-9.22 2.27-1.79 6.74-4.35 5.79-3.32 10.49-8.25z"/><path d="M94.24 53.63q-.3-.87-.14.08-2.59 1.02-5.34.47a1.56 1.55 28.1 0 1-.8-2.62c1.75-1.75 6.88-1.96 6.28 2.07z" class="L"/><path d="M104.81 51.44q-7.09 4.5-14.09 9.06-1.14.74-2.52.85-.59-.66-.08-1.23 2.88-3.17 5.98-6.41-.16-.95.14-.08 1.58-.63 3.14-2.28l7.43.09z" class="q"/><path d="M16.58 51.32l4.41 4.87q-.87-.07-.36 1.45.21.6-.36.31-3.58-1.88-4.55-5.63l.86-1z" class="N"/><path fill="#3a374b" d="M115.13 51.75c3.29 2.79-.3 6.48-3.45 8.51a.96.96 0 0 0-.44.77q-.06 1.65-.74 2.88-.52.32-.36.87.1.34.56.61 3.47 2.01 5.78 4.91-.34.53-.66.22l-5-3.93q-.41-.8-1.25-.88-.52-.06-.88.33-6.32 6.79-13.94 11.85l-10.74 7.76-2.76 1.5q-2.08.1-2.51-.84l-.96-.78-2.01-1.47q-1.05-.64-2.15-2.4l-3.57-4.29-5.39-7.01q2.02.22 2.02-1.16 3.68 5.22 7.26 8.21 2.75 3.65 6.22 6.04-.82 1.32.33 2 .44.26.88 0 15.69-9.04 28.42-21.89a.8.71-64.8 0 0-.39-1.33q-.28-.01-.85.59-5.91 6.16-12.98 10.58-1-.47-3.51 1.24-5.41 1.68-10.25 4.88-.45.3-.96.11-1.48-.56-2.79-1.45-6.16-4.17-11-9.82-.28-.32-.68-.17-.23.08-.27.26-4.07-2.69-6.58-6.61a.39.39 0 0 1 .61-.48l4.05 4.3q.36.38.75.04.5-.45.78-1.28.71.43 2.95 2.66 4.61 4.61 12.19 9.74c.76 1.36 2.24 1.35 3.48.47q3.8-2.68 12.65-7.51 6.27-3.43 16.16-11.83 2.87-1.75 1.78-3.34-.19.14-.47-.23 1.12-.45.82-1.38-.22-.7-.71-.72.09-.4.56-.53z"/><path d="M26.74 55.99q-1.73-.46-2.71-2-.38-.59.21-.95l1.46-.92a.42.41-16.5 0 1 .64.34q.02 1.77 1.62 1.96.47.06.52.54l.05.58q.05.56.49.9l5.62 4.39a.99.99 0 0 1-1.15 1.61q-2.53-1.66-3.9-4.37a.45.45 0 0 0-.71-.11l-.28.28q-.14.14-.3.03-.97-.61-1.12-1.78-.05-.4-.44-.5z" class="D"/><path d="M80.32 52.04q-4.67 3.04-10.36 3.26-.32-.03-.55-.29l10.91-2.97z" class="a"/><path d="M15.39 52.28q.19.05.19.38 0 .2.1.03.43-.66.04-.37.97 3.75 4.55 5.63.57.29.36-.31-.51-1.52.36-1.45 6.52 6.27 13.96 11.21.16-.17.55.89l-.22.8q-.09.93-1.49.32-1.37-.59-2.74-1.15.16-.01.25-.09.13-.12-.02-.22L17.76 57.83q-.41-.3-.84-.05-.62.36-1.19 1.17-2.29 3.02 4.06 4.47.51.12.36-.39-.33-1.1.27-.82l8.67 5.12q-1.16.79-.36 1.67 1.14 1.25.85 2.4-5.74-2.78-11.21-5.96-.75-.44-1.22-.42-.77.04-1.16.85a.67.66-65.8 0 0 .34.9l4.93 2.11q.09 1.49-1.73 1.19-.35-.06-.55.23-.12.15-.11.28l-4.48-1.83a.75.74-63.3 0 1-.35-1.07l1.61-2.72q.22-.35.03-.72c-.9-1.8-2.13-3.4-1.43-5.57q1.52-.57 2.5-1.74.36-.43-.01-.85-1.57-1.78-1.35-3.8z" class="Z"/><path d="M114.57 52.28q.49.02.71.72.3.93-.82 1.38-12.47 10.3-26.48 18.38-1.67.56-.32-1 .27-.31.67-.57c9.14-5.94 17.71-10.84 26.24-18.91z" class="a"/><path d="M46.34 53.29l4.28 3.37q.16.83-.06 1.14-2.66-.09-4.2 1.52-.36.37-.34.88l.07 2.42c.6 3.9 5.08 3.38 8.49 2.94l1.55-1.28q3.09 1.23 5.1 3.99.36.5-.18.79-4.51 2.42-10.69 2.36-7.33-2.09-12.66-8.11a.36.35 25.2 0 0-.62.22l-.21 4.82a1.22 1.22 0 0 0 .6 1.1l4.68 2.69a.75.73-47 0 0 .79-.04q2.09-1.48 2.97-.19-2.13.62-2.42 1.34l-.83 1.37q-4.28-2.15-7.38-5.53l.22-.8.54-7.9 4.31-4.86 5.99-2.24z" class="AK"/><path d="M86.91 55.94q.5.4.08.88-2.7 3.08-5.71.07-.36-.36-.02-.72 2.55-2.77 5.65-.23z" class="L"/><path d="M114.46 54.38q.28.37.47.23-3.08 2.26-1.78 3.34-9.89 8.4-16.16 11.83-8.85 4.83-12.65 7.51c-1.24.88-2.72.89-3.48-.47q2.62-1.11 3.69-2.31l3.43-1.75q14.01-8.08 26.48-18.38z" class="M"/><path d="M114.93 54.61q1.09 1.59-1.78 3.34-1.3-1.08 1.78-3.34z" class="N"/><path d="M66.42 55.14l1.26.18-.85 1.3q-.34.54-.95.33l-.37-.12q-.68-.23-.05-.57.76-.4.96-1.12z" class="D"/><path d="M40.35 55.53l-4.31 4.86-.16-.69q1.71-2.88 4.47-4.17z" class="G"/><path d="M67.72 56.72q.4-.87 1.35-.81a.38.38 0 0 1 .24.66l-1.42 1.34a.51.51 0 0 1-.86-.29q-.06-.36.21-.55a.61 0-35.9 0 0 .48-.35z" class="C"/><path d="M50.62 56.66q4.28 1.91 7.37 6.05l-2.11-.21q-.97-1.63-2.11-1.61c-3.18.07-2.61 3.94.62 3.47a.28.28 0 0 1 .31.36q-.2.63-2.05.58-.42.26-.44-.21-4.05-1.29-5.08-4.34a.59.59 0 0 1 .53-.78l3.91-.22a.58.58 0 0 0 .53-.74q-.35-1.21-1.54-1.21.22-.31.06-1.14z" class="R"/><path d="M31.05 68.26l-1.96-.93-8.67-5.12-4.69-3.26q.57-.81 1.19-1.17.43-.25.84.05l13.52 10.12q.15.1.02.22-.09.08-.25.09z" class="i"/><path d="M50.56 57.8q1.19 0 1.54 1.21a.58.58 0 0 1-.53.74l-3.91.22a.59.59 0 0 0-.53.78q1.03 3.05 5.08 4.34-3.28 1.55-6.12-2.47l-.07-2.42q-.02-.51.34-.88 1.54-1.61 4.2-1.52z" class="C"/><path d="M75.01 57.76l10.32 3.71a1.82 1.81-66.3 0 1 .99 2.55q-1.45 2.79-3.9 1.06c-1.45-1.02-2.19-1.09-3.76-1.51q-.48-.13-.71-.57-.5-1-1.51-1.33-.46-.15-.88.11-1.02.63-1.17-1.15a.99.99 0 0 1 1.55-.89l4.39 3.04q.38.26.53-.17l.11-.29q.16-.44.59-.28 1.55.56 2.64 1.68.17.17.32-.01l.15-.21q.07-.09 0-.18-1.91-2.47-4.91-1.57-.6.19-.31-.37l.21-.39q.12-.22-.11-.33L74.05 58q1.11.09.96-.24zm-2.92 1.81q-.18.51-.82.35a1.03.91-33.4 0 1 .51-1.87q1.43.05 2.43 1.12a.58.58 0 0 1-.12.89q-.7.41-1.23-.18-.63-.7-.77-.31z" class="D"/><path d="M14.25 58.67c-.7 2.17.53 3.77 1.43 5.57q.19.37-.03.72l-1.61 2.72a.75.74-63.3 0 0 .35 1.07l4.48 1.83-1.86 1.9q-6.26-2.7-3.2-7.44a.81.8-53.6 0 0-.15-1.04l-1.64-1.44q-.41-.37-.38-.92.14-2.69 2.61-2.97zm1.48.28l4.69 3.26q-.6-.28-.27.82.15.51-.36.39-6.35-1.45-4.06-4.47z" class="N"/><path d="M64.61 60.36q9.59 5.55 20.22 9.71.31-.4.67-.16.43.28.18.74-.63 1.12.22 1.7-3.81.4-6.41-.98-4.68-2.49-9.62-5.24l-5.55-3.19q-1.6-.24.29-2.58z" class="Z"/><path d="M55.88 62.5l.52.66q.3.39.06.82-.14.23-.33.3l-1.55 1.28-1.93-.26q1.85.05 2.05-.58a.28.28 0 0 0-.31-.36c-3.23.47-3.8-3.4-.62-3.47q1.14-.02 2.11 1.61z" class="AJ"/><path d="M80.16 83.45q8.08-4.04 15.41-10.05 7.07-4.42 12.98-10.58.57-.6.85-.59a.8.71-64.8 0 1 .39 1.33Q97.06 76.41 81.37 85.45q-.44.26-.88 0-1.15-.68-.33-2z" class="M"/><path d="M55.88 62.5l2.11.21 6.67 7.65 5.39 7.01-.21 1.05q-.08.45-.53.56l-.36.08q-.39-.19-.64-.17-.77-2.6-2.56-4.36-.46-3.34-3.55-3.65 1.39-.19.49-1.03-.38-.36-.88-.19-3.56 1.27-7.23 2.16c-1.29.31-2.9-.05-4.3.56q-.44.19-.4.67.06.73-.58.82a.24.24 0 0 1-.24-.36l.28-.49a.55.54 41.7 0 0-.04-.6q-.31-.41-.72-.22l-.12-.5 1.9-.28q6.18.06 10.69-2.36.54-.29.18-.79-2.01-2.76-5.1-3.99.19-.07.33-.3.24-.43-.06-.82l-.52-.66z" class="H"/><path d="M46.09 62.62q2.84 4.02 6.12 2.47.02.47.44.21l1.93.26c-3.41.44-7.89.96-8.49-2.94z" class="G"/><path d="M69.87 66.13q7.24 7.69 14.68 8.38-1.07 1.2-3.69 2.31-7.58-5.13-12.19-9.74-2.24-2.23-2.95-2.66-1.12-.39-1.4-1.48l5.55 3.19z" class="i"/><path d="M50.36 71.42l-1.9.28q-1.53.4-2.55.21-.88-1.29-2.97.19a.75.73-47 0 1-.79.04l-4.68-2.69a1.22 1.22 0 0 1-.6-1.1l.21-4.82a.36.35 25.2 0 1 .62-.22q5.33 6.02 12.66 8.11z" class="G"/><path d="M110.5 63.91q.04.22.08.4.11.44.56.49c1.78.18 6.02 1.84 7.17 3.7a1.17 1.15-53 0 1 .12.92q-.52 1.69-1.91 1.78-.28-.46-.04-.9-2.31-2.9-5.78-4.91-.46-.27-.56-.61-.16-.55.36-.87z" class="N"/><path d="M29.58 71.4l1.48.91q.54.33-.09.31c-2.43-.08-7.15-2.76-9.71-3.74l-4.93-2.11a.67.66-65.8 0 1-.34-.9q.39-.81 1.16-.85.47-.02 1.22.42 5.47 3.18 11.21 5.96z" class="H"/><path d="M110.82 66.59q-2.29 1.2 1.6 3.6.48.3.03.64-8.02 6.02-15.36 10.29-.5.28-.3.89l-.47.02-1.57-4.14q7.62-5.06 13.94-11.85.36-.39.88-.33.84.08 1.25.88zm-4.66 3.84q-2.24 3-5.93 4.68-.39.18-.44.6l-.04.28q-.06.5-.49.76l-3.54 2.17a.39.39 0 0 0 .26.71q2.33-.35 3.82-2.05.33-.37.81-.49.87-.21 2.38-.85 1.13-.48.8-1.24-.2-.47.26-.7l2.8-1.43a.51.51 0 0 0 .03-.89l-.56-.35q-.28-.17-.04-.39.12-.11.27-.12 1.4 1.23 2.22.34a1.02 1.02 0 0 0-.51-1.69q-1.24-.3-2.1.66z" class="R"/><path d="M110.82 66.59l5 3.93-1.63 1.18-14.84 9.69-2.14.89q-.26-.34-.42-.27-.2-.61.3-.89 7.34-4.27 15.36-10.29.45-.34-.03-.64-3.89-2.4-1.6-3.6z" class="C"/><path d="M29.09 67.33l1.96.93q1.37.56 2.74 1.15 1.4.61 1.49-.32 3.1 3.38 7.38 5.53l12.09 7.69q.02 1.61-.72 3 1.44 2.89.58 3.16-7.45-6.61-15.25-12.58-.09-.07-.35-.02-.42.1-.1.39l9.19 8.14q5.14 8.5 13.56 15.42-.38.16-.75.33L49.03 88.66l-5.6-4.62-9.12-6.68-11.17-4.91a.34.34 0 0 0-.38.06q-.12.1-.17.28-.25-.67-.56-.65-1.98-2.55-5.48 2.1-.86-.32-.56-.73l1.02-1.03 1.86-1.9q-.01-.13.11-.28.2-.29.55-.23 1.82.3 1.73-1.19c2.56.98 7.28 3.66 9.71 3.74q.63.02.09-.31l-1.48-.91q.29-1.15-.85-2.4-.8-.88.36-1.67z" class="AL"/><path d="M92.06 74.64q-5.1 3.83-10.77 6.25a1.06 1.04 46.9 0 1-.91-.04l-6.44-3.44q-3.58-2.99-7.26-8.21l-.57-.75q.04-.18.27-.26.4-.15.68.17 4.84 5.65 11 9.82 1.31.89 2.79 1.45.51.19.96-.11 4.84-3.2 10.25-4.88z" class="H"/><path d="M62.2 70.88q-4.06 2.94 3.55 3.65 1.79 1.76 2.56 4.36l-2.49.1q-1.34-2.47-2.49-2.8c-2.3-1.2-7.38-4.2-9.69-2.35q-.47.37-.96.04l-.97-.65q-.27-.18-.49.05l-.18.19a.35.35 0 0 0 .2.58l.55.1q.78.14.49.88l-.23.58q-.15.39-.53.2l-4.09-2.1q-.46-.23-.12-.62.44-.52 1.27-.89.41-.19.72.22a.55.54 41.7 0 1 .04.6l-.28.49a.24.24 0 0 0 .24.36q.64-.09.58-.82-.04-.48.4-.67c1.4-.61 3.01-.25 4.3-.56q3.67-.89 7.23-2.16.5-.17.88.19.9.84-.49 1.03zm44.35.24l-.39-.69q.86-.96 2.1-.66a1.02 1.02 0 0 1 .51 1.69q-.82.89-2.22-.34z" class="C"/><path d="M106.16 70.43l.39.69q-.15.01-.27.12-.24.22.04.39l.56.35a.51.51 0 0 1-.03.89l-2.8 1.43q-.46.23-.26.7.33.76-.8 1.24-1.51.64-2.38.85-.48.12-.81.49-1.49 1.7-3.82 2.05a.39.39 0 0 1-.26-.71l3.54-2.17q.43-.26.49-.76l.04-.28q.05-.42.44-.6 3.69-1.68 5.93-4.68z" class="D"/><path d="M115.82 70.52q.32.31.66-.22-.24.44.04.9l-1.24 2.7q-.22.48.09.91 1.58 2.26-.55 4.9-1.48.74-2.07 2.02l-1.73.45-7.35 4.52q-1.76.74-3.57 1.32c-4.38 1.4-8.68 4.1-12.86 6.1q-.48.22-.57-.3-.16-.82.04-1.6.66-.6 1.51-.87l9.32-4.74q.46-.23.59-.73.25-1.02-.18-2.27l-.74-1.33 2.14-.89.56.96q.31.53.79.15.99-.77 2.08-1.04.19.47.03 1.11l-3.82 1.67a.66.66 0 0 0 .5 1.22l11.64-4.57q3.2-1.09 3.73-3.01-1.05-.08-.57-.57.69-.25.9-.57.29-.44-.28-1.09-.12-.16-.31-.25-.46-.23-.87.08-4.53 3.31-9.83 5.36c2.95-1.89 8.22-4.41 10.37-6.79q1.35-1.49-.08-2.35l1.63-1.18z" class="AL"/><path d="M22.03 72.14l-6.98 5.8q-1.02.84.2 1.35l16.72 6.9q.58 2.61-.43 2.27L11.5 80.22l-1.39-.54 6.44-5.44q3.5-4.65 5.48-2.1z" class="C"/><path d="M62.2 70.88q3.09.31 3.55 3.65-7.61-.71-3.55-3.65zm-13.74.82l.12.5q-.83.37-1.27.89-.34.39.12.62l4.09 2.1q.38.19.53-.2l.23-.58q.29-.74-.49-.88l-.55-.1a.35.35 0 0 1-.2-.58l.18-.19q.22-.23.49-.05l.97.65q.49.33.96-.04c2.31-1.85 7.39 1.15 9.69 2.35q.08.54-.06.77-.13.22-.58.04-3.39-1.37-6.77-2.82a1.52 1.48-39.8 0 0-.91-.07q-1.86.48-2.75 1.97-.23.39.25.63a.67.66 25 0 0 .89-.32q.7-1.54 2.29-1.31a.35.35 0 0 1 .13.65l-1.86 1.08a.46.46 0 0 0-.03.77q1.45 1.05 3.12 1.73c1.01.41 2.29.25 3.36.99q1.98 1.39 2.04 1.41 3.9 1.58 3.37-2.72l2.49-.1q.25-.02.64.17l.38 2.21-5.12 2.89q-.19.1-.1.29.06.12.19.22-.25.05-.5-.18-.33-.3-.69-.07-1.02.64-2.34.09l.44-.03a.51.51 0 0 0 .22-.95L43.49 73.25q.29-.72 2.42-1.34 1.02.19 2.55-.21z" class="L"/><path d="M114.19 71.7q1.43.86.08 2.35c-2.15 2.38-7.42 4.9-10.37 6.79l-1.12.62q-1.09.27-2.08 1.04-.48.38-.79-.15l-.56-.96 14.84-9.69z" class="M"/><path d="M22.03 72.14q.31-.02.56.65l-2.24 2.27a1.44 1.44 0 0 0 .5 2.35l10.32 4.07a1.26 1.25 45.3 0 0 .88.01q.27-.1.49-.24.46.07.28.97l-.12 3.99q-.33-.13-.73-.02l-16.72-6.9q-1.22-.51-.2-1.35l6.98-5.8zm-2.54 6.36l-.66-.64q-.56-.54-.87.17l-.35.79q-.29.65.41.76 4.13.63 7.72 2.73c1.89 1.1 3.54 1.39 5.51 2.09q.54.19.64-.37.13-.67-.67-.97-1.32-.5-4.67-1.24a.79.78-89 0 1-.61-.64q-.14-.83-.8-.45-.49.29-.97-.02-1.87-1.23-3.68-2.31-.1-.06-.2-.05-.2.02-.32.15-.24.24-.48 0z" class="R"/><path d="M34.31 77.36q-.11.17-.16.34-.07.25-.33.21-.13-.02-.25.04-.18.09-.23.29l-.8 3.01q-.22.14-.49.24a1.26 1.25 45.3 0 1-.88-.01l-10.32-4.07a1.44 1.44 0 0 1-.5-2.35l2.24-2.27q.05-.18.17-.28a.34.34 0 0 1 .38-.06l11.17 4.91zm-4.343-.287a3.11 1.6 9.5 0 0-2.803-2.091 3.11 1.6 9.5 0 0-3.331 1.065 3.11 1.6 9.5 0 0 2.803 2.091 3.11 1.6 9.5 0 0 3.331-1.065z" class="C"/><path d="M95.57 73.4q-7.33 6.01-15.41 10.05-3.47-2.39-6.22-6.04l6.44 3.44a1.06 1.04 46.9 0 0 .91.04q5.67-2.42 10.77-6.25 2.51-1.71 3.51-1.24z" class="i"/><path d="M15.99 73.51q-.3.41.56.73l-6.44 5.44q-.5 1.28.15 1.78 1.12.86 2.54 1.05.88.12.31-.56-.78-.92-2.01-1.25a.26.25 32.7 0 1-.1-.44q.26-.23.5-.04l20.04 8.24q.19 1.06 1.25.81-.96 2.97.37 3.3l12.08 5.29 4.94 2.31-.7.82q-.39.46.15.73l13.32 6.87a5.02 5-44.9 0 0 4.57 0q9.45-4.82 19.67-10 .12-.07.16-.15.05-.13 0-.27-.13-.34-.45-.17-.72.4-1.52.41-.84.02-.1-.37L89.22 96l5.28-2.52.44 1.14q.16.4.56.23l17.92-7.5a.73.72-17.1 0 0 .43-.8l-.21-1.08q1.09-.28 1.49-1.04.22-.48.58-.14.26.25.23.75l-.3.91q-.87 2-1.81 2.39c-9.69 4.06-19.63 7.83-28.9 12.44q-9.22 4.59-18.41 9.24c-.74.38-2.46.35-3.36-.15Q38.24 95.88 10.95 87.6l-.07-.49a.44.44 0 0 1 .58-.48l20.33 6.97q.94.32.31-.44-.8-.98-3.33-1.83.91-.66-.68-1.38-7.79-3.51-15.81-6.33-.81-.8-2.22-1.27-.45-.15-.65-.58c-1.37-3 4.03-6.35 6.58-8.26z" class="Z"/><path d="M43.49 73.25l17.94 10.28a.51.51 0 0 1-.22.95l-.44.03-6.02-2.2-12.09-7.69.83-1.37z" class="h"/><path d="M63.33 76.19q1.15.33 2.49 2.8.53 4.3-3.37 2.72-.06-.02-2.04-1.41c-1.07-.74-2.35-.58-3.36-.99q-1.67-.68-3.12-1.73a.46.46 0 0 1 .03-.77l1.86-1.08a.35.35 0 0 0-.13-.65q-1.59-.23-2.29 1.31a.67.66 25 0 1-.89.32q-.48-.24-.25-.63.89-1.49 2.75-1.97a1.52 1.48-39.8 0 1 .91.07q3.38 1.45 6.77 2.82.45.18.58-.04.14-.23.06-.77z" class="D"/><ellipse cx="0" cy="0" transform="matrix(.986286 .165048 -.165048 .986286 26.9 76.56)" rx="3.11" ry="1.6" class="L"/><path d="M114.91 75.65q-1.81.34-.98 1.62l-11.12 5.3q.16-.64-.03-1.11l1.12-.62q5.3-2.05 9.83-5.36.41-.31.87-.08.19.09.31.25z" class="H"/><path d="M54.61 88.47q2.67 3.22 5.57 6.42c1.49 1.64 2.4 1.21 4.31.79q3.25-.71 6.49-1.56a.12.12 0 0 1 .15.12q0 .13 0 .26 0 .38-.36.5l-4.31 1.48-4.65.78q-.56.1-.96-.3L48.1 84.4l-9.19-8.14q-.32-.29.1-.39.26-.05.35.02 7.8 5.97 15.25 12.58z" class="i"/><path d="M114.91 75.65q.57.65.28 1.09-.21.32-.9.57-.18-.02-.36-.04-.83-1.28.98-1.62z" class="G"/><path d="M113.93 77.27q.18.02.36.04-.48.49.57.57-4.88 1.03-3.73 3.01l-11.64 4.57a.66.66 0 0 1-.5-1.22l3.82-1.67 11.12-5.3z" class="M"/><path d="M34.31 77.36l9.12 6.68q-3.13-.2-6.43-2-1.11-.61-2.68-.31-.24-.63-.77-.62-.52.01-.62.52l-.11.59q.18-.9-.28-.97l.8-3.01q.05-.2.23-.29.12-.06.25-.04.26.04.33-.21.05-.17.16-.34z" class="a"/><path fill="#624030" d="M70.05 77.37l3.57 4.29q-4.3 3.32-9.4 5.16-1.92-.26-4.4.75l-3.9-1.31-1.89-.95q.74-1.39.72-3l6.02 2.2q1.32.55 2.34-.09.36-.23.69.07.25.23.5.18 3.4-.1 6.25-2.22l1.39-.85a.66.66 0 0 0-.25-1.21q-1.18-.17-1.73.91-.55-.14-.63-.03l-.38-2.21.36-.08q.45-.11.53-.56l.21-1.05z"/><path d="M19.97 78.5q.12-.13.32-.15.1-.01.2.05 1.81 1.08 3.68 2.31.48.31.97.02.66-.38.8.45a.79.78-89 0 0 .61.64q3.35.74 4.67 1.24.8.3.67.97-.1.56-.64.37c-1.97-.7-3.62-.99-5.51-2.09q-3.59-2.1-7.72-2.73-.7-.11-.41-.76l.35-.79q.31-.71.87-.17l.66.64q.24.24.48 0z" class="D"/><path d="M94.75 77.89l1.57 4.14q.19.51-.07.62-4.05 1.73-7.94 3.8-.61-.55-1.72.23.16-1.05-2.58-1.03l10.74-7.76z" class="G"/><path d="M114.86 77.88q-.53 1.92-3.73 3.01-1.15-1.98 3.73-3.01z" class="N"/><path d="M10.11 79.68l1.39.54q-.24-.19-.5.04a.26.25 32.7 0 0 .1.44q1.23.33 2.01 1.25.57.68-.31.56-1.42-.19-2.54-1.05-.65-.5-.15-1.78z" class="AI"/><path d="M114.82 79.71l3.85 2.23q.52.3.3.86-.65 1.61-3.03 2.24.03-.5-.23-.75-.36-.34-.58.14l-2.38-2.7q.59-1.28 2.07-2.02z" class="N"/><path d="M70.55 82.45q.16-.56-.59-1.15.55-1.08 1.73-.91a.66.66 0 0 1 .25 1.21l-1.39.85z" class="H"/><path d="M34.32 81.73l-.08 6.13q-.01.58.52.79l9.76 3.89a.4.4 0 0 1-.08.77l-.55.1-9.16-3.6q-.63-.25-.66.42-.1 2.02-.91 2.34-1.33-.33-.37-3.3l-.09-3.06.12-3.99.11-.59q.1-.51.62-.52.53-.01.77.62z" class="AK"/><path d="M69.33 81.27q.08-.11.63.03.75.59.59 1.15-2.85 2.12-6.25 2.22-.13-.1-.19-.22-.09-.19.1-.29l5.12-2.89z" class="C"/><path d="M34.32 81.73q1.57-.3 2.68.31 3.3 1.8 6.43 2l5.6 4.62q0 1.14-.79 1.3-.48.09-.72.53l-1.38 2.57q.26.53-.01 1.11l-2.24-.76.55-.1a.4.4 0 0 0 .08-.77l-9.76-3.89q-.53-.21-.52-.79l.08-6.13z" class="G"/><path d="M112.75 81.73l2.38 2.7q-.4.76-1.49 1.04L94.5 93.48 89.22 96q-.38-.33-.73-.39l15.35-7.52 8.16-3.35q.48-.19.21-.64l-1.19-1.92 1.73-.45z" class="h"/><path d="M73.62 81.66q1.1 1.76 2.15 2.4-6.14 2.92-11.55 2.76 5.1-1.84 9.4-5.16z" class="D"/><path fill="#f77b30" d="M96.32 82.03l.47-.02q.16-.07.42.27l.74 1.33-9.68 4.03q-.11-.74.04-1.19 3.89-2.07 7.94-3.8.26-.11.07-.62z"/><path d="M111.02 82.18l1.19 1.92q.27.45-.21.64l-8.16 3.35-.17-1.39 7.35-4.52z" class="R"/><path d="M12.28 83.62q8.02 2.82 15.81 6.33 1.59.72.68 1.38l-15.94-6.05q-.46-.17-.75-.57l-.33-.44q.32-.1.53-.65z" class="H"/><path fill="#fd973f" d="M97.95 83.61q.43 1.25.18 2.27-.13.5-.59.73l-9.32 4.74q-.77-.37-.5-.82l.55-2.89 9.68-4.03z"/><path d="M75.77 84.06l2.01 1.47q-3.95.96-7.6 2.39-1.47.58-2.98.62-1.53.04-3.1.09-.4.01-.32.41.2.99.98.92 6.34-.52 13.98-3.65.43.94 2.51.84-7.71 2.5-15.74 3.77-2.06.33-3.32-.59-1.39-1.02-2.37-2.76 2.48-1.01 4.4-.75 5.41.16 11.55-2.76z" class="L"/><path d="M11.75 84.27l.33.44q.29.4.75.57l15.94 6.05q2.53.85 3.33 1.83.63.76-.31.44l-20.33-6.97a.44.44 0 0 0-.58.48l.07.49-.23-1.09q.02-1.65 1.03-2.24zm36.35.13l12.75 12.56q.4.4.96.3l4.65-.78 3.49-.13a.49.49 0 0 1 .16.96l-8.45 2.51Q53.24 92.9 48.1 84.4z" class="M"/><path d="M54.03 85.31l1.89.95 5.4 6.47q.36.43.91.36 12.55-1.48 24.36-6.41 1.11-.78 1.72-.23-.15.45-.04 1.19l-.55 2.89q-9.56 5.18-19.81 8.69l-7 .93q.37-.17.75-.33l8.45-2.51a.49.49 0 0 0-.16-.96l-3.49.13L70.77 95q.36-.12.36-.5 0-.13 0-.26a.12.12 0 0 0-.15-.12q-3.24.85-6.49 1.56c-1.91.42-2.82.85-4.31-.79q-2.9-3.2-5.57-6.42.86-.27-.58-3.16z" class="Z"/><path d="M77.78 85.53l.96.78q-7.64 3.13-13.98 3.65-.78.07-.98-.92-.08-.4.32-.41 1.57-.05 3.1-.09 1.51-.04 2.98-.62 3.65-1.43 7.6-2.39z" class="D"/><path d="M113.64 85.47l.21 1.08a.73.72-17.1 0 1-.43.8l-17.92 7.5q-.4.17-.56-.23l-.44-1.14 19.14-8.01z" class="M"/><path d="M84.01 85.65q2.74-.02 2.58 1.03-11.81 4.93-24.36 6.41-.55.07-.91-.36l-5.4-6.47 3.9 1.31q.98 1.74 2.37 2.76 1.26.92 3.32.59 8.03-1.27 15.74-3.77l2.76-1.5z" class="h"/><path d="M115.64 85.95q1.47.18 1.68.52a1.51 1.51 0 0 1-.62 2.18c-7.73 3.66-16.06 6.8-23.06 10.52q-10.44 5.55-20.59 11.62-2.44 1.45-7.03 2.19-.5.08-.95-.15-23.2-11.97-48.12-19.74-2.48-.77-7.1-3.57a.65.63-61.3 0 1-.23-.83l1.1-2.18.23 1.09q27.29 8.28 52.21 22.27c.9.5 2.62.53 3.36.15q9.19-4.65 18.41-9.24c9.27-4.61 19.21-8.38 28.9-12.44q.94-.39 1.81-2.39z" class="N"/><path d="M31.97 86.19q.4-.11.73.02l.09 3.06q-1.06.25-1.25-.81 1.01.34.43-2.27z" class="a"/><path d="M103.67 86.7l.17 1.39-15.35 7.52-19.77 9.13-2.16 1.33-20.77-8.99q-.17-.07-.16-.26.01-.14.03-.27-.08-1.78.6-2.25l8.53 3.58q4.73 2.68 10.4 4.64 1.31.45 2.63.22 5.88-1.05 1.73-2.46l17.16-8.06q-.2.78-.04 1.6.09.52.57.3c4.18-2 8.48-4.7 12.86-6.1q1.81-.58 3.57-1.32z" class="Z"/><path d="M49.03 88.66l11.88 11.49 7-.93q-.07.55 1.64 1.06 4.15 1.41-1.73 2.46-1.32.23-2.63-.22-5.67-1.96-10.4-4.64-3-4.85-8.65-4.82l1.38-2.57q.24-.44.72-.53.79-.16.79-1.3z" class="H"/><path fill="#f77b30" d="M43.89 93.41l2.24.76q.07.06.13.13-.68.47-.6 2.25.05.71-.42 1.31l-12.08-5.29q.81-.32.91-2.34.03-.67.66-.42l9.16 3.6z"/><path d="M87.72 90.53q-.27.45.5.82-.85.27-1.51.87l-17.16 8.06q-1.71-.51-1.64-1.06 10.25-3.51 19.81-8.69z" class="G"/><path d="M54.79 97.88l-8.53-3.58q-.06-.07-.13-.13.27-.58.01-1.11 5.65-.03 8.65 4.82z" class="h"/><path d="M88.49 95.61q.35.06.73.39l-3.94 2.04q-.74.39.1.37.8-.01 1.52-.41.32-.17.45.17.05.14 0 .27-.04.08-.16.15-10.22 5.18-19.67 10a5.02 5-44.9 0 1-4.57 0l-13.32-6.87q-.54-.27-.15-.73l.7-.82q6.75 3.4 13.83 6.49 1.87.82 3.3-.14 2.87-.98 1.41-1.78l19.77-9.13z" class="M"/><ellipse cx="0" cy="0" transform="matrix(.932324 -.361625 .361625 .932324 101.69 97.4)" rx="3.25" ry=".54" class="q"/><path d="M45.66 96.55q-.02.13-.03.27-.01.19.16.26l20.77 8.99q.89-.49.75.45-1.43.96-3.3.14-7.08-3.09-13.83-6.49l-4.94-2.31q.47-.6.42-1.31z" class="i"/><path d="M68.72 104.74q1.46.8-1.41 1.78.14-.94-.75-.45l2.16-1.33z" class="H"/><ellipse cx="0" cy="0" transform="matrix(.879649 .475624 -.475624 .879649 44.74 106.41)" rx="2.52" ry=".54" class="q"/></svg>