<svg xmlns="http://www.w3.org/2000/svg" viewBox="0 0 121 121" xmlns:v="https://vecta.io/nano"><style><![CDATA[.B{fill:#f8cd2d}.C{fill:#e5aa22}.D{fill:#e19717}.E{stroke:#efbc28}.F{stroke:#fbd73a}.G{stroke:#edb222}.H{stroke:#f1c534}.I{stroke:#d6a82b}.J{stroke:#ca8215}.K{fill:#fde046}.L{stroke:#fbdf57}.M{stroke:#cd9725}.N{stroke:#cb8d20}.O{stroke:#e3a11d}.P{stroke:#efbc2f}.Q{stroke:#d8a72d}.R{stroke:#d59d20}.S{stroke:#be7d18}.T{fill:#42d8fc}.U{fill:#ca8314}.V{fill:#b48328}.W{fill:#b26d13}.X{fill:#8a5512}]]></style><g fill="none" stroke-width="2"><path stroke="#096fa6" vector-effect="non-scaling-stroke" d="M61.03 0q4.82 5.98 9.72 11.89 2.01 2.43 4.21 6.14 1.9 3.21 4.11 6.24.29.4-.12.68-.49.33-.81.87"/><path stroke="#6a7f64" vector-effect="non-scaling-stroke" d="M78.14 25.82l-5.85-1.01"/><path stroke="#557163" vector-effect="non-scaling-stroke" d="M72.29 24.81l-3.68-1.07"/><path stroke="#0e89c0" vector-effect="non-scaling-stroke" d="M68.61 23.74q-3.99-8.55-9.44-15.49L53.34.5"/><path stroke="#06588b" vector-effect="non-scaling-stroke" d="M68.44.53c1.96 1.97 3.63 3.13 5.66 5.54q1.03 1.22 2.76 2.67 6.64 5.52 12.51 14.5.05.07 1.13 2.11.77 1.44 2.07 2.26.08.05.04.14-.07.14-.13.28-.08.16.09.17.67.06.54.39"/><path stroke="#77875d" vector-effect="non-scaling-stroke" d="M93.11 28.59l-4.88-.79"/><path stroke="#697356" vector-effect="non-scaling-stroke" d="M88.23 27.8l-10.09-1.98"/><path stroke="#598070" vector-effect="non-scaling-stroke" d="M68.61 23.74L56.6 21.53"/><path stroke="#17a6da" vector-effect="non-scaling-stroke" d="M56.6 21.53Q52.19 11.18 45.07 2.07"/><path stroke="#0e5482" vector-effect="non-scaling-stroke" d="M98.52 107.62l-.03-3.15q-.01-.52-.41-.85-1.21-.98-1.26-2.46-.01-.46-.28-.83-1.8-2.46-3.96-3.31"/><path stroke="#07426a" vector-effect="non-scaling-stroke" d="M92.58 97.02q1.08-.4 4.89-1.45c4.69-1.29 15.77-5.61 15.43-11.9"/><path stroke="#5b5d48" vector-effect="non-scaling-stroke" d="M112.9 83.67q1.56-.94.77-2.9-3.93-9.7-5.89-16.12"/><path stroke="#819662" vector-effect="non-scaling-stroke" d="M107.78 64.65l-4.06-1.31"/><path stroke="#2c3c45" vector-effect="non-scaling-stroke" d="M103.72 63.34L93.7 59.39"/><path stroke="#676849" vector-effect="non-scaling-stroke" d="M93.7 59.39q3.15-2.08.82-5.13"/><path stroke="#344146" vector-effect="non-scaling-stroke" d="M94.52 54.26q-.38-.36-.06-1.26"/><path stroke="#7e8d55" vector-effect="non-scaling-stroke" d="M94.46 53q1.27-.46 1.38-.81"/><path stroke="#5c6853" vector-effect="non-scaling-stroke" d="M95.84 52.19c3.41-1.43 10.95-4.83 12.24-8.3"/><path stroke="#7e8d55" vector-effect="non-scaling-stroke" d="M108.08 43.89l.45-.54q.33-.4.09-.86l-5.99-11.57q-.26-.49-.81-.59l-1.77-.29"/><path stroke="#757b50" vector-effect="non-scaling-stroke" d="M100.05 30.04l-6.94-1.45"/><path stroke="#5e8e7c" vector-effect="non-scaling-stroke" d="M56.6 21.53l-10.82 2.52"/><path stroke="#25c0f0" vector-effect="non-scaling-stroke" d="M45.78 24.05l-1.95-.27q-.49-.06-.17-.43.32-.39.22-.85-1.95-9.31-6.15-17.99"/><path stroke="#679a86" vector-effect="non-scaling-stroke" d="M45.78 24.05l-4.81 1.12"/><path stroke="#96e3eb" vector-effect="non-scaling-stroke" d="M40.97 25.17q-1.37-.09-3.09.68a.66.66 0 0 1-.91-.46l-.24-1.09q-.15-.66-.47-.06-.49.93-.28 1.9.12.5-.39.41-1.08-.19-1.87.8-.13.17.07.25l1.5.62q.5.21.38.74l-.97 4.35"/><path stroke="#95d6a0" vector-effect="non-scaling-stroke" d="M34.7 33.31l-1.13 2.91"/><path stroke="#93cd93" vector-effect="non-scaling-stroke" d="M33.57 36.22q-1.34 3.95 3.43 4.79"/><path stroke="#417c83" vector-effect="non-scaling-stroke" d="M37 41.01q.19.3 0 .9"/><path stroke="#95d6a0" vector-effect="non-scaling-stroke" d="M37 41.91l-11.42 2.32"/><path stroke="#96debd" vector-effect="non-scaling-stroke" d="M25.58 44.23l-13.46 2.95"/><path stroke="#96e3eb" vector-effect="non-scaling-stroke" d="M12.12 47.18q-.91.31-2.1-1.96-.3-.58-.39.07-.1.75.22 1.43"/><path stroke="#38d2fb" vector-effect="non-scaling-stroke" d="M9.85 46.72q-.88.19-1.33 1.32"/><path stroke="#25c0f0" vector-effect="non-scaling-stroke" d="M8.52 48.04q-.64-.99-.21-2.45.14-.49-.22-.84l-.45-.45q-.15-.15-.33-.05-.27.14-.64-.14-1.51-1.12-4.09-1"/><path vector-effect="non-scaling-stroke" d="M9.64 27.88q12.92-.79 18.67-12.77 1.64-3.41.1-5.84m5.91 11.87q-.69.68.27.74.84.05 1.09-.81a.48.48 0 0 0-.8-.48l-.56.55M8.92 43.31l.35.61q.25.45.27-.06.06-1.35-1.04-1.6-.97-.21-1.2.73a.38.38 0 0 0 .51.45l.69-.28q.27-.1.42.15" stroke="#38d2fb"/><path stroke="#b57613" vector-effect="non-scaling-stroke" d="M72.29 24.81q-3.49 2.13-4.79 2.31-6.28.88-11.05 3.8"/><path stroke="#cfa42c" vector-effect="non-scaling-stroke" d="M56.45 30.92q-7.56-1.04-15.43-3.89-.5-.18-.47-.71.02-.53.41-.83"/><path stroke="#cfb177" vector-effect="non-scaling-stroke" d="M40.96 25.49q.01-.16.01-.32"/><path stroke="#feed91" vector-effect="non-scaling-stroke" d="M40.96 25.49l-.25.03a1.09 1.09 0 0 0-.5 1.98q2.01 1.39 4.38 1.66 1.08.13.05.45c-1.71.54-5.03-.1-4.49 2.97q.08.47-.4.42-.88-.08-.96-1.01a.46.46 0 0 0-.55-.42q-.88.18-1.11 1.06a1.11 1.07-14.8 0 1-.32.53q-1.62 1.44-2.11.15"/><path stroke="#d8971b" vector-effect="non-scaling-stroke" d="M88.23 27.8q-7.91 3.49-16.08 5.41-.42.1-.73-.2l-.66-.62a.7.69-37.1 0 0-.8-.11l-2.13 1.09"/><path stroke="#e4b22d" vector-effect="non-scaling-stroke" d="M67.83 33.37l-11.38-2.45"/><path vector-effect="non-scaling-stroke" d="M67.83 33.37q8.39 2.28 17.1 2.76.44.02.72-.32 1.54-1.91 5.2-1.69" class="H"/><path stroke="#feeb83" vector-effect="non-scaling-stroke" d="M90.85 34.12l-1.19 1.19"/><path stroke="#fee863" vector-effect="non-scaling-stroke" d="M89.66 35.31q-1.35.31-2.14 1.23-.31.36.03.7.85.87.16 2.11"/><path vector-effect="non-scaling-stroke" d="M87.71 39.35q-6.21-3-13.07-3.3-.5-.02-.93-.28-2.4-1.49-5.34.19" class="F"/><path vector-effect="non-scaling-stroke" d="M68.37 35.96l-3.23-.73" class="H"/><path vector-effect="non-scaling-stroke" d="M65.14 35.23q-5.94-1.47-12.17-2.78-7.44-1.56-12.23 2.28-.39.32-.9.38-1.92.23-3.59 1.89-1.13 1.11-2.68-.78" class="F"/><path vector-effect="non-scaling-stroke" d="M100.05 30.04q-.99 1.99-4.75 2.81" class="E"/><path stroke="#f2d071" vector-effect="non-scaling-stroke" d="M95.3 32.85q-.2.6-.87.51-.55-.07-.55-.63v-.98q0-.13-.13-.13h-.42q-.36 0-.25.34.39 1.31-.56 2.06-.55.44-.6-.26l-.03-.48a.38.38 0 0 0-.67-.21q-.3.37-.37 1.05"/><path vector-effect="non-scaling-stroke" d="M108.08 43.89l-12.24 8.3" class="I"/><path stroke="#ae811e" vector-effect="non-scaling-stroke" d="M94.46 53l-1.28.52"/><path vector-effect="non-scaling-stroke" d="M93.18 53.52l-2.73.18a.34.34 0 0 1-.35-.41q.11-.52.55-.56" class="G"/><path vector-effect="non-scaling-stroke" d="M90.65 52.73q.04.39.5.52a.51.51 0 0 0 .6-.26q1.09-2.25 3.54-3.07a.33.33 0 0 0-.16-.64q-1.58.3-3.08 1.36a.64.64 0 0 1-1.01-.52L91 47.15q0-.47.46-.51c1.8-.17 3.2-.77 3.99-2.58q1.19-2.76 2.7-5.91" class="L"/><path stroke="#fbe276" vector-effect="non-scaling-stroke" d="M98.15 38.15q.51.18 1.24-.47.39-.36-.11-.54-1.76-.61-1.09-2.59a.53.53 0 0 0-.44-.7q-1.5-.18-2.45-1"/><path stroke="#fef3a0" vector-effect="non-scaling-stroke" d="M98.15 38.15q-2.11.57-3.53 2.7a.98.98 0 0 1-1.76-.83q.1-.35-.08-.51-.32-.27-.38.14-.17 1-.91 1.59-.51.41-.6-.24-.29-2.25 0-4.41.05-.35-.23-.55l-1-.73"/><path vector-effect="non-scaling-stroke" d="M65.14 35.23l.18 11.08" class="E"/><path vector-effect="non-scaling-stroke" d="M65.32 46.31l-3.53-.6" class="I"/><path vector-effect="non-scaling-stroke" d="M61.79 45.71L37.43 38.9a.28.28 0 0 0-.17.53l2.84 1.01q.4.14.13.47-.44.53-1.71.41" class="E"/><path stroke="#a67c1d" vector-effect="non-scaling-stroke" d="M38.52 41.32L37 41.01"/><path vector-effect="non-scaling-stroke" d="M87.71 39.35q1.12 1.16 1 3.48" class="L"/><path vector-effect="non-scaling-stroke" d="M88.71 42.83l-1.34 2.65" class="G"/><path vector-effect="non-scaling-stroke" d="M87.37 45.48l-1.5-4.78q-.17-.53-.72-.66L70.76 36.7" class="I"/><path vector-effect="non-scaling-stroke" d="M70.76 36.7q-1.25-1.11-2.39-.74" class="E"/><path vector-effect="non-scaling-stroke" d="M70.76 36.7l-1.98 1.23q-.38.24-.35.69l.46 7.55q.04.62-.57.79-1.68.45-3-.65" class="M"/><path stroke="#f0c44c" vector-effect="non-scaling-stroke" d="M90.65 52.73q.5-.94.02-1.7-.21-.32-.3-.71l-1.66-7.49"/><path vector-effect="non-scaling-stroke" d="M87.37 45.48c.13 1.79 1.72 3.85.1 5.28" class="N"/><path vector-effect="non-scaling-stroke" d="M87.47 50.76q-1.52-.93-2.43-2.43-.31-.51-.9-.42l-.59.09q-.25.04-.35-.19-.63-1.41-1.09-2.91a1.27 1.27 0 0 0-1.61-.83q-2.3.77-3.33 2.94a1.5 1.5 0 0 1-.72.72l-1.22.58a.39.39 0 0 0 .04.73l1.69.58q.1.03.08.13-.02.13-.04.27-.04.19-.23.15-7.71-1.5-14.98-4.46" class="M"/><path vector-effect="non-scaling-stroke" d="M87.47 50.76q0 .49-.28.82-.29.35-.74.27l-5.38-.99a.75.75 0 0 0-.37 1.45l6.9 2.22a.41.41 0 0 1 .02.78q-.16.06-.28.04" class="O"/><path stroke="#a57019" vector-effect="non-scaling-stroke" d="M87.34 55.35l-10.51-2.77"/><path stroke="#9d6b18" vector-effect="non-scaling-stroke" d="M76.83 52.58L38.52 41.32"/><path stroke="#5c300e" vector-effect="non-scaling-stroke" d="M76.83 52.58q-.5.78-.27.73"/><path stroke="#99721b" vector-effect="non-scaling-stroke" d="M76.56 53.31l-2.32-.38q-.48-.08-.91.16c-1.51.83-2.69 1.34-4.49.67q-4.28-1.58-8.56-2.86"/><path stroke="#8d5f19" vector-effect="non-scaling-stroke" d="M60.28 50.9l-15.09-4.77"/><path stroke="#99721b" vector-effect="non-scaling-stroke" d="M45.19 46.13l-3.89-1.5"/><path stroke="#a9862a" vector-effect="non-scaling-stroke" d="M41.3 44.63l-3.44-1.19a.26.25 54.5 0 1 .08-.5l1.62.01a.35.35 0 0 0 .22-.63q-.91-.72-2.78-.41"/><path stroke="#edcc38" vector-effect="non-scaling-stroke" d="M41.3 44.63q-.03 1.04-1.1 1.09-.94.03-1.33.17-5.04 1.74-10.28 2.8a1.18 1.16 16.4 0 0-.6.32l-.2.21q-.41.4-.99.4l-4.58.01a.59.59 0 0 0-.08 1.17l4.35.6"/><path stroke="#e1ba35" vector-effect="non-scaling-stroke" d="M26.49 51.4l16.41 3.69"/><path stroke="#edcc38" vector-effect="non-scaling-stroke" d="M42.9 55.09l16.69 3.08q.48.09.85.4 1.03.83 2.06.34 3.58-1.72 7.03-3.48a.28.28 0 0 1 .27.49l-5.27 3.33q-.35.22-.42.63-.07.38.17.68a.27.27 0 0 0 .37.05q4.01-2.89 7.23-4.96 1.42-.9 2.19-.2"/><path stroke="#b18b2b" vector-effect="non-scaling-stroke" d="M74.07 55.45l-1.06.84"/><path stroke="#cfa42c" vector-effect="non-scaling-stroke" d="M73.01 56.29l-7.59 5.21q-.48.33-.36.9l1.97 9.31"/><path vector-effect="non-scaling-stroke" d="M67.03 71.71q-.59 1.24 1.65 3.4" class="H"/><path vector-effect="non-scaling-stroke" d="M68.68 75.11q-2.79-.4-1.82.19" class="P"/><path stroke="#d9b237" vector-effect="non-scaling-stroke" d="M66.86 75.3l-1.41-3.47"/><path vector-effect="non-scaling-stroke" d="M65.45 71.83q-.02-5.56-3.14-6.82" class="F"/><path stroke="#d9b237" vector-effect="non-scaling-stroke" d="M62.31 65.01l-1.08-2.32q-.23-.49-.75-.61l-15.47-3.47"/><path stroke="#f6cc34" vector-effect="non-scaling-stroke" d="M45.01 58.61l-7.92-1.68"/><path vector-effect="non-scaling-stroke" d="M37.09 56.93l-16.38-4.59" class="F"/><path stroke="#fee863" vector-effect="non-scaling-stroke" d="M20.71 52.34q-.79-1.65-3.32-1.53a1.49 1.49 0 0 1-.95-2.69q1.77-1.28 3.75-1.38 2.19-.1 2.96-.53 1.37-.76 2.43-1.98"/><path stroke="#2fc6f1" vector-effect="non-scaling-stroke" d="M8.52 48.04q-.69.38-1.05.87-.37.51.2.79l1.61.79"/><path stroke="#8dd7e1" vector-effect="non-scaling-stroke" d="M9.28 50.49q.58.35.34.88-.1.24-.36.38-.37.19-.34.61.16 2.15-1.18 3.77"/><path stroke="#1fabd6" vector-effect="non-scaling-stroke" d="M7.74 56.13L5.4 60.2q-.25.43-.68.19L0 57.8"/><path stroke="#a36613" vector-effect="non-scaling-stroke" d="M93.18 53.52q-2.86 3.1-5.84 1.83"/><path vector-effect="non-scaling-stroke" d="M20.71 52.34q-2.46-.7-5.22-.31a1.49 1.49 0 0 0-1.23 1.88l.42 1.53a.29.29 0 0 1-.52.24l-2.31-3.42" class="L"/><path stroke="#fef5ae" vector-effect="non-scaling-stroke" d="M11.85 52.26q1.03-.97 3.43-1.06a.51.51 0 0 0 .19-.98l-1.6-.69q-.38-.17-.3-.57.33-1.78-1.45-1.78"/><path stroke="#fbe485" vector-effect="non-scaling-stroke" d="M11.85 52.26l-2.57 4.71a.95.93 11.4 0 1-.76.49q-.82.05-.7-.75"/><path stroke="#90ced1" vector-effect="non-scaling-stroke" d="M7.82 56.71q-.04.33-.08-.58"/><path stroke="#a0e9ec" vector-effect="non-scaling-stroke" d="M9.28 50.49l.57-3.77"/><path vector-effect="non-scaling-stroke" d="M45.19 46.13l-18.7 5.27m33.79-.5l-7.62 1.15q-.39.06-.68.32-.15.14-.31.28-.28.24-.67.32-4.22.86-8.1 2.12" stroke="#d1a627"/><path stroke="#a1771c" vector-effect="non-scaling-stroke" d="M76.56 53.31l-2.49 2.14"/><path stroke="#f3c227" vector-effect="non-scaling-stroke" d="M37.09 56.93q2.03 2.67.57 4.62-.69.92-1.79.58-9.86-2.99-20.19-2.12-.46.04-.8.37-1.51 1.48-.11 3.09a1.6 1.58-15.7 0 0 .96.53q5.39.84 10.28 3.19"/><path stroke="#e1a821" vector-effect="non-scaling-stroke" d="M26.01 67.19l-17.32-4.6q-.32-.09-.32.24v.89q0 .56-.55.63l-1.35.15"/><path stroke="#8db77a" vector-effect="non-scaling-stroke" d="M6.47 64.5q-1.41-3.73 1.35-7.79"/><path stroke="#975c12" vector-effect="non-scaling-stroke" d="M94.52 54.26q-.78.81-.65 1.25a2.72 2.72 0 0 1-1.64 3.34q-4.12 1.54-7.87 5.5"/><path stroke="#824f11" vector-effect="non-scaling-stroke" d="M84.36 64.35q-5.85-2.77-11.35-8.06"/><path stroke="#8f5711" vector-effect="non-scaling-stroke" d="M93.7 59.39L71.65 75.7"/><path stroke="#d68d16" vector-effect="non-scaling-stroke" d="M71.65 75.7q-1.05-.28-2.61.41a.47.47 0 0 1-.66-.39q-.06-.64.48-.52"/><path stroke="#d8971b" vector-effect="non-scaling-stroke" d="M68.86 75.2l6.6-5.09"/><path stroke="#e1a821" vector-effect="non-scaling-stroke" d="M75.46 70.11q2.35-1.36 3.58-3.27"/><path stroke="#b57613" vector-effect="non-scaling-stroke" d="M79.04 66.84l.25.49q.29.56.8.19l4.27-3.17"/><path stroke="#76926d" vector-effect="non-scaling-stroke" d="M6.47 64.5l3.55 1.35"/><path stroke="#567b6c" vector-effect="non-scaling-stroke" d="M10.02 65.85q.23.74.11 1.06"/><path stroke="#6a876d" vector-effect="non-scaling-stroke" d="M10.13 66.91l-2.82 8.31"/><path stroke="#567b6c" vector-effect="non-scaling-stroke" d="M7.31 75.22q-2.87 4.99.67 6.33"/><path stroke="#1b7292" vector-effect="non-scaling-stroke" d="M7.98 81.55L6.87 86.7"/><path stroke="#2685a9" vector-effect="non-scaling-stroke" d="M6.87 86.7q.13.13-.79.32"/><path stroke="#cc9b20" vector-effect="non-scaling-stroke" d="M79.04 66.84l-3.85 2.44"/><path stroke="#c3891a" vector-effect="non-scaling-stroke" d="M75.19 69.28l-2.36-.78q-.47-.16-.79-.52c-.97-1.05-2.53-1.35-3.48-.03q-.91 1.28-1.53 3.76"/><path stroke="#d19d25" vector-effect="non-scaling-stroke" d="M45.01 58.61c-2.6.13-3.19 2.31-2.93 4.65q.4 3.51.45 7.13 0 .48-.47.54-1.42.18-2.58-.45"/><path stroke="#dc9d1b" vector-effect="non-scaling-stroke" d="M39.48 70.48l-13.47-3.29"/><path vector-effect="non-scaling-stroke" d="M62.31 65.01q.23 4.16 3.14 6.82" class="I"/><path vector-effect="non-scaling-stroke" d="M66.86 75.3q-2.39.28-4.02 1.5-.46.35-1.02.18l-3.79-1.17q-1.18-.36.04-.58 1.57-.28 3.38 0" class="N"/><path vector-effect="non-scaling-stroke" d="M61.45 75.23q1.44.14 2.05-.53.47-.52-.21-.68-1.5-.36-2.26-1.63-.35-.6-.98-.89-2.41-1.14-2.59-4.03a.59.58-5.9 0 0-.67-.54q-3.27.48-4.45 3.51a1.33 1.32-6.5 0 1-.49.61l-1.81 1.22a.39.39 0 0 0 .08.69l4.12 1.53" class="M"/><path vector-effect="non-scaling-stroke" d="M54.24 74.49L38.77 71" class="N"/><path stroke="#bf831e" vector-effect="non-scaling-stroke" d="M38.77 71q.73-.02.71-.52"/><path stroke="#a9862a" vector-effect="non-scaling-stroke" d="M103.72 63.34c-1.68 1.31-3.18 2.73-5.21 3.46q-6.34 2.31-13.04 3.41-1.99.33-6.51 4.38"/><path stroke="#8d5f19" vector-effect="non-scaling-stroke" d="M78.96 74.59q-4.52 4.29-7.26 9.81"/><path stroke="#6f4010" vector-effect="non-scaling-stroke" d="M71.7 84.4c-3.43.4-4.46 3.53-7.41 3.04q-1.5-.25-3.29-.24"/><path stroke="#784713" vector-effect="non-scaling-stroke" d="M61 87.2l-4.86-5.34a.62.61-36.8 0 1 .14-.94l2.51-1.54q.42-.26-.08-.26h-2.37q-.43 0-.81-.21-1.86-1.03-3.62 0"/><path stroke="#a67c1d" vector-effect="non-scaling-stroke" d="M51.91 78.91l-5.32 1.16"/><path stroke="#784713" vector-effect="non-scaling-stroke" d="M46.59 80.07q-11.23-3.92-21.36-9.61-.56-.32.08-.4l.94-.12"/><path stroke="#8f5711" vector-effect="non-scaling-stroke" d="M26.25 69.94l7.98 1.94"/><path stroke="#9b6112" vector-effect="non-scaling-stroke" d="M34.23 71.88q14.61 4.27 29.54 7.13c3.87.74 5.46-.61 7.88-3.31"/><path stroke="#d68d16" vector-effect="non-scaling-stroke" d="M38.77 71l-4.12-1.1a1.2 1.1-9 0 0-1.36 1.7q.01.01.94.28"/><path stroke="#b37317" vector-effect="non-scaling-stroke" d="M26.25 69.94l-7.36-2.1a.38.38 0 0 0-.46.5q.25.7.91.43"/><path stroke="#e4b22d" vector-effect="non-scaling-stroke" d="M19.34 68.77q-2.24.99-3.13-.51"/><path stroke="#aa6c13" vector-effect="non-scaling-stroke" d="M16.21 68.26l.6-.21q1.09-.39-.04-.65l-6.75-1.55"/><path vector-effect="non-scaling-stroke" d="M107.78 64.65q-1.4 1.21-2.73 1.59-.93.26-.01.57 2.61.87 2.93 3.73a.65.65 0 0 0 .28.47q.67.46.4 1.39-.27.95-.49-.02c-.88-3.98-2.63-4.17-6-5.07q-.68-.18-1.06.5a.42.42 0 0 0 .44.62c4.85-.87 5.75 4.11 7.66 7.25 1.98 3.28 1.5 5.59-2.48 6.67q-5.87 1.59-11.79 3.03" class="Q"/><path vector-effect="non-scaling-stroke" d="M94.93 85.38q-3.64-.68-5.26-4.26-1.94-4.3-2.83-7.11-.09-.28.18-.41.12-.06.23-.13.56-.36-.11-.4-.6-.04-1.11.19" class="F"/><path vector-effect="non-scaling-stroke" d="M86.03 73.26l-6.26 1.62" class="H"/><path stroke="#e1ba35" vector-effect="non-scaling-stroke" d="M79.77 74.88q-.76.06-.81-.29"/><path stroke="#5e5235" vector-effect="non-scaling-stroke" d="M112.9 83.67l-3.32.97"/><path stroke="#cc8c1b" vector-effect="non-scaling-stroke" d="M109.58 84.64q-.36-.35-.55-.9a1.61 1.6-16.5 0 0-1.94-1.05l-28.28 7.6"/><path stroke="#a76816" vector-effect="non-scaling-stroke" d="M78.81 90.29q.42-.56-.06-.73"/><path stroke="#bc801c" vector-effect="non-scaling-stroke" d="M78.75 89.56l4.18-1.19"/><path stroke="#cc8c1b" vector-effect="non-scaling-stroke" d="M82.93 88.37l4.14-1.09"/><path vector-effect="non-scaling-stroke" d="M87.07 87.28l7.86-1.9" class="R"/><path stroke="#c49b2c" vector-effect="non-scaling-stroke" d="M16.21 68.26q-.83-.14-1.65.1"/><path stroke="#9e6113" vector-effect="non-scaling-stroke" d="M14.56 68.36q-2.05-1.76-4.43-1.45"/><path vector-effect="non-scaling-stroke" d="M14.56 68.36l8.98 5.72" class="Q"/><path vector-effect="non-scaling-stroke" d="M23.54 74.08l-7.5 8.52" class="J"/><path vector-effect="non-scaling-stroke" d="M16.04 82.6q-1.07.89 1.29 2.09" class="R"/><path vector-effect="non-scaling-stroke" d="M17.33 84.69l-.11 2.98" class="J"/><path stroke="#635839" vector-effect="non-scaling-stroke" d="M17.22 87.67l-8.51-5.94"/><path vector-effect="non-scaling-stroke" d="M8.71 81.73l-.56-5.5q-.05-.43-.45-.3-.27.09-.29.33" class="J"/><path stroke="#9e6113" vector-effect="non-scaling-stroke" d="M7.41 76.26l-.1-1.04"/><path vector-effect="non-scaling-stroke" d="M61.45 75.23l-7.21-.74" class="O"/><path vector-effect="non-scaling-stroke" d="M75.46 70.11q-.48-.13-.27-.83" class="E"/><path vector-effect="non-scaling-stroke" d="M68.86 75.2q-1.09-.4-.18-.09" class="O"/><path stroke="#ca9823" vector-effect="non-scaling-stroke" d="M46.59 80.07l-5.89.86"/><path stroke="#cdac6c" vector-effect="non-scaling-stroke" d="M40.7 80.93l-2.36-1.3"/><path stroke="#cca130" vector-effect="non-scaling-stroke" d="M38.34 79.63l-19-10.86"/><path stroke="#feeb83" vector-effect="non-scaling-stroke" d="M38.34 79.63q-.65.57-.44 1.33"/><path vector-effect="non-scaling-stroke" d="M37.9 80.96l-2.25-.74q-.55-.18-.15.25l1.54 1.67q.38.41.44.97.51 5.13-.78 10.12c-.44 1.7-1.49 1.77-3.04 1.86" class="Q"/><path vector-effect="non-scaling-stroke" d="M33.66 95.09l-9.34-6.01" class="P"/><path stroke="#f6cc34" vector-effect="non-scaling-stroke" d="M24.32 89.08l5.67-10.68q.28-.54-.25-.83l-3.71-2.05"/><path vector-effect="non-scaling-stroke" d="M26.03 75.52l-2.49-1.44" class="P"/><path vector-effect="non-scaling-stroke" d="M87.07 87.28c-1.32-4.45-3.77-7.3-4.21-11.49q-.06-.53.43-.75l3.37-1.53a.15.15 0 0 0-.02-.28q-.21-.05-.61.03" class="E"/><path stroke="#d59f23" vector-effect="non-scaling-stroke" d="M82.93 88.37q-4.36-6.24-2.36-12.96.16-.56-.41-.54l-.39.01"/><path stroke="#e8a71c" vector-effect="non-scaling-stroke" d="M26.03 75.52l-6.02 9.82"/><path vector-effect="non-scaling-stroke" d="M20.01 85.34l-3.97-2.74" class="G"/><path stroke="#b07b1f" vector-effect="non-scaling-stroke" d="M78.75 89.56l-11.73 3.1"/><path stroke="#d3951e" vector-effect="non-scaling-stroke" d="M67.02 92.66q-.27-.16-.07-.72"/><path stroke="#a8741b" vector-effect="non-scaling-stroke" d="M66.95 91.94c3.07-.58 3.66-4.95 4.75-7.54"/><path stroke="#b67615" vector-effect="non-scaling-stroke" d="M7.41 76.26q-1.45 3.63.82 5.16"/><path stroke="#4f4c38" vector-effect="non-scaling-stroke" d="M8.23 81.42q-.89.01-.25.13"/><path stroke="#e8a71c" vector-effect="non-scaling-stroke" d="M24.32 89.08q-.92-.28-1.34-.72"/><path stroke="#f3c227" vector-effect="non-scaling-stroke" d="M22.98 88.36q.22-.04.32-.18.25-.32-.08-.56l-3.21-2.28"/><path stroke="#7a6d3b" vector-effect="non-scaling-stroke" d="M8.71 81.73q-.24-.15-.48-.31"/><path stroke="#935c16" vector-effect="non-scaling-stroke" d="M61 87.2l3.37 4.88"/><path vector-effect="non-scaling-stroke" d="M64.37 92.08q-3.67 2.25 2.65.58" class="S"/><path stroke="#c0861e" vector-effect="non-scaling-stroke" d="M78.81 90.29q-1.9.46-.67 1.63a1.08 1.08 0 0 0 1.06.24q8.56-2.77 17.15-4.05"/><path stroke="#524d38" vector-effect="non-scaling-stroke" d="M96.35 88.11L53.38 99.97"/><path stroke="#57533c" vector-effect="non-scaling-stroke" d="M53.38 99.97l-9.6 1.82"/><path vector-effect="non-scaling-stroke" d="M43.78 101.79l19.3-5.87a.54.54 0 0 0-.25-1.04l-8.59 1.53" class="S"/><path stroke="#a76816" vector-effect="non-scaling-stroke" d="M54.24 96.41q-.33-.19-.4-.49"/><path vector-effect="non-scaling-stroke" d="M53.84 95.92q.83-.32 1.37-.94.36-.41.13-.92-1.89-4.16-6.49-4.33-.55-.02-.97-.39L42 84.11" class="S"/><path stroke="#ca9823" vector-effect="non-scaling-stroke" d="M42 84.11l11.54-3.02q1.83-.47.14-1.31l-1.77-.87"/><path vector-effect="non-scaling-stroke" d="M42 84.11q-1.66 4.91-1.05 10.3a.43.43 0 0 0 .83.08l.65-2q.1-.31.39-.44 1.12-.49 2.06.16a1.47 1.47 0 0 0 1.07.23q1.96-.34 1.45-1.18-.17-.26.13-.36c.73-.23 1.45.04 1.97.66q1.4 1.67 3.1 3.05.37.29.51.74l.21.63" class="G"/><path vector-effect="non-scaling-stroke" d="M53.32 95.98l-11.44 2.4a2.06 2.06 0 0 1-2.49-2.06l.24-9.77" class="R"/><path stroke="#fbe276" vector-effect="non-scaling-stroke" d="M39.63 86.55q-.08-2.07.96-2.46.48-.17.57-.68.21-1.26-.46-2.48"/><path stroke="#d8b269" vector-effect="non-scaling-stroke" d="M39.63 86.55q.24-3.23-1.73-5.59"/><g class="J"><path vector-effect="non-scaling-stroke" d="M53.32 95.98q.49.06.52-.06"/><path vector-effect="non-scaling-stroke" d="M54.24 96.41q-3.83 1.09-7.78 1.81c-2.6.48-4.58 2.8-7.43.34a2.09 2.05 72.1 0 0-.84-.44q-2.72-.72-4.53-3.03"/></g><path stroke="#7a6d3b" vector-effect="non-scaling-stroke" d="M17.22 87.67q10.35 6.99 20.98 13.88c1.77 1.14 3.94 1.35 5.58.24"/><path stroke="#0e3d5a" vector-effect="non-scaling-stroke" d="M53.38 99.97q13.15 2.06 26.72.04"/><path stroke="#155073" vector-effect="non-scaling-stroke" d="M80.1 100.01q-20.17 4.91-41.17 4.21"/><path stroke="#1e5675" vector-effect="non-scaling-stroke" d="M38.93 104.22q-9.62-1.91-17.29-4.61-7.71-2.71-13.11-9.27-.28-.35-.37-.79-.29-1.49-1.29-2.85"/><path vector-effect="non-scaling-stroke" d="M22.98 88.36l-5.65-3.67" class="G"/><path stroke="#77713c" vector-effect="non-scaling-stroke" d="M109.58 84.64l-13.23 3.47"/><path stroke="#104a6f" vector-effect="non-scaling-stroke" d="M92.58 97.02l-12.48 2.99"/><path stroke="#b67615" vector-effect="non-scaling-stroke" d="M66.95 91.94l-2.58.14"/><path stroke="#206389" vector-effect="non-scaling-stroke" d="M38.93 104.22q7.11 1.84 11.09.84 3.88-.96 5.79 2.08 1.01 1.59-.31 2.86-.35.35-.35.84-.01 2.42-1.17 4.51-.25.44-.73.57-2.16.6-2.79 4.32"/></g><path fill="#0a7ab3" d="M56.88 0h4.15q4.82 5.98 9.72 11.89 2.01 2.43 4.21 6.14 1.9 3.21 4.11 6.24.29.4-.12.68-.49.33-.81.87l-5.85-1.01-3.68-1.07q-3.99-8.55-9.44-15.49L53.34.5l3.54-.5z"/><path fill="#086398" d="M61.03 0h3.21l4.2.53c1.96 1.97 3.63 3.13 5.66 5.54q1.03 1.22 2.76 2.67 6.64 5.52 12.51 14.5.05.07 1.13 2.11.77 1.44 2.07 2.26.08.05.04.14-.07.14-.13.28-.08.16.09.17.67.06.54.39l-4.88-.79-10.09-1.98q.32-.54.81-.87.41-.28.12-.68-2.21-3.03-4.11-6.24-2.2-3.71-4.21-6.14Q65.85 5.98 61.03 0z"/><path fill="#1197cd" d="M53.34.5l5.83 7.75q5.45 6.94 9.44 15.49L56.6 21.53Q52.19 11.18 45.07 2.07L53.34.5z"/><path fill="#044c7d" d="M68.44.53C97.68 4.58 118.46 27.57 121 56.9v7.32q-2.3 26.56-22.48 43.4l-.03-3.15q-.01-.52-.41-.85-1.21-.98-1.26-2.46-.01-.46-.28-.83-1.8-2.46-3.96-3.31 1.08-.4 4.89-1.45c4.69-1.29 15.77-5.61 15.43-11.9q1.56-.94.77-2.9-3.93-9.7-5.89-16.12l-4.06-1.31-10.02-3.95q3.15-2.08.82-5.13-.38-.36-.06-1.26 1.27-.46 1.38-.81c3.41-1.43 10.95-4.83 12.24-8.3l.45-.54q.33-.4.09-.86l-5.99-11.57q-.26-.49-.81-.59l-1.77-.29-6.94-1.45q.13-.33-.54-.39-.17-.01-.09-.17.06-.14.13-.28.04-.09-.04-.14-1.3-.82-2.07-2.26-1.08-2.04-1.13-2.11-5.87-8.98-12.51-14.5-1.73-1.45-2.76-2.67C72.07 3.66 70.4 2.5 68.44.53z"/><path fill="#1cb4e6" d="M45.07 2.07q7.12 9.11 11.53 19.46l-10.82 2.52-1.95-.27q-.49-.06-.17-.43.32-.39.22-.85-1.95-9.31-6.15-17.99l7.34-2.44z"/><path fill="#2dccf9" d="M37.73 4.51q4.2 8.68 6.15 17.99.1.46-.22.85-.32.37.17.43l1.95.27-4.81 1.12q-1.37-.09-3.09.68a.66.66 0 0 1-.91-.46l-.24-1.09q-.15-.66-.47-.06-.49.93-.28 1.9.12.5-.39.41-1.08-.19-1.87.8-.13.17.07.25l1.5.62q.5.21.38.74l-.97 4.35-1.13 2.91q-1.34 3.95 3.43 4.79.19.3 0 .9l-11.42 2.32-13.46 2.95q-.91.31-2.1-1.96-.3-.58-.39.07-.1.75.22 1.43-.88.19-1.33 1.32-.64-.99-.21-2.45.14-.49-.22-.84l-.45-.45q-.15-.15-.33-.05-.27.14-.64-.14-1.51-1.12-4.09-1 2.81-9.04 7.06-15.23 12.92-.79 18.67-12.77 1.64-3.41.1-5.84l9.32-4.76zm-3.41 16.63q-.69.68.27.74.84.05 1.09-.81a.48.48 0 0 0-.8-.48l-.56.55zM8.92 43.31l.35.61q.25.45.27-.06.06-1.35-1.04-1.6-.97-.21-1.2.73a.38.38 0 0 0 .51.45l.69-.28q.27-.1.42.15z"/><path d="M28.41 9.27q1.54 2.43-.1 5.84-5.75 11.98-18.67 12.77Q17 16.31 28.41 9.27zm5.91 11.87l.56-.55a.48.48 0 0 1 .8.48q-.25.86-1.09.81-.96-.06-.27-.74z" class="T"/><path fill="#a06812" d="M56.6 21.53l12.01 2.21 3.68 1.07q-3.49 2.13-4.79 2.31-6.28.88-11.05 3.8-7.56-1.04-15.43-3.89-.5-.18-.47-.71.02-.53.41-.83.01-.16.01-.32l4.81-1.12 10.82-2.52z"/><path fill="#fefadc" d="M40.97 25.17q0 .16-.01.32l-.25.03a1.09 1.09 0 0 0-.5 1.98q2.01 1.39 4.38 1.66 1.08.13.05.45c-1.71.54-5.03-.1-4.49 2.97q.08.47-.4.42-.88-.08-.96-1.01a.46.46 0 0 0-.55-.42q-.88.18-1.11 1.06a1.11 1.07-14.8 0 1-.32.53q-1.62 1.44-2.11.15l.97-4.35q.12-.53-.38-.74l-1.5-.62q-.2-.08-.07-.25.79-.99 1.87-.8.51.09.39-.41-.21-.97.28-1.9.32-.6.47.06l.24 1.09a.66.66 0 0 0 .91.46q1.72-.77 3.09-.68z"/><path d="M72.29 24.81l5.85 1.01 10.09 1.98q-7.91 3.49-16.08 5.41-.42.1-.73-.2l-.66-.62a.7.69-37.1 0 0-.8-.11l-2.13 1.09-11.38-2.45q4.77-2.92 11.05-3.8 1.3-.18 4.79-2.31z" class="U"/><path d="M40.96 25.49q-.39.3-.41.83-.03.53.47.71 7.87 2.85 15.43 3.89l11.38 2.45q8.39 2.28 17.1 2.76.44.02.72-.32 1.54-1.91 5.2-1.69l-1.19 1.19q-1.35.31-2.14 1.23-.31.36.03.7.85.87.16 2.11-6.21-3-13.07-3.3-.5-.02-.93-.28-2.4-1.49-5.34.19l-3.23-.73q-5.94-1.47-12.17-2.78-7.44-1.56-12.23 2.28-.39.32-.9.38-1.92.23-3.59 1.89-1.13 1.11-2.68-.78l1.13-2.91q.49 1.29 2.11-.15a1.11 1.07-14.8 0 0 .32-.53q.23-.88 1.11-1.06a.46.46 0 0 1 .55.42q.08.93.96 1.01.48.05.4-.42c-.54-3.07 2.78-2.43 4.49-2.97q1.03-.32-.05-.45-2.37-.27-4.38-1.66a1.09 1.09 0 0 1 .5-1.98l.25-.03z" class="K"/><path d="M88.23 27.8l4.88.79 6.94 1.45q-.99 1.99-4.75 2.81-.2.6-.87.51-.55-.07-.55-.63v-.98q0-.13-.13-.13h-.42q-.36 0-.25.34.39 1.31-.56 2.06-.55.44-.6-.26l-.03-.48a.38.38 0 0 0-.67-.21q-.3.37-.37 1.05-3.66-.22-5.2 1.69-.28.34-.72.32-8.71-.48-17.1-2.76l2.13-1.09a.7.69-37.1 0 1 .8.11l.66.62q.31.3.73.2 8.17-1.92 16.08-5.41z" class="C"/><path d="M100.05 30.04l1.77.29q.55.1.81.59l5.99 11.57q.24.46-.09.86l-.45.54-12.24 8.3q-.11.35-1.38.81l-1.28.52-2.73.18a.34.34 0 0 1-.35-.41q.11-.52.55-.56.04.39.5.52a.51.51 0 0 0 .6-.26q1.09-2.25 3.54-3.07a.33.33 0 0 0-.16-.64q-1.58.3-3.08 1.36a.64.64 0 0 1-1.01-.52L91 47.15q0-.47.46-.51c1.8-.17 3.2-.77 3.99-2.58q1.19-2.76 2.7-5.91.51.18 1.24-.47.39-.36-.11-.54-1.76-.61-1.09-2.59a.53.53 0 0 0-.44-.7q-1.5-.18-2.45-1 3.76-.82 4.75-2.81z" class="B"/><path fill="#fef6bf" d="M95.3 32.85q.95.82 2.45 1a.53.53 0 0 1 .44.7q-.67 1.98 1.09 2.59.5.18.11.54-.73.65-1.24.47-2.11.57-3.53 2.7a.98.98 0 0 1-1.76-.83q.1-.35-.08-.51-.32-.27-.38.14-.17 1-.91 1.59-.51.41-.6-.24-.29-2.25 0-4.41.05-.35-.23-.55l-1-.73 1.19-1.19q.07-.68.37-1.05a.38.38 0 0 1 .67.21l.03.48q.05.7.6.26.95-.75.56-2.06-.11-.34.25-.34h.42q.13 0 .13.13v.98q0 .56.55.63.67.09.87-.51z"/><path d="M65.14 35.23l.18 11.08-3.53-.6-24.36-6.81a.28.28 0 0 0-.17.53l2.84 1.01q.4.14.13.47-.44.53-1.71.41L37 41.01q-4.77-.84-3.43-4.79 1.55 1.89 2.68.78 1.67-1.66 3.59-1.89.51-.06.9-.38 4.79-3.84 12.23-2.28 6.23 1.31 12.17 2.78zm22.57 4.12q1.12 1.16 1 3.48l-1.34 2.65-1.5-4.78q-.17-.53-.72-.66L70.76 36.7q-1.25-1.11-2.39-.74 2.94-1.68 5.34-.19.43.26.93.28 6.86.3 13.07 3.3z" class="B"/><path d="M65.14 35.23l3.23.73q1.14-.37 2.39.74l-1.98 1.23q-.38.24-.35.69l.46 7.55q.04.62-.57.79-1.68.45-3-.65l-.18-11.08z" class="C"/><path fill="#fef080" d="M89.66 35.31l1 .73q.28.2.23.55-.29 2.16 0 4.41.09.65.6.24.74-.59.91-1.59.06-.41.38-.14.18.16.08.51a.98.98 0 0 0 1.76.83q1.42-2.13 3.53-2.7-1.51 3.15-2.7 5.91c-.79 1.81-2.19 2.41-3.99 2.58q-.46.04-.46.51l.04 2.97a.64.64 0 0 0 1.01.52q1.5-1.06 3.08-1.36a.33.33 0 0 1 .16.64q-2.45.82-3.54 3.07a.51.51 0 0 1-.6.26q-.46-.13-.5-.52.5-.94.02-1.7-.21-.32-.3-.71l-1.66-7.49q.12-2.32-1-3.48.69-1.24-.16-2.11-.34-.34-.03-.7.79-.92 2.14-1.23z"/><path d="M70.76 36.7l14.39 3.34q.55.13.72.66l1.5 4.78c.13 1.79 1.72 3.85.1 5.28q-1.52-.93-2.43-2.43-.31-.51-.9-.42l-.59.09q-.25.04-.35-.19-.63-1.41-1.09-2.91a1.27 1.27 0 0 0-1.61-.83q-2.3.77-3.33 2.94a1.5 1.5 0 0 1-.72.72l-1.22.58a.39.39 0 0 0 .04.73l1.69.58q.1.03.08.13-.02.13-.04.27-.04.19-.23.15-7.71-1.5-14.98-4.46l3.53.6q1.32 1.1 3 .65.61-.17.57-.79l-.46-7.55q-.03-.45.35-.69l1.98-1.23z" class="V"/><path d="M61.79 45.71q7.27 2.96 14.98 4.46.19.04.23-.15.02-.14.04-.27.02-.1-.08-.13l-1.69-.58a.39.39 0 0 1-.04-.73l1.22-.58a1.5 1.5 0 0 0 .72-.72q1.03-2.17 3.33-2.94a1.27 1.27 0 0 1 1.61.83q.46 1.5 1.09 2.91.1.23.35.19l.59-.09q.59-.09.9.42.91 1.5 2.43 2.43 0 .49-.28.82-.29.35-.74.27l-5.38-.99a.75.75 0 0 0-.37 1.45l6.9 2.22a.41.41 0 0 1 .02.78q-.16.06-.28.04l-10.51-2.77-38.31-11.26q1.27.12 1.71-.41.27-.33-.13-.47l-2.84-1.01a.28.28 0 0 1 .17-.53l24.36 6.81z" class="C"/><path fill="#542b0d" d="M37 41.01l1.52.31 38.31 11.26q-.5.78-.27.73l-2.32-.38q-.48-.08-.91.16c-1.51.83-2.69 1.34-4.49.67q-4.28-1.58-8.56-2.86l-15.09-4.77-3.89-1.5-3.44-1.19a.26.25 54.5 0 1 .08-.5l1.62.01a.35.35 0 0 0 .22-.63q-.91-.72-2.78-.41.19-.6 0-.9z"/><path d="M37 41.91q1.87-.31 2.78.41a.35.35 0 0 1-.22.63l-1.62-.01a.26.25 54.5 0 0-.08.5l3.44 1.19q-.03 1.04-1.1 1.09-.94.03-1.33.17-5.04 1.74-10.28 2.8a1.18 1.16 16.4 0 0-.6.32l-.2.21q-.41.4-.99.4l-4.58.01a.59.59 0 0 0-.08 1.17l4.35.6 16.41 3.69 16.69 3.08q.48.09.85.4 1.03.83 2.06.34 3.58-1.72 7.03-3.48a.28.28 0 0 1 .27.49l-5.27 3.33q-.35.22-.42.63-.07.38.17.68a.27.27 0 0 0 .37.05q4.01-2.89 7.23-4.96 1.42-.9 2.19-.2l-1.06.84-7.59 5.21q-.48.33-.36.9l1.97 9.31q-.59 1.24 1.65 3.4-2.79-.4-1.82.19l-1.41-3.47q-.02-5.56-3.14-6.82l-1.08-2.32q-.23-.49-.75-.61l-15.47-3.47-7.92-1.68-16.38-4.59q-.79-1.65-3.32-1.53a1.49 1.49 0 0 1-.95-2.69q1.77-1.28 3.75-1.38 2.19-.1 2.96-.53 1.37-.76 2.43-1.98L37 41.91z" class="K"/><path d="M8.5 43.16l-.69.28a.38.38 0 0 1-.51-.45q.23-.94 1.2-.73 1.1.25 1.04 1.6-.02.51-.27.06l-.35-.61q-.15-.25-.42-.15z" class="T"/><path fill="#1cb4e6" d="M2.58 43.11q2.58-.12 4.09 1 .37.28.64.14.18-.1.33.05l.45.45q.36.35.22.84-.43 1.46.21 2.45-.69.38-1.05.87-.37.51.2.79l1.61.79q.58.35.34.88-.1.24-.36.38-.37.19-.34.61.16 2.15-1.18 3.77L5.4 60.2q-.25.43-.68.19L0 57.8v-1.28l2.58-13.41z"/><path d="M88.71 42.83l1.66 7.49q.09.39.3.71.48.76-.02 1.7-.44.04-.55.56a.34.34 0 0 0 .35.41l2.73-.18q-2.86 3.1-5.84 1.83.12.02.28-.04a.41.41 0 0 0-.02-.78l-6.9-2.22a.75.75 0 0 1 .37-1.45l5.38.99q.45.08.74-.27.28-.33.28-.82c1.62-1.43.03-3.49-.1-5.28l1.34-2.65z" class="D"/><path d="M108.08 43.89c-1.29 3.47-8.83 6.87-12.24 8.3l12.24-8.3z" class="V"/><path fill="#fef080" d="M25.58 44.23q-1.06 1.22-2.43 1.98-.77.43-2.96.53-1.98.1-3.75 1.38a1.49 1.49 0 0 0 .95 2.69q2.53-.12 3.32 1.53-2.46-.7-5.22-.31a1.49 1.49 0 0 0-1.23 1.88l.42 1.53a.29.29 0 0 1-.52.24l-2.31-3.42q1.03-.97 3.43-1.06a.51.51 0 0 0 .19-.98l-1.6-.69q-.38-.17-.3-.57.33-1.78-1.45-1.78l13.46-2.95z"/><path fill="#fefadc" d="M12.12 47.18q1.78 0 1.45 1.78-.08.4.3.57l1.6.69a.51.51 0 0 1-.19.98q-2.4.09-3.43 1.06l-2.57 4.71a.95.93 11.4 0 1-.76.49q-.82.05-.7-.75-.04.33-.08-.58 1.34-1.62 1.18-3.77-.03-.42.34-.61.26-.14.36-.38.24-.53-.34-.88l.57-3.77q-.32-.68-.22-1.43.09-.65.39-.07 1.19 2.27 2.1 1.96z"/><path fill="#ddb829" d="M41.3 44.63l3.89 1.5-18.7 5.27-4.35-.6a.59.59 0 0 1 .08-1.17l4.58-.01q.58 0 .99-.4l.2-.21a1.18 1.16 16.4 0 1 .6-.32q5.24-1.06 10.28-2.8.39-.14 1.33-.17 1.07-.05 1.1-1.09z"/><path fill="#c59324" d="M45.19 46.13l15.09 4.77-7.62 1.15q-.39.06-.68.32-.15.14-.31.28-.28.24-.67.32-4.22.86-8.1 2.12L26.49 51.4l18.7-5.27z"/><path d="M9.85 46.72l-.57 3.77-1.61-.79q-.57-.28-.2-.79.36-.49 1.05-.87.45-1.13 1.33-1.32z" class="T"/><path fill="#ddb829" d="M60.28 50.9q4.28 1.28 8.56 2.86c1.8.67 2.98.16 4.49-.67q.43-.24.91-.16l2.32.38-2.49 2.14q-.77-.7-2.19.2-3.22 2.07-7.23 4.96a.27.27 0 0 1-.37-.05q-.24-.3-.17-.68.07-.41.42-.63l5.27-3.33a.28.28 0 0 0-.27-.49q-3.45 1.76-7.03 3.48-1.03.49-2.06-.34-.37-.31-.85-.4L42.9 55.09q3.88-1.26 8.1-2.12.39-.08.67-.32.16-.14.31-.28.29-.26.68-.32l7.62-1.15z"/><path d="M20.71 52.34l16.38 4.59q2.03 2.67.57 4.62-.69.92-1.79.58-9.86-2.99-20.19-2.12-.46.04-.8.37-1.51 1.48-.11 3.09a1.6 1.58-15.7 0 0 .96.53q5.39.84 10.28 3.19l-17.32-4.6q-.32-.09-.32.24v.89q0 .56-.55.63l-1.35.15q-1.41-3.73 1.35-7.79-.12.8.7.75a.95.93 11.4 0 0 .76-.49l2.57-4.71 2.31 3.42a.29.29 0 0 0 .52-.24l-.42-1.53a1.49 1.49 0 0 1 1.23-1.88q2.76-.39 5.22.31z" class="B"/><path fill="#64350f" d="M76.83 52.58l10.51 2.77q2.98 1.27 5.84-1.83l1.28-.52q-.32.9.06 1.26-.78.81-.65 1.25a2.72 2.72 0 0 1-1.64 3.34q-4.12 1.54-7.87 5.5-5.85-2.77-11.35-8.06l1.06-.84 2.49-2.14q-.23.05.27-.73z"/><path d="M94.52 54.26q2.33 3.05-.82 5.13L71.65 75.7q-1.05-.28-2.61.41a.47.47 0 0 1-.66-.39q-.06-.64.48-.52l6.6-5.09q2.35-1.36 3.58-3.27l.25.49q.29.56.8.19l4.27-3.17q3.75-3.96 7.87-5.5a2.72 2.72 0 0 0 1.64-3.34q-.13-.44.65-1.25z" class="U"/><path fill="#22a1c6" d="M7.74 56.13q.04.91.08.58-2.76 4.06-1.35 7.79l3.55 1.35q.23.74.11 1.06l-2.82 8.31q-2.87 4.99.67 6.33L6.87 86.7q.13.13-.79.32Q1.03 76.2 0 64.1v-6.3l4.72 2.59q.43.24.68-.19l2.34-4.07z"/><path fill="#a06812" d="M73.01 56.29q5.5 5.29 11.35 8.06l-4.27 3.17q-.51.37-.8-.19l-.25-.49-3.85 2.44-2.36-.78q-.47-.16-.79-.52c-.97-1.05-2.53-1.35-3.48-.03q-.91 1.28-1.53 3.76l-1.97-9.31q-.12-.57.36-.9l7.59-5.21z"/><path fill="#eeb721" d="M37.09 56.93l7.92 1.68c-2.6.13-3.19 2.31-2.93 4.65q.4 3.51.45 7.13 0 .48-.47.54-1.42.18-2.58-.45l-13.47-3.29Q21.12 64.84 15.73 64a1.6 1.58-15.7 0 1-.96-.53q-1.4-1.61.11-3.09.34-.33.8-.37 10.33-.87 20.19 2.12 1.1.34 1.79-.58 1.46-1.95-.57-4.62z"/><path d="M45.01 58.61l15.47 3.47q.52.12.75.61l1.08 2.32q.23 4.16 3.14 6.82l1.41 3.47q-2.39.28-4.02 1.5-.46.35-1.02.18l-3.79-1.17q-1.18-.36.04-.58 1.57-.28 3.38 0 1.44.14 2.05-.53.47-.52-.21-.68-1.5-.36-2.26-1.63-.35-.6-.98-.89-2.41-1.14-2.59-4.03a.59.58-5.9 0 0-.67-.54q-3.27.48-4.45 3.51a1.33 1.32-6.5 0 1-.49.61l-1.81 1.22a.39.39 0 0 0 .08.69l4.12 1.53L38.77 71q.73-.02.71-.52 1.16.63 2.58.45.47-.06.47-.54-.05-3.62-.45-7.13c-.26-2.34.33-4.52 2.93-4.65z" class="V"/><path fill="#542b0d" d="M93.7 59.39l10.02 3.95c-1.68 1.31-3.18 2.73-5.21 3.46q-6.34 2.31-13.04 3.41-1.99.33-6.51 4.38-4.52 4.29-7.26 9.81c-3.43.4-4.46 3.53-7.41 3.04q-1.5-.25-3.29-.24l-4.86-5.34a.62.61-36.8 0 1 .14-.94l2.51-1.54q.42-.26-.08-.26h-2.37q-.43 0-.81-.21-1.86-1.03-3.62 0l-5.32 1.16q-11.23-3.92-21.36-9.61-.56-.32.08-.4l.94-.12 7.98 1.94q14.61 4.27 29.54 7.13c3.87.74 5.46-.61 7.88-3.31L93.7 59.39z"/><path d="M26.01 67.19l13.47 3.29q.02.5-.71.52l-4.12-1.1a1.2 1.1-9 0 0-1.36 1.7q.01.01.94.28l-7.98-1.94-7.36-2.1a.38.38 0 0 0-.46.5q.25.7.91.43-2.24.99-3.13-.51l.6-.21q1.09-.39-.04-.65l-6.75-1.55-3.55-1.35 1.35-.15q.55-.07.55-.63v-.89q0-.33.32-.24l17.32 4.6z" class="U"/><path d="M103.72 63.34l4.06 1.31q-1.4 1.21-2.73 1.59-.93.26-.01.57 2.61.87 2.93 3.73a.65.65 0 0 0 .28.47q.67.46.4 1.39-.27.95-.49-.02c-.88-3.98-2.63-4.17-6-5.07q-.68-.18-1.06.5a.42.42 0 0 0 .44.62c4.85-.87 5.75 4.11 7.66 7.25 1.98 3.28 1.5 5.59-2.48 6.67q-5.87 1.59-11.79 3.03-3.64-.68-5.26-4.26-1.94-4.3-2.83-7.11-.09-.28.18-.41.12-.06.23-.13.56-.36-.11-.4-.6-.04-1.11.19l-6.26 1.62q-.76.06-.81-.29 4.52-4.05 6.51-4.38 6.7-1.1 13.04-3.41c2.03-.73 3.53-2.15 5.21-3.46z" class="K"/><path d="M107.78 64.65q1.96 6.42 5.89 16.12.79 1.96-.77 2.9l-3.32.97q-.36-.35-.55-.9a1.61 1.6-16.5 0 0-1.94-1.05l-28.28 7.6q.42-.56-.06-.73l4.18-1.19 4.14-1.09 7.86-1.9q5.92-1.44 11.79-3.03c3.98-1.08 4.46-3.39 2.48-6.67-1.91-3.14-2.81-8.12-7.66-7.25a.42.42 0 0 1-.44-.62q.38-.68 1.06-.5c3.37.9 5.12 1.09 6 5.07q.22.97.49.02.27-.93-.4-1.39a.65.65 0 0 1-.28-.47q-.32-2.86-2.93-3.73-.92-.31.01-.57 1.33-.38 2.73-1.59z" class="W"/><path d="M62.31 65.01q3.12 1.26 3.14 6.82-2.91-2.66-3.14-6.82z" class="B"/><path d="M16.21 68.26q-.83-.14-1.65.1-2.05-1.76-4.43-1.45.12-.32-.11-1.06l6.75 1.55q1.13.26.04.65l-.6.21z" class="X"/><path d="M14.56 68.36l8.98 5.72-7.5 8.52q-1.07.89 1.29 2.09l-.11 2.98-8.51-5.94-.56-5.5q-.05-.43-.45-.3-.27.09-.29.33l-.1-1.04 2.82-8.31q2.38-.31 4.43 1.45z" class="W"/><path d="M61.45 75.23l-7.21-.74-4.12-1.53a.39.39 0 0 1-.08-.69l1.81-1.22a1.33 1.32-6.5 0 0 .49-.61q1.18-3.03 4.45-3.51a.59.58-5.9 0 1 .67.54q.18 2.89 2.59 4.03.63.29.98.89.76 1.27 2.26 1.63.68.16.21.68-.61.67-2.05.53z" class="C"/><path d="M79.04 66.84q-1.23 1.91-3.58 3.27-.48-.13-.27-.83l3.85-2.44z" class="B"/><path d="M75.19 69.28q-.21.7.27.83l-6.6 5.09q-1.09-.4-.18-.09-2.24-2.16-1.65-3.4.62-2.48 1.53-3.76c.95-1.32 2.51-1.02 3.48.03q.32.36.79.52l2.36.78z" class="C"/><path fill="#9b6219" d="M26.25 69.94l-.94.12q-.64.08-.08.4 10.13 5.69 21.36 9.61l-5.89.86-2.36-1.3-19-10.86q-.66.27-.91-.43a.38.38 0 0 1 .46-.5l7.36 2.1z"/><path d="M14.56 68.36q.82-.24 1.65-.1.89 1.5 3.13.51l19 10.86q-.65.57-.44 1.33l-2.25-.74q-.55-.18-.15.25l1.54 1.67q.38.41.44.97.51 5.13-.78 10.12c-.44 1.7-1.49 1.77-3.04 1.86l-9.34-6.01 5.67-10.68q.28-.54-.25-.83l-3.71-2.05-2.49-1.44-8.98-5.72z" class="K"/><path d="M38.77 71l15.47 3.49 7.21.74q-1.81-.28-3.38 0-1.22.22-.04.58l3.79 1.17q.56.17 1.02-.18 1.63-1.22 4.02-1.5-.97-.59 1.82-.19-.91-.31.18.09-.54-.12-.48.52a.47.47 0 0 0 .66.39q1.56-.69 2.61-.41c-2.42 2.7-4.01 4.05-7.88 3.31q-14.93-2.86-29.54-7.13-.93-.27-.94-.28a1.2 1.1-9 0 1 1.36-1.7l4.12 1.1z" class="D"/><path d="M94.93 85.38l-7.86 1.9c-1.32-4.45-3.77-7.3-4.21-11.49q-.06-.53.43-.75l3.37-1.53a.15.15 0 0 0-.02-.28q-.21-.05-.61.03.51-.23 1.11-.19.67.04.11.4-.11.07-.23.13-.27.13-.18.41.89 2.81 2.83 7.11 1.62 3.58 5.26 4.26z" class="B"/><path d="M86.03 73.26q.4-.08.61-.03a.15.15 0 0 1 .02.28l-3.37 1.53q-.49.22-.43.75c.44 4.19 2.89 7.04 4.21 11.49l-4.14 1.09q-4.36-6.24-2.36-12.96.16-.56-.41-.54l-.39.01 6.26-1.62z" class="C"/><path d="M23.54 74.08l2.49 1.44-6.02 9.82-3.97-2.74 7.5-8.52z" class="D"/><path fill="#c59324" d="M78.96 74.59q.05.35.81.29l.39-.01q.57-.02.41.54-2 6.72 2.36 12.96l-4.18 1.19-11.73 3.1q-.27-.16-.07-.72c3.07-.58 3.66-4.95 4.75-7.54q2.74-5.52 7.26-9.81z"/><path d="M7.31 75.22l.1 1.04q-1.45 3.63.82 5.16-.89.01-.25.13-3.54-1.34-.67-6.33z" class="X"/><path fill="#eeb721" d="M26.03 75.52l3.71 2.05q.53.29.25.83l-5.67 10.68q-.92-.28-1.34-.72.22-.04.32-.18.25-.32-.08-.56l-3.21-2.28 6.02-9.82z"/><path d="M8.71 81.73q-.24-.15-.48-.31-2.27-1.53-.82-5.16.02-.24.29-.33.4-.13.45.3l.56 5.5z" class="D"/><path fill="#9b6219" d="M61 87.2l3.37 4.88q-3.67 2.25 2.65.58l11.73-3.1q.48.17.06.73-1.9.46-.67 1.63a1.08 1.08 0 0 0 1.06.24q8.56-2.77 17.15-4.05L53.38 99.97l-9.6 1.82 19.3-5.87a.54.54 0 0 0-.25-1.04l-8.59 1.53q-.33-.19-.4-.49.83-.32 1.37-.94.36-.41.13-.92-1.89-4.16-6.49-4.33-.55-.02-.97-.39L42 84.11l11.54-3.02q1.83-.47.14-1.31l-1.77-.87q1.76-1.03 3.62 0 .38.21.81.21h2.37q.5 0 .08.26l-2.51 1.54a.62.61-36.8 0 0-.14.94L61 87.2z"/><path d="M51.91 78.91l1.77.87q1.69.84-.14 1.31L42 84.11q-1.66 4.91-1.05 10.3a.43.43 0 0 0 .83.08l.65-2q.1-.31.39-.44 1.12-.49 2.06.16a1.47 1.47 0 0 0 1.07.23q1.96-.34 1.45-1.18-.17-.26.13-.36c.73-.23 1.45.04 1.97.66q1.4 1.67 3.1 3.05.37.29.51.74l.21.63-11.44 2.4a2.06 2.06 0 0 1-2.49-2.06l.24-9.77q-.08-2.07.96-2.46.48-.17.57-.68.21-1.26-.46-2.48l5.89-.86 5.32-1.16z" class="B"/><path fill="#fef6bf" d="M38.34 79.63l2.36 1.3q.67 1.22.46 2.48-.09.51-.57.68-1.04.39-.96 2.46.24-3.23-1.73-5.59-.21-.76.44-1.33z"/><path d="M37.9 80.96q1.97 2.36 1.73 5.59l-.24 9.77a2.06 2.06 0 0 0 2.49 2.06l11.44-2.4q.49.06.52-.06.07.3.4.49-3.83 1.09-7.78 1.81c-2.6.48-4.58 2.8-7.43.34a2.09 2.05 72.1 0 0-.84-.44q-2.72-.72-4.53-3.03c1.55-.09 2.6-.16 3.04-1.86q1.29-4.99.78-10.12-.06-.56-.44-.97l-1.54-1.67q-.4-.43.15-.25l2.25.74z" class="W"/><path fill="#13435e" d="M7.98 81.55q-.64-.12.25-.13.24.16.48.31l8.51 5.94q10.35 6.99 20.98 13.88c1.77 1.14 3.94 1.35 5.58.24l9.6-1.82q13.15 2.06 26.72.04-20.17 4.91-41.17 4.21-9.62-1.91-17.29-4.61-7.71-2.71-13.11-9.27-.28-.35-.37-.79-.29-1.49-1.29-2.85l1.11-5.15z"/><path d="M16.04 82.6l3.97 2.74 3.21 2.28q.33.24.08.56-.1.14-.32.18l-5.65-3.67q-2.36-1.2-1.29-2.09z" class="B"/><path d="M109.58 84.64l-13.23 3.47q-8.59 1.28-17.15 4.05a1.08 1.08 0 0 1-1.06-.24q-1.23-1.17.67-1.63l28.28-7.6a1.61 1.6-16.5 0 1 1.94 1.05q.19.55.55.9z" class="C"/><path fill="#093756" d="M112.9 83.67c.34 6.29-10.74 10.61-15.43 11.9q-3.81 1.05-4.89 1.45l-12.48 2.99q-13.57 2.02-26.72-.04l42.97-11.86 13.23-3.47 3.32-.97z"/><path d="M42 84.11l5.88 5.23q.42.37.97.39 4.6.17 6.49 4.33.23.51-.13.92-.54.62-1.37.94-.03.12-.52.06l-.21-.63q-.14-.45-.51-.74-1.7-1.38-3.1-3.05c-.52-.62-1.24-.89-1.97-.66q-.3.1-.13.36.51.84-1.45 1.18a1.47 1.47 0 0 1-1.07-.23q-.94-.65-2.06-.16-.29.13-.39.44l-.65 2a.43.43 0 0 1-.83-.08q-.61-5.39 1.05-10.3z" class="D"/><path d="M71.7 84.4c-1.09 2.59-1.68 6.96-4.75 7.54l-2.58.14L61 87.2q1.79-.01 3.29.24c2.95.49 3.98-2.64 7.41-3.04z" class="X"/><path d="M17.33 84.69l5.65 3.67q.42.44 1.34.72l9.34 6.01q1.81 2.31 4.53 3.03a2.09 2.05 72.1 0 1 .84.44c2.85 2.46 4.83.14 7.43-.34q3.95-.72 7.78-1.81l8.59-1.53a.54.54 0 0 1 .25 1.04l-19.3 5.87c-1.64 1.11-3.81.9-5.58-.24q-10.63-6.89-20.98-13.88l.11-2.98z" class="D"/><path fill="#29698b" d="M6.87 86.7q1 1.36 1.29 2.85.09.44.37.79 5.4 6.56 13.11 9.27 7.67 2.7 17.29 4.61 7.11 1.84 11.09.84 3.88-.96 5.79 2.08 1.01 1.59-.31 2.86-.35.35-.35.84-.01 2.42-1.17 4.51-.25.44-.73.57-2.16.6-2.79 4.32-30.52-6.1-44.38-33.22.92-.19.79-.32z"/><path d="M66.95 91.94q-.2.56.07.72-6.32 1.67-2.65-.58l2.58-.14z" class="D"/><path fill="#175c87" d="M92.58 97.02q2.16.85 3.96 3.31.27.37.28.83.05 1.48 1.26 2.46.4.33.41.85l.03 3.15Q83.62 119.37 64.34 121h-7.58l-6.3-.76q.63-3.72 2.79-4.32.48-.13.73-.57 1.16-2.09 1.17-4.51 0-.49.35-.84 1.32-1.27.31-2.86-1.91-3.04-5.79-2.08-3.98 1-11.09-.84 21 .7 41.17-4.21l12.48-2.99z"/></svg>