<svg xmlns="http://www.w3.org/2000/svg" viewBox="0 0 126 126" xmlns:v="https://vecta.io/nano"><style><![CDATA[.B{fill:#461511}.C{stroke:#99490b}.D{fill:#f7972b}.E{fill:#251316}.F{stroke:#b25109}.G{fill:#f9fafa}.H{fill:#ec7c05}.I{stroke:#8ebed4}.J{stroke:#835322}.K{fill:#486178}.L{fill:#bf480c}.M{fill:#0f0e18}.N{stroke:#b85e1c}.O{fill:#924823}.P{stroke:#bf6214}.Q{stroke:#6c2f1a}.R{stroke:#9f561e}.S{fill:#498dab}.T{stroke:#672b12}.U{stroke:#693815}.V{stroke:#843c12}.W{stroke:#d05805}.X{stroke:#df7206}.Y{fill:#a8cfe1}.Z{fill:#f7be68}.a{fill:#b33404}.b{stroke:#5e879f}.c{stroke:#8e5521}.d{stroke:#5c2e1d}.e{stroke:#db701c}.f{stroke:#f28a18}.g{stroke:#c57027}.h{stroke:#c6a18f}.i{stroke:#848489}.j{stroke:#4f1c12}.k{stroke:#7d250b}.l{stroke:#604343}.m{stroke:#8f4211}.n{fill:#e9e2e4}.o{fill:#c26212}.p{stroke:#4f7e97}.q{stroke:#65a4be}.r{stroke:#396b87}.s{stroke:#7898ad}.t{stroke:#d1e5ee}.u{stroke:#81b8cf}.v{stroke:#b7d4e0}.w{stroke:#5f9db9}.x{stroke:#deae86}.y{stroke:#8f8788}.z{stroke:#d69554}.AA{stroke:#2c4e62}.AB{stroke:#722e11}.AC{stroke:#f7ab4a}.AD{stroke:#dd7d1f}.AE{stroke:#512b1e}.AF{stroke:#dd903d}.AG{stroke:#d66209}.AH{stroke:#2b1215}.AI{stroke:#5b413c}.AJ{stroke:#99350b}.AK{stroke:#5f1d0f}.AL{stroke:#f8c993}.AM{stroke:#a84a0f}.AN{stroke:#962d09}.AO{stroke:#e7831e}.AP{stroke:#89480e}.AQ{stroke:#ec6905}.AR{stroke:#7e4113}.AS{stroke:#9d8079}.AT{stroke:#c5510a}.AU{stroke:#832f0f}.AV{stroke:#bc8862}.AW{fill:#74adc6}.AX{fill:#8ec2d8}.AY{fill:#c2dae5}.AZ{fill:#1e344f}.Aa{fill:#b4937d}.Ab{fill:#2e698e}.Ac{fill:#906f61}.Ad{fill:#78250d}.Ae{fill:#683b32}.Af{fill:#ec5504}.Ag{fill:#d76e10}]]></style><g fill="none" stroke-width="2"><path stroke="#4f94b0" vector-effect="non-scaling-stroke" d="M64.96 0l1.27 1.01q.4.33-.08.54-1 .45-1.08 1.5-.03.47-.36.8l-6.34 6.53q-.34.35-.26.84l.34 2.1q.04.25-.2.31-1.13.29-2.31.24-.07 0-.07 0v.26q0 .01.02.01l5.33.23"/><path vector-effect="non-scaling-stroke" d="M61.22 14.37q-5.41-.18-10.6.76-1.84.34-4.78.35-2.43.01-4.82.66" class="p"/><path vector-effect="non-scaling-stroke" d="M41.02 16.14q-.46.35-.9.44" class="q"/><path vector-effect="non-scaling-stroke" d="M40.12 16.58q-2.16-.56-4.26.58" class="p"/><path vector-effect="non-scaling-stroke" d="M35.86 17.16q.44.23-.48.16" class="q"/><path vector-effect="non-scaling-stroke" d="M35.38 17.32q-1.62-.3-3.26.62" class="p"/><path vector-effect="non-scaling-stroke" d="M32.12 17.94q-1.16 1.2-2.89 1.33" class="q"/><path stroke="#547086" vector-effect="non-scaling-stroke" d="M29.23 19.27q-4.99 1.2-3.53 4.95"/><path stroke="#3a6782" vector-effect="non-scaling-stroke" d="M25.7 24.22q-.81 3.74.11 7.08.31 1.09.29-.05l-.02-1.23"/><path stroke="#9fbecd" vector-effect="non-scaling-stroke" d="M26.08 30.02l.65 6.87"/><path stroke="#4282a2" vector-effect="non-scaling-stroke" d="M26.73 36.89q-.58 2.33-.01 6.61.28 2.08.64 2.96"/><path stroke="#325467" vector-effect="non-scaling-stroke" d="M27.36 46.46l.29 5.44"/><path stroke="#4f94b0" vector-effect="non-scaling-stroke" d="M27.65 51.9q-1.92.62-2.01 2.5-.01.14-.12.21l-.92.6a.45.35-83 0 0-.15.15q-1.08 1.74-2.06 3.57-.84 1.56-2.53 3.25c-2.13 2.13-3.31 4.99-4.94 7.01Q9.15 76.35 3.48 83.65"/><path stroke="#4385a5" vector-effect="non-scaling-stroke" d="M101.76 13.33q.9 1.84-.09 2.73-.35.32-.48.77-.47 1.56-2.14 2.92"/><path stroke="#497792" vector-effect="non-scaling-stroke" d="M99.05 19.75q-6.65-3.23-14.55-3.91"/><path vector-effect="non-scaling-stroke" d="M84.5 15.84q-2.92-.98-3.46.09" class="r"/><path stroke="#79aec6" vector-effect="non-scaling-stroke" d="M81.04 15.93l-10.98-1.17"/><path stroke="#497792" vector-effect="non-scaling-stroke" d="M70.06 14.76q-4.77-.98-8.84-.39"/><path stroke="#38779a" vector-effect="non-scaling-stroke" d="M118.69 33.58l-8.65 9.75q-.16.17-.16.41v.41q0 .52-.51.63l-.67.14q-.32.07-.55.3l-3.87 3.9q-.34.34-.36.81-.01.48-.41.8-2.03 1.61-2.86 3.84a.62.62 0 0 1-1.19-.11L98.65 50"/><path stroke="#525c68" vector-effect="non-scaling-stroke" d="M98.65 50l-.13-5.97"/><path stroke="#9bbbcc" vector-effect="non-scaling-stroke" d="M98.52 44.03l1.55-18.78"/><path stroke="#5895b2" vector-effect="non-scaling-stroke" d="M100.07 25.25q1.97-2.64-.3-4.15"/><path stroke="#426f8b" vector-effect="non-scaling-stroke" d="M99.77 21.1q.85-.27-.72-1.35"/><path vector-effect="non-scaling-stroke" d="M70.06 14.76c-7.45.09-14.33.03-21.48 1.01q-3.4.47-6.93.49" class="s"/><path vector-effect="non-scaling-stroke" d="M41.65 16.26q-.2.21-.63-.12" class="b"/><path stroke="#698ca2" vector-effect="non-scaling-stroke" d="M81.04 15.93l2.99.14"/><path vector-effect="non-scaling-stroke" d="M84.03 16.07l1.49.28" class="s"/><path vector-effect="non-scaling-stroke" d="M85.52 16.35q.27.55-.16.81-.27.17.01.33 1.91 1.1.85 4.86" class="I"/><path stroke="#9bc9dd" vector-effect="non-scaling-stroke" d="M86.22 22.35q-2.25-.72-3.88-.24a.97.97 0 0 1-1.23-1.08q.12-.81-.57-1.14a.41.4-75.3 0 0-.58.34l-.69 10"/><path stroke="#79aec6" vector-effect="non-scaling-stroke" d="M79.27 30.23q-.74.68 1.22.71"/><path vector-effect="non-scaling-stroke" d="M80.49 30.94q-2.03-.28-2.06.81" class="t"/><path stroke="#aeb1af" vector-effect="non-scaling-stroke" d="M78.43 31.75l-3.74-.2"/><path vector-effect="non-scaling-stroke" d="M74.69 31.55l-.52-14.7q-.03-.73-.76-.76l-3.62-.15q-.64-.02-.71.61l-1.72 14.77" class="I"/><path vector-effect="non-scaling-stroke" d="M67.36 31.32l-21.32-.03" class="s"/><path stroke="#c9d9e3" vector-effect="non-scaling-stroke" d="M46.04 31.29q-.14-.6-.22-.08"/><path stroke="#7e8b9c" vector-effect="non-scaling-stroke" d="M45.82 31.21l-1.52-.62"/><path vector-effect="non-scaling-stroke" d="M44.3 30.59l-.5-6.79a.25.25 0 0 0-.49-.01l-.11.96a.55.55 0 0 1-1.09.02l-.34-2.04q-.07-.45.38-.47.79-.03 1.05-.58c.33-.7-.26-2.89.11-4.11q.15-.5-.37-.57-.96-.14-1.29-.74" class="I"/><path vector-effect="non-scaling-stroke" d="M50.91 16.96a.54.53-28.7 0 0-.23.76q.61.98 1.72.68a.69.69 0 0 0 .3-1.16q-.78-.75-1.79-.28m-4.37 1.22a.6.6 0 0 0 0 .64q.52.84 1.13.4a1.051.711-68.9 0 0-.4-1.75q-.47.32-.73.71m14.98 1.22a.19.19 0 0 0-.26-.27q-3.81 2.92-7.14 6.53-.22.24.02.73a.61.61 0 0 0 1.01.14l6.37-7.13m-13.37 8.59q-.34-1.59-1.94-1.13a.56.56 0 0 0 .04 1.09l1.6.34q.39.08.3-.3" class="t"/><path stroke="#39556e" vector-effect="non-scaling-stroke" d="M84.5 15.84q-.2.19-.47.23"/><path vector-effect="non-scaling-stroke" d="M99.77 21.1l-3.29-1.94q-.46-.27-.91.01-.62.4-1.34.4a.22.18 40 0 1-.07-.4q.24 0 .45-.18.44-.37-.11-.5l-8.98-2.14" class="b"/><path stroke="#94a0a2" vector-effect="non-scaling-stroke" d="M74.69 31.55l-.66-.1"/><path vector-effect="non-scaling-stroke" d="M74.03 31.45q-.52-1.05-1.28-.9-3.07.6-5.39.77" class="b"/><path stroke="#647a8e" vector-effect="non-scaling-stroke" d="M44.3 30.59l-3.45-.34"/><path vector-effect="non-scaling-stroke" d="M40.85 30.25l-1.59-11.79q-.07-.52-.56-.36l-5.54 1.83a.58.58 0 0 0-.2.99l.36.3q.38.33-.12.3-.59-.03-.52.19" class="u"/><path stroke="#9bc4d6" vector-effect="non-scaling-stroke" d="M32.68 21.71q-.62.07-.94.82"/><path vector-effect="non-scaling-stroke" d="M31.74 22.53q-1.85 1.18-2.64 3.97" class="u"/><path stroke="#647a8e" vector-effect="non-scaling-stroke" d="M29.1 26.5q-2.76-1.84-3.05-4.39-.07-.57.4-.89l2.78-1.95"/><path vector-effect="non-scaling-stroke" d="M32.12 17.94q2.97.32 3.26-.62m.48-.16q2.47.16 4.26-.58" class="b"/><path vector-effect="non-scaling-stroke" d="M29.99 22.73l-.1-1.23a.39.38 51.8 0 0-.75-.09q-.34 1.06.56 1.51a.2.2 0 0 0 .29-.19" class="I"/><path vector-effect="non-scaling-stroke" d="M100.07 25.25q-.98-.75-.71-.1" class="v"/><path vector-effect="non-scaling-stroke" d="M99.36 25.15q-.19-.87-.63-.33" class="w"/><path stroke="#afc8d5" vector-effect="non-scaling-stroke" d="M98.73 24.82q.83-1.9.21-2.74-.44-.58-.62.12-.7 2.73-4.07 4.86"/><path vector-effect="non-scaling-stroke" d="M94.25 27.06q-2.98 2.1-8.48 2.34" class="w"/><path vector-effect="non-scaling-stroke" d="M85.77 29.4l.45-7.05" class="u"/><path vector-effect="non-scaling-stroke" d="M95.75 21.19q.55.09 1.01-.72.31-.54-.23-.24-.5.27-.89.6-.33.3.11.36" class="w"/><path stroke="#718497" vector-effect="non-scaling-stroke" d="M40.85 30.25q-6.41-.8-11.75-3.75"/><path stroke="#a8cedf" vector-effect="non-scaling-stroke" d="M31.74 22.53q.11.39.36.56a.51.51 0 0 0 .76-.26q.21-.58-.18-1.12"/><path stroke="#c4dee9" vector-effect="non-scaling-stroke" d="M37.78 23.24a1.23 1.22 66.6 0 0 .78-1.98l-.93-1.14a1.68 1.56 9 0 0-2.69 1.81q1.17 1.55 2.84 1.31"/><path stroke="#9e949d" vector-effect="non-scaling-stroke" d="M45.82 31.21c-5.43-.07-15.77-1.68-19.22-6.39q-.13-.18-.33-.07-.14.07-.2.22"/><path stroke="#393d53" vector-effect="non-scaling-stroke" d="M26.07 24.97q-.18-.06-.37-.75"/><path stroke="#6ca8c2" vector-effect="non-scaling-stroke" d="M85.77 29.4q-2.94 1.42-6.5.83"/><path stroke="#99b8c8" vector-effect="non-scaling-stroke" d="M98.73 24.82q-1.21 1.53-4.48 2.24"/><path stroke="#848b9a" vector-effect="non-scaling-stroke" d="M26.07 24.97l.01 5.05"/><path stroke="#99a2ae" vector-effect="non-scaling-stroke" d="M46.04 31.29q.02.73.96.71 11.04-.16 22.08.01c.88.01 1.79-.31 2.62-.55"/><path stroke="#cfbbb1" vector-effect="non-scaling-stroke" d="M71.7 31.46q.47.84 1.56.49a.53.53 0 0 1 .59.83q-.22.29-.91.32"/><path stroke="#877b7d" vector-effect="non-scaling-stroke" d="M72.94 33.1l-25.18.26"/><path stroke="#c9d9e3" vector-effect="non-scaling-stroke" d="M47.76 33.36l-2.79-.52"/><path stroke="#afc8d5" vector-effect="non-scaling-stroke" d="M44.97 32.84q-.24-.04-.51-.42a.88.87 71.4 0 0-.73-.37q-8.78.09-16.08-4.58-.76-.49-.3.29.32.53 1 1.07"/><path stroke="#d6dee5" vector-effect="non-scaling-stroke" d="M28.35 28.83q-.88 2.96-.01 4.61"/><path stroke="#99b8c8" vector-effect="non-scaling-stroke" d="M28.34 33.44l.5 4.28"/><path stroke="#7c787e" vector-effect="non-scaling-stroke" d="M28.84 37.72q.2 2.35.51 4.7.25 1.84-.07 4.65-.4 3.5.59 6.92"/><path stroke="#f0bd88" vector-effect="non-scaling-stroke" d="M29.87 53.99l.03 7.07"/><path stroke="#7c787e" vector-effect="non-scaling-stroke" d="M29.9 61.06l-2.12-14.85"/><path stroke="#8ca6b9" vector-effect="non-scaling-stroke" d="M27.78 46.21l-1.05-9.32"/><path stroke="#a1c4d3" vector-effect="non-scaling-stroke" d="M99.36 25.15c-4.15 3.93-13.4 5.28-18.87 5.79"/><path stroke="#b19b96" vector-effect="non-scaling-stroke" d="M98.52 44.03l-.92 2.43"/><path vector-effect="non-scaling-stroke" d="M97.6 46.46l-3.89 30.61a.29.29 0 0 1-.58 0q-.44-3.95-.04-8.07.91-9.38 1.72-18.76.04-.44-.4-.47-.32-.02-.4.2" class="x"/><path stroke="#a08886" vector-effect="non-scaling-stroke" d="M94.01 49.97l-3.3 1.57"/><path vector-effect="non-scaling-stroke" d="M90.71 51.54q-.56.2-.61-1.08" class="x"/><path vector-effect="non-scaling-stroke" d="M90.1 50.46q5.8-1.67 5.47-5.32" class="y"/><path vector-effect="non-scaling-stroke" d="M95.57 45.14l1.48-14.49q.06-.52-.47-.55-.37-.03-.7.38" class="v"/><path vector-effect="non-scaling-stroke" d="M95.88 30.48q-1.39-.27-1.9.3" class="t"/><path vector-effect="non-scaling-stroke" d="M93.98 30.78c-2.19.26-3.7-.41-5.93.14q-3.74.92-7.47 1.22" class="v"/><path stroke="#d7c7bc" vector-effect="non-scaling-stroke" d="M80.58 32.14l-2.15-.39"/><path stroke="#f1eeef" vector-effect="non-scaling-stroke" d="M96.88 27.88q-.73-.08-1.24.04a.49.49 0 0 0 .17.96q1.01-.12 1.68-.88a.22.21 25.5 0 0-.13-.36q-.34-.05-.48.24"/><path vector-effect="non-scaling-stroke" d="M44.97 32.84q-.05 4.01 1.72 6.82" class="I"/><path stroke="#837b75" vector-effect="non-scaling-stroke" d="M46.69 39.66h-1.15"/><path stroke="#425e6f" vector-effect="non-scaling-stroke" d="M45.54 39.66l-3.6.28"/><path vector-effect="non-scaling-stroke" d="M41.94 39.94l-.59-6.63q-.06-.7-.75-.81l-5.92-.91q-.55-.08-.81.41c-1.54 2.91-.01 7.09.29 10.2" class="I"/><path stroke="#425e6f" vector-effect="non-scaling-stroke" d="M34.16 42.2l-1.67 1.05"/><path stroke="#9bc4d6" vector-effect="non-scaling-stroke" d="M32.49 43.25l-1.64-12.51q-.06-.52-.46-.86-.9-.78-2.04-1.05"/><path stroke="#69747f" vector-effect="non-scaling-stroke" d="M32.49 43.25q-.76.58-1.47.61-.56.03-.66-.53l-.98-5.6"/><path stroke="#86b4c8" vector-effect="non-scaling-stroke" d="M29.38 37.73q.2-2.39-1.04-4.29"/><path stroke="#4d606e" vector-effect="non-scaling-stroke" d="M95.57 45.14q.29-1.07-1.18-1.55"/><path stroke="#76696a" vector-effect="non-scaling-stroke" d="M94.39 43.59q-1.67-1.28-4.05-1.89"/><path stroke="#4d606e" vector-effect="non-scaling-stroke" d="M90.34 41.7l-5.53-1.35"/><path vector-effect="non-scaling-stroke" d="M84.81 40.35l.74-7.54a.62.61-1.9 0 0-.71-.66l-4.03.61" class="I"/><path stroke="#94a0a2" vector-effect="non-scaling-stroke" d="M80.81 32.76q.12-.54-.23-.62"/><path vector-effect="non-scaling-stroke" d="M93.98 30.78q.44-.3.38.22-.7 5.52-.38 11.19a.37.37 0 0 0 .7.16q.53-.98.25-2.15a.95.91-43.9 0 1 .02-.5q1.42-4.65.93-9.22" class="I"/><path stroke="#7e7a7b" vector-effect="non-scaling-stroke" d="M74.03 31.45q-1.47-.65-2.33.01"/><path stroke="#aeb1af" vector-effect="non-scaling-stroke" d="M80.81 32.76q-1.59-.26-2.77.09-.67.2-.13.64 2.72 2.19 2.52 5.54"/><path stroke="#d6a973" vector-effect="non-scaling-stroke" d="M80.43 39.03q.77 2.55-.54 3.2-.62.31-.6-.38c.1-3.2.69-5.29-3.45-5.22q-1.58.03-3.21-.12"/><path vector-effect="non-scaling-stroke" d="M72.63 36.51q-.47-1.29.61-2.56" class="z"/><path stroke="#6d534a" vector-effect="non-scaling-stroke" d="M73.24 33.95q1.36.31 1.97-.06a.26.25 33.2 0 0-.1-.47l-2.17-.32"/><path stroke="#5c6f7d" vector-effect="non-scaling-stroke" d="M41.94 39.94l-1.05.39"/><path stroke="#b48c77" vector-effect="non-scaling-stroke" d="M40.89 40.33l-2.48.57"/><path stroke="#5c6f7d" vector-effect="non-scaling-stroke" d="M38.41 40.9l-4.25 1.3"/><path stroke="#67717c" vector-effect="non-scaling-stroke" d="M84.81 40.35h-.6"/><path stroke="#9c9fa1" vector-effect="non-scaling-stroke" d="M84.21 40.35l-2.91-.54"/><path stroke="#d0c7a5" vector-effect="non-scaling-stroke" d="M81.3 39.81l-.87-.78"/><path vector-effect="non-scaling-stroke" d="M29.38 37.73q.04-.32-.22-.46-.22-.11-.32.45" class="AA"/><path stroke="#67717c" vector-effect="non-scaling-stroke" d="M47.76 33.36q8.15.45 16.24.69.4.02.54.44"/><path stroke="#9d8c82" vector-effect="non-scaling-stroke" d="M64.54 34.49q-3.84 1.07-7.9 1.03c-2.89-.02-4.53.81-4.8 3.76q-.05.62-.62.36-2.11-.98-4.53.02"/><path vector-effect="non-scaling-stroke" d="M73.24 33.95l-1.29-.11" class="c"/><path vector-effect="non-scaling-stroke" d="M71.95 33.84q-.93-.11-1.93.2" class="AB"/><path vector-effect="non-scaling-stroke" d="M70.02 34.04q-2.81-.47-5.49 1.17" class="c"/><path vector-effect="non-scaling-stroke" d="M64.53 35.21q-.08-.62.01-.72" class="d"/><path vector-effect="non-scaling-stroke" d="M71.95 33.84q-.16.52.07 1.12.14.38-.24.53l-2.15.86q-.36.14-.64-.14l-.41-.41q-.65-.64.25-.75l1.49-.19a.34.34 0 0 0 .16-.61q-.17-.13-.46-.21" class="e"/><path vector-effect="non-scaling-stroke" d="M72.63 36.51q.67 4.52.49 8.95c-.05 1.41.72 2.52 1.14 3.85q.14.46.06.94-.23 1.54.26 3.04a.62.6 72.2 0 0 .76.4l3.12-.95" class="AC"/><path vector-effect="non-scaling-stroke" d="M78.46 52.74q.03.61.5.81.39.16.24.55-.13.3-.48.52" class="AD"/><path vector-effect="non-scaling-stroke" d="M78.72 54.62q-.06-.76-.21-.75-1.79.07-2.57.69a1.24 1.24 0 0 1-2-.92l-.16-3.82q-.03-.72-.72-.51l-3.31.99a2.08 2.07-8.4 0 1-2.68-1.98q-.01-3.06-1.8-3.01" class="f"/><path vector-effect="non-scaling-stroke" d="M65.27 45.31q2.06-2.52.19-4.5-.17-.18-.01-.38l.77-.93" class="AC"/><path vector-effect="non-scaling-stroke" d="M66.22 39.5l5.38-1.98a.12.12 0 0 0-.04-.24q-5.08-.16-10.23.93-1.7.37-2.13 1.43-.45 1.12-.28 2.91" class="e"/><path vector-effect="non-scaling-stroke" d="M58.92 42.55Q55.7 41.24 55.43 39q-.07-.57.47-.76l8.63-3.03" class="g"/><path vector-effect="non-scaling-stroke" d="M68.13 42.73q.1 1.01 1.08 1.2.86.17 1.52-.02a.23.23 0 0 0-.03-.44q-1.8-.31-2.77-2.1-.29-.54-.76-.27a.29.29 0 0 0-.03.49l.58.42a1.01.99 15.9 0 1 .41.72" class="e"/><path stroke="#316e92" vector-effect="non-scaling-stroke" d="M123.71 46.23q-.54.03-.96-.57-.27-.38-.5.02-1.48 2.55-3.84 4.38-.34.26-.38.69l-.02.29q-.04.44-.35.75l-8.48 8.56q-.13.13-.13.32 0 .17 0 .34a.87.86-22.5 0 1-.24.57l-6.53 6.75q-.17.17-.17.41 0 .17-.02.34-.05.53-.46.85-2.43 1.87-3.24 4.82a.39.39 0 0 1-.71.1l-1.34-2.26"/><path stroke="#564c52" vector-effect="non-scaling-stroke" d="M96.34 72.59l.05-5.71"/><path stroke="#7b6a54" vector-effect="non-scaling-stroke" d="M96.39 66.88q1.04-2.42.84-5.55"/><path stroke="#3d4454" vector-effect="non-scaling-stroke" d="M97.23 61.33q.67-2.17.31-4.37"/><path stroke="#7b6a54" vector-effect="non-scaling-stroke" d="M97.54 56.96q.83-2.36.55-5.11"/><path stroke="#4e5764" vector-effect="non-scaling-stroke" d="M98.09 51.85q.33-.12.56-1.85"/><path stroke="#a94818" vector-effect="non-scaling-stroke" d="M58.92 42.55q.46 2.11 3.63 3.83"/><path vector-effect="non-scaling-stroke" d="M62.55 46.38l2.42 7.5" class="P"/><path vector-effect="non-scaling-stroke" d="M64.97 53.88q-.57-.41-.87-.22-.1.06-.13.21-.04.17-.09.33-.13.42-.56.42l-.76.01" class="Q"/><path vector-effect="non-scaling-stroke" d="M62.56 54.63q.71-.16.57-.7-.07-.28-.13-.31-.12-.06-.24-.12-.21-.1-.17-.34c.84-4.36-.58-6.45-3.9-8.99q-.63-.48-1.99-2.01-1.23-1.38-3.17-1.55a.55.55 0 0 1-.16-1.06q.2-.09.37-.16.12-.05.14-.17.4-2.09 2.46-2.39.92-.13.07-.51c-1.89-.84-4.02.47-3.66 2.6a1.55 1.54-.1 0 1-1.77 1.77q-3.24-.53-3.78 2.74-.09.52.43.63.15.04.34.01" class="g"/><path stroke="#7d422b" vector-effect="non-scaling-stroke" d="M47.97 44.07q-.53.11-.62.43-.06.2.14.62"/><path vector-effect="non-scaling-stroke" d="M47.49 45.12l-4.59 2.39" class="P"/><path vector-effect="non-scaling-stroke" d="M42.9 47.51q-.12-2.22-.82-2.2" class="h"/><path vector-effect="non-scaling-stroke" d="M42.08 45.31q1.8-2.16 4.22-2.31.25-.01.19-.25l-.11-.48q-.11-.47-.56-.28-3.11 1.31-4.41 3.3" class="AE"/><path vector-effect="non-scaling-stroke" d="M41.41 45.29q.81 1.45-3.43 3.16" class="g"/><path vector-effect="non-scaling-stroke" d="M37.98 48.45l-3.34 1.03q-.31.1-.31-.23 0-.16.04-.31.07-.26.44-.44 2.56-1.23 4.98-2.77a.12.12 0 0 0-.1-.22l-6.62 1.93" class="d"/><path stroke="#915c42" vector-effect="non-scaling-stroke" d="M33.07 47.44q-.4-.92-.03-1.33"/><path vector-effect="non-scaling-stroke" d="M33.04 46.11l9.45-3.12a.78.76-81.2 0 0 .4-.3q1.06-1.5 2.89-1.83a.59.59 0 0 0 .02-1.15q-.1-.02-.26-.05" class="AE"/><path vector-effect="non-scaling-stroke" d="M62.56 54.63c-3.89-4.22-4.24-10.19-10.36-11.81" class="R"/><path vector-effect="non-scaling-stroke" d="M52.2 42.82q-1.91.1-3.64 1.1" class="f"/><path stroke="#b0692f" vector-effect="non-scaling-stroke" d="M48.56 43.92l-.59.15"/><path vector-effect="non-scaling-stroke" d="M56.754 43.029a.26.26 0 0 0-.367-.018l-.178.161a.26.26 0 0 0-.018.367l4.635 5.112a.26.26 0 0 0 .367.018l.178-.161a.26.26 0 0 0 .018-.367l-4.635-5.111" class="R"/><path stroke="#c49765" vector-effect="non-scaling-stroke" d="M81.3 39.81q1.48 1.91.03 3.37-.32.33 0 .64.09.09.18.19.58.61.59-.23l.01-.52a.25.25 0 0 1 .42-.18l1.86 1.62"/><path stroke="#8e693f" vector-effect="non-scaling-stroke" d="M84.39 44.7q.08 1.77 2.27 1.37.22-.04.22.19v.38a.31.3 6.2 0 1-.37.29q-1.55-.37-1.97.57"/><path vector-effect="non-scaling-stroke" d="M84.54 47.5q-.95 3.25-4.42 3.9-.5.09-.78.51-.39.57-.88.83" class="AF"/><path stroke="#c49765" vector-effect="non-scaling-stroke" d="M81.04 48.82l-3.32 1.42q-.82.36.07.3 2.42-.15 4.43-1.3a.46.46 0 0 0-.07-.82q-.42-.16-.71.14-.18.17-.4.26"/><path stroke="#1f3c53" vector-effect="non-scaling-stroke" d="M27.78 46.21q-.39-.02-.42.25"/><path stroke="#db833a" vector-effect="non-scaling-stroke" d="M66.22 39.5q-2.98.61-5.52-.51a.62.62 0 0 0-.87.6q.12 2.08 1.07 3.41"/><path vector-effect="non-scaling-stroke" d="M60.9 43l1.65 3.38" class="AG"/><path vector-effect="non-scaling-stroke" d="M38.41 40.9q-.48 1.2-2.68 1.56-.86.14-1.09.76a.49.49 0 0 0 .58.65l6.13-1.58q.47-.12.4-.6-.11-.72-.86-1.36" class="T"/><path stroke="#503f3d" vector-effect="non-scaling-stroke" d="M33.04 46.11q.15-2.29-1.23-1.84a1.02 1-7.9 0 0-.69.89l-.17 2.96q-.02.41.38.48.81.14 1.64-.05"/><path stroke="#1a1117" vector-effect="non-scaling-stroke" d="M32.97 48.55q-.4.5.8 1.66"/><path vector-effect="non-scaling-stroke" d="M33.77 50.21l-2.98-.74q-.53-.13-.64.4-.08.36.06.72.17.42.77.76 4.11 2.26 9.99 3.14" class="i"/><path vector-effect="non-scaling-stroke" d="M40.97 54.49l-6.41-.27" class="J"/><path vector-effect="non-scaling-stroke" d="M34.56 54.22q-1.19 1.4-.8 2.51" class="AH"/><path vector-effect="non-scaling-stroke" d="M33.76 56.73q-.26.17-.25.47" class="U"/><path vector-effect="non-scaling-stroke" d="M33.51 57.2l-.73.6" class="AH"/><path vector-effect="non-scaling-stroke" d="M32.78 57.8l-.94-.53" class="J"/><path stroke="#62514b" vector-effect="non-scaling-stroke" d="M31.84 57.27l-.22-3.7q-.03-.52-.53-.39-.32.09-.24.5"/><path vector-effect="non-scaling-stroke" d="M30.85 53.68l-.39.51q-.18.25-.45.09-.18-.12-.14-.29" class="J"/><path stroke="#f29d37" vector-effect="non-scaling-stroke" d="M65.27 45.31q-1.31.86-4.37-2.31"/><path vector-effect="non-scaling-stroke" d="M84.21 40.35q.56.96.63 2.37" class="AI"/><path stroke="#6b4239" vector-effect="non-scaling-stroke" d="M84.84 42.72q.12.39-.04.94"/><path vector-effect="non-scaling-stroke" d="M84.8 43.66q-.43.63-.41 1.04" class="AI"/><path vector-effect="non-scaling-stroke" d="M90.34 41.7q-.95.17-1.34.58-.48.52.19.71.93.26.59.97-.52 1.07-1.3.91" class="j"/><path vector-effect="non-scaling-stroke" d="M88.48 44.87h-.61q-.52.01-.41.52.12.56.53.74 2.7 1.15 5.46 1.5a.67.67 0 0 0 .31-1.29l-2.81-1.04" class="c"/><path vector-effect="non-scaling-stroke" d="M90.95 45.3q0-.43.17-.68.24-.36.61-.13 2.34 1.43 2.66-.9" class="j"/><path stroke="#743b14" vector-effect="non-scaling-stroke" d="M90.1 50.46q-.65.05-.75-.57a.47.46-30.8 0 1 .11-.41l.48-.54q.4-.46-.09-.81l-1.81-1.28q-.57-.41-1.01.13-1.42 1.75-2.49.52"/><path stroke="#361414" vector-effect="non-scaling-stroke" d="M84.8 43.66q2.08.94 3.13.3a.4.4 0 0 0-.14-.74l-2.95-.5"/><path vector-effect="non-scaling-stroke" d="M42.08 45.31q0 .07 0 .13" class="i"/><path vector-effect="non-scaling-stroke" d="M42.08 45.44q-.34-.07-.67-.15" class="J"/><path vector-effect="non-scaling-stroke" d="M90.95 45.3q-1.16.22-2.47-.43" class="N"/><path vector-effect="non-scaling-stroke" d="M52.2 42.82q-1.45 1.54 1.85 1.98 1.15.16 1.75.57 1.02.7 1.17 1.56" class="C"/><path vector-effect="non-scaling-stroke" d="M56.97 46.93q-2.81.1-2.94 4.64-.02.66-.56.27l-1.7-1.27a.8.78-44.9 0 0-.95.01l-4.3 3.21" class="f"/><path stroke="#f3bb80" vector-effect="non-scaling-stroke" d="M46.52 53.79q-.67-.16-1.03-.57a.45.45 0 0 1 .11-.68l4.58-2.66a.42.42 0 0 0-.35-.76q-3.41 1.24-6.04 3.7-.55.51-.6-.24l-.29-5.07"/><path stroke="#aa5c1c" vector-effect="non-scaling-stroke" d="M47.49 45.12q2.05-.88 1.07-1.2"/><path vector-effect="non-scaling-stroke" d="M44.32 48.35a.43.43 0 0 0 .51.68l1.52-.89a.21.21 0 0 0-.06-.39q-1.1-.25-1.97.6m20.65 5.53q1.98 1.24 4.79 2.33 1.46.57 1.9-.54.18-.46.67-.47 1.2-.03 2.1.7.38.31.86.24.79-.11 1.34-.64" class="C"/><path vector-effect="non-scaling-stroke" d="M76.63 55.5c5.08.34 9.48-2.22 14.08-3.96m3.3-1.57l-.99 2.47q-.13.34-.45.17-.75-.4-1.6-.48a.39.38-37 0 0-.11.76q1.4.25 1.29 1.61-.05.64-.62.35c-3.95-2.02-6.08-.15-9.49 1.47" class="V"/><path vector-effect="non-scaling-stroke" d="M82.04 56.32l-6.44 1.13q-.52.09-.61.6l-.62 3.63" class="AJ"/><path vector-effect="non-scaling-stroke" d="M74.37 61.68l-.88 5.76" class="C"/><path vector-effect="non-scaling-stroke" d="M73.49 67.44q-.25.23-.63.38-.35.13-.51-.31" class="k"/><path vector-effect="non-scaling-stroke" d="M72.35 67.51q-.09-1.7.62-3.54.17-.44-.07-.85l-.33-.58q-.29-.5-.05-1.03l1.33-2.9a.49.49 0 0 0-.42-.69l-3.44-.2" class="C"/><path vector-effect="non-scaling-stroke" d="M69.99 57.72l-4.38-2.1q-.49-.24-1-.08-2.25.66-2.85-.06" class="AK"/><path vector-effect="non-scaling-stroke" d="M61.76 55.48l-4.79-8.55" class="R"/><path stroke="#d76f0c" vector-effect="non-scaling-stroke" d="M78.72 54.62l-2.09.88"/><path vector-effect="non-scaling-stroke" d="M33.07 47.44q.2.58-.1 1.11" class="AI"/><path stroke="#954f22" vector-effect="non-scaling-stroke" d="M98.09 51.85l-.49-5.39"/><path stroke="#2b668c" vector-effect="non-scaling-stroke" d="M126 62.62q-3.7 4.75-7.95 8.94-.07.07-3.07 2.23-1.82 1.31-3.28 3.96-.62 1.14-3.36 3.26-.4.31-.42.82-.02.71-.28 1.04-1.92 2.51-4.4 3.37"/><path stroke="#264f6f" vector-effect="non-scaling-stroke" d="M103.24 86.24q-.25-1.09-1.49-1.26-3.45-.45-6.79-1.02"/><path stroke="#53474e" vector-effect="non-scaling-stroke" d="M94.96 83.96l1.38-11.37"/><path vector-effect="non-scaling-stroke" d="M46.52 53.79q.64.03.7.8" class="AL"/><path stroke="#b99084" vector-effect="non-scaling-stroke" d="M47.22 54.59l-3.24-.88a.61.61 0 0 0-.77.65l.82 9.43"/><path vector-effect="non-scaling-stroke" d="M44.03 63.79q0 .85-1.19.11a.95.92-78.7 0 1-.44-.68l-.8-6.39a.36.36 0 0 0-.68-.11l-.25.52q-.24.49-.42-.02-.36-.99.72-2.73" class="AL"/><path vector-effect="non-scaling-stroke" d="M33.77 50.21l-.45 1.02q-.22.48.22.76.26.16.67-.03" class="y"/><path stroke="#a08886" vector-effect="non-scaling-stroke" d="M34.21 51.96q1.23.5 2.49.1"/><path vector-effect="non-scaling-stroke" d="M36.7 52.06q1.27 1.35 3.06.98.57-.12.32-.65l-.35-.76a.44.44 0 0 1 .55-.6l.93.33q.32.12.35-.22l.52-5.7" class="AL"/><path vector-effect="non-scaling-stroke" d="M37.98 48.45c-.67.72-2.92 1.78-3.17 2.33q-.14.32-.01.69" class="c"/><path stroke="#361414" vector-effect="non-scaling-stroke" d="M34.8 51.47q-.63.31-.59.49"/><path vector-effect="non-scaling-stroke" d="M36.7 52.06q.54.03.71-.56a.38.37-87.5 0 0-.43-.48l-2.18.45" class="R"/><path vector-effect="non-scaling-stroke" d="M29.9 61.06q1.12 3.45.81 7.46" class="J"/><path vector-effect="non-scaling-stroke" d="M30.71 68.52l-1.29 1.32" class="T"/><path vector-effect="non-scaling-stroke" d="M29.42 69.84L27.65 51.9" class="AA"/><path vector-effect="non-scaling-stroke" d="M97.54 56.96q-.96 1.65-.31 4.37" class="V"/><path stroke="#9d4410" vector-effect="non-scaling-stroke" d="M96.39 66.88l-1.83 11.47q-.08.46-.41.78l-1.96 1.9"/><path vector-effect="non-scaling-stroke" d="M92.19 81.03q-1.06-2.88-.76-5.77" class="V"/><path vector-effect="non-scaling-stroke" d="M91.43 75.26q1.12-3.49.41-6.95" class="U"/><path stroke="#743b14" vector-effect="non-scaling-stroke" d="M91.84 68.31l-.26-9.88q-.02-.48-.38-.8-.32-.27-.68-.33"/><path stroke="#d76f0c" vector-effect="non-scaling-stroke" d="M90.52 57.3l-.16-.72q-.14-.61-.76-.55l-4.29.39q-.91.08-.4.83 1.77 2.6.6 3.83"/><path stroke="#d75c0b" vector-effect="non-scaling-stroke" d="M85.51 61.08q-.33-2.55-3.47-4.76"/><path vector-effect="non-scaling-stroke" d="M61.76 55.48q-.95 1.31-4.02 1.55" class="N"/><path vector-effect="non-scaling-stroke" d="M57.74 57.03q-.21-1.2-3.37-1.06" class="AC"/><path vector-effect="non-scaling-stroke" d="M54.37 55.97q-.48-1.28-1.77-1.58a1.08 1.05 34.8 0 0-.78.13q-2.07 1.25-4.6.07" class="N"/><path stroke="#846b5c" vector-effect="non-scaling-stroke" d="M29.42 69.84l.65 6.12"/><path vector-effect="non-scaling-stroke" d="M30.07 75.96l.55 6.05" class="AA"/><path vector-effect="non-scaling-stroke" d="M30.62 82.01q.05 1.67-.81 2.74" class="r"/><path stroke="#3c7b9d" vector-effect="non-scaling-stroke" d="M29.81 84.75q-.13-.09-.41-.06-.19.02-.38.16-5.51 3.92-9.3 9.09a1.16 1.16 0 0 0 .79 1.84q1.87.25 1.53 1.43"/><path vector-effect="non-scaling-stroke" d="M22.04 97.21l.07 1.7" class="r"/><path stroke="#34617d" vector-effect="non-scaling-stroke" d="M22.11 98.91l3.01 2.95"/><path stroke="#3f80a1" vector-effect="non-scaling-stroke" d="M25.12 101.86q-1.02.89-1.05 2.2-.01.41-.3.71l-3.24 3.44q-.3.32-.69.11l-1.38-.75"/><path vector-effect="non-scaling-stroke" d="M31.84 57.27q-1.25-.27-.99-3.59" class="z"/><path vector-effect="non-scaling-stroke" d="M32.78 57.8q.19.4.18.82 0 .15-.08.25-.11.15-.29.2-.32.09-.22.4.1.32.4.64" class="R"/><path vector-effect="non-scaling-stroke" d="M32.77 60.11l1.49 5.03" class="AD"/><path vector-effect="non-scaling-stroke" d="M34.26 65.14l.3 6.14" class="J"/><path vector-effect="non-scaling-stroke" d="M34.56 71.28q-1.18 1.42-1.31 3.24a.72.72 0 0 1-1.42.08l-1.12-6.08" class="e"/><path stroke="#b8723b" vector-effect="non-scaling-stroke" d="M54.37 55.97l-5.33.18a.25.25 0 0 0 0 .5l8.7.38"/><path vector-effect="non-scaling-stroke" d="M69.99 57.72q-.72.92-1.99-.36-.35-.35-1.67-.23" class="F"/><path stroke="#ba6c08" vector-effect="non-scaling-stroke" d="M66.33 57.13l-2.08 5.95"/><path stroke="#853718" vector-effect="non-scaling-stroke" d="M64.25 63.08q-1.71-.39-1.05 2.44.1.41-.1.79-.91 1.66.81 3.07.37.31.85.39 2.47.45 2.26 1.54"/><path vector-effect="non-scaling-stroke" d="M67.02 71.31c-3.06-.8-7.42-5.01-10.25-1.71-1.33 1.55-1.32 4.81-1.85 6.95" class="F"/><path vector-effect="non-scaling-stroke" d="M54.92 76.55q.03.45-.08.74a.46.46 0 0 1-.86 0l-.16-.45a.34.33 37.9 0 0-.65.08q-.19 2.01-1.14 1.56" class="AM"/><path vector-effect="non-scaling-stroke" d="M52.03 78.48l-.08-1.92q-.03-.74-.58-.25l-1.08.97" class="N"/><path vector-effect="non-scaling-stroke" d="M50.29 77.28q-.58-.18-.05-1.1.21-.37.71-.73 3.47-2.52 5-6.65.25-.66-.42-.45-1.38.44-2.13 1.38" class="AM"/><path vector-effect="non-scaling-stroke" d="M53.4 69.73q-3.46 3.35-3.77 1.59" class="AN"/><path vector-effect="non-scaling-stroke" d="M49.63 71.32q1.85-.72 2.26-2.38" class="F"/><path vector-effect="non-scaling-stroke" d="M51.89 68.94l.49-1.43" class="AN"/><path vector-effect="non-scaling-stroke" d="M52.38 67.51l4.86-4.49" class="F"/><path vector-effect="non-scaling-stroke" d="M57.24 63.02q.39-.48.76-.38.22.06.31.66" class="j"/><path vector-effect="non-scaling-stroke" d="M58.31 63.3q-1.14.95-1.75 2.07-.42.77.28.23 1.27-.98 2.59-1.91c2.04-1.44 4.64-1.28 5.44-4.68a.38.38 0 0 0-.28-.46q-.13-.03-.3-.03" class="AM"/><path vector-effect="non-scaling-stroke" d="M64.29 58.52l.45-.87q.22-.42-.24-.54-2.29-.59-2.02.77" class="j"/><path vector-effect="non-scaling-stroke" d="M62.48 57.88l-10.24.04a.91.9 18 0 0-.73.37q-.4.57-1.09.79a.51.51 0 0 0-.17.88q.3.26.81.2" class="F"/><path stroke="#ba6c08" vector-effect="non-scaling-stroke" d="M51.06 60.16q-.48.83-.34 1.15"/><path vector-effect="non-scaling-stroke" d="M50.72 61.31q-1.36.84-2.65-.52a1.46 1.46 0 0 0-2.52.89q-.22 2.94 1.47 4.07" class="N"/><path vector-effect="non-scaling-stroke" d="M47.02 65.75q1.14 2.04-.01 1.86" class="AN"/><path vector-effect="non-scaling-stroke" d="M47.01 67.61l-1.69-1.14" class="F"/><path stroke="#853718" vector-effect="non-scaling-stroke" d="M45.32 66.47l-.96-2.6"/><path vector-effect="non-scaling-stroke" d="M44.36 63.87q-.01.42-.33-.08" class="N"/><path vector-effect="non-scaling-stroke" d="M44.36 63.87l.21.91q.1.43-.19.78-.94 1.12-.3 3.26" class="g"/><path vector-effect="non-scaling-stroke" d="M44.08 68.82q-.21.95-2.06-.02a.5.5 0 0 0-.65.73q.6.86 1.7.42a.4.39-8 0 1 .54.4l-.05.48a.64.63 20.2 0 1-1 .46q-1.79-1.25-3.93-1.53" class="AO"/><path vector-effect="non-scaling-stroke" d="M38.63 69.76q-1.4-1.3-1.44-3.37" class="J"/><path vector-effect="non-scaling-stroke" d="M37.19 66.39q.28-.38 1.13-.56.53-.11.31-.61-1.07-2.41-2.38-4.65-.97-1.64.22-4.24" class="AD"/><path vector-effect="non-scaling-stroke" d="M36.47 56.33q-2.25.5-1.91-2.11" class="R"/><path vector-effect="non-scaling-stroke" d="M36.47 56.33q-2.13 1.39-2.71.4" class="V"/><path vector-effect="non-scaling-stroke" d="M90.52 57.3q-1.28 5.59-.53 11.54" class="AP"/><path stroke="#7e450f" vector-effect="non-scaling-stroke" d="M89.99 68.84q-1.35-.46-2.08 3.4"/><path vector-effect="non-scaling-stroke" d="M87.91 72.24l-2.7.39" class="AQ"/><path vector-effect="non-scaling-stroke" d="M85.21 72.63q-4.12-1.62-7.73.15c-2.11 1.03-2.89.97-4.94.24q-.52-.19-.79.18-.25.32.13.48l3.34 1.45" class="C"/><path vector-effect="non-scaling-stroke" d="M75.22 75.13q.33.74 1.14 1.34" class="W"/><path stroke="#f58c03" vector-effect="non-scaling-stroke" d="M76.36 76.47c-1.16.16-1.95.24-3.05-.34q-4.29-2.29-8.52-2.71"/><path vector-effect="non-scaling-stroke" d="M64.79 73.42q-2.89-2.98-4.67-.35" class="AG"/><path stroke="#f5a203" vector-effect="non-scaling-stroke" d="M60.12 73.07q-.67 3.67-4.75 4.77"/><path stroke="#e2750b" vector-effect="non-scaling-stroke" d="M55.37 77.84q-.54-.75-.45-1.29"/><path vector-effect="non-scaling-stroke" d="M67.02 71.31q-.22 1.01 2.49 1.19" class="P"/><path vector-effect="non-scaling-stroke" d="M69.51 72.5q1.36.2 2.53-.93.38-.37.09-.82l-.51-.78" class="C"/><path vector-effect="non-scaling-stroke" d="M71.62 69.97l-1.25-2.82a.31.3 69.8 0 0-.36-.17q-.12.03-.24.07-.23.06-.14.27l1.48 3.65" class="P"/><path vector-effect="non-scaling-stroke" d="M71.11 70.97q-.79.2-1.48-.6c-1.25-1.45-.23-2.88-2.25-4.43" class="C"/><path stroke="#f49704" vector-effect="non-scaling-stroke" d="M67.38 65.94l1.25-.8q.34-.21.27-.6l-1.23-6.63a.55.54-78.1 0 0-.23-.36q-.44-.33-1.11-.42"/><path vector-effect="non-scaling-stroke" d="M72.35 67.51q-.31 1.25-.16 1.95.32 1.54.63.04l.1-.46a.5.49 25.5 0 1 .8-.28q1.27 1.05 2.84 1.13.35.02.54-.17.21-.21.24-.51.06-.53-.47-.56-2.18-.14-3.38-1.21" class="W"/><path vector-effect="non-scaling-stroke" d="M74.37 61.68q1.97-1.44 2.72-3.43a.93.93 0 0 1 1.78.47q-.26 1.64 1.58 1.49a.66.66 0 0 1 .69.53q.39 1.98-.93 3.45-.47.53.24.54 5.07.12 5.06-3.65" class="AQ"/><path vector-effect="non-scaling-stroke" d="M70.25 63.21l-.46 1.76a.67.53-35.1 0 0 1.2.07q.31-.92.01-1.85a.39.39 0 0 0-.75.02" class="P"/><path vector-effect="non-scaling-stroke" d="M82.99 69.57q1.37 1.66 3.32 1.38a.48.48 0 0 0 .04-.94c-2.3-.52-2.37-3.37-5.69-1.32q-.58.36.09.45l1.92.25a.52.48-13.5 0 1 .32.18" class="AP"/><path vector-effect="non-scaling-stroke" d="M37.19 66.39l-2.61-5.85q-.37-.82-.14.05l2.1 8.04q.14.53-.38.34-1.42-.54-1.19-1.76.43-2.3-.71-2.07" class="U"/><path vector-effect="non-scaling-stroke" d="M32.77 60.11q1.28-.95.74-2.91" class="V"/><path vector-effect="non-scaling-stroke" d="M64.29 58.52q-.45 2.12-2.19 1.8-.48-.09-.94.09-2 .76-2.85 2.89" class="AR"/><path vector-effect="non-scaling-stroke" d="M57.24 63.02q.32-2.53 2.77-4.05.34-.21.12.12l-.28.45a.34.34 0 0 0 .28.53q2.03.04 2.35-2.19" class="AP"/><path stroke="#a1640a" vector-effect="non-scaling-stroke" d="M67.38 65.94q-.23.63-.08.85"/><path stroke="#c77d13" vector-effect="non-scaling-stroke" d="M67.3 66.79q.15.42.05.75-.16.53-.68.3-3.22-1.43-2.42-4.76"/><path stroke="#1a1117" vector-effect="non-scaling-stroke" d="M91.84 68.31q-1.06-.18-1.03 1.19.02.59-.49.28-.29-.18-.33-.94"/><path vector-effect="non-scaling-stroke" d="M52.38 67.51q-3.21 2.38-4.47.06-.29-.54.32-.62 4.69-.62 7.02-4.17" class="W"/><path stroke="#f49704" vector-effect="non-scaling-stroke" d="M55.25 62.78q-.09-1.55-1.56-1.81c-1.22-.23-1.66-.42-2.63-.81"/><path stroke="#733e14" vector-effect="non-scaling-stroke" d="M38.63 69.76q-.11.15-.22.31"/><path vector-effect="non-scaling-stroke" d="M38.41 70.07q-.62-.06-.77.13" class="J"/><path stroke="#7e450f" vector-effect="non-scaling-stroke" d="M37.64 70.2l-.78-.01q-.62-.01-.51.6.59 3.12-.68 5.84"/><path vector-effect="non-scaling-stroke" d="M35.67 76.63q-.56.84-.55 1.78.01.3-.24.13-.1-.07-.17-.2c-.13-.23.07-5.81-.15-7.06" class="T"/><path stroke="#d87303" vector-effect="non-scaling-stroke" d="M55.25 62.78l-3.61 1.6"/><path stroke="#faa517" vector-effect="non-scaling-stroke" d="M51.64 64.38q-1.4-.19-.92-3.07"/><path stroke="#d56618" vector-effect="non-scaling-stroke" d="M51.64 64.38l-1.51 1.28q-.41.35-.9.1-1.08-.57-2.21-.01"/><path vector-effect="non-scaling-stroke" d="M51.89 68.94l-1.73.94q-.44.24-.88.02-1.54-.77-2.27-2.29" class="W"/><path vector-effect="non-scaling-stroke" d="M67.3 66.79q1.03.77.58 1.98-.16.43.07.84l1.56 2.89" class="Q"/><path stroke="#2e6a90" vector-effect="non-scaling-stroke" d="M52.86 125.08l6.1-8.39q.29-.39-.03-.74l-.41-.46"/><path stroke="#234b6c" vector-effect="non-scaling-stroke" d="M58.52 115.49c13.37.76 24.71-.83 35.64-8.62q2.09-1.5 4.41-2.33c6.93-2.51 10-6.78 6.54-14.12q-1.03-2.18-1.87-4.18"/><path vector-effect="non-scaling-stroke" d="M45.32 66.47q.04 1.08.66 2.78.21.6-.54.94" class="P"/><path vector-effect="non-scaling-stroke" d="M45.44 70.19l-1.17-.31" class="Q"/><path stroke="#b55b1a" vector-effect="non-scaling-stroke" d="M44.27 69.88q.46-.29.3-.64-.35-.72-.49-.42"/><path vector-effect="non-scaling-stroke" d="M71.11 70.97q.2-.95.51-1" class="Q"/><path vector-effect="non-scaling-stroke" d="M49.63 71.32l-2.84-.22" class="W"/><path vector-effect="non-scaling-stroke" d="M46.79 71.1q-.81-.21-1.35-.91" class="C"/><path stroke="#4b2d2e" vector-effect="non-scaling-stroke" d="M94.96 83.96l-.64 3.3"/><path stroke="#703020" vector-effect="non-scaling-stroke" d="M94.32 87.26l-1.18 6.84"/><path vector-effect="non-scaling-stroke" d="M93.14 94.1l-.22-.89q-.13-.51-.44-.09-3.57 4.61-8.52 7.89" class="F"/><path vector-effect="non-scaling-stroke" d="M83.96 101.01q-2.34 2.1-3.27 1.34" class="l"/><path stroke="#965c45" vector-effect="non-scaling-stroke" d="M80.69 102.35l2.62-2.46"/><path vector-effect="non-scaling-stroke" d="M83.31 99.89q4-2.11 6.69-5.97" class="N"/><path vector-effect="non-scaling-stroke" d="M90 93.92q3.94-3.41 2.61-7.74" class="AS"/><path vector-effect="non-scaling-stroke" d="M92.61 86.18q.46-.52.88-1.22.15-.24.13-.43-.02-.21-.18-.36a.49.49 0 0 0-.74.07l-1.41 1.93" class="l"/><path vector-effect="non-scaling-stroke" d="M91.29 86.17q-1.43.48-2.52 1.55" class="AS"/><path stroke="#b99084" vector-effect="non-scaling-stroke" d="M88.77 87.72l-5.63 3.46"/><path vector-effect="non-scaling-stroke" d="M83.14 91.18l-4.12 2.56q-.4.25-.43.73l-.1 1.77" class="AS"/><path vector-effect="non-scaling-stroke" d="M78.49 96.24q-.45.62-.6.26" class="l"/><path stroke="#837473" vector-effect="non-scaling-stroke" d="M77.89 96.5q-.33-.34-.6-.32"/><path vector-effect="non-scaling-stroke" d="M77.29 96.18q-.88-.15-.55-1.25.17-.53-.32-.79-.83-.44-2.13-.19" class="l"/><path vector-effect="non-scaling-stroke" d="M74.29 93.95l-.28-.93" class="AK"/><path vector-effect="non-scaling-stroke" d="M74.01 93.02q5.1 0 8.82-2.72" class="F"/><path stroke="#b8723b" vector-effect="non-scaling-stroke" d="M82.83 90.3q3.62-1.25 5.82-3.68.43-.48-.21-.59-.87-.16-1.63.71"/><path vector-effect="non-scaling-stroke" d="M86.81 86.74q-.62-1.35-2.6-.74" class="F"/><path vector-effect="non-scaling-stroke" d="M84.21 86l7.98-4.97" class="AK"/><path vector-effect="non-scaling-stroke" d="M50.29 77.28q-.93 2.05-.29 3.11.32.54.69.02l1.34-1.93" class="AO"/><path stroke="#eb9b08" vector-effect="non-scaling-stroke" d="M55.37 77.84q-.84.6-1.17 1.24-.3.57.29.82l1.94.85"/><path stroke="#ea7008" vector-effect="non-scaling-stroke" d="M56.43 80.75l-5.11.49q-.22.02-.25.23-.02.13-.11.27"/><path stroke="#b55b1a" vector-effect="non-scaling-stroke" d="M50.96 81.74q-.05-.41-.17-.62-.21-.33-.48-.05-.49.52.19 1.47"/><path stroke="#ea7008" vector-effect="non-scaling-stroke" d="M50.5 82.54q-.58.07-.65.46-.18.93.51 1.37"/><path vector-effect="non-scaling-stroke" d="M50.36 84.37q-1.64 1.12-2.08-.77a1.04.94 50.2 0 1 .02-.52q.59-1.79-.23-3.62-.39-.87-.57.07l-.55 2.75" class="m"/><path vector-effect="non-scaling-stroke" d="M46.95 82.28q-.93.02-1.43-.86a.48.48 0 0 0-.9.26l.34 6.18" class="AT"/><path vector-effect="non-scaling-stroke" d="M44.96 87.86l-5.81-3.21" class="AR"/><path stroke="#eb8508" vector-effect="non-scaling-stroke" d="M39.15 84.65q2.61-1.18 3.37-2.86.18-.41.62-.47l.94-.14q.55-.08.61-.64.15-1.62-.74-2.89-.3-.43-.36-.95-.29-2.34-1.87-3.99"/><path stroke="#e2750b" vector-effect="non-scaling-stroke" d="M41.72 72.71l-.91-1.25"/><path vector-effect="non-scaling-stroke" d="M40.81 71.46l-2.4-1.39" class="AO"/><path vector-effect="non-scaling-stroke" d="M44.27 69.88q-.38.27-.47.9" class="m"/><path vector-effect="non-scaling-stroke" d="M43.8 70.78l.96 5.65a2.03 2.03 0 0 0 3.47 1.06q3.29-3.46 5.17-7.76" class="AT"/><path vector-effect="non-scaling-stroke" d="M91.43 75.26q-.15 3.28-2.84 4.49-.39.18-.55-.22-.06-.15-.12-.28-.18-.36-.57-.27-.7.17-1.05.67" class="AH"/><path stroke="#7e320e" vector-effect="non-scaling-stroke" d="M86.3 79.65q-.37.29-.75.18-.53-.15-.08-.46 3.31-2.33 2.44-7.13"/><path vector-effect="non-scaling-stroke" d="M35.67 76.63l.14.34a.48.48 0 0 0 .88.05l.86-1.65a.35.35 0 0 1 .66.18L37.93 82" class="AG"/><path vector-effect="non-scaling-stroke" d="M37.93 82q-.49.01-.53.73" class="X"/><path vector-effect="non-scaling-stroke" d="M37.4 82.73l-.87-3.71q-.18-.77-.55-.07-.6 1.14-.65 2.58" class="AB"/><path stroke="#cb5b0e" vector-effect="non-scaling-stroke" d="M35.33 81.53q-.83-.97-1.67-1.2a.85.84 77.9 0 0-.87 1.35q3.33 4.13 7.9 6.76 2.15 1.24 5.91 1.85 3.82.62 7.26 1.68"/><path vector-effect="non-scaling-stroke" d="M53.86 91.97q3.86 1.86 9.21.87.44-.08.24-.48-.79-1.63-2.87-.65" class="AU"/><path stroke="#cb5b0e" vector-effect="non-scaling-stroke" d="M60.44 91.71l-.22-1.17"/><path vector-effect="non-scaling-stroke" d="M60.22 90.54l.79-.48q.4-.24.83-.04 1.88.87 4.75 2.62 2.88 1.75 3.55-.52" class="AU"/><path vector-effect="non-scaling-stroke" d="M70.14 92.12l-1.35-2.04a.27.27 0 0 1 .36-.38l1.38.8q.37.21.77.06 2.52-1 3.54-3.75" class="X"/><path vector-effect="non-scaling-stroke" d="M74.84 86.81q.45.54 1.34-.77.42-.62.47.13.09 1.39-.55 2.07-2.53 2.69-5.45 5.81" class="AU"/><path stroke="#845542" vector-effect="non-scaling-stroke" d="M70.65 94.05l-17.83-.34"/><path vector-effect="non-scaling-stroke" d="M52.82 93.71q-2.1-.96-4.78-.63" class="AB"/><path stroke="#845542" vector-effect="non-scaling-stroke" d="M48.04 93.08q-1.08-1.06-2.37-.77"/><path vector-effect="non-scaling-stroke" d="M45.67 92.31l-2.9-1.26" class="T"/><path stroke="#dca183" vector-effect="non-scaling-stroke" d="M42.77 91.05l-7.89-5.38"/><path stroke="#a94818" vector-effect="non-scaling-stroke" d="M34.88 85.67q-.23-1.82-3.65-2.96"/><path vector-effect="non-scaling-stroke" d="M31.23 82.71l.33-.18q.31-.17.21-.52l-1.7-6.05" class="T"/><path vector-effect="non-scaling-stroke" d="M43.8 70.78q1.25 2.16 2.95 1.14.32-.2.16-.54l-.12-.28" class="k"/><path vector-effect="non-scaling-stroke" d="M37.64 70.2q1.21 1.39 1.73 1.68 1.45.8 1.44-.42" class="f"/><path stroke="#f58c03" vector-effect="non-scaling-stroke" d="M41.72 72.71q-.44.13-.73.55a1.05 1.03-38 0 0-.13.98q1.43 3.81-1.52 6.08-.36.27-.51.69-.28.78-.9.99"/><path vector-effect="non-scaling-stroke" d="M64.79 73.42q-1.97-.69-2.89-.42" class="X"/><path stroke="#df8806" vector-effect="non-scaling-stroke" d="M61.9 73l-1.78.07"/><path vector-effect="non-scaling-stroke" d="M85.21 72.63l-5.11.51q-.83.08-.1.49l1.03.57" class="AJ"/><path vector-effect="non-scaling-stroke" d="M81.03 74.2q1.28 1.64.58 3.15-1.63 3.48-3.44 7.7" class="C"/><path vector-effect="non-scaling-stroke" d="M78.17 85.05q-.21.64.17 1.71.2.56.72.25l6.36-3.79q.49-.3.09-.71l-.57-.57a.34.34 0 0 1 .18-.57q2.51-.44 1.18-1.72" class="AJ"/><path vector-effect="non-scaling-stroke" d="M84.21 86q-.27.08-.42.26" class="C"/><path stroke="#987c7b" vector-effect="non-scaling-stroke" d="M83.79 86.26q-1.2.21-1.94.83"/><path vector-effect="non-scaling-stroke" d="M81.85 87.09q-4.02.69-6.25 3.23a.51.51 0 0 0 .51.83l4.8-1.26a.17.17 0 0 1 .2.22q-.06.17-.24.25-3.13 1.37-6.51 1.61a.8.79 8.2 0 0-.68.5q-.35.88.33.55" class="C"/><path stroke="#473b45" vector-effect="non-scaling-stroke" d="M74.29 93.95l-3.64.1"/><path stroke="#a25909" vector-effect="non-scaling-stroke" d="M74.84 86.81q2.44-3.61 3.31-7.59"/><path vector-effect="non-scaling-stroke" d="M78.15 79.22q2.52-4.31-2.93-4.09" class="k"/><path vector-effect="non-scaling-stroke" d="M78.17 85.05q1.96 1.1 4.79-1.28.3-.25.1-.58l-.2-.34q-.2-.35.16-.54l.46-.23q.46-.24.3-.74-.94-2.94.08-5.83a1.37 1.37 0 0 0-1.8-1.73l-1.03.42" class="AQ"/><path stroke="#92580b" vector-effect="non-scaling-stroke" d="M39.15 84.65q-1.25-.32-1.75-1.92"/><path stroke="#feb200" vector-effect="non-scaling-stroke" d="M61.9 73c2.14 5.41 6.16 4.37 10.61 6.33a.35.34-55.6 0 1 .1.56l-.24.24q-.31.32-.73.16-4.34-1.68-8.38.27"/><path stroke="#df8806" vector-effect="non-scaling-stroke" d="M63.26 80.56q-.83-1.51-2.53-1.78"/><path stroke="#fe9d00" vector-effect="non-scaling-stroke" d="M60.73 78.78l-4.3 1.97"/><path stroke="#d96802" vector-effect="non-scaling-stroke" d="M76.36 76.47q1.54.94 1.79 2.75"/><path stroke="#a25909" vector-effect="non-scaling-stroke" d="M70.14 92.12q-2.22-.84-3.08-2.58-.21-.44-.68-.59l-5.34-1.66"/><path stroke="#fe8700" vector-effect="non-scaling-stroke" d="M61.04 87.29q.01-1.39.4-1.3"/><path vector-effect="non-scaling-stroke" d="M61.44 85.99q.87.24.92-.57" class="X"/><path stroke="#fe8700" vector-effect="non-scaling-stroke" d="M62.36 85.42l2.19-2.73"/><path vector-effect="non-scaling-stroke" d="M64.55 82.69q.07-.78-1.29-2.13" class="X"/><path stroke="#c87212" vector-effect="non-scaling-stroke" d="M69.64 85.49l1.43 2.73q.19.36.6.41l.33.04q.88.12.12-.34-1.45-.89-1.69-2.67a1.33 1.3-72.5 0 0-.4-.79q-.96-.92-2.27-.72a.3.3 0 0 0 0 .59l1.1.18a1.09 1.08 80.9 0 1 .78.57"/><path stroke="#1c2c3e" vector-effect="non-scaling-stroke" d="M31.23 82.71q-.2.3-.45.01-.22-.25-.16-.71"/><path stroke="#6c240d" vector-effect="non-scaling-stroke" d="M44.96 87.86l6.08-.16a.64.64 0 0 1 .66.68q-.04.68-.61.81"/><path vector-effect="non-scaling-stroke" d="M51.09 89.19q-10.48.65-15.76-7.66" class="AR"/><path vector-effect="non-scaling-stroke" d="M60.73 78.78l3.82 3.91m-2.19 2.73q-1.61-1.32-3.3-1.03-.62.11-.06.39l2.44 1.21" stroke="#de5d06"/><path stroke="#a24409" vector-effect="non-scaling-stroke" d="M61.04 87.29q-3.29-2.33-7.19-2.93-.51-.08-.96.2-1.55 1-2.53-.19"/><path stroke="#c85d12" vector-effect="non-scaling-stroke" d="M50.5 82.54q.23.25.42.3.35.09.33-.27-.01-.42-.29-.83"/><path vector-effect="non-scaling-stroke" d="M60.22 90.54l-1.01-.82q-.74-.59.21-.61.14 0 .28-.01a.47.47 0 0 0 .3-.78q-1.52-1.69-3.77-1.52-.46.04-.77-.29-.95-.99-3.39-.31" class="m"/><path vector-effect="non-scaling-stroke" d="M52.07 86.2q-3.92-.29-5.12-3.92" class="k"/><path vector-effect="non-scaling-stroke" d="M51.09 89.19q2.3 1.12 4.47.48a.28.28 0 0 0-.04-.54l-2.47-.29a.37.36-49.9 0 1-.06-.71l1.69-.52a.36.36 0 0 0-.13-.7q-2.87.21-2.48-.71" class="AT"/><path vector-effect="non-scaling-stroke" d="M60.44 91.71l-6.58.26" class="m"/><path stroke="#5e4943" vector-effect="non-scaling-stroke" d="M31.23 82.71l.08 7.56"/><path stroke="#243f59" vector-effect="non-scaling-stroke" d="M31.31 90.27q.04.82-.34.96-6.52 2.45-8.86 7.68"/><path stroke="#2c5979" vector-effect="non-scaling-stroke" d="M22.04 97.21q1.62-6.19 6.96-8.33 2.19-.88.81-4.13"/><path vector-effect="non-scaling-stroke" d="M34.88 85.67q-.49.33-1.35.01" class="h"/><path vector-effect="non-scaling-stroke" d="M33.53 85.68q-.14-.49-.47-.69-.41-.23-.68.11-.55.68.34 2.98" class="d"/><path vector-effect="non-scaling-stroke" d="M32.72 88.08l1.18 3.68" class="h"/><path vector-effect="non-scaling-stroke" d="M33.9 91.76q.37 2.9 3.65 5.2" class="AV"/><path vector-effect="non-scaling-stroke" d="M37.55 96.96q-.74.15.29 1.19" class="Q"/><path stroke="#6e6b67" vector-effect="non-scaling-stroke" d="M37.84 98.15q-.53.05-.72.32"/><path vector-effect="non-scaling-stroke" d="M37.12 98.47q-1.38-1.06-2.66-2.26-.1-.08-.18-.11-.17-.05-.27 0-.21.09-.05.25l4.81 4.56" class="d"/><path stroke="#6e6b67" vector-effect="non-scaling-stroke" d="M38.77 100.91l6.45 4.92a.44.44 0 0 0 .69-.47q-.28-1.04-1.27-1.49"/><path vector-effect="non-scaling-stroke" d="M44.64 103.87q1.54-.81-2.16-3.21" class="Q"/><path vector-effect="non-scaling-stroke" d="M42.48 100.66l2.47.17" class="AV"/><path vector-effect="non-scaling-stroke" d="M44.95 100.83l.19-.34" class="h"/><path stroke="#583e39" vector-effect="non-scaling-stroke" d="M45.14 100.49q.02.58 1.05 1.28"/><path vector-effect="non-scaling-stroke" d="M46.19 101.77q.47.31.32.44" class="AE"/><path stroke="#aa551b" vector-effect="non-scaling-stroke" d="M46.51 102.21q-.24 1.42.7 2.69c1.15 1.57 3.43 1.68 5.27 2.16"/><path stroke="#52332b" vector-effect="non-scaling-stroke" d="M52.48 107.06q-3.34.59-6.61-.11-2.53-.54-5.66-2.98c-2.08-1.62-4.75-3.17-6.33-5.29q-.8-1.06-1.65-2.11-.33-.4-.24-.92.33-1.77-.13-3.45"/><path stroke="#583e39" vector-effect="non-scaling-stroke" d="M31.86 92.2l-.55-1.93"/><path vector-effect="non-scaling-stroke" d="M34.25 94.48l-.53-.76a.45.44-48.3 0 0-.76.05q-.31.56.17 1.1.4.45.82.35.71-.15.3-.74" class="AV"/><path stroke="#295373" vector-effect="non-scaling-stroke" d="M58.52 115.49q-5.91-.74-11.88-1.19c-7.32-.56-12.57-3.65-16.93-9.28-1.36-1.75-2.76-2.22-4.59-3.16"/><path stroke="#182941" vector-effect="non-scaling-stroke" d="M31.86 92.2q-1.86 4.42-1.68 7.86a1.27 1.26 19 0 0 .43.88c3.53 3.13 9.04 9.18 13.75 9.78q6.58.84 22.44 1.13 4.95.09 8.41-.22c8.23-.76 14.99-4.74 22.16-8.14q1.63-.77 2.21-1.6 1.21-1.72-.81-3.17-2.86-2.07-4.82-4.23"/><path stroke="#433841" vector-effect="non-scaling-stroke" d="M93.95 94.49l.37-7.23"/><path stroke="#859eaf" vector-effect="non-scaling-stroke" d="M92.61 86.18l-1.32-.01"/><path vector-effect="non-scaling-stroke" d="M33.53 85.68q-1.15.32-.81 2.4" class="y"/><path vector-effect="non-scaling-stroke" d="M42.77 91.05q3 3.13 2.65 7.96" class="i"/><path stroke="#8c97a5" vector-effect="non-scaling-stroke" d="M45.42 99.01l-.28 1.48"/><path stroke="#f0e1ce" vector-effect="non-scaling-stroke" d="M44.95 100.83l-.61-.03a1.25 1.23-22.2 0 1-.78-.32l-9.66-8.72"/><path stroke="#f29d37" vector-effect="non-scaling-stroke" d="M86.81 86.74q-3.11 1.58-3.98 3.56"/><path stroke="#ebaf75" vector-effect="non-scaling-stroke" d="M81.85 87.09q.33 1.33 2.54.55a.74.74 0 0 0 .16-1.31q-.19-.13-.76-.07"/><path stroke="#ddb988" vector-effect="non-scaling-stroke" d="M90 93.92l-6.76 5.44"/><path stroke="#bbb7b1" vector-effect="non-scaling-stroke" d="M83.24 99.36l-2.45 1.8q-.35.26-.77.11-.5-.2-.74-.81"/><path stroke="#859eaf" vector-effect="non-scaling-stroke" d="M79.28 100.46l-.79-4.22"/><path stroke="#deeaf0" vector-effect="non-scaling-stroke" d="M83.14 91.18c-1.55 2.76-3.77 3.15-2.74 7.09q.17.64.67.21 4.78-4.1 7.63-7.68 1.38-1.74.07-3.08"/><path stroke="#3d2d32" vector-effect="non-scaling-stroke" d="M93.95 94.49q-.05 4.5-4.33 6.44"/><path stroke="#954f22" vector-effect="non-scaling-stroke" d="M89.62 100.93q-2.74.05-6.9 3.42"/><path stroke="#584e55" vector-effect="non-scaling-stroke" d="M82.72 104.35q.22-1.36 1.85-2.37"/><path stroke="#aa5c1c" vector-effect="non-scaling-stroke" d="M84.57 101.98q4.2-2.73 7.9-6.48.4-.41.67-1.4"/><path stroke="#2c3848" vector-effect="non-scaling-stroke" d="M45.67 92.31q.17.49.51.38.25-.08-.01-.13-.13-.02-.5.07-.5.12-.39.62c.21.92.61 1.25 1.54 1.69q.69.33.74 1.11"/><path vector-effect="non-scaling-stroke" d="M47.56 96.05q-1.39-.29-1.19.69.91 4.44 4.79 4.55" class="i"/><path vector-effect="non-scaling-stroke" d="M51.16 101.29q2.81-.28 4.34.56.53.29-.06.42-4.42.95-8.93-.06" class="U"/><path stroke="#172134" vector-effect="non-scaling-stroke" d="M46.19 101.77q.49-1.16.32-2.2a.11.11 0 0 0-.22-.01l-.13.4a.3.3 0 0 1-.41.19q-.54-.25-.33-1.14"/><path stroke="#6a4022" vector-effect="non-scaling-stroke" d="M52.48 107.06c2.81-.33 4.92 1.07 7.39 1.12q2.94.06 5.75.04"/><path stroke="#333244" vector-effect="non-scaling-stroke" d="M65.62 108.22q3.94 1.55 6.1-.76"/><path stroke="#6a4022" vector-effect="non-scaling-stroke" d="M71.72 107.46q.29-.6 1.11-.67.44-.03 1.13.31 2.95 1.5 6.29-.34 6.14-3.4 9.37-5.83"/><path stroke="#966e59" vector-effect="non-scaling-stroke" d="M42.48 100.66l-4.93-3.7"/><path stroke="#373a47" vector-effect="non-scaling-stroke" d="M48.04 93.08l4.78.63"/><path stroke="#6b92a8" vector-effect="non-scaling-stroke" d="M77.29 96.18l-5.63.15"/><path stroke="#a1aeb9" vector-effect="non-scaling-stroke" d="M71.66 96.33l-24.1-.28"/><path stroke="#9a6f3f" vector-effect="non-scaling-stroke" d="M84.57 101.98q-.31-.75-.61-.97"/><path vector-effect="non-scaling-stroke" d="M83.31 99.89l-.07-.53" class="z"/><path stroke="#375061" vector-effect="non-scaling-stroke" d="M37.12 98.47l1.65 2.44"/><path stroke="#c4dee9" vector-effect="non-scaling-stroke" d="M71.66 96.33q6.22 1.75 3.11 4.08"/><path stroke="#f8dcb1" vector-effect="non-scaling-stroke" d="M74.77 100.41q-1.77.82-4.78.37"/><path stroke="#f3a87f" vector-effect="non-scaling-stroke" d="M69.99 100.78l-3.52-.18"/><path vector-effect="non-scaling-stroke" d="M66.47 100.6q-7.41-.7-15.31.69" class="x"/><path stroke="#6b92a8" vector-effect="non-scaling-stroke" d="M77.89 96.5l.06 1.71"/><path stroke="#c3c0a0" vector-effect="non-scaling-stroke" d="M77.95 98.21q-.74-.03-1.04.73-.38.92-.48 1.06-.83 1.08-1.66.41"/><path stroke="#7e7a7b" vector-effect="non-scaling-stroke" d="M79.28 100.46l-.48 3.57a.53.51-83.6 0 0 .46.59q.59.06.84-.17.23-.22.12-.94-.17-1.02.47-1.16"/><path stroke="#856245" vector-effect="non-scaling-stroke" d="M82.72 104.35q-2.6 1.91-6.11 2.59-.95.19-.12-.3l1.29-.76a.74.73 70.7 0 0 .35-.74l-.32-2.12"/><path stroke="#a09070" vector-effect="non-scaling-stroke" d="M77.81 103.02q1.13-1.96.14-4.81"/><path stroke="#48515e" vector-effect="non-scaling-stroke" d="M44.64 103.87l-6.8-5.72"/><path vector-effect="non-scaling-stroke" d="M77.81 103.02l-7.58 1.59" class="AF"/><path stroke="#836640" vector-effect="non-scaling-stroke" d="M70.23 104.61l-6.16.14"/><path vector-effect="non-scaling-stroke" d="M64.07 104.75q.03-1.15.67-1.57" class="AF"/><path stroke="#f28a36" vector-effect="non-scaling-stroke" d="M64.74 103.18q3.22.17 5.95-1.2a.56.56 0 0 0-.11-1.04l-.59-.16"/><path stroke="#d75c0b" vector-effect="non-scaling-stroke" d="M66.47 100.6l-3.42 1.32q-.44.17-.16.55.4.55 1.85.71"/><path vector-effect="non-scaling-stroke" d="M64.07 104.75l-10.75-.33q-1.23-.03-.04.28 4.93 1.3 10.23 2.24 1.81.33 7.38-1.68.72-.26-.02-.46l-.64-.19" class="U"/><path stroke="#8b5434" vector-effect="non-scaling-stroke" d="M71.72 107.46q-4.05-.97-6.1.76"/></g><path fill="#559ab5" d="M59.14 0h5.82l1.27 1.01q.4.33-.08.54-1 .45-1.08 1.5-.03.47-.36.8l-6.34 6.53q-.34.35-.26.84l.34 2.1q.04.25-.2.31-1.13.29-2.31.24-.07 0-.07 0v.26q0 .01.02.01l5.33.23q-5.41-.18-10.6.76-1.84.34-4.78.35-2.43.01-4.82.66-.46.35-.9.44-2.16-.56-4.26.58.44.23-.48.16-1.62-.3-3.26.62-1.16 1.2-2.89 1.33-4.99 1.2-3.53 4.95-.81 3.74.11 7.08.31 1.09.29-.05l-.02-1.23.65 6.87q-.58 2.33-.01 6.61.28 2.08.64 2.96l.29 5.44q-1.92.62-2.01 2.5-.01.14-.12.21l-.92.6a.45.35-83 0 0-.15.15q-1.08 1.74-2.06 3.57-.84 1.56-2.53 3.25c-2.13 2.13-3.31 4.99-4.94 7.01Q9.15 76.35 3.48 83.65.83 75.64 0 66.85v-7.82C2.74 26.52 26.62 3.14 59.14 0z"/><path d="M64.96 0h2q19.65 1.66 34.8 13.33.9 1.84-.09 2.73-.35.32-.48.77-.47 1.56-2.14 2.92-6.65-3.23-14.55-3.91-2.92-.98-3.46.09l-10.98-1.17q-4.77-.98-8.84-.39l-5.33-.23q-.02 0-.02-.01v-.26q0 0 .07 0 1.18.05 2.31-.24.24-.06.2-.31l-.34-2.1q-.08-.49.26-.84l6.34-6.53q.33-.33.36-.8.08-1.05 1.08-1.5.48-.21.08-.54L64.96 0z" class="S"/><path fill="#3c7c9e" d="M101.76 13.33q10.79 8.55 16.93 20.25l-8.65 9.75q-.16.17-.16.41v.41q0 .52-.51.63l-.67.14q-.32.07-.55.3l-3.87 3.9q-.34.34-.36.81-.01.48-.41.8-2.03 1.61-2.86 3.84a.62.62 0 0 1-1.19-.11L98.65 50l-.13-5.97 1.55-18.78q1.97-2.64-.3-4.15.85-.27-.72-1.35 1.67-1.36 2.14-2.92.13-.45.48-.77.99-.89.09-2.73z"/><path d="M61.22 14.37q4.07-.59 8.84.39c-7.45.09-14.33.03-21.48 1.01q-3.4.47-6.93.49-.2.21-.63-.12 2.39-.65 4.82-.66 2.94-.01 4.78-.35 5.19-.94 10.6-.76z" class="K"/><path d="M70.06 14.76l10.98 1.17 2.99.14 1.49.28q.27.55-.16.81-.27.17.01.33 1.91 1.1.85 4.86-2.25-.72-3.88-.24a.97.97 0 0 1-1.23-1.08q.12-.81-.57-1.14a.41.4-75.3 0 0-.58.34l-.69 10q-.74.68 1.22.71-2.03-.28-2.06.81l-3.74-.2-.52-14.7q-.03-.73-.76-.76l-3.62-.15q-.64-.02-.71.61l-1.72 14.77-21.32-.03q-.14-.6-.22-.08l-1.52-.62-.5-6.79a.25.25 0 0 0-.49-.01l-.11.96a.55.55 0 0 1-1.09.02l-.34-2.04q-.07-.45.38-.47.79-.03 1.05-.58c.33-.7-.26-2.89.11-4.11q.15-.5-.37-.57-.96-.14-1.29-.74 3.53-.02 6.93-.49c7.15-.98 14.03-.92 21.48-1.01zm-19.15 2.2a.54.53-28.7 0 0-.23.76q.61.98 1.72.68a.69.69 0 0 0 .3-1.16q-.78-.75-1.79-.28zm-4.37 1.22a.6.6 0 0 0 0 .64q.52.84 1.13.4a1.05.71-68.9 0 0-.4-1.75q-.47.32-.73.71zm14.98 1.22a.19.19 0 0 0-.26-.27q-3.81 2.92-7.14 6.53-.22.24.02.73a.61.61 0 0 0 1.01.14l6.37-7.13zm-13.37 8.59q-.34-1.59-1.94-1.13a.56.56 0 0 0 .04 1.09l1.6.34q.39.08.3-.3z" class="Y"/><path fill="#294963" d="M84.5 15.84q-.2.19-.47.23l-2.99-.14q.54-1.07 3.46-.09z"/><path d="M84.5 15.84q7.9.68 14.55 3.91 1.57 1.08.72 1.35l-3.29-1.94q-.46-.27-.91.01-.62.4-1.34.4a.22.18 40 0 1-.07-.4q.24 0 .45-.18.44-.37-.11-.5l-8.98-2.14-1.49-.28q.27-.04.47-.23z" class="K"/><path d="M74.69 31.55l-.66-.1q-.52-1.05-1.28-.9-3.07.6-5.39.77l1.72-14.77q.07-.63.71-.61l3.62.15q.73.03.76.76l.52 14.7zM41.02 16.14q.43.33.63.12.33.6 1.29.74.52.07.37.57c-.37 1.22.22 3.41-.11 4.11q-.26.55-1.05.58-.45.02-.38.47l.34 2.04a.55.55 0 0 0 1.09-.02l.11-.96a.25.25 0 0 1 .49.01l.5 6.79-3.45-.34-1.59-11.79q-.07-.52-.56-.36l-5.54 1.83a.58.58 0 0 0-.2.99l.36.3q.38.33-.12.3-.59-.03-.52.19-.62.07-.94.82-1.85 1.18-2.64 3.97-2.76-1.84-3.05-4.39-.07-.57.4-.89l2.78-1.95q1.73-.13 2.89-1.33 2.97.32 3.26-.62.92.07.48-.16 2.47.16 4.26-.58.44-.09.9-.44zm-11.03 6.59l-.1-1.23a.39.38 51.8 0 0-.75-.09q-.34 1.06.56 1.51a.2.2 0 0 0 .29-.19zm55.53-6.38l8.98 2.14q.55.13.11.5-.21.18-.45.18a.223.182 40 0 0 .07.4q.72 0 1.34-.4.45-.28.91-.01l3.29 1.94q2.27 1.51.3 4.15-.98-.75-.71-.1-.19-.87-.63-.33.83-1.9.21-2.74-.44-.58-.62.12-.7 2.73-4.07 4.86-2.98 2.1-8.48 2.34l.45-7.05q1.06-3.76-.85-4.86-.28-.16-.01-.33.43-.26.16-.81zm10.23 4.84q.55.09 1.01-.72.31-.54-.23-.24-.5.27-.89.6-.33.3.11.36z" class="AW"/><path d="M40.12 16.58q-1.79.74-4.26.58 2.1-1.14 4.26-.58z" class="K"/><path d="M50.91 16.96q1.01-.47 1.79.28a.69.69 0 0 1-.3 1.16q-1.11.3-1.72-.68a.54.53-28.7 0 1 .23-.76z" class="G"/><path d="M35.38 17.32q-.29.94-3.26.62 1.64-.92 3.26-.62z" class="K"/><path d="M46.54 18.18q.26-.39.73-.71a1.05.71-68.9 0 1 .4 1.75q-.61.44-1.13-.4a.6.6 0 0 1 0-.64z" class="G"/><path d="M40.85 30.25q-6.41-.8-11.75-3.75.79-2.79 2.64-3.97.11.39.36.56a.51.51 0 0 0 .76-.26q.21-.58-.18-1.12-.07-.22.52-.19.5.03.12-.3l-.36-.3a.58.58 0 0 1 .2-.99l5.54-1.83q.49-.16.56.36l1.59 11.79zm-3.07-7.01a1.23 1.22 66.6 0 0 .78-1.98l-.93-1.14a1.68 1.56 9 0 0-2.69 1.81q1.17 1.55 2.84 1.31z" class="AX"/><path d="M61.52 19.4l-6.37 7.13a.61.61 0 0 1-1.01-.14q-.24-.49-.02-.73 3.33-3.61 7.14-6.53a.19.19 0 0 1 .26.27z" class="G"/><path fill="#534656" d="M29.23 19.27l-2.78 1.95q-.47.32-.4.89.29 2.55 3.05 4.39 5.34 2.95 11.75 3.75l3.45.34 1.52.62c-5.43-.07-15.77-1.68-19.22-6.39q-.13-.18-.33-.07-.14.07-.2.22-.18-.06-.37-.75-1.46-3.75 3.53-4.95z"/><path d="M37.78 23.24q-1.67.24-2.84-1.31a1.68 1.56 9 0 1 2.69-1.81l.93 1.14a1.23 1.22 66.6 0 1-.78 1.98z" class="G"/><path d="M86.22 22.35l-.45 7.05q-2.94 1.42-6.5.83l.69-10a.41.4-75.3 0 1 .58-.34q.69.33.57 1.14a.97.97 0 0 0 1.23 1.08q1.63-.48 3.88.24z" class="AX"/><path d="M95.64 20.83q.39-.33.89-.6.54-.3.23.24-.46.81-1.01.72-.44-.06-.11-.36z" class="S"/><path d="M29.99 22.73a.2.2 0 0 1-.29.19q-.9-.45-.56-1.51a.39.38 51.8 0 1 .75.09l.1 1.23z" class="Y"/><path d="M32.68 21.71q.39.54.18 1.12a.51.51 0 0 1-.76.26q-.25-.17-.36-.56.32-.75.94-.82z" class="AY"/><path d="M98.73 24.82q-1.21 1.53-4.48 2.24 3.37-2.13 4.07-4.86.18-.7.62-.12.62.84-.21 2.74z" class="n"/><path d="M25.7 24.22q.19.69.37.75l.01 5.05.02 1.23q.02 1.14-.29.05-.92-3.34-.11-7.08z" class="AZ"/><path d="M45.82 31.21q.08-.52.22.08.02.73.96.71 11.04-.16 22.08.01c.88.01 1.79-.31 2.62-.55q.47.84 1.56.49a.53.53 0 0 1 .59.83q-.22.29-.91.32l-25.18.26-2.79-.52q-.24-.04-.51-.42a.88.87 71.4 0 0-.73-.37q-8.78.09-16.08-4.58-.76-.49-.3.29.32.53 1 1.07-.88 2.96-.01 4.61l.5 4.28q.2 2.35.51 4.7.25 1.84-.07 4.65-.4 3.5.59 6.92l.03 7.07-2.12-14.85-1.05-9.32-.65-6.87-.01-5.05q.06-.15.2-.22.2-.11.33.07c3.45 4.71 13.79 6.32 19.22 6.39z" class="n"/><path d="M98.73 24.82q.44-.54.63.33c-4.15 3.93-13.4 5.28-18.87 5.79q-1.96-.03-1.22-.71 3.56.59 6.5-.83 5.5-.24 8.48-2.34 3.27-.71 4.48-2.24z" class="S"/><path d="M99.36 25.15q-.27-.65.71.1l-1.55 18.78-.92 2.43-3.89 30.61a.29.29 0 0 1-.58 0q-.44-3.95-.04-8.07.91-9.38 1.72-18.76.04-.44-.4-.47-.32-.02-.4.2l-3.3 1.57q-.56.2-.61-1.08 5.8-1.67 5.47-5.32l1.48-14.49q.06-.52-.47-.55-.37-.03-.7.38-1.39-.27-1.9.3c-2.19.26-3.7-.41-5.93.14q-3.74.92-7.47 1.22l-2.15-.39q.03-1.09 2.06-.81c5.47-.51 14.72-1.86 18.87-5.79zm-2.48 2.73q-.73-.08-1.24.04a.49.49 0 0 0 .17.96q1.01-.12 1.68-.88a.22.21 25.5 0 0-.13-.36q-.34-.05-.48.24zm-48.73.11q.09.38-.3.3l-1.6-.34a.56.56 0 0 1-.04-1.09q1.6-.46 1.94 1.13z" class="G"/><path d="M44.97 32.84q-.05 4.01 1.72 6.82h-1.15l-3.6.28-.59-6.63q-.06-.7-.75-.81l-5.92-.91q-.55-.08-.81.41c-1.54 2.91-.01 7.09.29 10.2l-1.67 1.05-1.64-12.51q-.06-.52-.46-.86-.9-.78-2.04-1.05-.68-.54-1-1.07-.46-.78.3-.29 7.3 4.67 16.08 4.58a.88.87 71.4 0 1 .73.37q.27.38.51.42z" class="AW"/><path d="M96.88 27.88q.14-.29.48-.24a.22.21 25.5 0 1 .13.36q-.67.76-1.68.88a.49.49 0 0 1-.17-.96q.51-.12 1.24-.04z" class="n"/><path d="M28.35 28.83q1.14.27 2.04 1.05.4.34.46.86l1.64 12.51q-.76.58-1.47.61-.56.03-.66-.53l-.98-5.6q.2-2.39-1.04-4.29-.87-1.65.01-4.61z" class="AY"/><path d="M95.57 45.14q.29-1.07-1.18-1.55-1.67-1.28-4.05-1.89l-5.53-1.35.74-7.54a.62.61-1.9 0 0-.71-.66l-4.03.61q.12-.54-.23-.62 3.73-.3 7.47-1.22c2.23-.55 3.74.12 5.93-.14q.44-.3.38.22-.7 5.52-.38 11.19a.37.37 0 0 0 .7.16q.53-.98.25-2.15a.95.91-43.9 0 1 .02-.5q1.42-4.65.93-9.22.33-.41.7-.38.53.03.47.55l-1.48 14.49z" class="AW"/><path d="M74.03 31.45q-1.47-.65-2.33.01c-.83.24-1.74.56-2.62.55Q58.04 31.84 47 32q-.94.02-.96-.71l21.32.03q2.32-.17 5.39-.77.76-.15 1.28.9z" class="K"/><path d="M95.88 30.48q.49 4.57-.93 9.22a.95.91-43.9 0 0-.02.5q.28 1.17-.25 2.15a.37.37 0 0 1-.7-.16q-.32-5.67.38-11.19.06-.52-.38-.22.51-.57 1.9-.3z" class="Y"/><path d="M74.03 31.45l.66.1 3.74.2 2.15.39q.35.08.23.62-1.59-.26-2.77.09-.67.2-.13.64 2.72 2.19 2.52 5.54.77 2.55-.54 3.2-.62.31-.6-.38c.1-3.2.69-5.29-3.45-5.22q-1.58.03-3.21-.12-.47-1.29.61-2.56 1.36.31 1.97-.06a.26.25 33.2 0 0-.1-.47l-2.17-.32q.69-.03.91-.32a.53.53 0 0 0-.59-.83q-1.09.35-1.56-.49.86-.66 2.33-.01z" class="Aa"/><path d="M41.94 39.94l-1.05.39-2.48.57-4.25 1.3c-.3-3.11-1.83-7.29-.29-10.2q.26-.49.81-.41l5.92.91q.69.11.75.81l.59 6.63zm42.87.41h-.6l-2.91-.54-.87-.78q.2-3.35-2.52-5.54-.54-.44.13-.64 1.18-.35 2.77-.09l4.03-.61a.62.61-1.9 0 1 .71.66l-.74 7.54z" class="Y"/><path d="M29.38 37.73q.04-.32-.22-.46-.22-.11-.32.45l-.5-4.28q1.24 1.9 1.04 4.29z" class="S"/><path d="M44.97 32.84l2.79.52q8.15.45 16.24.69.4.02.54.44-3.84 1.07-7.9 1.03c-2.89-.02-4.53.81-4.8 3.76q-.05.62-.62.36-2.11-.98-4.53.02-1.77-2.81-1.72-6.82z" class="Y"/><path d="M72.94 33.1l2.17.32a.26.25 33.2 0 1 .1.47q-.61.37-1.97.06l-1.29-.11q-.93-.11-1.93.2-2.81-.47-5.49 1.17-.08-.62.01-.72-.14-.42-.54-.44-8.09-.24-16.24-.69l25.18-.26z" class="E"/><path d="M71.95 33.84q-.16.52.07 1.12.14.38-.24.53l-2.15.86q-.36.14-.64-.14l-.41-.41q-.65-.64.25-.75l1.49-.19a.34.34 0 0 0 .16-.61q-.17-.13-.46-.21 1-.31 1.93-.2z" class="L"/><path d="M71.95 33.84l1.29.11q-1.08 1.27-.61 2.56.67 4.52.49 8.95c-.05 1.41.72 2.52 1.14 3.85q.14.46.06.94-.23 1.54.26 3.04a.62.6 72.2 0 0 .76.4l3.12-.95q.03.61.5.81.39.16.24.55-.13.3-.48.52-.06-.76-.21-.75-1.79.07-2.57.69a1.24 1.24 0 0 1-2-.92l-.16-3.82q-.03-.72-.72-.51l-3.31.99a2.08 2.07-8.4 0 1-2.68-1.98q-.01-3.06-1.8-3.01 2.06-2.52.19-4.5-.17-.18-.01-.38l.77-.93 5.38-1.98a.12.12 0 0 0-.04-.24q-5.08-.16-10.23.93-1.7.37-2.13 1.43-.45 1.12-.28 2.91-3.22-1.31-3.49-3.55-.07-.57.47-.76l8.63-3.03q2.68-1.64 5.49-1.17.29.08.46.21a.34.34 0 0 1-.16.61l-1.49.19q-.9.11-.25.75l.41.41q.28.28.64.14l2.15-.86q.38-.15.24-.53-.23-.6-.07-1.12zm-3.82 8.89q.1 1.01 1.08 1.2.86.17 1.52-.02a.23.23 0 0 0-.03-.44q-1.8-.31-2.77-2.1-.29-.54-.76-.27a.29.29 0 0 0-.03.49l.58.42a1.01.99 15.9 0 1 .41.72z" class="D"/><path fill="#347296" d="M118.69 33.58q3.23 6.13 5.02 12.65-.54.03-.96-.57-.27-.38-.5.02-1.48 2.55-3.84 4.38-.34.26-.38.69l-.02.29q-.04.44-.35.75l-8.48 8.56q-.13.13-.13.32 0 .17 0 .34a.87.86-22.5 0 1-.24.57l-6.53 6.75q-.17.17-.17.41 0 .17-.02.34-.05.53-.46.85-2.43 1.87-3.24 4.82a.39.39 0 0 1-.71.1l-1.34-2.26.05-5.71q1.04-2.42.84-5.55.67-2.17.31-4.37.83-2.36.55-5.11.33-.12.56-1.85l.81 4.46a.62.62 0 0 0 1.19.11q.83-2.23 2.86-3.84.4-.32.41-.8.02-.47.36-.81l3.87-3.9q.23-.23.55-.3l.67-.14q.51-.11.51-.63v-.41q0-.24.16-.41l8.65-9.75z"/><path d="M64.54 34.49q-.09.1-.01.72l-8.63 3.03q-.54.19-.47.76.27 2.24 3.49 3.55.46 2.11 3.63 3.83l2.42 7.5q-.57-.41-.87-.22-.1.06-.13.21-.04.17-.09.33-.13.42-.56.42l-.76.01q.71-.16.57-.7-.07-.28-.13-.31-.12-.06-.24-.12-.21-.1-.17-.34c.84-4.36-.58-6.45-3.9-8.99q-.63-.48-1.99-2.01-1.23-1.38-3.17-1.55a.55.55 0 0 1-.16-1.06q.2-.09.37-.16.12-.05.14-.17.4-2.09 2.46-2.39.92-.13.07-.51c-1.89-.84-4.02.47-3.66 2.6a1.55 1.54-.1 0 1-1.77 1.77q-3.24-.53-3.78 2.74-.09.52.43.63.15.04.34.01-.53.11-.62.43-.06.2.14.62l-4.59 2.39q-.12-2.22-.82-2.2 1.8-2.16 4.22-2.31.25-.01.19-.25l-.11-.48q-.11-.47-.56-.28-3.11 1.31-4.41 3.3.81 1.45-3.43 3.16l-3.34 1.03q-.31.1-.31-.23 0-.16.04-.31.07-.26.44-.44 2.56-1.23 4.98-2.77a.12.12 0 0 0-.1-.22l-6.62 1.93q-.4-.92-.03-1.33l9.45-3.12a.78.76-81.2 0 0 .4-.3q1.06-1.5 2.89-1.83a.59.59 0 0 0 .02-1.15q-.1-.02-.26-.05h1.15q2.42-1 4.53-.02.57.26.62-.36c.27-2.95 1.91-3.78 4.8-3.76q4.06.04 7.9-1.03z" class="O"/><path d="M62.56 54.63c-3.89-4.22-4.24-10.19-10.36-11.81q-1.91.1-3.64 1.1l-.59.15q-.19.03-.34-.01-.52-.11-.43-.63.54-3.27 3.78-2.74a1.55 1.54-.1 0 0 1.77-1.77c-.36-2.13 1.77-3.44 3.66-2.6q.85.38-.07.51-2.06.3-2.46 2.39-.02.12-.14.17-.17.07-.37.16a.55.55 0 0 0 .16 1.06q1.94.17 3.17 1.55 1.36 1.53 1.99 2.01c3.32 2.54 4.74 4.63 3.9 8.99q-.04.24.17.34.12.06.24.12.06.03.13.31.14.54-.57.7zm-5.806-11.601a.26.26 0 0 0-.367-.018l-.178.161a.26.26 0 0 0-.018.367l4.635 5.112a.26.26 0 0 0 .367.018l.178-.161a.26.26 0 0 0 .018-.367l-4.635-5.111z" class="D"/><path d="M72.63 36.51q1.63.15 3.21.12c4.14-.07 3.55 2.02 3.45 5.22q-.02.69.6.38 1.31-.65.54-3.2l.87.78q1.48 1.91.03 3.37-.32.33 0 .64.09.09.18.19.58.61.59-.23l.01-.52a.25.25 0 0 1 .42-.18l1.86 1.62q.08 1.77 2.27 1.37.22-.04.22.19v.38a.31.3 6.2 0 1-.37.29q-1.55-.37-1.97.57-.95 3.25-4.42 3.9-.5.09-.78.51-.39.57-.88.83l-3.12.95a.62.6 72.2 0 1-.76-.4q-.49-1.5-.26-3.04.08-.48-.06-.94c-.42-1.33-1.19-2.44-1.14-3.85q.18-4.43-.49-8.95zm8.41 12.31l-3.32 1.42q-.82.36.07.3 2.42-.15 4.43-1.3a.46.46 0 0 0-.07-.82q-.42-.16-.71.14-.18.17-.4.26z" class="Z"/><path d="M26.73 36.89l1.05 9.32q-.39-.02-.42.25-.36-.88-.64-2.96-.57-4.28.01-6.61z" class="Ab"/><path d="M66.22 39.5q-2.98.61-5.52-.51a.62.62 0 0 0-.87.6q.12 2.08 1.07 3.41l1.65 3.38q-3.17-1.72-3.63-3.83-.17-1.79.28-2.91.43-1.06 2.13-1.43 5.15-1.09 10.23-.93a.12.12 0 0 1 .04.24l-5.38 1.98z" class="L"/><path d="M29.38 37.73l.98 5.6q.1.56.66.53.71-.03 1.47-.61l1.67-1.05 4.25-1.3q-.48 1.2-2.68 1.56-.86.14-1.09.76a.49.49 0 0 0 .58.65l6.13-1.58q.47-.12.4-.6-.11-.72-.86-1.36l1.05-.39 3.6-.28q.16.03.26.05a.59.59 0 0 1-.02 1.15q-1.83.33-2.89 1.83a.78.76-81.2 0 1-.4.3l-9.45 3.12q.15-2.29-1.23-1.84a1.02 1-7.9 0 0-.69.89l-.17 2.96q-.02.41.38.48.81.14 1.64-.05-.4.5.8 1.66l-2.98-.74q-.53-.13-.64.4-.08.36.06.72.17.42.77.76 4.11 2.26 9.99 3.14l-6.41-.27q-1.19 1.4-.8 2.51-.26.17-.25.47l-.73.6-.94-.53-.22-3.7q-.03-.52-.53-.39-.32.09-.24.5l-.39.51q-.18.25-.45.09-.18-.12-.14-.29-.99-3.42-.59-6.92.32-2.81.07-4.65-.31-2.35-.51-4.7.1-.56.32-.45.26.14.22.46z" class="M"/><path d="M66.22 39.5l-.77.93q-.16.2.01.38 1.87 1.98-.19 4.5-1.31.86-4.37-2.31-.95-1.33-1.07-3.41a.62.62 0 0 1 .87-.6q2.54 1.12 5.52.51z" class="Z"/><path d="M81.3 39.81l2.91.54q.56.96.63 2.37.12.39-.04.94-.43.63-.41 1.04l-1.86-1.62a.25.25 0 0 0-.42.18l-.01.52q-.01.84-.59.23-.09-.1-.18-.19-.32-.31 0-.64 1.45-1.46-.03-3.37z" class="Ac"/><path d="M40.89 40.33q.75.64.86 1.36.07.48-.4.6l-6.13 1.58a.49.49 0 0 1-.58-.65q.23-.62 1.09-.76 2.2-.36 2.68-1.56l2.48-.57z" class="L"/><path d="M84.21 40.35h.6l5.53 1.35q-.95.17-1.34.58-.48.52.19.71.93.26.59.97-.52 1.07-1.3.91h-.61q-.52.01-.41.52.12.56.53.74 2.7 1.15 5.46 1.5a.67.67 0 0 0 .31-1.29l-2.81-1.04q0-.43.17-.68.24-.36.61-.13 2.34 1.43 2.66-.9 1.47.48 1.18 1.55.33 3.65-5.47 5.32-.65.05-.75-.57a.47.46-30.8 0 1 .11-.41l.48-.54q.4-.46-.09-.81l-1.81-1.28q-.57-.41-1.01.13-1.42 1.75-2.49.52.42-.94 1.97-.57a.31.3 6.2 0 0 .37-.29v-.38q0-.23-.22-.19-2.19.4-2.27-1.37-.02-.41.41-1.04 2.08.94 3.13.3a.4.4 0 0 0-.14-.74l-2.95-.5q-.07-1.41-.63-2.37z" class="E"/><path d="M67.72 42.01l-.58-.42a.29.29 0 0 1 .03-.49q.47-.27.76.27.97 1.79 2.77 2.1a.23.23 0 0 1 .03.44q-.66.19-1.52.02-.98-.19-1.08-1.2a1.01.99 15.9 0 0-.41-.72z" class="L"/><path d="M42.08 45.31q0 .07 0 .13-.34-.07-.67-.15 1.3-1.99 4.41-3.3.45-.19.56.28l.11.48q.06.24-.19.25-2.42.15-4.22 2.31z" class="M"/><path d="M90.34 41.7q2.38.61 4.05 1.89-.32 2.33-2.66.9-.37-.23-.61.13-.17.25-.17.68-1.16.22-2.47-.43.78.16 1.3-.91.34-.71-.59-.97-.67-.19-.19-.71.39-.41 1.34-.58z" class="Ad"/><path d="M84.84 42.72l2.95.5a.4.4 0 0 1 .14.74q-1.05.64-3.13-.3.16-.55.04-.94z" class="B"/><path d="M52.2 42.82q-1.45 1.54 1.85 1.98 1.15.16 1.75.57 1.02.7 1.17 1.56-2.81.1-2.94 4.64-.02.66-.56.27l-1.7-1.27a.8.78-44.9 0 0-.95.01l-4.3 3.21q-.67-.16-1.03-.57a.45.45 0 0 1 .11-.68l4.58-2.66a.42.42 0 0 0-.35-.76q-3.41 1.24-6.04 3.7-.55.51-.6-.24l-.29-5.07 4.59-2.39q2.05-.88 1.07-1.2 1.73-1 3.64-1.1zm-7.88 5.53a.43.43 0 0 0 .51.68l1.52-.89a.21.21 0 0 0-.06-.39q-1.1-.25-1.97.6z" class="H"/><g class="B"><path d="M52.2 42.82c6.12 1.62 6.47 7.59 10.36 11.81l.76-.01q.43 0 .56-.42.05-.16.09-.33.03-.15.13-.21.3-.19.87.22 1.98 1.24 4.79 2.33 1.46.57 1.9-.54.18-.46.67-.47 1.2-.03 2.1.7.38.31.86.24.79-.11 1.34-.64c5.08.34 9.48-2.22 14.08-3.96l3.3-1.57-.99 2.47q-.13.34-.45.17-.75-.4-1.6-.48a.39.38-37 0 0-.11.76q1.4.25 1.29 1.61-.05.64-.62.35c-3.95-2.02-6.08-.15-9.49 1.47l-6.44 1.13q-.52.09-.61.6l-.62 3.63-.88 5.76q-.25.23-.63.38-.35.13-.51-.31-.09-1.7.62-3.54.17-.44-.07-.85l-.33-.58q-.29-.5-.05-1.03l1.33-2.9a.49.49 0 0 0-.42-.69l-3.44-.2-4.38-2.1q-.49-.24-1-.08-2.25.66-2.85-.06l-4.79-8.55q-.15-.86-1.17-1.56-.6-.41-1.75-.57-3.3-.44-1.85-1.98z"/><rect x="-.38" y="-3.71" transform="matrix(.740805 -.671721 .671721 .740805 58.79 45.84)" width=".76" height="7.42" rx=".26"/></g><path d="M60.9 43q3.06 3.17 4.37 2.31 1.79-.05 1.8 3.01a2.08 2.07-8.4 0 0 2.68 1.98l3.31-.99q.69-.21.72.51l.16 3.82a1.24 1.24 0 0 0 2 .92q.78-.62 2.57-.69.15-.01.21.75l-2.09.88q-.55.53-1.34.64-.48.07-.86-.24-.9-.73-2.1-.7-.49.01-.67.47-.44 1.11-1.9.54-2.81-1.09-4.79-2.33l-2.42-7.5L60.9 43z" class="H"/><path d="M47.97 44.07l.59-.15q.98.32-1.07 1.2-.2-.42-.14-.62.09-.32.62-.43z" class="Ae"/><path d="M33.04 46.11q-.37.41.03 1.33.2.58-.1 1.11-.83.19-1.64.05-.4-.07-.38-.48l.17-2.96a1.02 1-7.9 0 1 .69-.89q1.38-.45 1.23 1.84z" class="Ac"/><path d="M98.52 44.03l.13 5.97q-.23 1.73-.56 1.85l-.49-5.39.92-2.43z" class="Ae"/><path d="M88.48 44.87q1.31.65 2.47.43l2.81 1.04a.67.67 0 0 1-.31 1.29q-2.76-.35-5.46-1.5-.41-.18-.53-.74-.11-.51.41-.52h.61z" class="D"/><path d="M123.71 46.23L126 59.14v3.48q-3.7 4.75-7.95 8.94-.07.07-3.07 2.23-1.82 1.31-3.28 3.96-.62 1.14-3.36 3.26-.4.31-.42.82-.02.71-.28 1.04-1.92 2.51-4.4 3.37-.25-1.09-1.49-1.26-3.45-.45-6.79-1.02l1.38-11.37 1.34 2.26a.39.39 0 0 0 .71-.1q.81-2.95 3.24-4.82.41-.32.46-.85.02-.17.02-.34 0-.24.17-.41l6.53-6.75a.87.86-22.5 0 0 .24-.57q0-.17 0-.34 0-.19.13-.32l8.48-8.56q.31-.31.35-.75l.02-.29q.04-.43.38-.69 2.36-1.83 3.84-4.38.23-.4.5-.02.42.6.96.57z" class="Ab"/><path d="M42.08 45.31q.7-.02.82 2.2l.29 5.07q.05.75.6.24 2.63-2.46 6.04-3.7a.42.42 0 0 1 .35.76l-4.58 2.66a.45.45 0 0 0-.11.68q.36.41 1.03.57.64.03.7.8l-3.24-.88a.61.61 0 0 0-.77.65l.82 9.43q0 .85-1.19.11a.95.92-78.7 0 1-.44-.68l-.8-6.39a.36.36 0 0 0-.68-.11l-.25.52q-.24.49-.42-.02-.36-.99.72-2.73-5.88-.88-9.99-3.14-.6-.34-.77-.76-.14-.36-.06-.72.11-.53.64-.4l2.98.74-.45 1.02q-.22.48.22.76.26.16.67-.03 1.23.5 2.49.1 1.27 1.35 3.06.98.57-.12.32-.65l-.35-.76a.44.44 0 0 1 .55-.6l.93.33q.32.12.35-.22l.52-5.7q0-.06 0-.13z" class="G"/><path d="M37.98 48.45c-.67.72-2.92 1.78-3.17 2.33q-.14.32-.01.69-.63.31-.59.49-.41.19-.67.03-.44-.28-.22-.76l.45-1.02q-1.2-1.16-.8-1.66.3-.53.1-1.11l6.62-1.93a.12.12 0 0 1 .1.22q-2.42 1.54-4.98 2.77-.37.18-.44.44-.04.15-.04.31 0 .33.31.23l3.34-1.03z" class="E"/><path d="M41.41 45.29q.33.08.67.15l-.52 5.7q-.03.34-.35.22l-.93-.33a.44.44 0 0 0-.55.6l.35.76q.25.53-.32.65-1.79.37-3.06-.98.54.03.71-.56a.38.37-87.5 0 0-.43-.48l-2.18.45q-.13-.37.01-.69c.25-.55 2.5-1.61 3.17-2.33q4.24-1.71 3.43-3.16z" class="D"/><path d="M27.78 46.21l2.12 14.85q1.12 3.45.81 7.46l-1.29 1.32-1.77-17.94-.29-5.44q.03-.27.42-.25z" class="M"/><path d="M97.6 46.46l.49 5.39q.28 2.75-.55 5.11-.96 1.65-.31 4.37.2 3.13-.84 5.55l-1.83 11.47q-.08.46-.41.78l-1.96 1.9q-1.06-2.88-.76-5.77 1.12-3.49.41-6.95l-.26-9.88q-.02-.48-.38-.8-.32-.27-.68-.33l-.16-.72q-.14-.61-.76-.55l-4.29.39q-.91.08-.4.83 1.77 2.6.6 3.83-.33-2.55-3.47-4.76c3.41-1.62 5.54-3.49 9.49-1.47q.57.29.62-.35.11-1.36-1.29-1.61a.39.38-37 0 1 .11-.76q.85.08 1.6.48.32.17.45-.17l.99-2.47q.08-.22.4-.2.44.03.4.47Q94 59.62 93.09 69q-.4 4.12.04 8.07a.29.29 0 0 0 .58 0l3.89-30.61z" class="o"/><path d="M56.97 46.93l4.79 8.55q-.95 1.31-4.02 1.55-.21-1.2-3.37-1.06-.48-1.28-1.77-1.58a1.08 1.05 34.8 0 0-.78.13q-2.07 1.25-4.6.07-.06-.77-.7-.8l4.3-3.21a.8.78-44.9 0 1 .95-.01l1.7 1.27q.54.39.56-.27.13-4.54 2.94-4.64z" class="D"/><path d="M90.1 50.46q.05 1.28.61 1.08c-4.6 1.74-9 4.3-14.08 3.96l2.09-.88q.35-.22.48-.52.15-.39-.24-.55-.47-.2-.5-.81.49-.26.88-.83.28-.42.78-.51 3.47-.65 4.42-3.9 1.07 1.23 2.49-.52.44-.54 1.01-.13l1.81 1.28q.49.35.09.81l-.48.54a.47.46-30.8 0 0-.11.41q.1.62.75.57z" class="o"/><path d="M44.32 48.35q.87-.85 1.97-.6a.21.21 0 0 1 .06.39l-1.52.89a.43.43 0 0 1-.51-.68z" class="B"/><path d="M81.44 48.56q.29-.3.71-.14a.46.46 0 0 1 .07.82q-2.01 1.15-4.43 1.3-.89.06-.07-.3l3.32-1.42q.22-.09.4-.26z" class="Ac"/><path d="M36.7 52.06q-1.26.4-2.49-.1-.04-.18.59-.49l2.18-.45a.38.37-87.5 0 1 .43.48q-.17.59-.71.56z" class="B"/><path d="M27.65 51.9l1.77 17.94.65 6.12.55 6.05q.05 1.67-.81 2.74-.13-.09-.41-.06-.19.02-.38.16-5.51 3.92-9.3 9.09a1.16 1.16 0 0 0 .79 1.84q1.87.25 1.53 1.43l.07 1.7 3.01 2.95q-1.02.89-1.05 2.2-.01.41-.3.71l-3.24 3.44q-.3.32-.69.11l-1.38-.75Q8.32 97.37 3.48 83.65q5.67-7.3 11.44-14.46c1.63-2.02 2.81-4.88 4.94-7.01q1.69-1.69 2.53-3.25.98-1.83 2.06-3.57a.45.35-83 0 1 .15-.15l.92-.6q.11-.07.12-.21.09-1.88 2.01-2.5z" class="S"/><path d="M31.84 57.27q-1.25-.27-.99-3.59-.08-.41.24-.5.5-.13.53.39l.22 3.7z" class="Aa"/><path d="M30.85 53.68q-.26 3.32.99 3.59l.94.53q.19.4.18.82 0 .15-.08.25-.11.15-.29.2-.32.09-.22.4.1.32.4.64l1.49 5.03.3 6.14q-1.18 1.42-1.31 3.24a.72.72 0 0 1-1.42.08l-1.12-6.08q.31-4.01-.81-7.46l-.03-7.07q-.04.17.14.29.27.16.45-.09l.39-.51z" class="D"/><path d="M47.22 54.59q2.53 1.18 4.6-.07a1.08 1.05 34.8 0 1 .78-.13q1.29.3 1.77 1.58l-5.33.18a.25.25 0 0 0 0 .5l8.7.38q3.07-.24 4.02-1.55.6.72 2.85.06.51-.16 1 .08l4.38 2.1q-.72.92-1.99-.36-.35-.35-1.67-.23l-2.08 5.95q-1.71-.39-1.05 2.44.1.41-.1.79-.91 1.66.81 3.07.37.31.85.39 2.47.45 2.26 1.54c-3.06-.8-7.42-5.01-10.25-1.71-1.33 1.55-1.32 4.81-1.85 6.95q.03.45-.08.74a.46.46 0 0 1-.86 0l-.16-.45a.34.33 37.9 0 0-.65.08q-.19 2.01-1.14 1.56l-.08-1.92q-.03-.74-.58-.25l-1.08.97q-.58-.18-.05-1.1.21-.37.71-.73 3.47-2.52 5-6.65.25-.66-.42-.45-1.38.44-2.13 1.38-3.46 3.35-3.77 1.59 1.85-.72 2.26-2.38l.49-1.43 4.86-4.49q.39-.48.76-.38.22.06.31.66-1.14.95-1.75 2.07-.42.77.28.23 1.27-.98 2.59-1.91c2.04-1.44 4.64-1.28 5.44-4.68a.38.38 0 0 0-.28-.46q-.13-.03-.3-.03l.45-.87q.22-.42-.24-.54-2.29-.59-2.02.77l-10.24.04a.91.9 18 0 0-.73.37q-.4.57-1.09.79a.51.51 0 0 0-.17.88q.3.26.81.2-.48.83-.34 1.15-1.36.84-2.65-.52a1.46 1.46 0 0 0-2.52.89q-.22 2.94 1.47 4.07 1.14 2.04-.01 1.86l-1.69-1.14-.96-2.6q-.01.42-.33-.08l-.82-9.43a.61.61 0 0 1 .77-.65l3.24.88z" class="Ad"/><path d="M40.97 54.49q-1.08 1.74-.72 2.73.18.51.42.02l.25-.52a.36.36 0 0 1 .68.11l.8 6.39a.95.92-78.7 0 0 .44.68q1.19.74 1.19-.11.32.5.33.08l.21.91q.1.43-.19.78-.94 1.12-.3 3.26-.21.95-2.06-.02a.5.5 0 0 0-.65.73q.6.86 1.7.42a.4.39-8 0 1 .54.4l-.05.48a.64.63 20.2 0 1-1 .46q-1.79-1.25-3.93-1.53-1.4-1.3-1.44-3.37.28-.38 1.13-.56.53-.11.31-.61-1.07-2.41-2.38-4.65-.97-1.64.22-4.24-2.25.5-1.91-2.11l6.41.27z" class="D"/><path d="M34.56 54.22q-.34 2.61 1.91 2.11-2.13 1.39-2.71.4-.39-1.11.8-2.51z" class="B"/><path d="M54.37 55.97q3.16-.14 3.37 1.06l-8.7-.38a.25.25 0 0 1 0-.5l5.33-.18z" class="Z"/><path d="M90.52 57.3q-1.28 5.59-.53 11.54-1.35-.46-2.08 3.4l-2.7.39q-4.12-1.62-7.73.15c-2.11 1.03-2.89.97-4.94.24q-.52-.19-.79.18-.25.32.13.48l3.34 1.45q.33.74 1.14 1.34c-1.16.16-1.95.24-3.05-.34q-4.29-2.29-8.52-2.71-2.89-2.98-4.67-.35-.67 3.67-4.75 4.77-.54-.75-.45-1.29c.53-2.14.52-5.4 1.85-6.95 2.83-3.3 7.19.91 10.25 1.71q-.22 1.01 2.49 1.19 1.36.2 2.53-.93.38-.37.09-.82l-.51-.78-1.25-2.82a.31.3 69.8 0 0-.36-.17q-.12.03-.24.07-.23.06-.14.27l1.48 3.65q-.79.2-1.48-.6c-1.25-1.45-.23-2.88-2.25-4.43l1.25-.8q.34-.21.27-.6l-1.23-6.63a.55.54-78.1 0 0-.23-.36q-.44-.33-1.11-.42 1.32-.12 1.67.23 1.27 1.28 1.99.36l3.44.2a.49.49 0 0 1 .42.69l-1.33 2.9q-.24.53.05 1.03l.33.58q.24.41.07.85-.71 1.84-.62 3.54-.31 1.25-.16 1.95.32 1.54.63.04l.1-.46a.5.49 25.5 0 1 .8-.28q1.27 1.05 2.84 1.13.35.02.54-.17.21-.21.24-.51.06-.53-.47-.56-2.18-.14-3.38-1.21l.88-5.76q1.97-1.44 2.72-3.43a.93.93 0 0 1 1.78.47q-.26 1.64 1.58 1.49a.66.66 0 0 1 .69.53q.39 1.98-.93 3.45-.47.53.24.54 5.07.12 5.06-3.65 1.17-1.23-.6-3.83-.51-.75.4-.83l4.29-.39q.62-.06.76.55l.16.72zm-20.27 5.91l-.46 1.76a.67.53-35.1 0 0 1.2.07q.31-.92.01-1.85a.39.39 0 0 0-.75.02zm12.74 6.36q1.37 1.66 3.32 1.38a.48.48 0 0 0 .04-.94c-2.3-.52-2.37-3.37-5.69-1.32q-.58.36.09.45l1.92.25a.52.48-13.5 0 1 .32.18z" class="H"/><path d="M37.19 66.39l-2.61-5.85q-.37-.82-.14.05l2.1 8.04q.14.53-.38.34-1.42-.54-1.19-1.76.43-2.3-.71-2.07l-1.49-5.03q1.28-.95.74-2.91-.01-.3.25-.47.58.99 2.71-.4-1.19 2.6-.22 4.24 1.31 2.24 2.38 4.65.22.5-.31.61-.85.18-1.13.56z" class="o"/><path d="M82.04 56.32q3.14 2.21 3.47 4.76.01 3.77-5.06 3.65-.71-.01-.24-.54 1.32-1.47.93-3.45a.66.66 0 0 0-.69-.53q-1.84.15-1.58-1.49a.93.93 0 0 0-1.78-.47q-.75 1.99-2.72 3.43l.62-3.63q.09-.51.61-.6l6.44-1.13z" class="Af"/><path d="M64.29 58.52q-.45 2.12-2.19 1.8-.48-.09-.94.09-2 .76-2.85 2.89-.09-.6-.31-.66-.37-.1-.76.38.32-2.53 2.77-4.05.34-.21.12.12l-.28.45a.34.34 0 0 0 .28.53q2.03.04 2.35-2.19-.27-1.36 2.02-.77.46.12.24.54l-.45.87z" class="E"/><path d="M97.54 56.96q.36 2.2-.31 4.37-.65-2.72.31-4.37zm-64.03.24q.54 1.96-.74 2.91-.3-.32-.4-.64-.1-.31.22-.4.18-.05.29-.2.08-.1.08-.25.01-.42-.18-.82l.73-.6z" class="B"/><path fill="#fcb202" d="M66.33 57.13q.67.09 1.11.42a.55.54-78.1 0 1 .23.36l1.23 6.63q.07.39-.27.6l-1.25.8q-.23.63-.08.85.15.42.05.75-.16.53-.68.3-3.22-1.43-2.42-4.76l2.08-5.95z"/><path d="M90.52 57.3q.36.06.68.33.36.32.38.8l.26 9.88q-1.06-.18-1.03 1.19.02.59-.49.28-.29-.18-.33-.94-.75-5.95.53-11.54z" class="E"/><path d="M62.48 57.88q-.32 2.23-2.35 2.19a.34.34 0 0 1-.28-.53l.28-.45q.22-.33-.12-.12-2.45 1.52-2.77 4.05l-4.86 4.49q-3.21 2.38-4.47.06-.29-.54.32-.62 4.69-.62 7.02-4.17-.09-1.55-1.56-1.81c-1.22-.23-1.66-.42-2.63-.81q-.51.06-.81-.2a.51.51 0 0 1 .17-.88q.69-.22 1.09-.79a.91.9 18 0 1 .73-.37l10.24-.04z" class="H"/><path d="M64.29 58.52q.17 0 .3.03a.38.38 0 0 1 .28.46c-.8 3.4-3.4 3.24-5.44 4.68q-1.32.93-2.59 1.91-.7.54-.28-.23.61-1.12 1.75-2.07.85-2.13 2.85-2.89.46-.18.94-.09 1.74.32 2.19-1.8z" class="Ag"/><path d="M37.19 66.39q.04 2.07 1.44 3.37-.11.15-.22.31-.62-.06-.77.13l-.78-.01q-.62-.01-.51.6.59 3.12-.68 5.84-.56.84-.55 1.78.01.3-.24.13-.1-.07-.17-.2c-.13-.23.07-5.81-.15-7.06l-.3-6.14q1.14-.23.71 2.07-.23 1.22 1.19 1.76.52.19.38-.34l-2.1-8.04q-.23-.87.14-.05l2.61 5.85z" class="M"/><path fill="#fcb202" d="M51.06 60.16c.97.39 1.41.58 2.63.81q1.47.26 1.56 1.81l-3.61 1.6q-1.4-.19-.92-3.07-.14-.32.34-1.15z"/><path d="M50.72 61.31q-.48 2.88.92 3.07l-1.51 1.28q-.41.35-.9.1-1.08-.57-2.21-.01-1.69-1.13-1.47-4.07a1.46 1.46 0 0 1 2.52-.89q1.29 1.36 2.65.52z" class="D"/><path d="M55.25 62.78q-2.33 3.55-7.02 4.17-.61.08-.32.62 1.26 2.32 4.47-.06l-.49 1.43-1.73.94q-.44.24-.88.02-1.54-.77-2.27-2.29 1.15.18.01-1.86 1.13-.56 2.21.01.49.25.9-.1l1.51-1.28 3.61-1.6z" class="a"/><path d="M64.25 63.08q-.8 3.33 2.42 4.76.52.23.68-.3.1-.33-.05-.75 1.03.77.58 1.98-.16.43.07.84l1.56 2.89q-2.71-.18-2.49-1.19.21-1.09-2.26-1.54-.48-.08-.85-.39-1.72-1.41-.81-3.07.2-.38.1-.79-.66-2.83 1.05-2.44zm6 .13a.39.39 0 0 1 .75-.02q.3.93-.01 1.85a.67.53-35.1 0 1-1.2-.07l.46-1.76z" class="O"/><path fill="#286289" d="M126 62.62v4.36c-3.28 32.51-26.52 56.34-59.15 59.02h-7.84l-6.15-.92 6.1-8.39q.29-.39-.03-.74l-.41-.46c13.37.76 24.71-.83 35.64-8.62q2.09-1.5 4.41-2.33c6.93-2.51 10-6.78 6.54-14.12q-1.03-2.18-1.87-4.18 2.48-.86 4.4-3.37.26-.33.28-1.04.02-.51.42-.82 2.74-2.12 3.36-3.26 1.46-2.65 3.28-3.96 3-2.16 3.07-2.23 4.25-4.19 7.95-8.94z"/><path d="M44.36 63.87l.96 2.6q.04 1.08.66 2.78.21.6-.54.94l-1.17-.31q.46-.29.3-.64-.35-.72-.49-.42-.64-2.14.3-3.26.29-.35.19-.78l-.21-.91z" class="O"/><path d="M67.38 65.94c2.02 1.55 1 2.98 2.25 4.43q.69.8 1.48.6.2-.95.51-1l.51.78q.29.45-.09.82-1.17 1.13-2.53.93l-1.56-2.89q-.23-.41-.07-.84.45-1.21-.58-1.98-.15-.22.08-.85z" class="B"/><path d="M45.32 66.47l1.69 1.14q.73 1.52 2.27 2.29.44.22.88-.02l1.73-.94q-.41 1.66-2.26 2.38l-2.84-.22q-.81-.21-1.35-.91.75-.34.54-.94-.62-1.7-.66-2.78z" class="H"/><path d="M71.62 69.97q-.31.05-.51 1l-1.48-3.65q-.09-.21.14-.27.12-.04.24-.07a.31.3 69.8 0 1 .36.17l1.25 2.82z" class="O"/><path d="M96.39 66.88l-.05 5.71-1.38 11.37-.64 3.3-1.18 6.84-.22-.89q-.13-.51-.44-.09-3.57 4.61-8.52 7.89-2.34 2.1-3.27 1.34l2.62-2.46q4-2.11 6.69-5.97 3.94-3.41 2.61-7.74.46-.52.88-1.22.15-.24.13-.43-.02-.21-.18-.36a.49.49 0 0 0-.74.07l-1.41 1.93q-1.43.48-2.52 1.55l-5.63 3.46-4.12 2.56q-.4.25-.43.73l-.1 1.77q-.45.62-.6.26-.33-.34-.6-.32-.88-.15-.55-1.25.17-.53-.32-.79-.83-.44-2.13-.19l-.28-.93q5.1 0 8.82-2.72 3.62-1.25 5.82-3.68.43-.48-.21-.59-.87-.16-1.63.71-.62-1.35-2.6-.74l7.98-4.97 1.96-1.9q.33-.32.41-.78l1.83-11.47z" class="Ad"/><path d="M73.49 67.44q1.2 1.07 3.38 1.21.53.03.47.56-.03.3-.24.51-.19.19-.54.17-1.57-.08-2.84-1.13a.5.49 25.5 0 0-.8.28l-.1.46q-.31 1.5-.63-.04-.15-.7.16-1.95.16.44.51.31.38-.15.63-.38z" class="a"/><path d="M82.67 69.39l-1.92-.25q-.67-.09-.09-.45c3.32-2.05 3.39.8 5.69 1.32a.48.48 0 0 1-.04.94q-1.95.28-3.32-1.38a.52.48-13.5 0 0-.32-.18z" class="E"/><path d="M50.29 77.28q-.93 2.05-.29 3.11.32.54.69.02l1.34-1.93q.95.45 1.14-1.56a.34.33 37.9 0 1 .65-.08l.16.45a.46.46 0 0 0 .86 0q.11-.29.08-.74-.09.54.45 1.29-.84.6-1.17 1.24-.3.57.29.82l1.94.85-5.11.49q-.22.02-.25.23-.02.13-.11.27-.05-.41-.17-.62-.21-.33-.48-.05-.49.52.19 1.47-.58.07-.65.46-.18.93.51 1.37-1.64 1.12-2.08-.77a1.04.94 50.2 0 1 .02-.52q.59-1.79-.23-3.62-.39-.87-.57.07l-.55 2.75q-.93.02-1.43-.86a.48.48 0 0 0-.9.26l.34 6.18-5.81-3.21q2.61-1.18 3.37-2.86.18-.41.62-.47l.94-.14q.55-.08.61-.64.15-1.62-.74-2.89-.3-.43-.36-.95-.29-2.34-1.87-3.99l-.91-1.25-2.4-1.39q.11-.16.22-.31 2.14.28 3.93 1.53a.64.63 20.2 0 0 1-.46l.05-.48a.4.39-8 0 0-.54-.4q-1.1.44-1.7-.42a.5.5 0 0 1 .65-.73q1.85.97 2.06.02.14-.3.49.42.16.35-.3.64-.38.27-.47.9l.96 5.65a2.03 2.03 0 0 0 3.47 1.06q3.29-3.46 5.17-7.76.75-.94 2.13-1.38.67-.21.42.45-1.53 4.13-5 6.65-.5.36-.71.73-.53.92.05 1.1z" class="Ag"/><path d="M91.84 68.31q.71 3.46-.41 6.95-.15 3.28-2.84 4.49-.39.18-.55-.22-.06-.15-.12-.28-.18-.36-.57-.27-.7.17-1.05.67-.37.29-.75.18-.53-.15-.08-.46 3.31-2.33 2.44-7.13.73-3.86 2.08-3.4.04.76.33.94.51.31.49-.28-.03-1.37 1.03-1.19z" class="M"/><path d="M30.71 68.52l1.12 6.08a.72.72 0 0 0 1.42-.08q.13-1.82 1.31-3.24c.22 1.25.02 6.83.15 7.06q.07.13.17.2.25.17.24-.13-.01-.94.55-1.78l.14.34a.48.48 0 0 0 .88.05l.86-1.65a.35.35 0 0 1 .66.18L37.93 82q-.49.01-.53.73l-.87-3.71q-.18-.77-.55-.07-.6 1.14-.65 2.58-.83-.97-1.67-1.2a.85.84 77.9 0 0-.87 1.35q3.33 4.13 7.9 6.76 2.15 1.24 5.91 1.85 3.82.62 7.26 1.68 3.86 1.86 9.21.87.44-.08.24-.48-.79-1.63-2.87-.65l-.22-1.17.79-.48q.4-.24.83-.04 1.88.87 4.75 2.62 2.88 1.75 3.55-.52l-1.35-2.04a.27.27 0 0 1 .36-.38l1.38.8q.37.21.77.06 2.52-1 3.54-3.75.45.54 1.34-.77.42-.62.47.13.09 1.39-.55 2.07-2.53 2.69-5.45 5.81l-17.83-.34q-2.1-.96-4.78-.63-1.08-1.06-2.37-.77l-2.9-1.26-7.89-5.38q-.23-1.82-3.65-2.96l.33-.18q.31-.17.21-.52l-1.7-6.05-.65-6.12 1.29-1.32z" class="L"/><path d="M53.4 69.73q-1.88 4.3-5.17 7.76a2.03 2.03 0 0 1-3.47-1.06l-.96-5.65q1.25 2.16 2.95 1.14.32-.2.16-.54l-.12-.28 2.84.22q.31 1.76 3.77-1.59z" class="a"/><path d="M37.64 70.2q1.21 1.39 1.73 1.68 1.45.8 1.44-.42l.91 1.25q-.44.13-.73.55a1.05 1.03-38 0 0-.13.98q1.43 3.81-1.52 6.08-.36.27-.51.69-.28.78-.9.99l.28-6.45a.35.35 0 0 0-.66-.18l-.86 1.65a.48.48 0 0 1-.88-.05l-.14-.34q1.27-2.72.68-5.84-.11-.61.51-.6l.78.01z" class="H"/><path d="M38.41 70.07l2.4 1.39q.01 1.22-1.44.42-.52-.29-1.73-1.68.15-.19.77-.13z" class="D"/><path d="M44.27 69.88l1.17.31q.54.7 1.35.91l.12.28q.16.34-.16.54-1.7 1.02-2.95-1.14.09-.63.47-.9z" class="B"/><path d="M64.79 73.42q-1.97-.69-2.89-.42l-1.78.07q1.78-2.63 4.67.35z" class="L"/><path d="M85.21 72.63l-5.11.51q-.83.08-.1.49l1.03.57q1.28 1.64.58 3.15-1.63 3.48-3.44 7.7-.21.64.17 1.71.2.56.72.25l6.36-3.79q.49-.3.09-.71l-.57-.57a.34.34 0 0 1 .18-.57q2.51-.44 1.18-1.72.35-.5 1.05-.67.39-.09.57.27.06.13.12.28.16.4.55.22 2.69-1.21 2.84-4.49-.3 2.89.76 5.77L84.21 86q-.27.08-.42.26-1.2.21-1.94.83-4.02.69-6.25 3.23a.51.51 0 0 0 .51.83l4.8-1.26a.17.17 0 0 1 .2.22q-.06.17-.24.25-3.13 1.37-6.51 1.61a.8.79 8.2 0 0-.68.5q-.35.88.33.55l.28.93-3.64.1q2.92-3.12 5.45-5.81.64-.68.55-2.07-.05-.75-.47-.13-.89 1.31-1.34.77 2.44-3.61 3.31-7.59 2.52-4.31-2.93-4.09l-3.34-1.45q-.38-.16-.13-.48.27-.37.79-.18c2.05.73 2.83.79 4.94-.24q3.61-1.77 7.73-.15z" class="B"/><path d="M87.91 72.24q.87 4.8-2.44 7.13-.45.31.08.46.38.11.75-.18 1.33 1.28-1.18 1.72a.34.34 0 0 0-.18.57l.57.57q.4.41-.09.71l-6.36 3.79q-.52.31-.72-.25-.38-1.07-.17-1.71 1.96 1.1 4.79-1.28.3-.25.1-.58l-.2-.34q-.2-.35.16-.54l.46-.23q.46-.24.3-.74-.94-2.94.08-5.83a1.37 1.37 0 0 0-1.8-1.73l-1.03.42-1.03-.57q-.73-.41.1-.49l5.11-.51 2.7-.39z" class="Af"/><path fill="#fe9c00" d="M41.72 72.71q1.58 1.65 1.87 3.99.06.52.36.95.89 1.27.74 2.89-.06.56-.61.64l-.94.14q-.44.06-.62.47-.76 1.68-3.37 2.86-1.25-.32-1.75-1.92.04-.72.53-.73.62-.21.9-.99.15-.42.51-.69 2.95-2.27 1.52-6.08a1.05 1.03-38 0 1 .13-.98q.29-.42.73-.55z"/><path fill="#fec800" d="M61.9 73c2.14 5.41 6.16 4.37 10.61 6.33a.35.34-55.6 0 1 .1.56l-.24.24q-.31.32-.73.16-4.34-1.68-8.38.27-.83-1.51-2.53-1.78l-4.3 1.97-1.94-.85q-.59-.25-.29-.82.33-.64 1.17-1.24 4.08-1.1 4.75-4.77L61.9 73z"/><path fill="#fe9c00" d="M61.9 73q.92-.27 2.89.42 4.23.42 8.52 2.71c1.1.58 1.89.5 3.05.34q1.54.94 1.79 2.75-.87 3.98-3.31 7.59-1.02 2.75-3.54 3.75-.4.15-.77-.06l-1.38-.8a.27.27 0 0 0-.36.38l1.35 2.04q-2.22-.84-3.08-2.58-.21-.44-.68-.59l-5.34-1.66q.01-1.39.4-1.3.87.24.92-.57l2.19-2.73q.07-.78-1.29-2.13 4.04-1.95 8.38-.27.42.16.73-.16l.24-.24a.35.34-55.6 0 0-.1-.56c-4.45-1.96-8.47-.92-10.61-6.33zm7.74 12.49l1.43 2.73q.19.36.6.41l.33.04q.88.12.12-.34-1.45-.89-1.69-2.67a1.33 1.3-72.5 0 0-.4-.79q-.96-.92-2.27-.72a.3.3 0 0 0 0 .59l1.1.18a1.09 1.08 80.9 0 1 .78.57z"/><path d="M78.17 85.05q1.81-4.22 3.44-7.7.7-1.51-.58-3.15l1.03-.42a1.37 1.37 0 0 1 1.8 1.73q-1.02 2.89-.08 5.83.16.5-.3.74l-.46.23q-.36.19-.16.54l.2.34q.2.33-.1.58-2.83 2.38-4.79 1.28z" class="H"/><path d="M75.22 75.13q5.45-.22 2.93 4.09-.25-1.81-1.79-2.75-.81-.6-1.14-1.34z" class="a"/><path d="M30.07 75.96l1.7 6.05q.1.35-.21.52l-.33.18q-.2.3-.45.01-.22-.25-.16-.71l-.55-6.05z" class="M"/><path d="M52.03 78.48l-1.34 1.93q-.37.52-.69-.02-.64-1.06.29-3.11l1.08-.97q.55-.49.58.25l.08 1.92z" class="D"/><path d="M37.4 82.73q.5 1.6 1.75 1.92l5.81 3.21 6.08-.16a.64.64 0 0 1 .66.68q-.04.68-.61.81-10.48.65-15.76-7.66.05-1.44.65-2.58.37-.7.55.07l.87 3.71z" class="E"/><path fill="#fd7200" d="M60.73 78.78l3.82 3.91-2.19 2.73q-1.61-1.32-3.3-1.03-.62.11-.06.39l2.44 1.21q-.39-.09-.4 1.3-3.29-2.33-7.19-2.93-.51-.08-.96.2-1.55 1-2.53-.19-.69-.44-.51-1.37.07-.39.65-.46.23.25.42.3.35.09.33-.27-.01-.42-.29-.83.09-.14.11-.27.03-.21.25-.23l5.11-.49 4.3-1.97z"/><path d="M60.73 78.78q1.7.27 2.53 1.78 1.36 1.35 1.29 2.13l-3.82-3.91z" class="L"/><path d="M50.36 84.37q.98 1.19 2.53.19.45-.28.96-.2 3.9.6 7.19 2.93l5.34 1.66q.47.15.68.59.86 1.74 3.08 2.58-.67 2.27-3.55.52-2.87-1.75-4.75-2.62-.43-.2-.83.04l-.79.48-1.01-.82q-.74-.59.21-.61.14 0 .28-.01a.47.47 0 0 0 .3-.78q-1.52-1.69-3.77-1.52-.46.04-.77-.29-.95-.99-3.39-.31-3.92-.29-5.12-3.92l.55-2.75q.18-.94.57-.07.82 1.83.23 3.62a1.04.94 50.2 0 0-.02.52q.44 1.89 2.08.77z" class="B"/><path d="M35.33 81.53q5.28 8.31 15.76 7.66 2.3 1.12 4.47.48a.28.28 0 0 0-.04-.54l-2.47-.29a.37.36-49.9 0 1-.06-.71l1.69-.52a.36.36 0 0 0-.13-.7q-2.87.21-2.48-.71 2.44-.68 3.39.31.31.33.77.29 2.25-.17 3.77 1.52a.47.47 0 0 1-.3.78q-.14.01-.28.01-.95.02-.21.61l1.01.82.22 1.17-6.58.26q-3.44-1.06-7.26-1.68-3.76-.61-5.91-1.85-4.57-2.63-7.9-6.76a.85.84 77.9 0 1 .87-1.35q.84.23 1.67 1.2z" class="Ag"/><path d="M50.96 81.74q.28.41.29.83.02.36-.33.27-.19-.05-.42-.3-.68-.95-.19-1.47.27-.28.48.05.12.21.17.62z" class="O"/><path d="M46.95 82.28q1.2 3.63 5.12 3.92-.39.92 2.48.71a.36.36 0 0 1 .13.7l-1.69.52a.37.36-49.9 0 0 .06.71l2.47.29a.28.28 0 0 1 .04.54q-2.17.64-4.47-.48.57-.13.61-.81a.64.64 0 0 0-.66-.68l-6.08.16-.34-6.18a.48.48 0 0 1 .9-.26q.5.88 1.43.86z" class="a"/><path fill="#294963" d="M30.62 82.01q-.06.46.16.71.25.29.45-.01l.08 7.56q.04.82-.34.96-6.52 2.45-8.86 7.68l-.07-1.7q1.62-6.19 6.96-8.33 2.19-.88.81-4.13.86-1.07.81-2.74z"/><path d="M31.23 82.71q3.42 1.14 3.65 2.96-.49.33-1.35.01-.14-.49-.47-.69-.41-.23-.68.11-.55.68.34 2.98l1.18 3.68q.37 2.9 3.65 5.2-.74.15.29 1.19-.53.05-.72.32-1.38-1.06-2.66-2.26-.1-.08-.18-.11-.17-.05-.27 0-.21.09-.05.25l4.81 4.56 6.45 4.92a.44.44 0 0 0 .69-.47q-.28-1.04-1.27-1.49 1.54-.81-2.16-3.21l2.47.17.19-.34q.02.58 1.05 1.28.47.31.32.44-.24 1.42.7 2.69c1.15 1.57 3.43 1.68 5.27 2.16q-3.34.59-6.61-.11-2.53-.54-5.66-2.98c-2.08-1.62-4.75-3.17-6.33-5.29q-.8-1.06-1.65-2.11-.33-.4-.24-.92.33-1.77-.13-3.45l-.55-1.93-.08-7.56zm3.02 11.77l-.53-.76a.45.44-48.3 0 0-.76.05q-.31.56.17 1.1.4.45.82.35.71-.15.3-.74z" class="O"/><path d="M94.96 83.96q3.34.57 6.79 1.02 1.24.17 1.49 1.26.84 2 1.87 4.18c3.46 7.34.39 11.61-6.54 14.12q-2.32.83-4.41 2.33c-10.93 7.79-22.27 9.38-35.64 8.62q-5.91-.74-11.88-1.19c-7.32-.56-12.57-3.65-16.93-9.28-1.36-1.75-2.76-2.22-4.59-3.16l-3.01-2.95q2.34-5.23 8.86-7.68.38-.14.34-.96l.55 1.93q-1.86 4.42-1.68 7.86a1.27 1.26 19 0 0 .43.88c3.53 3.13 9.04 9.18 13.75 9.78q6.58.84 22.44 1.13 4.95.09 8.41-.22c8.23-.76 14.99-4.74 22.16-8.14q1.63-.77 2.21-1.6 1.21-1.72-.81-3.17-2.86-2.07-4.82-4.23l.37-7.23.64-3.3z" class="AZ"/><path d="M92.61 86.18l-1.32-.01 1.41-1.93a.49.49 0 0 1 .74-.07q.16.15.18.36.02.19-.13.43-.42.7-.88 1.22z" class="K"/><path d="M62.36 85.42q-.05.81-.92.57L59 84.78q-.56-.28.06-.39 1.69-.29 3.3 1.03z" class="L"/><path d="M68.86 84.92l-1.1-.18a.3.3 0 0 1 0-.59q1.31-.2 2.27.72a1.33 1.3-72.5 0 1 .4.79q.24 1.78 1.69 2.67.76.46-.12.34l-.33-.04q-.41-.05-.6-.41l-1.43-2.73a1.09 1.08 80.9 0 0-.78-.57z" class="O"/><path d="M29.81 84.75Q31.19 88 29 88.88q-5.34 2.14-6.96 8.33.34-1.18-1.53-1.43a1.16 1.16 0 0 1-.79-1.84q3.79-5.17 9.3-9.09.19-.14.38-.16.28-.03.41.06z" class="Ab"/><path d="M33.53 85.68q-1.15.32-.81 2.4-.89-2.3-.34-2.98.27-.34.68-.11.33.2.47.69z" class="E"/><path d="M33.53 85.68q.86.32 1.35-.01l7.89 5.38q3 3.13 2.65 7.96l-.28 1.48-.19.34-.61-.03a1.25 1.23-22.2 0 1-.78-.32l-9.66-8.72-1.18-3.68q-.34-2.08.81-2.4z" class="G"/><path d="M86.81 86.74q-3.11 1.58-3.98 3.56-3.72 2.72-8.82 2.72-.68.33-.33-.55a.8.79 8.2 0 1 .68-.5q3.38-.24 6.51-1.61.18-.08.24-.25a.17.17 0 0 0-.2-.22l-4.8 1.26a.51.51 0 0 1-.51-.83q2.23-2.54 6.25-3.23.33 1.33 2.54.55a.74.74 0 0 0 .16-1.31q-.19-.13-.76-.07.15-.18.42-.26 1.98-.61 2.6.74z" class="H"/><path d="M82.83 90.3q.87-1.98 3.98-3.56.76-.87 1.63-.71.64.11.21.59-2.2 2.43-5.82 3.68z" class="Z"/><path d="M83.79 86.26q.57-.06.76.07a.74.74 0 0 1-.16 1.31q-2.21.78-2.54-.55.74-.62 1.94-.83z" class="n"/><path d="M91.29 86.17l1.32.01q1.33 4.33-2.61 7.74l-6.76 5.44-2.45 1.8q-.35.26-.77.11-.5-.2-.74-.81l-.79-4.22.1-1.77q.03-.48.43-.73l4.12-2.56c-1.55 2.76-3.77 3.15-2.74 7.09q.17.64.67.21 4.78-4.1 7.63-7.68 1.38-1.74.07-3.08 1.09-1.07 2.52-1.55z" class="AY"/><path d="M94.32 87.26l-.37 7.23q-.05 4.5-4.33 6.44-2.74.05-6.9 3.42.22-1.36 1.85-2.37 4.2-2.73 7.9-6.48.4-.41.67-1.4l1.18-6.84z" class="Ae"/><path d="M88.77 87.72q1.31 1.34-.07 3.08-2.85 3.58-7.63 7.68-.5.43-.67-.21c-1.03-3.94 1.19-4.33 2.74-7.09l5.63-3.46z" class="G"/><path d="M42.77 91.05l2.9 1.26q.17.49.51.38.25-.08-.01-.13-.13-.02-.5.07-.5.12-.39.62c.21.92.61 1.25 1.54 1.69q.69.33.74 1.11-1.39-.29-1.19.69.91 4.44 4.79 4.55 2.81-.28 4.34.56.53.29-.06.42-4.42.95-8.93-.06.15-.13-.32-.44.49-1.16.32-2.2a.11.11 0 0 0-.22-.01l-.13.4a.3.3 0 0 1-.41.19q-.54-.25-.33-1.14.35-4.83-2.65-7.96z" class="M"/><path d="M53.86 91.97l6.58-.26q2.08-.98 2.87.65.2.4-.24.48-5.35.99-9.21-.87z" class="B"/><path fill="#121e32" d="M31.86 92.2q.46 1.68.13 3.45-.09.52.24.92.85 1.05 1.65 2.11c1.58 2.12 4.25 3.67 6.33 5.29q3.13 2.44 5.66 2.98 3.27.7 6.61.11c2.81-.33 4.92 1.07 7.39 1.12q2.94.06 5.75.04 3.94 1.55 6.1-.76.29-.6 1.11-.67.44-.03 1.13.31 2.95 1.5 6.29-.34 6.14-3.4 9.37-5.83 4.28-1.94 4.33-6.44 1.96 2.16 4.82 4.23 2.02 1.45.81 3.17-.58.83-2.21 1.6c-7.17 3.4-13.93 7.38-22.16 8.14q-3.46.31-8.41.22-15.86-.29-22.44-1.13c-4.71-.6-10.22-6.65-13.75-9.78a1.27 1.26 19 0 1-.43-.88q-.18-3.44 1.68-7.86z"/><path fill="#e6c7a1" d="M33.9 91.76l9.66 8.72a1.25 1.23-22.2 0 0 .78.32l.61.03-2.47-.17-4.93-3.7q-3.28-2.3-3.65-5.2z"/><path d="M45.67 92.31q1.29-.29 2.37.77l4.78.63 17.83.34 3.64-.1q1.3-.25 2.13.19.49.26.32.79-.33 1.1.55 1.25l-5.63.15-24.1-.28q-.05-.78-.74-1.11c-.93-.44-1.33-.77-1.54-1.69q-.11-.5.39-.62.37-.09.5-.07.26.05.01.13-.34.11-.51-.38z" class="K"/><path d="M93.14 94.1q-.27.99-.67 1.4-3.7 3.75-7.9 6.48-.31-.75-.61-.97 4.95-3.28 8.52-7.89.31-.42.44.09l.22.89z" class="H"/><path d="M48.04 93.08q2.68-.33 4.78.63l-4.78-.63z" class="E"/><path fill="#e6c7a1" d="M34.25 94.48q.41.59-.3.74-.42.1-.82-.35-.48-.54-.17-1.1a.45.44-48.3 0 1 .76-.05l.53.76z"/><path d="M90 93.92q-2.69 3.86-6.69 5.97l-.07-.53L90 93.92z" class="D"/><path d="M37.12 98.47l1.65 2.44-4.81-4.56q-.16-.16.05-.25.1-.05.27 0 .08.03.18.11 1.28 1.2 2.66 2.26z" class="E"/><path d="M47.56 96.05l24.1.28q6.22 1.75 3.11 4.08-1.77.82-4.78.37l-3.52-.18q-7.41-.7-15.31.69-3.88-.11-4.79-4.55-.2-.98 1.19-.69z" class="G"/><path d="M77.29 96.18q.27-.02.6.32l.06 1.71q-.74-.03-1.04.73-.38.92-.48 1.06-.83 1.08-1.66.41 3.11-2.33-3.11-4.08l5.63-.15z" class="AX"/><path d="M78.49 96.24l.79 4.22-.48 3.57a.53.51-83.6 0 0 .46.59q.59.06.84-.17.23-.22.12-.94-.17-1.02.47-1.16.93.76 3.27-1.34.3.22.61.97-1.63 1.01-1.85 2.37-2.6 1.91-6.11 2.59-.95.19-.12-.3l1.29-.76a.74.73 70.7 0 0 .35-.74l-.32-2.12q1.13-1.96.14-4.81l-.06-1.71q.15.36.6-.26z" class="K"/><path d="M37.55 96.96l4.93 3.7q3.7 2.4 2.16 3.21l-6.8-5.72q-1.03-1.04-.29-1.19z" class="B"/><path d="M37.84 98.15l6.8 5.72q.99.45 1.27 1.49a.44.44 0 0 1-.69.47l-6.45-4.92-1.65-2.44q.19-.27.72-.32z" class="S"/><path d="M77.95 98.21q.99 2.85-.14 4.81l-7.58 1.59-6.16.14q.03-1.15.67-1.57 3.22.17 5.95-1.2a.56.56 0 0 0-.11-1.04l-.59-.16q3.01.45 4.78-.37.83.67 1.66-.41.1-.14.48-1.06.3-.76 1.04-.73z" class="Z"/><path d="M45.42 99.01q-.21.89.33 1.14a.3.3 0 0 0 .41-.19l.13-.4a.11.11 0 0 1 .22.01q.17 1.04-.32 2.2-1.03-.7-1.05-1.28l.28-1.48z" class="AZ"/><path d="M83.24 99.36l.07.53-2.62 2.46q-.64.14-.47 1.16.11.72-.12.94-.25.23-.84.17a.53.51-83.6 0 1-.46-.59l.48-3.57q.24.61.74.81.42.15.77-.11l2.45-1.8z" class="Aa"/><path d="M66.47 100.6l-3.42 1.32q-.44.17-.16.55.4.55 1.85.71-.64.42-.67 1.57l-10.75-.33q-1.23-.03-.04.28 4.93 1.3 10.23 2.24 1.81.33 7.38-1.68.72-.26-.02-.46l-.64-.19 7.58-1.59.32 2.12a.74.73 70.7 0 1-.35.74l-1.29.76q-.83.49.12.3 3.51-.68 6.11-2.59 4.16-3.37 6.9-3.42-3.23 2.43-9.37 5.83-3.34 1.84-6.29.34-.69-.34-1.13-.31-.82.07-1.11.67-4.05-.97-6.1.76-2.81.02-5.75-.04c-2.47-.05-4.58-1.45-7.39-1.12-1.84-.48-4.12-.59-5.27-2.16q-.94-1.27-.7-2.69 4.51 1.01 8.93.06.59-.13.06-.42-1.53-.84-4.34-.56 7.9-1.39 15.31-.69z" class="o"/><path d="M66.47 100.6l3.52.18.59.16a.56.56 0 0 1 .11 1.04q-2.73 1.37-5.95 1.2-1.45-.16-1.85-.71-.28-.38.16-.55l3.42-1.32z" class="Af"/><path fill="#347296" d="M25.12 101.86c1.83.94 3.23 1.41 4.59 3.16 4.36 5.63 9.61 8.72 16.93 9.28q5.97.45 11.88 1.19l.41.46q.32.35.03.74l-6.1 8.39q-19.37-2.93-34.4-17.51l1.38.75q.39.21.69-.11l3.24-3.44q.29-.3.3-.71.03-1.31 1.05-2.2z"/><path d="M64.07 104.75l6.16-.14.64.19q.74.2.02.46-5.57 2.01-7.38 1.68-5.3-.94-10.23-2.24-1.19-.31.04-.28l10.75.33z" class="M"/><path fill="#534656" d="M71.72 107.46q-2.16 2.31-6.1.76 2.05-1.73 6.1-.76z"/></svg>